M48
; DRILL file {KiCad 5.1.2-f72e74a~84~ubuntu16.04.1} date Tue May  7 21:54:57 2019
; FORMAT={3:3/ absolute / metric / suppress trailing zeros}
; #@! TF.CreationDate,2019-05-07T21:54:57+05:30
; #@! TF.GenerationSoftware,Kicad,Pcbnew,5.1.2-f72e74a~84~ubuntu16.04.1
FMAT,2
METRIC,LZ
T1C0.400
T2C0.700
T3C0.900
T4C1.000
T5C1.016
T6C1.520
T7C1.600
T8C1.850
T9C1.860
T10C2.000
T11C2.050
T12C2.850
T13C3.050
T14C4.000
T15C4.500
T16C0.100
T17C2.650
T18C3.200
%
G90
G05
T1
X05649Y-060198
X075641Y-074727
X075692Y-057404
X084633Y-0508
X096571Y-076962
X11115Y-033782
X148793Y-04826
X169469Y-050495
X170993Y-060655
X177648Y-073406
X190602Y-126086
X191008Y-121869
X200762Y-039675
X205384Y-132639
X213258Y-129794
X213738Y-120701
X216103Y-100279
X217627Y-0222
X219761Y-022403
X220675Y-024689
X220828Y-021234
X22098Y-120752
X22225Y-021996
X223114Y-117856
X223926Y-025451
X224536Y-072796
X224587Y-022911
X224841Y-02159
X226212Y-086208
X227025Y-047396
X227178Y-048362
X229362Y-051934
X232105Y-051562
X235001Y-047549
X237388Y-046939
X23937Y-094539
X243078Y-115824
X247599Y-023673
X248514Y-058318
X248615Y-025197
X250444Y-065786
X253594Y-023724
X25461Y-024486
X256591Y-023673
X257505Y-043028
X258267Y-032715
X258572Y-02479
X259791Y-028651
T2
X101797Y-075939
X101797Y-077889
X057352Y-032772
X059302Y-032772
X083412Y-032722
X085362Y-032722
X168756Y-033382
X170706Y-033382
X142544Y-032468
X144494Y-032468
X101492Y-049015
X101492Y-050965
X186734Y-075431
X186734Y-077381
X186379Y-050082
X186379Y-052032
T3
X211582Y-13335
X214122Y-13335
X101448Y-031598
X101448Y-034138
X223977Y-13335
X226517Y-13335
X124104Y-033426
X126644Y-033426
X126136Y-092151
X126136Y-094691
X100889Y-092456
X100889Y-094996
X040691Y-091237
X040691Y-093777
X039776Y-031902
X039776Y-034442
X251577Y-120184
X254117Y-120184
X218288Y-063144
X220828Y-063144
X221437Y-108458
X223977Y-108458
X18669Y-032055
X18669Y-034595
X18476Y-09459
X1873Y-09459
X209804Y-108458
X212344Y-108458
T4
X189382Y-115214
X193326Y-11618
X209366Y-059316
X211938Y-079959
X237693Y-08575
X237693Y-09875
X240233Y-08575
X240233Y-09875
X242773Y-08575
X242773Y-09875
X245313Y-08575
X245313Y-09875
X247853Y-08575
X247853Y-09875
X250393Y-08575
X250393Y-09875
T5
X206756Y-035662
X206756Y-038202
X206756Y-040742
X206756Y-043282
X206756Y-045822
X206756Y-048362
X206756Y-050902
X206756Y-053442
X206756Y-058522
X206756Y-061062
X206756Y-063602
X206756Y-066142
X206756Y-068682
X206756Y-071222
X206756Y-073762
X206756Y-076302
X206756Y-081382
X206756Y-083922
X206756Y-086462
X206756Y-089002
X206756Y-091542
X206756Y-094082
X206756Y-096622
X206756Y-099162
X211836Y-030582
X211836Y-033122
X214376Y-030582
X214376Y-033122
X216916Y-030582
X216916Y-033122
X219456Y-030582
X219456Y-033122
X221996Y-030582
X221996Y-033122
X224536Y-030582
X224536Y-033122
X227076Y-030582
X227076Y-033122
X229616Y-030582
X229616Y-033122
X229616Y-060935
X229616Y-063475
X232156Y-030582
X232156Y-033122
X232156Y-060935
X232156Y-063475
X234696Y-030582
X234696Y-033122
X234696Y-060935
X234696Y-063475
X237236Y-030582
X237236Y-033122
X239776Y-030582
X239776Y-033122
X242316Y-030582
X242316Y-033122
X244856Y-030582
X244856Y-033122
X247396Y-030582
X247396Y-033122
X249936Y-030582
X249936Y-033122
X252476Y-030582
X252476Y-033122
X255016Y-030582
X255016Y-033122
X255016Y-040742
X255016Y-043282
X255016Y-045822
X255016Y-048362
X255016Y-050902
X255016Y-053442
X255016Y-055982
X255016Y-058522
X255016Y-063602
X255016Y-066142
X255016Y-068682
X255016Y-071222
X255016Y-073762
X255016Y-076302
X255016Y-078842
X255016Y-081382
X255016Y-085446
X255016Y-087986
X255016Y-090526
X255016Y-093066
X255016Y-095606
X255016Y-098146
X255016Y-100686
X255016Y-103226
X255016Y-105766
X255016Y-108306
T6
X198984Y-048006
X198984Y-053086
X198984Y-058166
X198984Y-063246
X198171Y-082144
X198171Y-087224
X198171Y-092304
X198171Y-097384
T7
X136048Y-118232
X136048Y-120732
X139548Y-118232
X139548Y-120732
X144628Y-118232
X144628Y-120732
X148128Y-118232
X148128Y-120732
T8
X185318Y-123393
X185318Y-129743
X185318Y-136093
T9
X089052Y-118364
X089052Y-124714
X089052Y-131064
X089052Y-137414
X095402Y-118364
X095402Y-124714
X095402Y-131064
X095402Y-137414
X101752Y-118364
X101752Y-124714
X101752Y-131064
X101752Y-137414
X040589Y-118466
X040589Y-124816
X040589Y-131166
X040589Y-137516
X046939Y-118466
X046939Y-124816
X046939Y-131166
X046939Y-137516
X053289Y-118466
X053289Y-124816
X053289Y-131166
X053289Y-137516
T10
X07112Y-063906
X08448Y-059334
X140767Y-062535
X148895Y-066345
X240081Y-116535
X240081Y-127965
T11
X16637Y-135636
X17272Y-135636
X166268Y-125476
X172618Y-125476
T12
X135716Y-12961
X135716Y-13401
X145716Y-12961
X145716Y-13401
T13
X129986Y-13366
X151446Y-13366
T14
X136184Y-090748
X143184Y-090748
X150184Y-090748
X043212Y-042655
X043212Y-049655
X043212Y-056655
X128454Y-069071
X128454Y-076071
X128454Y-083071
X128099Y-043722
X128099Y-050722
X128099Y-057722
X043517Y-069579
X043517Y-076579
X043517Y-083579
X050992Y-091052
X057992Y-091052
X064992Y-091052
X077052Y-091002
X084052Y-091002
X091052Y-091002
X162396Y-091662
X169396Y-091662
X176396Y-091662
T15
X161796Y-035362
X176796Y-035362
X135584Y-034448
X150584Y-034448
X099512Y-042055
X099512Y-057055
X184754Y-068471
X184754Y-083471
X184399Y-043122
X184399Y-058122
X099817Y-068979
X099817Y-083979
X050392Y-034752
X065392Y-034752
X076452Y-034702
X091452Y-034702
T16
X206756Y-113132
X215836Y-061062
X255016Y-036932
T17
X142088Y-119527
T18
X256946Y-13716
X025502Y-024079
X025603Y-13716
X206756Y-030582
X239776Y-061062
X255016Y-111862
X115418Y-027584
X078029Y-13716
T0
M30
