G04 #@! TF.GenerationSoftware,KiCad,Pcbnew,5.1.2-f72e74a~84~ubuntu16.04.1*
G04 #@! TF.CreationDate,2019-05-07T21:52:54+05:30*
G04 #@! TF.ProjectId,MasterPcb,4d617374-6572-4506-9362-2e6b69636164,rev?*
G04 #@! TF.SameCoordinates,Original*
G04 #@! TF.FileFunction,Legend,Top*
G04 #@! TF.FilePolarity,Positive*
%FSLAX46Y46*%
G04 Gerber Fmt 4.6, Leading zero omitted, Abs format (unit mm)*
G04 Created by KiCad (PCBNEW 5.1.2-f72e74a~84~ubuntu16.04.1) date 2019-05-07 21:52:54*
%MOMM*%
%LPD*%
G04 APERTURE LIST*
%ADD10C,0.150000*%
%ADD11C,0.300000*%
%ADD12C,0.170000*%
%ADD13C,0.200000*%
%ADD14C,0.250000*%
%ADD15C,0.010000*%
%ADD16C,0.120000*%
%ADD17C,0.127000*%
%ADD18C,0.100000*%
%ADD19C,0.254000*%
%ADD20C,0.050000*%
G04 APERTURE END LIST*
D10*
X225929047Y-108671428D02*
X226690952Y-108671428D01*
X226310000Y-109052380D02*
X226310000Y-108290476D01*
X214399047Y-108771428D02*
X215160952Y-108771428D01*
X214780000Y-109152380D02*
X214780000Y-108390476D01*
X226139047Y-135881428D02*
X226900952Y-135881428D01*
X226520000Y-136262380D02*
X226520000Y-135500476D01*
X213789047Y-135901428D02*
X214550952Y-135901428D01*
X214170000Y-136282380D02*
X214170000Y-135520476D01*
X251459047Y-123041428D02*
X252220952Y-123041428D01*
X251840000Y-123422380D02*
X251840000Y-122660476D01*
X217719047Y-65651428D02*
X218480952Y-65651428D01*
X218100000Y-66032380D02*
X218100000Y-65270476D01*
X189319047Y-34631428D02*
X190080952Y-34631428D01*
X189700000Y-35012380D02*
X189700000Y-34250476D01*
X184019047Y-91821428D02*
X184780952Y-91821428D01*
X184400000Y-92202380D02*
X184400000Y-91440476D01*
X128489047Y-92131428D02*
X129250952Y-92131428D01*
X128870000Y-92512380D02*
X128870000Y-91750476D01*
X123799047Y-35841428D02*
X124560952Y-35841428D01*
X124180000Y-36222380D02*
X124180000Y-35460476D01*
X104159047Y-34131428D02*
X104920952Y-34131428D01*
X104540000Y-34512380D02*
X104540000Y-33750476D01*
X42259047Y-34761428D02*
X43020952Y-34761428D01*
X42640000Y-35142380D02*
X42640000Y-34380476D01*
X43139047Y-91171428D02*
X43900952Y-91171428D01*
X43520000Y-91552380D02*
X43520000Y-90790476D01*
X103209047Y-92391428D02*
X103970952Y-92391428D01*
X103590000Y-92772380D02*
X103590000Y-92010476D01*
X180132380Y-124729523D02*
X180132380Y-124539047D01*
X180180000Y-124443809D01*
X180275238Y-124348571D01*
X180465714Y-124300952D01*
X180799047Y-124300952D01*
X180989523Y-124348571D01*
X181084761Y-124443809D01*
X181132380Y-124539047D01*
X181132380Y-124729523D01*
X181084761Y-124824761D01*
X180989523Y-124920000D01*
X180799047Y-124967619D01*
X180465714Y-124967619D01*
X180275238Y-124920000D01*
X180180000Y-124824761D01*
X180132380Y-124729523D01*
X180465714Y-123443809D02*
X181132380Y-123443809D01*
X180465714Y-123872380D02*
X180989523Y-123872380D01*
X181084761Y-123824761D01*
X181132380Y-123729523D01*
X181132380Y-123586666D01*
X181084761Y-123491428D01*
X181037142Y-123443809D01*
X180465714Y-123110476D02*
X180465714Y-122729523D01*
X180132380Y-122967619D02*
X180989523Y-122967619D01*
X181084761Y-122920000D01*
X181132380Y-122824761D01*
X181132380Y-122729523D01*
X180227619Y-122443809D02*
X180180000Y-122396190D01*
X180132380Y-122300952D01*
X180132380Y-122062857D01*
X180180000Y-121967619D01*
X180227619Y-121920000D01*
X180322857Y-121872380D01*
X180418095Y-121872380D01*
X180560952Y-121920000D01*
X181132380Y-122491428D01*
X181132380Y-121872380D01*
X180282380Y-131129523D02*
X180282380Y-130939047D01*
X180330000Y-130843809D01*
X180425238Y-130748571D01*
X180615714Y-130700952D01*
X180949047Y-130700952D01*
X181139523Y-130748571D01*
X181234761Y-130843809D01*
X181282380Y-130939047D01*
X181282380Y-131129523D01*
X181234761Y-131224761D01*
X181139523Y-131320000D01*
X180949047Y-131367619D01*
X180615714Y-131367619D01*
X180425238Y-131320000D01*
X180330000Y-131224761D01*
X180282380Y-131129523D01*
X180615714Y-129843809D02*
X181282380Y-129843809D01*
X180615714Y-130272380D02*
X181139523Y-130272380D01*
X181234761Y-130224761D01*
X181282380Y-130129523D01*
X181282380Y-129986666D01*
X181234761Y-129891428D01*
X181187142Y-129843809D01*
X180615714Y-129510476D02*
X180615714Y-129129523D01*
X180282380Y-129367619D02*
X181139523Y-129367619D01*
X181234761Y-129320000D01*
X181282380Y-129224761D01*
X181282380Y-129129523D01*
X181282380Y-128272380D02*
X181282380Y-128843809D01*
X181282380Y-128558095D02*
X180282380Y-128558095D01*
X180425238Y-128653333D01*
X180520476Y-128748571D01*
X180568095Y-128843809D01*
X180570000Y-137141904D02*
X180522380Y-137237142D01*
X180522380Y-137380000D01*
X180570000Y-137522857D01*
X180665238Y-137618095D01*
X180760476Y-137665714D01*
X180950952Y-137713333D01*
X181093809Y-137713333D01*
X181284285Y-137665714D01*
X181379523Y-137618095D01*
X181474761Y-137522857D01*
X181522380Y-137380000D01*
X181522380Y-137284761D01*
X181474761Y-137141904D01*
X181427142Y-137094285D01*
X181093809Y-137094285D01*
X181093809Y-137284761D01*
X181522380Y-136665714D02*
X180522380Y-136665714D01*
X181522380Y-136094285D01*
X180522380Y-136094285D01*
X181522380Y-135618095D02*
X180522380Y-135618095D01*
X180522380Y-135380000D01*
X180570000Y-135237142D01*
X180665238Y-135141904D01*
X180760476Y-135094285D01*
X180950952Y-135046666D01*
X181093809Y-135046666D01*
X181284285Y-135094285D01*
X181379523Y-135141904D01*
X181474761Y-135237142D01*
X181522380Y-135380000D01*
X181522380Y-135618095D01*
X169157619Y-131252380D02*
X169157619Y-130252380D01*
X169395714Y-130252380D01*
X169538571Y-130300000D01*
X169633809Y-130395238D01*
X169681428Y-130490476D01*
X169729047Y-130680952D01*
X169729047Y-130823809D01*
X169681428Y-131014285D01*
X169633809Y-131109523D01*
X169538571Y-131204761D01*
X169395714Y-131252380D01*
X169157619Y-131252380D01*
X170062380Y-130585714D02*
X170300476Y-131252380D01*
X170538571Y-130585714D01*
X171062380Y-131252380D02*
X170967142Y-131204761D01*
X170919523Y-131109523D01*
X170919523Y-130252380D01*
X171205238Y-131347619D02*
X171967142Y-131347619D01*
X172205238Y-130585714D02*
X172205238Y-131585714D01*
X172205238Y-130633333D02*
X172300476Y-130585714D01*
X172490952Y-130585714D01*
X172586190Y-130633333D01*
X172633809Y-130680952D01*
X172681428Y-130776190D01*
X172681428Y-131061904D01*
X172633809Y-131157142D01*
X172586190Y-131204761D01*
X172490952Y-131252380D01*
X172300476Y-131252380D01*
X172205238Y-131204761D01*
X173252857Y-131252380D02*
X173157619Y-131204761D01*
X173110000Y-131157142D01*
X173062380Y-131061904D01*
X173062380Y-130776190D01*
X173110000Y-130680952D01*
X173157619Y-130633333D01*
X173252857Y-130585714D01*
X173395714Y-130585714D01*
X173490952Y-130633333D01*
X173538571Y-130680952D01*
X173586190Y-130776190D01*
X173586190Y-131061904D01*
X173538571Y-131157142D01*
X173490952Y-131204761D01*
X173395714Y-131252380D01*
X173252857Y-131252380D01*
X173919523Y-130585714D02*
X174110000Y-131252380D01*
X174300476Y-130776190D01*
X174490952Y-131252380D01*
X174681428Y-130585714D01*
X175443333Y-131204761D02*
X175348095Y-131252380D01*
X175157619Y-131252380D01*
X175062380Y-131204761D01*
X175014761Y-131109523D01*
X175014761Y-130728571D01*
X175062380Y-130633333D01*
X175157619Y-130585714D01*
X175348095Y-130585714D01*
X175443333Y-130633333D01*
X175490952Y-130728571D01*
X175490952Y-130823809D01*
X175014761Y-130919047D01*
X175919523Y-131252380D02*
X175919523Y-130585714D01*
X175919523Y-130776190D02*
X175967142Y-130680952D01*
X176014761Y-130633333D01*
X176110000Y-130585714D01*
X176205238Y-130585714D01*
X170350000Y-119982380D02*
X170683333Y-120982380D01*
X171016666Y-119982380D01*
X171683333Y-120458571D02*
X171826190Y-120506190D01*
X171873809Y-120553809D01*
X171921428Y-120649047D01*
X171921428Y-120791904D01*
X171873809Y-120887142D01*
X171826190Y-120934761D01*
X171730952Y-120982380D01*
X171350000Y-120982380D01*
X171350000Y-119982380D01*
X171683333Y-119982380D01*
X171778571Y-120030000D01*
X171826190Y-120077619D01*
X171873809Y-120172857D01*
X171873809Y-120268095D01*
X171826190Y-120363333D01*
X171778571Y-120410952D01*
X171683333Y-120458571D01*
X171350000Y-120458571D01*
X172302380Y-120696666D02*
X172778571Y-120696666D01*
X172207142Y-120982380D02*
X172540476Y-119982380D01*
X172873809Y-120982380D01*
X173064285Y-119982380D02*
X173635714Y-119982380D01*
X173350000Y-120982380D02*
X173350000Y-119982380D01*
X173826190Y-119982380D02*
X174397619Y-119982380D01*
X174111904Y-120982380D02*
X174111904Y-119982380D01*
X174683333Y-120077619D02*
X174730952Y-120030000D01*
X174826190Y-119982380D01*
X175064285Y-119982380D01*
X175159523Y-120030000D01*
X175207142Y-120077619D01*
X175254761Y-120172857D01*
X175254761Y-120268095D01*
X175207142Y-120410952D01*
X174635714Y-120982380D01*
X175254761Y-120982380D01*
X165058095Y-130265000D02*
X164962857Y-130217380D01*
X164820000Y-130217380D01*
X164677142Y-130265000D01*
X164581904Y-130360238D01*
X164534285Y-130455476D01*
X164486666Y-130645952D01*
X164486666Y-130788809D01*
X164534285Y-130979285D01*
X164581904Y-131074523D01*
X164677142Y-131169761D01*
X164820000Y-131217380D01*
X164915238Y-131217380D01*
X165058095Y-131169761D01*
X165105714Y-131122142D01*
X165105714Y-130788809D01*
X164915238Y-130788809D01*
X165534285Y-131217380D02*
X165534285Y-130217380D01*
X166105714Y-131217380D01*
X166105714Y-130217380D01*
X166581904Y-131217380D02*
X166581904Y-130217380D01*
X166820000Y-130217380D01*
X166962857Y-130265000D01*
X167058095Y-130360238D01*
X167105714Y-130455476D01*
X167153333Y-130645952D01*
X167153333Y-130788809D01*
X167105714Y-130979285D01*
X167058095Y-131074523D01*
X166962857Y-131169761D01*
X166820000Y-131217380D01*
X166581904Y-131217380D01*
X165138095Y-120110000D02*
X165042857Y-120062380D01*
X164900000Y-120062380D01*
X164757142Y-120110000D01*
X164661904Y-120205238D01*
X164614285Y-120300476D01*
X164566666Y-120490952D01*
X164566666Y-120633809D01*
X164614285Y-120824285D01*
X164661904Y-120919523D01*
X164757142Y-121014761D01*
X164900000Y-121062380D01*
X164995238Y-121062380D01*
X165138095Y-121014761D01*
X165185714Y-120967142D01*
X165185714Y-120633809D01*
X164995238Y-120633809D01*
X165614285Y-121062380D02*
X165614285Y-120062380D01*
X166185714Y-121062380D01*
X166185714Y-120062380D01*
X166661904Y-121062380D02*
X166661904Y-120062380D01*
X166900000Y-120062380D01*
X167042857Y-120110000D01*
X167138095Y-120205238D01*
X167185714Y-120300476D01*
X167233333Y-120490952D01*
X167233333Y-120633809D01*
X167185714Y-120824285D01*
X167138095Y-120919523D01*
X167042857Y-121014761D01*
X166900000Y-121062380D01*
X166661904Y-121062380D01*
X136636190Y-123842380D02*
X136969523Y-124842380D01*
X137302857Y-123842380D01*
X137636190Y-124842380D02*
X137636190Y-124175714D01*
X137636190Y-123842380D02*
X137588571Y-123890000D01*
X137636190Y-123937619D01*
X137683809Y-123890000D01*
X137636190Y-123842380D01*
X137636190Y-123937619D01*
X138112380Y-124175714D02*
X138112380Y-124842380D01*
X138112380Y-124270952D02*
X138160000Y-124223333D01*
X138255238Y-124175714D01*
X138398095Y-124175714D01*
X138493333Y-124223333D01*
X138540952Y-124318571D01*
X138540952Y-124842380D01*
X144834285Y-123662380D02*
X145167619Y-124662380D01*
X145500952Y-123662380D01*
X145834285Y-124662380D02*
X145834285Y-123662380D01*
X145834285Y-124043333D02*
X145929523Y-123995714D01*
X146120000Y-123995714D01*
X146215238Y-124043333D01*
X146262857Y-124090952D01*
X146310476Y-124186190D01*
X146310476Y-124471904D01*
X146262857Y-124567142D01*
X146215238Y-124614761D01*
X146120000Y-124662380D01*
X145929523Y-124662380D01*
X145834285Y-124614761D01*
X147167619Y-124662380D02*
X147167619Y-124138571D01*
X147120000Y-124043333D01*
X147024761Y-123995714D01*
X146834285Y-123995714D01*
X146739047Y-124043333D01*
X147167619Y-124614761D02*
X147072380Y-124662380D01*
X146834285Y-124662380D01*
X146739047Y-124614761D01*
X146691428Y-124519523D01*
X146691428Y-124424285D01*
X146739047Y-124329047D01*
X146834285Y-124281428D01*
X147072380Y-124281428D01*
X147167619Y-124233809D01*
X147500952Y-123995714D02*
X147881904Y-123995714D01*
X147643809Y-123662380D02*
X147643809Y-124519523D01*
X147691428Y-124614761D01*
X147786666Y-124662380D01*
X147881904Y-124662380D01*
X148072380Y-123995714D02*
X148453333Y-123995714D01*
X148215238Y-123662380D02*
X148215238Y-124519523D01*
X148262857Y-124614761D01*
X148358095Y-124662380D01*
X148453333Y-124662380D01*
X149310476Y-124662380D02*
X148739047Y-124662380D01*
X149024761Y-124662380D02*
X149024761Y-123662380D01*
X148929523Y-123805238D01*
X148834285Y-123900476D01*
X148739047Y-123948095D01*
X151880952Y-138050714D02*
X151880952Y-136622142D01*
X149214285Y-138367380D02*
X149547619Y-139367380D01*
X149880952Y-138367380D01*
X150214285Y-139367380D02*
X150214285Y-138367380D01*
X150214285Y-138748333D02*
X150309523Y-138700714D01*
X150500000Y-138700714D01*
X150595238Y-138748333D01*
X150642857Y-138795952D01*
X150690476Y-138891190D01*
X150690476Y-139176904D01*
X150642857Y-139272142D01*
X150595238Y-139319761D01*
X150500000Y-139367380D01*
X150309523Y-139367380D01*
X150214285Y-139319761D01*
X151547619Y-139367380D02*
X151547619Y-138843571D01*
X151500000Y-138748333D01*
X151404761Y-138700714D01*
X151214285Y-138700714D01*
X151119047Y-138748333D01*
X151547619Y-139319761D02*
X151452380Y-139367380D01*
X151214285Y-139367380D01*
X151119047Y-139319761D01*
X151071428Y-139224523D01*
X151071428Y-139129285D01*
X151119047Y-139034047D01*
X151214285Y-138986428D01*
X151452380Y-138986428D01*
X151547619Y-138938809D01*
X151880952Y-138700714D02*
X152261904Y-138700714D01*
X152023809Y-138367380D02*
X152023809Y-139224523D01*
X152071428Y-139319761D01*
X152166666Y-139367380D01*
X152261904Y-139367380D01*
X152452380Y-138700714D02*
X152833333Y-138700714D01*
X152595238Y-138367380D02*
X152595238Y-139224523D01*
X152642857Y-139319761D01*
X152738095Y-139367380D01*
X152833333Y-139367380D01*
X153690476Y-139367380D02*
X153119047Y-139367380D01*
X153404761Y-139367380D02*
X153404761Y-138367380D01*
X153309523Y-138510238D01*
X153214285Y-138605476D01*
X153119047Y-138653095D01*
X123180000Y-133085000D02*
X123084761Y-133037380D01*
X122941904Y-133037380D01*
X122799047Y-133085000D01*
X122703809Y-133180238D01*
X122656190Y-133275476D01*
X122608571Y-133465952D01*
X122608571Y-133608809D01*
X122656190Y-133799285D01*
X122703809Y-133894523D01*
X122799047Y-133989761D01*
X122941904Y-134037380D01*
X123037142Y-134037380D01*
X123180000Y-133989761D01*
X123227619Y-133942142D01*
X123227619Y-133608809D01*
X123037142Y-133608809D01*
X123656190Y-134037380D02*
X123656190Y-133037380D01*
X124227619Y-134037380D01*
X124227619Y-133037380D01*
X124703809Y-134037380D02*
X124703809Y-133037380D01*
X124941904Y-133037380D01*
X125084761Y-133085000D01*
X125180000Y-133180238D01*
X125227619Y-133275476D01*
X125275238Y-133465952D01*
X125275238Y-133608809D01*
X125227619Y-133799285D01*
X125180000Y-133894523D01*
X125084761Y-133989761D01*
X124941904Y-134037380D01*
X124703809Y-134037380D01*
X125703809Y-133656428D02*
X126465714Y-133656428D01*
X126941904Y-133656428D02*
X127703809Y-133656428D01*
X82065238Y-137112380D02*
X82303333Y-138112380D01*
X82493809Y-137398095D01*
X82684285Y-138112380D01*
X82922380Y-137112380D01*
X83731904Y-137445714D02*
X83731904Y-138112380D01*
X83493809Y-137064761D02*
X83255714Y-137779047D01*
X83874761Y-137779047D01*
X80425238Y-130962380D02*
X80663333Y-131962380D01*
X80853809Y-131248095D01*
X81044285Y-131962380D01*
X81282380Y-130962380D01*
X81568095Y-130962380D02*
X82187142Y-130962380D01*
X81853809Y-131343333D01*
X81996666Y-131343333D01*
X82091904Y-131390952D01*
X82139523Y-131438571D01*
X82187142Y-131533809D01*
X82187142Y-131771904D01*
X82139523Y-131867142D01*
X82091904Y-131914761D01*
X81996666Y-131962380D01*
X81710952Y-131962380D01*
X81615714Y-131914761D01*
X81568095Y-131867142D01*
X80555238Y-124272380D02*
X80793333Y-125272380D01*
X80983809Y-124558095D01*
X81174285Y-125272380D01*
X81412380Y-124272380D01*
X81745714Y-124367619D02*
X81793333Y-124320000D01*
X81888571Y-124272380D01*
X82126666Y-124272380D01*
X82221904Y-124320000D01*
X82269523Y-124367619D01*
X82317142Y-124462857D01*
X82317142Y-124558095D01*
X82269523Y-124700952D01*
X81698095Y-125272380D01*
X82317142Y-125272380D01*
X80965238Y-117982380D02*
X81203333Y-118982380D01*
X81393809Y-118268095D01*
X81584285Y-118982380D01*
X81822380Y-117982380D01*
X82727142Y-118982380D02*
X82155714Y-118982380D01*
X82441428Y-118982380D02*
X82441428Y-117982380D01*
X82346190Y-118125238D01*
X82250952Y-118220476D01*
X82155714Y-118268095D01*
X108535238Y-137458571D02*
X108678095Y-137506190D01*
X108725714Y-137553809D01*
X108773333Y-137649047D01*
X108773333Y-137791904D01*
X108725714Y-137887142D01*
X108678095Y-137934761D01*
X108582857Y-137982380D01*
X108201904Y-137982380D01*
X108201904Y-136982380D01*
X108535238Y-136982380D01*
X108630476Y-137030000D01*
X108678095Y-137077619D01*
X108725714Y-137172857D01*
X108725714Y-137268095D01*
X108678095Y-137363333D01*
X108630476Y-137410952D01*
X108535238Y-137458571D01*
X108201904Y-137458571D01*
X109630476Y-137315714D02*
X109630476Y-137982380D01*
X109392380Y-136934761D02*
X109154285Y-137649047D01*
X109773333Y-137649047D01*
X108665238Y-131168571D02*
X108808095Y-131216190D01*
X108855714Y-131263809D01*
X108903333Y-131359047D01*
X108903333Y-131501904D01*
X108855714Y-131597142D01*
X108808095Y-131644761D01*
X108712857Y-131692380D01*
X108331904Y-131692380D01*
X108331904Y-130692380D01*
X108665238Y-130692380D01*
X108760476Y-130740000D01*
X108808095Y-130787619D01*
X108855714Y-130882857D01*
X108855714Y-130978095D01*
X108808095Y-131073333D01*
X108760476Y-131120952D01*
X108665238Y-131168571D01*
X108331904Y-131168571D01*
X109236666Y-130692380D02*
X109855714Y-130692380D01*
X109522380Y-131073333D01*
X109665238Y-131073333D01*
X109760476Y-131120952D01*
X109808095Y-131168571D01*
X109855714Y-131263809D01*
X109855714Y-131501904D01*
X109808095Y-131597142D01*
X109760476Y-131644761D01*
X109665238Y-131692380D01*
X109379523Y-131692380D01*
X109284285Y-131644761D01*
X109236666Y-131597142D01*
X108535238Y-124608571D02*
X108678095Y-124656190D01*
X108725714Y-124703809D01*
X108773333Y-124799047D01*
X108773333Y-124941904D01*
X108725714Y-125037142D01*
X108678095Y-125084761D01*
X108582857Y-125132380D01*
X108201904Y-125132380D01*
X108201904Y-124132380D01*
X108535238Y-124132380D01*
X108630476Y-124180000D01*
X108678095Y-124227619D01*
X108725714Y-124322857D01*
X108725714Y-124418095D01*
X108678095Y-124513333D01*
X108630476Y-124560952D01*
X108535238Y-124608571D01*
X108201904Y-124608571D01*
X109154285Y-124227619D02*
X109201904Y-124180000D01*
X109297142Y-124132380D01*
X109535238Y-124132380D01*
X109630476Y-124180000D01*
X109678095Y-124227619D01*
X109725714Y-124322857D01*
X109725714Y-124418095D01*
X109678095Y-124560952D01*
X109106666Y-125132380D01*
X109725714Y-125132380D01*
X108535238Y-117778571D02*
X108678095Y-117826190D01*
X108725714Y-117873809D01*
X108773333Y-117969047D01*
X108773333Y-118111904D01*
X108725714Y-118207142D01*
X108678095Y-118254761D01*
X108582857Y-118302380D01*
X108201904Y-118302380D01*
X108201904Y-117302380D01*
X108535238Y-117302380D01*
X108630476Y-117350000D01*
X108678095Y-117397619D01*
X108725714Y-117492857D01*
X108725714Y-117588095D01*
X108678095Y-117683333D01*
X108630476Y-117730952D01*
X108535238Y-117778571D01*
X108201904Y-117778571D01*
X109725714Y-118302380D02*
X109154285Y-118302380D01*
X109440000Y-118302380D02*
X109440000Y-117302380D01*
X109344761Y-117445238D01*
X109249523Y-117540476D01*
X109154285Y-117588095D01*
X31625238Y-136982380D02*
X31863333Y-137982380D01*
X32053809Y-137268095D01*
X32244285Y-137982380D01*
X32482380Y-136982380D01*
X33006190Y-137410952D02*
X32910952Y-137363333D01*
X32863333Y-137315714D01*
X32815714Y-137220476D01*
X32815714Y-137172857D01*
X32863333Y-137077619D01*
X32910952Y-137030000D01*
X33006190Y-136982380D01*
X33196666Y-136982380D01*
X33291904Y-137030000D01*
X33339523Y-137077619D01*
X33387142Y-137172857D01*
X33387142Y-137220476D01*
X33339523Y-137315714D01*
X33291904Y-137363333D01*
X33196666Y-137410952D01*
X33006190Y-137410952D01*
X32910952Y-137458571D01*
X32863333Y-137506190D01*
X32815714Y-137601428D01*
X32815714Y-137791904D01*
X32863333Y-137887142D01*
X32910952Y-137934761D01*
X33006190Y-137982380D01*
X33196666Y-137982380D01*
X33291904Y-137934761D01*
X33339523Y-137887142D01*
X33387142Y-137791904D01*
X33387142Y-137601428D01*
X33339523Y-137506190D01*
X33291904Y-137458571D01*
X33196666Y-137410952D01*
X31625238Y-130962380D02*
X31863333Y-131962380D01*
X32053809Y-131248095D01*
X32244285Y-131962380D01*
X32482380Y-130962380D01*
X32768095Y-130962380D02*
X33434761Y-130962380D01*
X33006190Y-131962380D01*
X31709047Y-124317380D02*
X31947142Y-125317380D01*
X32137619Y-124603095D01*
X32328095Y-125317380D01*
X32566190Y-124317380D01*
X33375714Y-124317380D02*
X33185238Y-124317380D01*
X33090000Y-124365000D01*
X33042380Y-124412619D01*
X32947142Y-124555476D01*
X32899523Y-124745952D01*
X32899523Y-125126904D01*
X32947142Y-125222142D01*
X32994761Y-125269761D01*
X33090000Y-125317380D01*
X33280476Y-125317380D01*
X33375714Y-125269761D01*
X33423333Y-125222142D01*
X33470952Y-125126904D01*
X33470952Y-124888809D01*
X33423333Y-124793571D01*
X33375714Y-124745952D01*
X33280476Y-124698333D01*
X33090000Y-124698333D01*
X32994761Y-124745952D01*
X32947142Y-124793571D01*
X32899523Y-124888809D01*
X33899523Y-124936428D02*
X34661428Y-124936428D01*
X35137619Y-124936428D02*
X35899523Y-124936428D01*
X36375714Y-124936428D02*
X37137619Y-124936428D01*
X37613809Y-124936428D02*
X38375714Y-124936428D01*
X31895238Y-117432380D02*
X32133333Y-118432380D01*
X32323809Y-117718095D01*
X32514285Y-118432380D01*
X32752380Y-117432380D01*
X33609523Y-117432380D02*
X33133333Y-117432380D01*
X33085714Y-117908571D01*
X33133333Y-117860952D01*
X33228571Y-117813333D01*
X33466666Y-117813333D01*
X33561904Y-117860952D01*
X33609523Y-117908571D01*
X33657142Y-118003809D01*
X33657142Y-118241904D01*
X33609523Y-118337142D01*
X33561904Y-118384761D01*
X33466666Y-118432380D01*
X33228571Y-118432380D01*
X33133333Y-118384761D01*
X33085714Y-118337142D01*
X62145238Y-118528571D02*
X62288095Y-118576190D01*
X62335714Y-118623809D01*
X62383333Y-118719047D01*
X62383333Y-118861904D01*
X62335714Y-118957142D01*
X62288095Y-119004761D01*
X62192857Y-119052380D01*
X61811904Y-119052380D01*
X61811904Y-118052380D01*
X62145238Y-118052380D01*
X62240476Y-118100000D01*
X62288095Y-118147619D01*
X62335714Y-118242857D01*
X62335714Y-118338095D01*
X62288095Y-118433333D01*
X62240476Y-118480952D01*
X62145238Y-118528571D01*
X61811904Y-118528571D01*
X63288095Y-118052380D02*
X62811904Y-118052380D01*
X62764285Y-118528571D01*
X62811904Y-118480952D01*
X62907142Y-118433333D01*
X63145238Y-118433333D01*
X63240476Y-118480952D01*
X63288095Y-118528571D01*
X63335714Y-118623809D01*
X63335714Y-118861904D01*
X63288095Y-118957142D01*
X63240476Y-119004761D01*
X63145238Y-119052380D01*
X62907142Y-119052380D01*
X62811904Y-119004761D01*
X62764285Y-118957142D01*
X62075238Y-137698571D02*
X62218095Y-137746190D01*
X62265714Y-137793809D01*
X62313333Y-137889047D01*
X62313333Y-138031904D01*
X62265714Y-138127142D01*
X62218095Y-138174761D01*
X62122857Y-138222380D01*
X61741904Y-138222380D01*
X61741904Y-137222380D01*
X62075238Y-137222380D01*
X62170476Y-137270000D01*
X62218095Y-137317619D01*
X62265714Y-137412857D01*
X62265714Y-137508095D01*
X62218095Y-137603333D01*
X62170476Y-137650952D01*
X62075238Y-137698571D01*
X61741904Y-137698571D01*
X62884761Y-137650952D02*
X62789523Y-137603333D01*
X62741904Y-137555714D01*
X62694285Y-137460476D01*
X62694285Y-137412857D01*
X62741904Y-137317619D01*
X62789523Y-137270000D01*
X62884761Y-137222380D01*
X63075238Y-137222380D01*
X63170476Y-137270000D01*
X63218095Y-137317619D01*
X63265714Y-137412857D01*
X63265714Y-137460476D01*
X63218095Y-137555714D01*
X63170476Y-137603333D01*
X63075238Y-137650952D01*
X62884761Y-137650952D01*
X62789523Y-137698571D01*
X62741904Y-137746190D01*
X62694285Y-137841428D01*
X62694285Y-138031904D01*
X62741904Y-138127142D01*
X62789523Y-138174761D01*
X62884761Y-138222380D01*
X63075238Y-138222380D01*
X63170476Y-138174761D01*
X63218095Y-138127142D01*
X63265714Y-138031904D01*
X63265714Y-137841428D01*
X63218095Y-137746190D01*
X63170476Y-137698571D01*
X63075238Y-137650952D01*
X62295238Y-131488571D02*
X62438095Y-131536190D01*
X62485714Y-131583809D01*
X62533333Y-131679047D01*
X62533333Y-131821904D01*
X62485714Y-131917142D01*
X62438095Y-131964761D01*
X62342857Y-132012380D01*
X61961904Y-132012380D01*
X61961904Y-131012380D01*
X62295238Y-131012380D01*
X62390476Y-131060000D01*
X62438095Y-131107619D01*
X62485714Y-131202857D01*
X62485714Y-131298095D01*
X62438095Y-131393333D01*
X62390476Y-131440952D01*
X62295238Y-131488571D01*
X61961904Y-131488571D01*
X62866666Y-131012380D02*
X63533333Y-131012380D01*
X63104761Y-132012380D01*
D11*
X55957142Y-125037142D02*
X57100000Y-125037142D01*
X57814285Y-125037142D02*
X58957142Y-125037142D01*
X59671428Y-125037142D02*
X60814285Y-125037142D01*
X62028571Y-124822857D02*
X62242857Y-124894285D01*
X62314285Y-124965714D01*
X62385714Y-125108571D01*
X62385714Y-125322857D01*
X62314285Y-125465714D01*
X62242857Y-125537142D01*
X62100000Y-125608571D01*
X61528571Y-125608571D01*
X61528571Y-124108571D01*
X62028571Y-124108571D01*
X62171428Y-124180000D01*
X62242857Y-124251428D01*
X62314285Y-124394285D01*
X62314285Y-124537142D01*
X62242857Y-124680000D01*
X62171428Y-124751428D01*
X62028571Y-124822857D01*
X61528571Y-124822857D01*
X63671428Y-124108571D02*
X63385714Y-124108571D01*
X63242857Y-124180000D01*
X63171428Y-124251428D01*
X63028571Y-124465714D01*
X62957142Y-124751428D01*
X62957142Y-125322857D01*
X63028571Y-125465714D01*
X63100000Y-125537142D01*
X63242857Y-125608571D01*
X63528571Y-125608571D01*
X63671428Y-125537142D01*
X63742857Y-125465714D01*
X63814285Y-125322857D01*
X63814285Y-124965714D01*
X63742857Y-124822857D01*
X63671428Y-124751428D01*
X63528571Y-124680000D01*
X63242857Y-124680000D01*
X63100000Y-124751428D01*
X63028571Y-124822857D01*
X62957142Y-124965714D01*
X183480342Y-102329371D02*
X182766057Y-102329371D01*
X182766057Y-100829371D01*
X184551771Y-102257942D02*
X184408914Y-102329371D01*
X184123200Y-102329371D01*
X183980342Y-102257942D01*
X183908914Y-102115085D01*
X183908914Y-101543657D01*
X183980342Y-101400800D01*
X184123200Y-101329371D01*
X184408914Y-101329371D01*
X184551771Y-101400800D01*
X184623200Y-101543657D01*
X184623200Y-101686514D01*
X183908914Y-101829371D01*
X185908914Y-102329371D02*
X185908914Y-100829371D01*
X185908914Y-102257942D02*
X185766057Y-102329371D01*
X185480342Y-102329371D01*
X185337485Y-102257942D01*
X185266057Y-102186514D01*
X185194628Y-102043657D01*
X185194628Y-101615085D01*
X185266057Y-101472228D01*
X185337485Y-101400800D01*
X185480342Y-101329371D01*
X185766057Y-101329371D01*
X185908914Y-101400800D01*
X186266057Y-102472228D02*
X187408914Y-102472228D01*
X188408914Y-101329371D02*
X188408914Y-102329371D01*
X188051771Y-100757942D02*
X187694628Y-101829371D01*
X188623200Y-101829371D01*
X123790342Y-101973771D02*
X123076057Y-101973771D01*
X123076057Y-100473771D01*
X124861771Y-101902342D02*
X124718914Y-101973771D01*
X124433200Y-101973771D01*
X124290342Y-101902342D01*
X124218914Y-101759485D01*
X124218914Y-101188057D01*
X124290342Y-101045200D01*
X124433200Y-100973771D01*
X124718914Y-100973771D01*
X124861771Y-101045200D01*
X124933200Y-101188057D01*
X124933200Y-101330914D01*
X124218914Y-101473771D01*
X126218914Y-101973771D02*
X126218914Y-100473771D01*
X126218914Y-101902342D02*
X126076057Y-101973771D01*
X125790342Y-101973771D01*
X125647485Y-101902342D01*
X125576057Y-101830914D01*
X125504628Y-101688057D01*
X125504628Y-101259485D01*
X125576057Y-101116628D01*
X125647485Y-101045200D01*
X125790342Y-100973771D01*
X126076057Y-100973771D01*
X126218914Y-101045200D01*
X126576057Y-102116628D02*
X127718914Y-102116628D01*
X128004628Y-100616628D02*
X128076057Y-100545200D01*
X128218914Y-100473771D01*
X128576057Y-100473771D01*
X128718914Y-100545200D01*
X128790342Y-100616628D01*
X128861771Y-100759485D01*
X128861771Y-100902342D01*
X128790342Y-101116628D01*
X127933200Y-101973771D01*
X128861771Y-101973771D01*
X122774342Y-26840571D02*
X122060057Y-26840571D01*
X122060057Y-25340571D01*
X123845771Y-26769142D02*
X123702914Y-26840571D01*
X123417200Y-26840571D01*
X123274342Y-26769142D01*
X123202914Y-26626285D01*
X123202914Y-26054857D01*
X123274342Y-25912000D01*
X123417200Y-25840571D01*
X123702914Y-25840571D01*
X123845771Y-25912000D01*
X123917200Y-26054857D01*
X123917200Y-26197714D01*
X123202914Y-26340571D01*
X125202914Y-26840571D02*
X125202914Y-25340571D01*
X125202914Y-26769142D02*
X125060057Y-26840571D01*
X124774342Y-26840571D01*
X124631485Y-26769142D01*
X124560057Y-26697714D01*
X124488628Y-26554857D01*
X124488628Y-26126285D01*
X124560057Y-25983428D01*
X124631485Y-25912000D01*
X124774342Y-25840571D01*
X125060057Y-25840571D01*
X125202914Y-25912000D01*
X125560057Y-26983428D02*
X126702914Y-26983428D01*
X126917200Y-25340571D02*
X127845771Y-25340571D01*
X127345771Y-25912000D01*
X127560057Y-25912000D01*
X127702914Y-25983428D01*
X127774342Y-26054857D01*
X127845771Y-26197714D01*
X127845771Y-26554857D01*
X127774342Y-26697714D01*
X127702914Y-26769142D01*
X127560057Y-26840571D01*
X127131485Y-26840571D01*
X126988628Y-26769142D01*
X126917200Y-26697714D01*
X184089942Y-26840571D02*
X183375657Y-26840571D01*
X183375657Y-25340571D01*
X185161371Y-26769142D02*
X185018514Y-26840571D01*
X184732800Y-26840571D01*
X184589942Y-26769142D01*
X184518514Y-26626285D01*
X184518514Y-26054857D01*
X184589942Y-25912000D01*
X184732800Y-25840571D01*
X185018514Y-25840571D01*
X185161371Y-25912000D01*
X185232800Y-26054857D01*
X185232800Y-26197714D01*
X184518514Y-26340571D01*
X186518514Y-26840571D02*
X186518514Y-25340571D01*
X186518514Y-26769142D02*
X186375657Y-26840571D01*
X186089942Y-26840571D01*
X185947085Y-26769142D01*
X185875657Y-26697714D01*
X185804228Y-26554857D01*
X185804228Y-26126285D01*
X185875657Y-25983428D01*
X185947085Y-25912000D01*
X186089942Y-25840571D01*
X186375657Y-25840571D01*
X186518514Y-25912000D01*
X186875657Y-26983428D02*
X188018514Y-26983428D01*
X189161371Y-26840571D02*
X188304228Y-26840571D01*
X188732800Y-26840571D02*
X188732800Y-25340571D01*
X188589942Y-25554857D01*
X188447085Y-25697714D01*
X188304228Y-25769142D01*
X38344742Y-100246571D02*
X37630457Y-100246571D01*
X37630457Y-98746571D01*
X39416171Y-100175142D02*
X39273314Y-100246571D01*
X38987600Y-100246571D01*
X38844742Y-100175142D01*
X38773314Y-100032285D01*
X38773314Y-99460857D01*
X38844742Y-99318000D01*
X38987600Y-99246571D01*
X39273314Y-99246571D01*
X39416171Y-99318000D01*
X39487600Y-99460857D01*
X39487600Y-99603714D01*
X38773314Y-99746571D01*
X40773314Y-100246571D02*
X40773314Y-98746571D01*
X40773314Y-100175142D02*
X40630457Y-100246571D01*
X40344742Y-100246571D01*
X40201885Y-100175142D01*
X40130457Y-100103714D01*
X40059028Y-99960857D01*
X40059028Y-99532285D01*
X40130457Y-99389428D01*
X40201885Y-99318000D01*
X40344742Y-99246571D01*
X40630457Y-99246571D01*
X40773314Y-99318000D01*
X41130457Y-100389428D02*
X42273314Y-100389428D01*
X42844742Y-99389428D02*
X42701885Y-99318000D01*
X42630457Y-99246571D01*
X42559028Y-99103714D01*
X42559028Y-99032285D01*
X42630457Y-98889428D01*
X42701885Y-98818000D01*
X42844742Y-98746571D01*
X43130457Y-98746571D01*
X43273314Y-98818000D01*
X43344742Y-98889428D01*
X43416171Y-99032285D01*
X43416171Y-99103714D01*
X43344742Y-99246571D01*
X43273314Y-99318000D01*
X43130457Y-99389428D01*
X42844742Y-99389428D01*
X42701885Y-99460857D01*
X42630457Y-99532285D01*
X42559028Y-99675142D01*
X42559028Y-99960857D01*
X42630457Y-100103714D01*
X42701885Y-100175142D01*
X42844742Y-100246571D01*
X43130457Y-100246571D01*
X43273314Y-100175142D01*
X43344742Y-100103714D01*
X43416171Y-99960857D01*
X43416171Y-99675142D01*
X43344742Y-99532285D01*
X43273314Y-99460857D01*
X43130457Y-99389428D01*
X99812742Y-101770571D02*
X99098457Y-101770571D01*
X99098457Y-100270571D01*
X100884171Y-101699142D02*
X100741314Y-101770571D01*
X100455600Y-101770571D01*
X100312742Y-101699142D01*
X100241314Y-101556285D01*
X100241314Y-100984857D01*
X100312742Y-100842000D01*
X100455600Y-100770571D01*
X100741314Y-100770571D01*
X100884171Y-100842000D01*
X100955600Y-100984857D01*
X100955600Y-101127714D01*
X100241314Y-101270571D01*
X102241314Y-101770571D02*
X102241314Y-100270571D01*
X102241314Y-101699142D02*
X102098457Y-101770571D01*
X101812742Y-101770571D01*
X101669885Y-101699142D01*
X101598457Y-101627714D01*
X101527028Y-101484857D01*
X101527028Y-101056285D01*
X101598457Y-100913428D01*
X101669885Y-100842000D01*
X101812742Y-100770571D01*
X102098457Y-100770571D01*
X102241314Y-100842000D01*
X102598457Y-101913428D02*
X103741314Y-101913428D01*
X104812742Y-100270571D02*
X104098457Y-100270571D01*
X104027028Y-100984857D01*
X104098457Y-100913428D01*
X104241314Y-100842000D01*
X104598457Y-100842000D01*
X104741314Y-100913428D01*
X104812742Y-100984857D01*
X104884171Y-101127714D01*
X104884171Y-101484857D01*
X104812742Y-101627714D01*
X104741314Y-101699142D01*
X104598457Y-101770571D01*
X104241314Y-101770571D01*
X104098457Y-101699142D01*
X104027028Y-101627714D01*
X99914342Y-26383371D02*
X99200057Y-26383371D01*
X99200057Y-24883371D01*
X100985771Y-26311942D02*
X100842914Y-26383371D01*
X100557200Y-26383371D01*
X100414342Y-26311942D01*
X100342914Y-26169085D01*
X100342914Y-25597657D01*
X100414342Y-25454800D01*
X100557200Y-25383371D01*
X100842914Y-25383371D01*
X100985771Y-25454800D01*
X101057200Y-25597657D01*
X101057200Y-25740514D01*
X100342914Y-25883371D01*
X102342914Y-26383371D02*
X102342914Y-24883371D01*
X102342914Y-26311942D02*
X102200057Y-26383371D01*
X101914342Y-26383371D01*
X101771485Y-26311942D01*
X101700057Y-26240514D01*
X101628628Y-26097657D01*
X101628628Y-25669085D01*
X101700057Y-25526228D01*
X101771485Y-25454800D01*
X101914342Y-25383371D01*
X102200057Y-25383371D01*
X102342914Y-25454800D01*
X102700057Y-26526228D02*
X103842914Y-26526228D01*
X104842914Y-24883371D02*
X104557200Y-24883371D01*
X104414342Y-24954800D01*
X104342914Y-25026228D01*
X104200057Y-25240514D01*
X104128628Y-25526228D01*
X104128628Y-26097657D01*
X104200057Y-26240514D01*
X104271485Y-26311942D01*
X104414342Y-26383371D01*
X104700057Y-26383371D01*
X104842914Y-26311942D01*
X104914342Y-26240514D01*
X104985771Y-26097657D01*
X104985771Y-25740514D01*
X104914342Y-25597657D01*
X104842914Y-25526228D01*
X104700057Y-25454800D01*
X104414342Y-25454800D01*
X104271485Y-25526228D01*
X104200057Y-25597657D01*
X104128628Y-25740514D01*
X37836742Y-26535771D02*
X37122457Y-26535771D01*
X37122457Y-25035771D01*
X38908171Y-26464342D02*
X38765314Y-26535771D01*
X38479600Y-26535771D01*
X38336742Y-26464342D01*
X38265314Y-26321485D01*
X38265314Y-25750057D01*
X38336742Y-25607200D01*
X38479600Y-25535771D01*
X38765314Y-25535771D01*
X38908171Y-25607200D01*
X38979600Y-25750057D01*
X38979600Y-25892914D01*
X38265314Y-26035771D01*
X40265314Y-26535771D02*
X40265314Y-25035771D01*
X40265314Y-26464342D02*
X40122457Y-26535771D01*
X39836742Y-26535771D01*
X39693885Y-26464342D01*
X39622457Y-26392914D01*
X39551028Y-26250057D01*
X39551028Y-25821485D01*
X39622457Y-25678628D01*
X39693885Y-25607200D01*
X39836742Y-25535771D01*
X40122457Y-25535771D01*
X40265314Y-25607200D01*
X40622457Y-26678628D02*
X41765314Y-26678628D01*
X41979600Y-25035771D02*
X42979600Y-25035771D01*
X42336742Y-26535771D01*
X87896342Y-106075942D02*
X87396342Y-106075942D01*
X87182057Y-105290228D02*
X87896342Y-105290228D01*
X87896342Y-106790228D01*
X87182057Y-106790228D01*
X86610628Y-105361657D02*
X86467771Y-105290228D01*
X86182057Y-105290228D01*
X86039200Y-105361657D01*
X85967771Y-105504514D01*
X85967771Y-105575942D01*
X86039200Y-105718800D01*
X86182057Y-105790228D01*
X86396342Y-105790228D01*
X86539200Y-105861657D01*
X86610628Y-106004514D01*
X86610628Y-106075942D01*
X86539200Y-106218800D01*
X86396342Y-106290228D01*
X86182057Y-106290228D01*
X86039200Y-106218800D01*
X84682057Y-105361657D02*
X84824914Y-105290228D01*
X85110628Y-105290228D01*
X85253485Y-105361657D01*
X85324914Y-105433085D01*
X85396342Y-105575942D01*
X85396342Y-106004514D01*
X85324914Y-106147371D01*
X85253485Y-106218800D01*
X85110628Y-106290228D01*
X84824914Y-106290228D01*
X84682057Y-106218800D01*
X84396342Y-105147371D02*
X83253485Y-105147371D01*
X82682057Y-106147371D02*
X82824914Y-106218800D01*
X82896342Y-106290228D01*
X82967771Y-106433085D01*
X82967771Y-106504514D01*
X82896342Y-106647371D01*
X82824914Y-106718800D01*
X82682057Y-106790228D01*
X82396342Y-106790228D01*
X82253485Y-106718800D01*
X82182057Y-106647371D01*
X82110628Y-106504514D01*
X82110628Y-106433085D01*
X82182057Y-106290228D01*
X82253485Y-106218800D01*
X82396342Y-106147371D01*
X82682057Y-106147371D01*
X82824914Y-106075942D01*
X82896342Y-106004514D01*
X82967771Y-105861657D01*
X82967771Y-105575942D01*
X82896342Y-105433085D01*
X82824914Y-105361657D01*
X82682057Y-105290228D01*
X82396342Y-105290228D01*
X82253485Y-105361657D01*
X82182057Y-105433085D01*
X82110628Y-105575942D01*
X82110628Y-105861657D01*
X82182057Y-106004514D01*
X82253485Y-106075942D01*
X82396342Y-106147371D01*
X60972342Y-106126742D02*
X60472342Y-106126742D01*
X60258057Y-105341028D02*
X60972342Y-105341028D01*
X60972342Y-106841028D01*
X60258057Y-106841028D01*
X59686628Y-105412457D02*
X59543771Y-105341028D01*
X59258057Y-105341028D01*
X59115200Y-105412457D01*
X59043771Y-105555314D01*
X59043771Y-105626742D01*
X59115200Y-105769600D01*
X59258057Y-105841028D01*
X59472342Y-105841028D01*
X59615200Y-105912457D01*
X59686628Y-106055314D01*
X59686628Y-106126742D01*
X59615200Y-106269600D01*
X59472342Y-106341028D01*
X59258057Y-106341028D01*
X59115200Y-106269600D01*
X57758057Y-105412457D02*
X57900914Y-105341028D01*
X58186628Y-105341028D01*
X58329485Y-105412457D01*
X58400914Y-105483885D01*
X58472342Y-105626742D01*
X58472342Y-106055314D01*
X58400914Y-106198171D01*
X58329485Y-106269600D01*
X58186628Y-106341028D01*
X57900914Y-106341028D01*
X57758057Y-106269600D01*
X57472342Y-105198171D02*
X56329485Y-105198171D01*
X56115200Y-106841028D02*
X55115200Y-106841028D01*
X55758057Y-105341028D01*
X29610857Y-52488742D02*
X29610857Y-51988742D01*
X30396571Y-51774457D02*
X30396571Y-52488742D01*
X28896571Y-52488742D01*
X28896571Y-51774457D01*
X30325142Y-51203028D02*
X30396571Y-51060171D01*
X30396571Y-50774457D01*
X30325142Y-50631600D01*
X30182285Y-50560171D01*
X30110857Y-50560171D01*
X29968000Y-50631600D01*
X29896571Y-50774457D01*
X29896571Y-50988742D01*
X29825142Y-51131600D01*
X29682285Y-51203028D01*
X29610857Y-51203028D01*
X29468000Y-51131600D01*
X29396571Y-50988742D01*
X29396571Y-50774457D01*
X29468000Y-50631600D01*
X30325142Y-49274457D02*
X30396571Y-49417314D01*
X30396571Y-49703028D01*
X30325142Y-49845885D01*
X30253714Y-49917314D01*
X30110857Y-49988742D01*
X29682285Y-49988742D01*
X29539428Y-49917314D01*
X29468000Y-49845885D01*
X29396571Y-49703028D01*
X29396571Y-49417314D01*
X29468000Y-49274457D01*
X30539428Y-48988742D02*
X30539428Y-47845885D01*
X28896571Y-46845885D02*
X28896571Y-47131600D01*
X28968000Y-47274457D01*
X29039428Y-47345885D01*
X29253714Y-47488742D01*
X29539428Y-47560171D01*
X30110857Y-47560171D01*
X30253714Y-47488742D01*
X30325142Y-47417314D01*
X30396571Y-47274457D01*
X30396571Y-46988742D01*
X30325142Y-46845885D01*
X30253714Y-46774457D01*
X30110857Y-46703028D01*
X29753714Y-46703028D01*
X29610857Y-46774457D01*
X29539428Y-46845885D01*
X29468000Y-46988742D01*
X29468000Y-47274457D01*
X29539428Y-47417314D01*
X29610857Y-47488742D01*
X29753714Y-47560171D01*
X28848857Y-79412742D02*
X28848857Y-78912742D01*
X29634571Y-78698457D02*
X29634571Y-79412742D01*
X28134571Y-79412742D01*
X28134571Y-78698457D01*
X29563142Y-78127028D02*
X29634571Y-77984171D01*
X29634571Y-77698457D01*
X29563142Y-77555600D01*
X29420285Y-77484171D01*
X29348857Y-77484171D01*
X29206000Y-77555600D01*
X29134571Y-77698457D01*
X29134571Y-77912742D01*
X29063142Y-78055600D01*
X28920285Y-78127028D01*
X28848857Y-78127028D01*
X28706000Y-78055600D01*
X28634571Y-77912742D01*
X28634571Y-77698457D01*
X28706000Y-77555600D01*
X29563142Y-76198457D02*
X29634571Y-76341314D01*
X29634571Y-76627028D01*
X29563142Y-76769885D01*
X29491714Y-76841314D01*
X29348857Y-76912742D01*
X28920285Y-76912742D01*
X28777428Y-76841314D01*
X28706000Y-76769885D01*
X28634571Y-76627028D01*
X28634571Y-76341314D01*
X28706000Y-76198457D01*
X29777428Y-75912742D02*
X29777428Y-74769885D01*
X28134571Y-73698457D02*
X28134571Y-74412742D01*
X28848857Y-74484171D01*
X28777428Y-74412742D01*
X28706000Y-74269885D01*
X28706000Y-73912742D01*
X28777428Y-73769885D01*
X28848857Y-73698457D01*
X28991714Y-73627028D01*
X29348857Y-73627028D01*
X29491714Y-73698457D01*
X29563142Y-73769885D01*
X29634571Y-73912742D01*
X29634571Y-74269885D01*
X29563142Y-74412742D01*
X29491714Y-74484171D01*
X172529142Y-106787142D02*
X172029142Y-106787142D01*
X171814857Y-106001428D02*
X172529142Y-106001428D01*
X172529142Y-107501428D01*
X171814857Y-107501428D01*
X171243428Y-106072857D02*
X171100571Y-106001428D01*
X170814857Y-106001428D01*
X170672000Y-106072857D01*
X170600571Y-106215714D01*
X170600571Y-106287142D01*
X170672000Y-106430000D01*
X170814857Y-106501428D01*
X171029142Y-106501428D01*
X171172000Y-106572857D01*
X171243428Y-106715714D01*
X171243428Y-106787142D01*
X171172000Y-106930000D01*
X171029142Y-107001428D01*
X170814857Y-107001428D01*
X170672000Y-106930000D01*
X169314857Y-106072857D02*
X169457714Y-106001428D01*
X169743428Y-106001428D01*
X169886285Y-106072857D01*
X169957714Y-106144285D01*
X170029142Y-106287142D01*
X170029142Y-106715714D01*
X169957714Y-106858571D01*
X169886285Y-106930000D01*
X169743428Y-107001428D01*
X169457714Y-107001428D01*
X169314857Y-106930000D01*
X169029142Y-105858571D02*
X167886285Y-105858571D01*
X166886285Y-107001428D02*
X166886285Y-106001428D01*
X167243428Y-107572857D02*
X167600571Y-106501428D01*
X166672000Y-106501428D01*
X145351142Y-106279142D02*
X144851142Y-106279142D01*
X144636857Y-105493428D02*
X145351142Y-105493428D01*
X145351142Y-106993428D01*
X144636857Y-106993428D01*
X144065428Y-105564857D02*
X143922571Y-105493428D01*
X143636857Y-105493428D01*
X143494000Y-105564857D01*
X143422571Y-105707714D01*
X143422571Y-105779142D01*
X143494000Y-105922000D01*
X143636857Y-105993428D01*
X143851142Y-105993428D01*
X143994000Y-106064857D01*
X144065428Y-106207714D01*
X144065428Y-106279142D01*
X143994000Y-106422000D01*
X143851142Y-106493428D01*
X143636857Y-106493428D01*
X143494000Y-106422000D01*
X142136857Y-105564857D02*
X142279714Y-105493428D01*
X142565428Y-105493428D01*
X142708285Y-105564857D01*
X142779714Y-105636285D01*
X142851142Y-105779142D01*
X142851142Y-106207714D01*
X142779714Y-106350571D01*
X142708285Y-106422000D01*
X142565428Y-106493428D01*
X142279714Y-106493428D01*
X142136857Y-106422000D01*
X141851142Y-105350571D02*
X140708285Y-105350571D01*
X140494000Y-106993428D02*
X139565428Y-106993428D01*
X140065428Y-106422000D01*
X139851142Y-106422000D01*
X139708285Y-106350571D01*
X139636857Y-106279142D01*
X139565428Y-106136285D01*
X139565428Y-105779142D01*
X139636857Y-105636285D01*
X139708285Y-105564857D01*
X139851142Y-105493428D01*
X140279714Y-105493428D01*
X140422571Y-105564857D01*
X140494000Y-105636285D01*
X117494857Y-78345942D02*
X117494857Y-77845942D01*
X118280571Y-77631657D02*
X118280571Y-78345942D01*
X116780571Y-78345942D01*
X116780571Y-77631657D01*
X118209142Y-77060228D02*
X118280571Y-76917371D01*
X118280571Y-76631657D01*
X118209142Y-76488800D01*
X118066285Y-76417371D01*
X117994857Y-76417371D01*
X117852000Y-76488800D01*
X117780571Y-76631657D01*
X117780571Y-76845942D01*
X117709142Y-76988800D01*
X117566285Y-77060228D01*
X117494857Y-77060228D01*
X117352000Y-76988800D01*
X117280571Y-76845942D01*
X117280571Y-76631657D01*
X117352000Y-76488800D01*
X118209142Y-75131657D02*
X118280571Y-75274514D01*
X118280571Y-75560228D01*
X118209142Y-75703085D01*
X118137714Y-75774514D01*
X117994857Y-75845942D01*
X117566285Y-75845942D01*
X117423428Y-75774514D01*
X117352000Y-75703085D01*
X117280571Y-75560228D01*
X117280571Y-75274514D01*
X117352000Y-75131657D01*
X118423428Y-74845942D02*
X118423428Y-73703085D01*
X116923428Y-73417371D02*
X116852000Y-73345942D01*
X116780571Y-73203085D01*
X116780571Y-72845942D01*
X116852000Y-72703085D01*
X116923428Y-72631657D01*
X117066285Y-72560228D01*
X117209142Y-72560228D01*
X117423428Y-72631657D01*
X118280571Y-73488800D01*
X118280571Y-72560228D01*
X117139257Y-54469942D02*
X117139257Y-53969942D01*
X117924971Y-53755657D02*
X117924971Y-54469942D01*
X116424971Y-54469942D01*
X116424971Y-53755657D01*
X117853542Y-52469942D02*
X117924971Y-52612800D01*
X117924971Y-52898514D01*
X117853542Y-53041371D01*
X117782114Y-53112800D01*
X117639257Y-53184228D01*
X117210685Y-53184228D01*
X117067828Y-53112800D01*
X116996400Y-53041371D01*
X116924971Y-52898514D01*
X116924971Y-52612800D01*
X116996400Y-52469942D01*
X117853542Y-51898514D02*
X117924971Y-51755657D01*
X117924971Y-51469942D01*
X117853542Y-51327085D01*
X117710685Y-51255657D01*
X117639257Y-51255657D01*
X117496400Y-51327085D01*
X117424971Y-51469942D01*
X117424971Y-51684228D01*
X117353542Y-51827085D01*
X117210685Y-51898514D01*
X117139257Y-51898514D01*
X116996400Y-51827085D01*
X116924971Y-51684228D01*
X116924971Y-51469942D01*
X116996400Y-51327085D01*
X118067828Y-50969942D02*
X118067828Y-49827085D01*
X117924971Y-48684228D02*
X117924971Y-49541371D01*
X117924971Y-49112800D02*
X116424971Y-49112800D01*
X116639257Y-49255657D01*
X116782114Y-49398514D01*
X116853542Y-49541371D01*
X194589828Y-100422971D02*
X195089828Y-101922971D01*
X195589828Y-100422971D01*
X196089828Y-101922971D02*
X196089828Y-100422971D01*
X196089828Y-100994400D02*
X196232685Y-100922971D01*
X196518400Y-100922971D01*
X196661257Y-100994400D01*
X196732685Y-101065828D01*
X196804114Y-101208685D01*
X196804114Y-101637257D01*
X196732685Y-101780114D01*
X196661257Y-101851542D01*
X196518400Y-101922971D01*
X196232685Y-101922971D01*
X196089828Y-101851542D01*
X198089828Y-101922971D02*
X198089828Y-101137257D01*
X198018400Y-100994400D01*
X197875542Y-100922971D01*
X197589828Y-100922971D01*
X197446971Y-100994400D01*
X198089828Y-101851542D02*
X197946971Y-101922971D01*
X197589828Y-101922971D01*
X197446971Y-101851542D01*
X197375542Y-101708685D01*
X197375542Y-101565828D01*
X197446971Y-101422971D01*
X197589828Y-101351542D01*
X197946971Y-101351542D01*
X198089828Y-101280114D01*
X198589828Y-100922971D02*
X199161257Y-100922971D01*
X198804114Y-100422971D02*
X198804114Y-101708685D01*
X198875542Y-101851542D01*
X199018400Y-101922971D01*
X199161257Y-101922971D01*
X199446971Y-100922971D02*
X200018400Y-100922971D01*
X199661257Y-100422971D02*
X199661257Y-101708685D01*
X199732685Y-101851542D01*
X199875542Y-101922971D01*
X200018400Y-101922971D01*
X200446971Y-100565828D02*
X200518400Y-100494400D01*
X200661257Y-100422971D01*
X201018400Y-100422971D01*
X201161257Y-100494400D01*
X201232685Y-100565828D01*
X201304114Y-100708685D01*
X201304114Y-100851542D01*
X201232685Y-101065828D01*
X200375542Y-101922971D01*
X201304114Y-101922971D01*
X197451885Y-43323771D02*
X196737600Y-43323771D01*
X196666171Y-44038057D01*
X196737600Y-43966628D01*
X196880457Y-43895200D01*
X197237600Y-43895200D01*
X197380457Y-43966628D01*
X197451885Y-44038057D01*
X197523314Y-44180914D01*
X197523314Y-44538057D01*
X197451885Y-44680914D01*
X197380457Y-44752342D01*
X197237600Y-44823771D01*
X196880457Y-44823771D01*
X196737600Y-44752342D01*
X196666171Y-44680914D01*
X197951885Y-43323771D02*
X198451885Y-44823771D01*
X198951885Y-43323771D01*
X199951885Y-44038057D02*
X200166171Y-44109485D01*
X200237600Y-44180914D01*
X200309028Y-44323771D01*
X200309028Y-44538057D01*
X200237600Y-44680914D01*
X200166171Y-44752342D01*
X200023314Y-44823771D01*
X199451885Y-44823771D01*
X199451885Y-43323771D01*
X199951885Y-43323771D01*
X200094742Y-43395200D01*
X200166171Y-43466628D01*
X200237600Y-43609485D01*
X200237600Y-43752342D01*
X200166171Y-43895200D01*
X200094742Y-43966628D01*
X199951885Y-44038057D01*
X199451885Y-44038057D01*
X201809028Y-44680914D02*
X201737600Y-44752342D01*
X201523314Y-44823771D01*
X201380457Y-44823771D01*
X201166171Y-44752342D01*
X201023314Y-44609485D01*
X200951885Y-44466628D01*
X200880457Y-44180914D01*
X200880457Y-43966628D01*
X200951885Y-43680914D01*
X201023314Y-43538057D01*
X201166171Y-43395200D01*
X201380457Y-43323771D01*
X201523314Y-43323771D01*
X201737600Y-43395200D01*
X201809028Y-43466628D01*
X236961028Y-23690971D02*
X236961028Y-22190971D01*
X237318171Y-22190971D01*
X237532457Y-22262400D01*
X237675314Y-22405257D01*
X237746742Y-22548114D01*
X237818171Y-22833828D01*
X237818171Y-23048114D01*
X237746742Y-23333828D01*
X237675314Y-23476685D01*
X237532457Y-23619542D01*
X237318171Y-23690971D01*
X236961028Y-23690971D01*
X238461028Y-23690971D02*
X238461028Y-22690971D01*
X238461028Y-22190971D02*
X238389600Y-22262400D01*
X238461028Y-22333828D01*
X238532457Y-22262400D01*
X238461028Y-22190971D01*
X238461028Y-22333828D01*
X239103885Y-23619542D02*
X239246742Y-23690971D01*
X239532457Y-23690971D01*
X239675314Y-23619542D01*
X239746742Y-23476685D01*
X239746742Y-23405257D01*
X239675314Y-23262400D01*
X239532457Y-23190971D01*
X239318171Y-23190971D01*
X239175314Y-23119542D01*
X239103885Y-22976685D01*
X239103885Y-22905257D01*
X239175314Y-22762400D01*
X239318171Y-22690971D01*
X239532457Y-22690971D01*
X239675314Y-22762400D01*
X240389600Y-22690971D02*
X240389600Y-24190971D01*
X240389600Y-22762400D02*
X240532457Y-22690971D01*
X240818171Y-22690971D01*
X240961028Y-22762400D01*
X241032457Y-22833828D01*
X241103885Y-22976685D01*
X241103885Y-23405257D01*
X241032457Y-23548114D01*
X240961028Y-23619542D01*
X240818171Y-23690971D01*
X240532457Y-23690971D01*
X240389600Y-23619542D01*
X241961028Y-23690971D02*
X241818171Y-23619542D01*
X241746742Y-23476685D01*
X241746742Y-22190971D01*
X243175314Y-23690971D02*
X243175314Y-22905257D01*
X243103885Y-22762400D01*
X242961028Y-22690971D01*
X242675314Y-22690971D01*
X242532457Y-22762400D01*
X243175314Y-23619542D02*
X243032457Y-23690971D01*
X242675314Y-23690971D01*
X242532457Y-23619542D01*
X242461028Y-23476685D01*
X242461028Y-23333828D01*
X242532457Y-23190971D01*
X242675314Y-23119542D01*
X243032457Y-23119542D01*
X243175314Y-23048114D01*
X243746742Y-22690971D02*
X244103885Y-23690971D01*
X244461028Y-22690971D02*
X244103885Y-23690971D01*
X243961028Y-24048114D01*
X243889600Y-24119542D01*
X243746742Y-24190971D01*
X246880285Y-47343142D02*
X247094571Y-47414571D01*
X247451714Y-47414571D01*
X247594571Y-47343142D01*
X247666000Y-47271714D01*
X247737428Y-47128857D01*
X247737428Y-46986000D01*
X247666000Y-46843142D01*
X247594571Y-46771714D01*
X247451714Y-46700285D01*
X247166000Y-46628857D01*
X247023142Y-46557428D01*
X246951714Y-46486000D01*
X246880285Y-46343142D01*
X246880285Y-46200285D01*
X246951714Y-46057428D01*
X247023142Y-45986000D01*
X247166000Y-45914571D01*
X247523142Y-45914571D01*
X247737428Y-45986000D01*
X249023142Y-47414571D02*
X249023142Y-45914571D01*
X249023142Y-47343142D02*
X248880285Y-47414571D01*
X248594571Y-47414571D01*
X248451714Y-47343142D01*
X248380285Y-47271714D01*
X248308857Y-47128857D01*
X248308857Y-46700285D01*
X248380285Y-46557428D01*
X248451714Y-46486000D01*
X248594571Y-46414571D01*
X248880285Y-46414571D01*
X249023142Y-46486000D01*
X250380285Y-47414571D02*
X250380285Y-46628857D01*
X250308857Y-46486000D01*
X250166000Y-46414571D01*
X249880285Y-46414571D01*
X249737428Y-46486000D01*
X250380285Y-47343142D02*
X250237428Y-47414571D01*
X249880285Y-47414571D01*
X249737428Y-47343142D01*
X249666000Y-47200285D01*
X249666000Y-47057428D01*
X249737428Y-46914571D01*
X249880285Y-46843142D01*
X250237428Y-46843142D01*
X250380285Y-46771714D01*
X247049314Y-39570742D02*
X247263600Y-39642171D01*
X247620742Y-39642171D01*
X247763600Y-39570742D01*
X247835028Y-39499314D01*
X247906457Y-39356457D01*
X247906457Y-39213600D01*
X247835028Y-39070742D01*
X247763600Y-38999314D01*
X247620742Y-38927885D01*
X247335028Y-38856457D01*
X247192171Y-38785028D01*
X247120742Y-38713600D01*
X247049314Y-38570742D01*
X247049314Y-38427885D01*
X247120742Y-38285028D01*
X247192171Y-38213600D01*
X247335028Y-38142171D01*
X247692171Y-38142171D01*
X247906457Y-38213600D01*
X249192171Y-39570742D02*
X249049314Y-39642171D01*
X248763600Y-39642171D01*
X248620742Y-39570742D01*
X248549314Y-39499314D01*
X248477885Y-39356457D01*
X248477885Y-38927885D01*
X248549314Y-38785028D01*
X248620742Y-38713600D01*
X248763600Y-38642171D01*
X249049314Y-38642171D01*
X249192171Y-38713600D01*
X250049314Y-39642171D02*
X249906457Y-39570742D01*
X249835028Y-39427885D01*
X249835028Y-38142171D01*
X239185485Y-35957771D02*
X238471200Y-35957771D01*
X238399771Y-36672057D01*
X238471200Y-36600628D01*
X238614057Y-36529200D01*
X238971200Y-36529200D01*
X239114057Y-36600628D01*
X239185485Y-36672057D01*
X239256914Y-36814914D01*
X239256914Y-37172057D01*
X239185485Y-37314914D01*
X239114057Y-37386342D01*
X238971200Y-37457771D01*
X238614057Y-37457771D01*
X238471200Y-37386342D01*
X238399771Y-37314914D01*
X239685485Y-35957771D02*
X240185485Y-37457771D01*
X240685485Y-35957771D01*
D12*
X229478247Y-37333180D02*
X229478247Y-36333180D01*
X229716342Y-36333180D01*
X229859200Y-36380800D01*
X229954438Y-36476038D01*
X230002057Y-36571276D01*
X230049676Y-36761752D01*
X230049676Y-36904609D01*
X230002057Y-37095085D01*
X229954438Y-37190323D01*
X229859200Y-37285561D01*
X229716342Y-37333180D01*
X229478247Y-37333180D01*
X230478247Y-37333180D02*
X230478247Y-36666514D01*
X230478247Y-36333180D02*
X230430628Y-36380800D01*
X230478247Y-36428419D01*
X230525866Y-36380800D01*
X230478247Y-36333180D01*
X230478247Y-36428419D01*
X231383009Y-36666514D02*
X231383009Y-37476038D01*
X231335390Y-37571276D01*
X231287771Y-37618895D01*
X231192533Y-37666514D01*
X231049676Y-37666514D01*
X230954438Y-37618895D01*
X231383009Y-37285561D02*
X231287771Y-37333180D01*
X231097295Y-37333180D01*
X231002057Y-37285561D01*
X230954438Y-37237942D01*
X230906819Y-37142704D01*
X230906819Y-36856990D01*
X230954438Y-36761752D01*
X231002057Y-36714133D01*
X231097295Y-36666514D01*
X231287771Y-36666514D01*
X231383009Y-36714133D01*
X231621104Y-37428419D02*
X232383009Y-37428419D01*
X232621104Y-36666514D02*
X232621104Y-37666514D01*
X232621104Y-36714133D02*
X232716342Y-36666514D01*
X232906819Y-36666514D01*
X233002057Y-36714133D01*
X233049676Y-36761752D01*
X233097295Y-36856990D01*
X233097295Y-37142704D01*
X233049676Y-37237942D01*
X233002057Y-37285561D01*
X232906819Y-37333180D01*
X232716342Y-37333180D01*
X232621104Y-37285561D01*
X233525866Y-37333180D02*
X233525866Y-36666514D01*
X233525866Y-36333180D02*
X233478247Y-36380800D01*
X233525866Y-36428419D01*
X233573485Y-36380800D01*
X233525866Y-36333180D01*
X233525866Y-36428419D01*
X234002057Y-36666514D02*
X234002057Y-37333180D01*
X234002057Y-36761752D02*
X234049676Y-36714133D01*
X234144914Y-36666514D01*
X234287771Y-36666514D01*
X234383009Y-36714133D01*
X234430628Y-36809371D01*
X234430628Y-37333180D01*
X234859200Y-37285561D02*
X234954438Y-37333180D01*
X235144914Y-37333180D01*
X235240152Y-37285561D01*
X235287771Y-37190323D01*
X235287771Y-37142704D01*
X235240152Y-37047466D01*
X235144914Y-36999847D01*
X235002057Y-36999847D01*
X234906819Y-36952228D01*
X234859200Y-36856990D01*
X234859200Y-36809371D01*
X234906819Y-36714133D01*
X235002057Y-36666514D01*
X235144914Y-36666514D01*
X235240152Y-36714133D01*
X219915123Y-36482400D02*
X219819885Y-36434780D01*
X219677028Y-36434780D01*
X219534171Y-36482400D01*
X219438933Y-36577638D01*
X219391314Y-36672876D01*
X219343695Y-36863352D01*
X219343695Y-37006209D01*
X219391314Y-37196685D01*
X219438933Y-37291923D01*
X219534171Y-37387161D01*
X219677028Y-37434780D01*
X219772266Y-37434780D01*
X219915123Y-37387161D01*
X219962742Y-37339542D01*
X219962742Y-37006209D01*
X219772266Y-37006209D01*
X220391314Y-37434780D02*
X220391314Y-36434780D01*
X220962742Y-37434780D01*
X220962742Y-36434780D01*
X221438933Y-37434780D02*
X221438933Y-36434780D01*
X221677028Y-36434780D01*
X221819885Y-36482400D01*
X221915123Y-36577638D01*
X221962742Y-36672876D01*
X222010361Y-36863352D01*
X222010361Y-37006209D01*
X221962742Y-37196685D01*
X221915123Y-37291923D01*
X221819885Y-37387161D01*
X221677028Y-37434780D01*
X221438933Y-37434780D01*
X222200838Y-37530019D02*
X222962742Y-37530019D01*
X223200838Y-36768114D02*
X223200838Y-37768114D01*
X223200838Y-36815733D02*
X223296076Y-36768114D01*
X223486552Y-36768114D01*
X223581790Y-36815733D01*
X223629409Y-36863352D01*
X223677028Y-36958590D01*
X223677028Y-37244304D01*
X223629409Y-37339542D01*
X223581790Y-37387161D01*
X223486552Y-37434780D01*
X223296076Y-37434780D01*
X223200838Y-37387161D01*
X224105600Y-37434780D02*
X224105600Y-36768114D01*
X224105600Y-36434780D02*
X224057980Y-36482400D01*
X224105600Y-36530019D01*
X224153219Y-36482400D01*
X224105600Y-36434780D01*
X224105600Y-36530019D01*
X224581790Y-36768114D02*
X224581790Y-37434780D01*
X224581790Y-36863352D02*
X224629409Y-36815733D01*
X224724647Y-36768114D01*
X224867504Y-36768114D01*
X224962742Y-36815733D01*
X225010361Y-36910971D01*
X225010361Y-37434780D01*
X225438933Y-37387161D02*
X225534171Y-37434780D01*
X225724647Y-37434780D01*
X225819885Y-37387161D01*
X225867504Y-37291923D01*
X225867504Y-37244304D01*
X225819885Y-37149066D01*
X225724647Y-37101447D01*
X225581790Y-37101447D01*
X225486552Y-37053828D01*
X225438933Y-36958590D01*
X225438933Y-36910971D01*
X225486552Y-36815733D01*
X225581790Y-36768114D01*
X225724647Y-36768114D01*
X225819885Y-36815733D01*
X211558571Y-37453866D02*
X212034761Y-37453866D01*
X211463333Y-37739580D02*
X211796666Y-36739580D01*
X212130000Y-37739580D01*
X212463333Y-37072914D02*
X212463333Y-37739580D01*
X212463333Y-37168152D02*
X212510952Y-37120533D01*
X212606190Y-37072914D01*
X212749047Y-37072914D01*
X212844285Y-37120533D01*
X212891904Y-37215771D01*
X212891904Y-37739580D01*
X213796666Y-37739580D02*
X213796666Y-37215771D01*
X213749047Y-37120533D01*
X213653809Y-37072914D01*
X213463333Y-37072914D01*
X213368095Y-37120533D01*
X213796666Y-37691961D02*
X213701428Y-37739580D01*
X213463333Y-37739580D01*
X213368095Y-37691961D01*
X213320476Y-37596723D01*
X213320476Y-37501485D01*
X213368095Y-37406247D01*
X213463333Y-37358628D01*
X213701428Y-37358628D01*
X213796666Y-37311009D01*
X214034761Y-37834819D02*
X214796666Y-37834819D01*
X215034761Y-37072914D02*
X215034761Y-38072914D01*
X215034761Y-37120533D02*
X215130000Y-37072914D01*
X215320476Y-37072914D01*
X215415714Y-37120533D01*
X215463333Y-37168152D01*
X215510952Y-37263390D01*
X215510952Y-37549104D01*
X215463333Y-37644342D01*
X215415714Y-37691961D01*
X215320476Y-37739580D01*
X215130000Y-37739580D01*
X215034761Y-37691961D01*
X215939523Y-37739580D02*
X215939523Y-37072914D01*
X215939523Y-36739580D02*
X215891904Y-36787200D01*
X215939523Y-36834819D01*
X215987142Y-36787200D01*
X215939523Y-36739580D01*
X215939523Y-36834819D01*
X216415714Y-37072914D02*
X216415714Y-37739580D01*
X216415714Y-37168152D02*
X216463333Y-37120533D01*
X216558571Y-37072914D01*
X216701428Y-37072914D01*
X216796666Y-37120533D01*
X216844285Y-37215771D01*
X216844285Y-37739580D01*
X217272857Y-37691961D02*
X217368095Y-37739580D01*
X217558571Y-37739580D01*
X217653809Y-37691961D01*
X217701428Y-37596723D01*
X217701428Y-37549104D01*
X217653809Y-37453866D01*
X217558571Y-37406247D01*
X217415714Y-37406247D01*
X217320476Y-37358628D01*
X217272857Y-37263390D01*
X217272857Y-37215771D01*
X217320476Y-37120533D01*
X217415714Y-37072914D01*
X217558571Y-37072914D01*
X217653809Y-37120533D01*
D11*
X224121257Y-74287771D02*
X223406971Y-74287771D01*
X223406971Y-72787771D01*
X225192685Y-74216342D02*
X225049828Y-74287771D01*
X224764114Y-74287771D01*
X224621257Y-74216342D01*
X224549828Y-74073485D01*
X224549828Y-73502057D01*
X224621257Y-73359200D01*
X224764114Y-73287771D01*
X225049828Y-73287771D01*
X225192685Y-73359200D01*
X225264114Y-73502057D01*
X225264114Y-73644914D01*
X224549828Y-73787771D01*
X226549828Y-74287771D02*
X226549828Y-72787771D01*
X226549828Y-74216342D02*
X226406971Y-74287771D01*
X226121257Y-74287771D01*
X225978400Y-74216342D01*
X225906971Y-74144914D01*
X225835542Y-74002057D01*
X225835542Y-73573485D01*
X225906971Y-73430628D01*
X225978400Y-73359200D01*
X226121257Y-73287771D01*
X226406971Y-73287771D01*
X226549828Y-73359200D01*
X226906971Y-74430628D02*
X228049828Y-74430628D01*
X228978400Y-74216342D02*
X228835542Y-74287771D01*
X228549828Y-74287771D01*
X228406971Y-74216342D01*
X228335542Y-74073485D01*
X228335542Y-73502057D01*
X228406971Y-73359200D01*
X228549828Y-73287771D01*
X228835542Y-73287771D01*
X228978400Y-73359200D01*
X229049828Y-73502057D01*
X229049828Y-73644914D01*
X228335542Y-73787771D01*
X229549828Y-74287771D02*
X230335542Y-73287771D01*
X229549828Y-73287771D02*
X230335542Y-74287771D01*
X230692685Y-73287771D02*
X231264114Y-73287771D01*
X230906971Y-72787771D02*
X230906971Y-74073485D01*
X230978400Y-74216342D01*
X231121257Y-74287771D01*
X231264114Y-74287771D01*
X226118457Y-67507657D02*
X226332742Y-67579085D01*
X226404171Y-67650514D01*
X226475600Y-67793371D01*
X226475600Y-68007657D01*
X226404171Y-68150514D01*
X226332742Y-68221942D01*
X226189885Y-68293371D01*
X225618457Y-68293371D01*
X225618457Y-66793371D01*
X226118457Y-66793371D01*
X226261314Y-66864800D01*
X226332742Y-66936228D01*
X226404171Y-67079085D01*
X226404171Y-67221942D01*
X226332742Y-67364800D01*
X226261314Y-67436228D01*
X226118457Y-67507657D01*
X225618457Y-67507657D01*
X227761314Y-67293371D02*
X227761314Y-68293371D01*
X227118457Y-67293371D02*
X227118457Y-68079085D01*
X227189885Y-68221942D01*
X227332742Y-68293371D01*
X227547028Y-68293371D01*
X227689885Y-68221942D01*
X227761314Y-68150514D01*
X229118457Y-68221942D02*
X228975600Y-68293371D01*
X228689885Y-68293371D01*
X228547028Y-68221942D01*
X228475600Y-68150514D01*
X228404171Y-68007657D01*
X228404171Y-67579085D01*
X228475600Y-67436228D01*
X228547028Y-67364800D01*
X228689885Y-67293371D01*
X228975600Y-67293371D01*
X229118457Y-67364800D01*
X229761314Y-68293371D02*
X229761314Y-66793371D01*
X229904171Y-67721942D02*
X230332742Y-68293371D01*
X230332742Y-67293371D02*
X229761314Y-67864800D01*
X230618457Y-68436228D02*
X231761314Y-68436228D01*
X232332742Y-68293371D02*
X232189885Y-68221942D01*
X232118457Y-68079085D01*
X232118457Y-66793371D01*
X233475600Y-68221942D02*
X233332742Y-68293371D01*
X233047028Y-68293371D01*
X232904171Y-68221942D01*
X232832742Y-68079085D01*
X232832742Y-67507657D01*
X232904171Y-67364800D01*
X233047028Y-67293371D01*
X233332742Y-67293371D01*
X233475600Y-67364800D01*
X233547028Y-67507657D01*
X233547028Y-67650514D01*
X232832742Y-67793371D01*
X234832742Y-68293371D02*
X234832742Y-66793371D01*
X234832742Y-68221942D02*
X234689885Y-68293371D01*
X234404171Y-68293371D01*
X234261314Y-68221942D01*
X234189885Y-68150514D01*
X234118457Y-68007657D01*
X234118457Y-67579085D01*
X234189885Y-67436228D01*
X234261314Y-67364800D01*
X234404171Y-67293371D01*
X234689885Y-67293371D01*
X234832742Y-67364800D01*
X211999771Y-49375142D02*
X212142628Y-49446571D01*
X212428342Y-49446571D01*
X212571200Y-49375142D01*
X212642628Y-49232285D01*
X212642628Y-49160857D01*
X212571200Y-49018000D01*
X212428342Y-48946571D01*
X212214057Y-48946571D01*
X212071200Y-48875142D01*
X211999771Y-48732285D01*
X211999771Y-48660857D01*
X212071200Y-48518000D01*
X212214057Y-48446571D01*
X212428342Y-48446571D01*
X212571200Y-48518000D01*
X213285485Y-49446571D02*
X213285485Y-48446571D01*
X213285485Y-48732285D02*
X213356914Y-48589428D01*
X213428342Y-48518000D01*
X213571200Y-48446571D01*
X213714057Y-48446571D01*
X214071200Y-48446571D02*
X214428342Y-49446571D01*
X214785485Y-48446571D01*
X215999771Y-47946571D02*
X215714057Y-47946571D01*
X215571200Y-48018000D01*
X215499771Y-48089428D01*
X215356914Y-48303714D01*
X215285485Y-48589428D01*
X215285485Y-49160857D01*
X215356914Y-49303714D01*
X215428342Y-49375142D01*
X215571200Y-49446571D01*
X215856914Y-49446571D01*
X215999771Y-49375142D01*
X216071200Y-49303714D01*
X216142628Y-49160857D01*
X216142628Y-48803714D01*
X216071200Y-48660857D01*
X215999771Y-48589428D01*
X215856914Y-48518000D01*
X215571200Y-48518000D01*
X215428342Y-48589428D01*
X215356914Y-48660857D01*
X215285485Y-48803714D01*
X219213371Y-49222742D02*
X219356228Y-49294171D01*
X219641942Y-49294171D01*
X219784800Y-49222742D01*
X219856228Y-49079885D01*
X219856228Y-49008457D01*
X219784800Y-48865600D01*
X219641942Y-48794171D01*
X219427657Y-48794171D01*
X219284800Y-48722742D01*
X219213371Y-48579885D01*
X219213371Y-48508457D01*
X219284800Y-48365600D01*
X219427657Y-48294171D01*
X219641942Y-48294171D01*
X219784800Y-48365600D01*
X220499085Y-49294171D02*
X220499085Y-48294171D01*
X220499085Y-48579885D02*
X220570514Y-48437028D01*
X220641942Y-48365600D01*
X220784800Y-48294171D01*
X220927657Y-48294171D01*
X221284800Y-48294171D02*
X221641942Y-49294171D01*
X221999085Y-48294171D01*
X223284800Y-47794171D02*
X222570514Y-47794171D01*
X222499085Y-48508457D01*
X222570514Y-48437028D01*
X222713371Y-48365600D01*
X223070514Y-48365600D01*
X223213371Y-48437028D01*
X223284800Y-48508457D01*
X223356228Y-48651314D01*
X223356228Y-49008457D01*
X223284800Y-49151314D01*
X223213371Y-49222742D01*
X223070514Y-49294171D01*
X222713371Y-49294171D01*
X222570514Y-49222742D01*
X222499085Y-49151314D01*
X226274571Y-58011142D02*
X226417428Y-58082571D01*
X226703142Y-58082571D01*
X226846000Y-58011142D01*
X226917428Y-57868285D01*
X226917428Y-57796857D01*
X226846000Y-57654000D01*
X226703142Y-57582571D01*
X226488857Y-57582571D01*
X226346000Y-57511142D01*
X226274571Y-57368285D01*
X226274571Y-57296857D01*
X226346000Y-57154000D01*
X226488857Y-57082571D01*
X226703142Y-57082571D01*
X226846000Y-57154000D01*
X227560285Y-58082571D02*
X227560285Y-57082571D01*
X227560285Y-57368285D02*
X227631714Y-57225428D01*
X227703142Y-57154000D01*
X227846000Y-57082571D01*
X227988857Y-57082571D01*
X228346000Y-57082571D02*
X228703142Y-58082571D01*
X229060285Y-57082571D01*
X230274571Y-57082571D02*
X230274571Y-58082571D01*
X229917428Y-56511142D02*
X229560285Y-57582571D01*
X230488857Y-57582571D01*
X233792971Y-57960342D02*
X233935828Y-58031771D01*
X234221542Y-58031771D01*
X234364400Y-57960342D01*
X234435828Y-57817485D01*
X234435828Y-57746057D01*
X234364400Y-57603200D01*
X234221542Y-57531771D01*
X234007257Y-57531771D01*
X233864400Y-57460342D01*
X233792971Y-57317485D01*
X233792971Y-57246057D01*
X233864400Y-57103200D01*
X234007257Y-57031771D01*
X234221542Y-57031771D01*
X234364400Y-57103200D01*
X235078685Y-58031771D02*
X235078685Y-57031771D01*
X235078685Y-57317485D02*
X235150114Y-57174628D01*
X235221542Y-57103200D01*
X235364400Y-57031771D01*
X235507257Y-57031771D01*
X235864400Y-57031771D02*
X236221542Y-58031771D01*
X236578685Y-57031771D01*
X237007257Y-56531771D02*
X237935828Y-56531771D01*
X237435828Y-57103200D01*
X237650114Y-57103200D01*
X237792971Y-57174628D01*
X237864400Y-57246057D01*
X237935828Y-57388914D01*
X237935828Y-57746057D01*
X237864400Y-57888914D01*
X237792971Y-57960342D01*
X237650114Y-58031771D01*
X237221542Y-58031771D01*
X237078685Y-57960342D01*
X237007257Y-57888914D01*
X240904971Y-57858742D02*
X241047828Y-57930171D01*
X241333542Y-57930171D01*
X241476400Y-57858742D01*
X241547828Y-57715885D01*
X241547828Y-57644457D01*
X241476400Y-57501600D01*
X241333542Y-57430171D01*
X241119257Y-57430171D01*
X240976400Y-57358742D01*
X240904971Y-57215885D01*
X240904971Y-57144457D01*
X240976400Y-57001600D01*
X241119257Y-56930171D01*
X241333542Y-56930171D01*
X241476400Y-57001600D01*
X242190685Y-57930171D02*
X242190685Y-56930171D01*
X242190685Y-57215885D02*
X242262114Y-57073028D01*
X242333542Y-57001600D01*
X242476400Y-56930171D01*
X242619257Y-56930171D01*
X242976400Y-56930171D02*
X243333542Y-57930171D01*
X243690685Y-56930171D01*
X244190685Y-56573028D02*
X244262114Y-56501600D01*
X244404971Y-56430171D01*
X244762114Y-56430171D01*
X244904971Y-56501600D01*
X244976400Y-56573028D01*
X245047828Y-56715885D01*
X245047828Y-56858742D01*
X244976400Y-57073028D01*
X244119257Y-57930171D01*
X245047828Y-57930171D01*
X248118571Y-57706342D02*
X248261428Y-57777771D01*
X248547142Y-57777771D01*
X248690000Y-57706342D01*
X248761428Y-57563485D01*
X248761428Y-57492057D01*
X248690000Y-57349200D01*
X248547142Y-57277771D01*
X248332857Y-57277771D01*
X248190000Y-57206342D01*
X248118571Y-57063485D01*
X248118571Y-56992057D01*
X248190000Y-56849200D01*
X248332857Y-56777771D01*
X248547142Y-56777771D01*
X248690000Y-56849200D01*
X249404285Y-57777771D02*
X249404285Y-56777771D01*
X249404285Y-57063485D02*
X249475714Y-56920628D01*
X249547142Y-56849200D01*
X249690000Y-56777771D01*
X249832857Y-56777771D01*
X250190000Y-56777771D02*
X250547142Y-57777771D01*
X250904285Y-56777771D01*
X252261428Y-57777771D02*
X251404285Y-57777771D01*
X251832857Y-57777771D02*
X251832857Y-56277771D01*
X251690000Y-56492057D01*
X251547142Y-56634914D01*
X251404285Y-56706342D01*
D10*
X247569314Y-70153161D02*
X247712171Y-70200780D01*
X247950266Y-70200780D01*
X248045504Y-70153161D01*
X248093123Y-70105542D01*
X248140742Y-70010304D01*
X248140742Y-69915066D01*
X248093123Y-69819828D01*
X248045504Y-69772209D01*
X247950266Y-69724590D01*
X247759790Y-69676971D01*
X247664552Y-69629352D01*
X247616933Y-69581733D01*
X247569314Y-69486495D01*
X247569314Y-69391257D01*
X247616933Y-69296019D01*
X247664552Y-69248400D01*
X247759790Y-69200780D01*
X247997885Y-69200780D01*
X248140742Y-69248400D01*
X248474076Y-69534114D02*
X248664552Y-70200780D01*
X248855028Y-69724590D01*
X249045504Y-70200780D01*
X249235980Y-69534114D01*
X249616933Y-70200780D02*
X249616933Y-69534114D01*
X249616933Y-69200780D02*
X249569314Y-69248400D01*
X249616933Y-69296019D01*
X249664552Y-69248400D01*
X249616933Y-69200780D01*
X249616933Y-69296019D01*
X249950266Y-69534114D02*
X250331219Y-69534114D01*
X250093123Y-69200780D02*
X250093123Y-70057923D01*
X250140742Y-70153161D01*
X250235980Y-70200780D01*
X250331219Y-70200780D01*
X251093123Y-70153161D02*
X250997885Y-70200780D01*
X250807409Y-70200780D01*
X250712171Y-70153161D01*
X250664552Y-70105542D01*
X250616933Y-70010304D01*
X250616933Y-69724590D01*
X250664552Y-69629352D01*
X250712171Y-69581733D01*
X250807409Y-69534114D01*
X250997885Y-69534114D01*
X251093123Y-69581733D01*
X251521695Y-70200780D02*
X251521695Y-69200780D01*
X251950266Y-70200780D02*
X251950266Y-69676971D01*
X251902647Y-69581733D01*
X251807409Y-69534114D01*
X251664552Y-69534114D01*
X251569314Y-69581733D01*
X251521695Y-69629352D01*
D12*
X244139980Y-80650933D02*
X243139980Y-80650933D01*
X243139980Y-80269980D01*
X243187600Y-80174742D01*
X243235219Y-80127123D01*
X243330457Y-80079504D01*
X243473314Y-80079504D01*
X243568552Y-80127123D01*
X243616171Y-80174742D01*
X243663790Y-80269980D01*
X243663790Y-80650933D01*
X243139980Y-79746171D02*
X244139980Y-79508076D01*
X243425695Y-79317600D01*
X244139980Y-79127123D01*
X243139980Y-78889028D01*
X244139980Y-78508076D02*
X243139980Y-78508076D01*
X243854266Y-78174742D01*
X243139980Y-77841409D01*
X244139980Y-77841409D01*
X244235219Y-77603314D02*
X244235219Y-76841409D01*
X243473314Y-76603314D02*
X244473314Y-76603314D01*
X243520933Y-76603314D02*
X243473314Y-76508076D01*
X243473314Y-76317600D01*
X243520933Y-76222361D01*
X243568552Y-76174742D01*
X243663790Y-76127123D01*
X243949504Y-76127123D01*
X244044742Y-76174742D01*
X244092361Y-76222361D01*
X244139980Y-76317600D01*
X244139980Y-76508076D01*
X244092361Y-76603314D01*
X244139980Y-75698552D02*
X243473314Y-75698552D01*
X243139980Y-75698552D02*
X243187600Y-75746171D01*
X243235219Y-75698552D01*
X243187600Y-75650933D01*
X243139980Y-75698552D01*
X243235219Y-75698552D01*
X243473314Y-75222361D02*
X244139980Y-75222361D01*
X243568552Y-75222361D02*
X243520933Y-75174742D01*
X243473314Y-75079504D01*
X243473314Y-74936647D01*
X243520933Y-74841409D01*
X243616171Y-74793790D01*
X244139980Y-74793790D01*
X244092361Y-74365219D02*
X244139980Y-74269980D01*
X244139980Y-74079504D01*
X244092361Y-73984266D01*
X243997123Y-73936647D01*
X243949504Y-73936647D01*
X243854266Y-73984266D01*
X243806647Y-74079504D01*
X243806647Y-74222361D01*
X243759028Y-74317600D01*
X243663790Y-74365219D01*
X243616171Y-74365219D01*
X243520933Y-74317600D01*
X243473314Y-74222361D01*
X243473314Y-74079504D01*
X243520933Y-73984266D01*
D13*
X211780380Y-89345733D02*
X210780380Y-89345733D01*
X211780380Y-88774304D01*
X210780380Y-88774304D01*
X211113714Y-87869542D02*
X211780380Y-87869542D01*
X211113714Y-88298114D02*
X211637523Y-88298114D01*
X211732761Y-88250495D01*
X211780380Y-88155257D01*
X211780380Y-88012400D01*
X211732761Y-87917161D01*
X211685142Y-87869542D01*
X211732761Y-86964780D02*
X211780380Y-87060019D01*
X211780380Y-87250495D01*
X211732761Y-87345733D01*
X211685142Y-87393352D01*
X211589904Y-87440971D01*
X211304190Y-87440971D01*
X211208952Y-87393352D01*
X211161333Y-87345733D01*
X211113714Y-87250495D01*
X211113714Y-87060019D01*
X211161333Y-86964780D01*
X211875619Y-86774304D02*
X211875619Y-86012400D01*
X211780380Y-85298114D02*
X211780380Y-85774304D01*
X210780380Y-85774304D01*
X211732761Y-84583828D02*
X211780380Y-84679066D01*
X211780380Y-84869542D01*
X211732761Y-84964780D01*
X211637523Y-85012400D01*
X211256571Y-85012400D01*
X211161333Y-84964780D01*
X211113714Y-84869542D01*
X211113714Y-84679066D01*
X211161333Y-84583828D01*
X211256571Y-84536209D01*
X211351809Y-84536209D01*
X211447047Y-85012400D01*
X211780380Y-83679066D02*
X210780380Y-83679066D01*
X211732761Y-83679066D02*
X211780380Y-83774304D01*
X211780380Y-83964780D01*
X211732761Y-84060019D01*
X211685142Y-84107638D01*
X211589904Y-84155257D01*
X211304190Y-84155257D01*
X211208952Y-84107638D01*
X211161333Y-84060019D01*
X211113714Y-83964780D01*
X211113714Y-83774304D01*
X211161333Y-83679066D01*
D14*
X217423780Y-96522990D02*
X217423780Y-95903942D01*
X217804733Y-96237276D01*
X217804733Y-96094419D01*
X217852352Y-95999180D01*
X217899971Y-95951561D01*
X217995209Y-95903942D01*
X218233304Y-95903942D01*
X218328542Y-95951561D01*
X218376161Y-95999180D01*
X218423780Y-96094419D01*
X218423780Y-96380133D01*
X218376161Y-96475371D01*
X218328542Y-96522990D01*
X218328542Y-95475371D02*
X218376161Y-95427752D01*
X218423780Y-95475371D01*
X218376161Y-95522990D01*
X218328542Y-95475371D01*
X218423780Y-95475371D01*
X217423780Y-95094419D02*
X217423780Y-94475371D01*
X217804733Y-94808704D01*
X217804733Y-94665847D01*
X217852352Y-94570609D01*
X217899971Y-94522990D01*
X217995209Y-94475371D01*
X218233304Y-94475371D01*
X218328542Y-94522990D01*
X218376161Y-94570609D01*
X218423780Y-94665847D01*
X218423780Y-94951561D01*
X218376161Y-95046800D01*
X218328542Y-95094419D01*
X217423780Y-94189657D02*
X218423780Y-93856323D01*
X217423780Y-93522990D01*
D12*
X243934076Y-107640380D02*
X243934076Y-106640380D01*
X244315028Y-106640380D01*
X244410266Y-106688000D01*
X244457885Y-106735619D01*
X244505504Y-106830857D01*
X244505504Y-106973714D01*
X244457885Y-107068952D01*
X244410266Y-107116571D01*
X244315028Y-107164190D01*
X243934076Y-107164190D01*
X244934076Y-107640380D02*
X244934076Y-106973714D01*
X244934076Y-107164190D02*
X244981695Y-107068952D01*
X245029314Y-107021333D01*
X245124552Y-106973714D01*
X245219790Y-106973714D01*
X245505504Y-107592761D02*
X245600742Y-107640380D01*
X245791219Y-107640380D01*
X245886457Y-107592761D01*
X245934076Y-107497523D01*
X245934076Y-107449904D01*
X245886457Y-107354666D01*
X245791219Y-107307047D01*
X245648361Y-107307047D01*
X245553123Y-107259428D01*
X245505504Y-107164190D01*
X245505504Y-107116571D01*
X245553123Y-107021333D01*
X245648361Y-106973714D01*
X245791219Y-106973714D01*
X245886457Y-107021333D01*
X246362647Y-107640380D02*
X246362647Y-106973714D01*
X246362647Y-107164190D02*
X246410266Y-107068952D01*
X246457885Y-107021333D01*
X246553123Y-106973714D01*
X246648361Y-106973714D01*
X247695980Y-107592761D02*
X247838838Y-107640380D01*
X248076933Y-107640380D01*
X248172171Y-107592761D01*
X248219790Y-107545142D01*
X248267409Y-107449904D01*
X248267409Y-107354666D01*
X248219790Y-107259428D01*
X248172171Y-107211809D01*
X248076933Y-107164190D01*
X247886457Y-107116571D01*
X247791219Y-107068952D01*
X247743600Y-107021333D01*
X247695980Y-106926095D01*
X247695980Y-106830857D01*
X247743600Y-106735619D01*
X247791219Y-106688000D01*
X247886457Y-106640380D01*
X248124552Y-106640380D01*
X248267409Y-106688000D01*
X248695980Y-106973714D02*
X248695980Y-107640380D01*
X248695980Y-107068952D02*
X248743600Y-107021333D01*
X248838838Y-106973714D01*
X248981695Y-106973714D01*
X249076933Y-107021333D01*
X249124552Y-107116571D01*
X249124552Y-107640380D01*
X249553123Y-107592761D02*
X249648361Y-107640380D01*
X249838838Y-107640380D01*
X249934076Y-107592761D01*
X249981695Y-107497523D01*
X249981695Y-107449904D01*
X249934076Y-107354666D01*
X249838838Y-107307047D01*
X249695980Y-107307047D01*
X249600742Y-107259428D01*
X249553123Y-107164190D01*
X249553123Y-107116571D01*
X249600742Y-107021333D01*
X249695980Y-106973714D01*
X249838838Y-106973714D01*
X249934076Y-107021333D01*
X250410266Y-107640380D02*
X250410266Y-106973714D01*
X250410266Y-107164190D02*
X250457885Y-107068952D01*
X250505504Y-107021333D01*
X250600742Y-106973714D01*
X250695980Y-106973714D01*
D11*
X260048571Y-124117142D02*
X258548571Y-124117142D01*
X258548571Y-123760000D01*
X258620000Y-123545714D01*
X258762857Y-123402857D01*
X258905714Y-123331428D01*
X259191428Y-123260000D01*
X259405714Y-123260000D01*
X259691428Y-123331428D01*
X259834285Y-123402857D01*
X259977142Y-123545714D01*
X260048571Y-123760000D01*
X260048571Y-124117142D01*
X259048571Y-122760000D02*
X260048571Y-122402857D01*
X259048571Y-122045714D01*
X260048571Y-121260000D02*
X259977142Y-121402857D01*
X259834285Y-121474285D01*
X258548571Y-121474285D01*
X260048571Y-118831428D02*
X260048571Y-119545714D01*
X258548571Y-119545714D01*
X259977142Y-117760000D02*
X260048571Y-117902857D01*
X260048571Y-118188571D01*
X259977142Y-118331428D01*
X259834285Y-118402857D01*
X259262857Y-118402857D01*
X259120000Y-118331428D01*
X259048571Y-118188571D01*
X259048571Y-117902857D01*
X259120000Y-117760000D01*
X259262857Y-117688571D01*
X259405714Y-117688571D01*
X259548571Y-118402857D01*
X260048571Y-116402857D02*
X258548571Y-116402857D01*
X259977142Y-116402857D02*
X260048571Y-116545714D01*
X260048571Y-116831428D01*
X259977142Y-116974285D01*
X259905714Y-117045714D01*
X259762857Y-117117142D01*
X259334285Y-117117142D01*
X259191428Y-117045714D01*
X259120000Y-116974285D01*
X259048571Y-116831428D01*
X259048571Y-116545714D01*
X259120000Y-116402857D01*
X161030457Y-127720457D02*
X161101885Y-127506171D01*
X161173314Y-127434742D01*
X161316171Y-127363314D01*
X161530457Y-127363314D01*
X161673314Y-127434742D01*
X161744742Y-127506171D01*
X161816171Y-127649028D01*
X161816171Y-128220457D01*
X160316171Y-128220457D01*
X160316171Y-127720457D01*
X160387600Y-127577600D01*
X160459028Y-127506171D01*
X160601885Y-127434742D01*
X160744742Y-127434742D01*
X160887600Y-127506171D01*
X160959028Y-127577600D01*
X161030457Y-127720457D01*
X161030457Y-128220457D01*
X161816171Y-126077600D02*
X161030457Y-126077600D01*
X160887600Y-126149028D01*
X160816171Y-126291885D01*
X160816171Y-126577600D01*
X160887600Y-126720457D01*
X161744742Y-126077600D02*
X161816171Y-126220457D01*
X161816171Y-126577600D01*
X161744742Y-126720457D01*
X161601885Y-126791885D01*
X161459028Y-126791885D01*
X161316171Y-126720457D01*
X161244742Y-126577600D01*
X161244742Y-126220457D01*
X161173314Y-126077600D01*
X160816171Y-125577600D02*
X160816171Y-125006171D01*
X160316171Y-125363314D02*
X161601885Y-125363314D01*
X161744742Y-125291885D01*
X161816171Y-125149028D01*
X161816171Y-125006171D01*
X160816171Y-124720457D02*
X160816171Y-124149028D01*
X160316171Y-124506171D02*
X161601885Y-124506171D01*
X161744742Y-124434742D01*
X161816171Y-124291885D01*
X161816171Y-124149028D01*
X160459028Y-123720457D02*
X160387600Y-123649028D01*
X160316171Y-123506171D01*
X160316171Y-123149028D01*
X160387600Y-123006171D01*
X160459028Y-122934742D01*
X160601885Y-122863314D01*
X160744742Y-122863314D01*
X160959028Y-122934742D01*
X161816171Y-123791885D01*
X161816171Y-122863314D01*
X161866971Y-137380457D02*
X160366971Y-137380457D01*
X160366971Y-137023314D01*
X160438400Y-136809028D01*
X160581257Y-136666171D01*
X160724114Y-136594742D01*
X161009828Y-136523314D01*
X161224114Y-136523314D01*
X161509828Y-136594742D01*
X161652685Y-136666171D01*
X161795542Y-136809028D01*
X161866971Y-137023314D01*
X161866971Y-137380457D01*
X160366971Y-136094742D02*
X161866971Y-135594742D01*
X160366971Y-135094742D01*
X161866971Y-133880457D02*
X161866971Y-134594742D01*
X160366971Y-134594742D01*
X154020057Y-121094285D02*
X154020057Y-121594285D01*
X154805771Y-121594285D02*
X153305771Y-121594285D01*
X153305771Y-120880000D01*
X153805771Y-119665714D02*
X154805771Y-119665714D01*
X153805771Y-120308571D02*
X154591485Y-120308571D01*
X154734342Y-120237142D01*
X154805771Y-120094285D01*
X154805771Y-119880000D01*
X154734342Y-119737142D01*
X154662914Y-119665714D01*
X154734342Y-119022857D02*
X154805771Y-118880000D01*
X154805771Y-118594285D01*
X154734342Y-118451428D01*
X154591485Y-118380000D01*
X154520057Y-118380000D01*
X154377200Y-118451428D01*
X154305771Y-118594285D01*
X154305771Y-118808571D01*
X154234342Y-118951428D01*
X154091485Y-119022857D01*
X154020057Y-119022857D01*
X153877200Y-118951428D01*
X153805771Y-118808571D01*
X153805771Y-118594285D01*
X153877200Y-118451428D01*
X154734342Y-117165714D02*
X154805771Y-117308571D01*
X154805771Y-117594285D01*
X154734342Y-117737142D01*
X154591485Y-117808571D01*
X154020057Y-117808571D01*
X153877200Y-117737142D01*
X153805771Y-117594285D01*
X153805771Y-117308571D01*
X153877200Y-117165714D01*
X154020057Y-117094285D01*
X154162914Y-117094285D01*
X154305771Y-117808571D01*
X139944742Y-138424457D02*
X140159028Y-138495885D01*
X140230457Y-138567314D01*
X140301885Y-138710171D01*
X140301885Y-138924457D01*
X140230457Y-139067314D01*
X140159028Y-139138742D01*
X140016171Y-139210171D01*
X139444742Y-139210171D01*
X139444742Y-137710171D01*
X139944742Y-137710171D01*
X140087600Y-137781600D01*
X140159028Y-137853028D01*
X140230457Y-137995885D01*
X140230457Y-138138742D01*
X140159028Y-138281600D01*
X140087600Y-138353028D01*
X139944742Y-138424457D01*
X139444742Y-138424457D01*
X141587600Y-139210171D02*
X141587600Y-138424457D01*
X141516171Y-138281600D01*
X141373314Y-138210171D01*
X141087600Y-138210171D01*
X140944742Y-138281600D01*
X141587600Y-139138742D02*
X141444742Y-139210171D01*
X141087600Y-139210171D01*
X140944742Y-139138742D01*
X140873314Y-138995885D01*
X140873314Y-138853028D01*
X140944742Y-138710171D01*
X141087600Y-138638742D01*
X141444742Y-138638742D01*
X141587600Y-138567314D01*
X142087600Y-138210171D02*
X142659028Y-138210171D01*
X142301885Y-137710171D02*
X142301885Y-138995885D01*
X142373314Y-139138742D01*
X142516171Y-139210171D01*
X142659028Y-139210171D01*
X142944742Y-138210171D02*
X143516171Y-138210171D01*
X143159028Y-137710171D02*
X143159028Y-138995885D01*
X143230457Y-139138742D01*
X143373314Y-139210171D01*
X143516171Y-139210171D01*
X144801885Y-139210171D02*
X143944742Y-139210171D01*
X144373314Y-139210171D02*
X144373314Y-137710171D01*
X144230457Y-137924457D01*
X144087600Y-138067314D01*
X143944742Y-138138742D01*
D15*
G36*
X252363008Y-127110511D02*
G01*
X252429423Y-127111563D01*
X252500132Y-127112728D01*
X252573228Y-127113974D01*
X252646805Y-127115266D01*
X252718954Y-127116569D01*
X252787770Y-127117850D01*
X252851344Y-127119073D01*
X252907771Y-127120206D01*
X252936430Y-127120807D01*
X253179000Y-127125992D01*
X253178999Y-130192803D01*
X253178999Y-133259614D01*
X253190429Y-133255912D01*
X253201671Y-133253060D01*
X253218705Y-133249580D01*
X253232340Y-133247158D01*
X253304002Y-133230212D01*
X253380319Y-133202910D01*
X253458984Y-133166462D01*
X253537693Y-133122077D01*
X253614139Y-133070965D01*
X253686018Y-133014335D01*
X253700982Y-133001263D01*
X253738292Y-132967408D01*
X253774645Y-132933020D01*
X253810901Y-132897131D01*
X253847921Y-132858773D01*
X253886564Y-132816980D01*
X253927690Y-132770782D01*
X253972159Y-132719214D01*
X254020831Y-132661306D01*
X254074565Y-132596092D01*
X254134222Y-132522605D01*
X254200661Y-132439875D01*
X254207700Y-132431071D01*
X254262460Y-132362501D01*
X254310068Y-132302735D01*
X254351324Y-132250701D01*
X254387029Y-132205323D01*
X254417984Y-132165528D01*
X254444990Y-132130242D01*
X254468847Y-132098391D01*
X254490357Y-132068901D01*
X254510320Y-132040699D01*
X254529537Y-132012711D01*
X254548809Y-131983863D01*
X254568937Y-131953080D01*
X254590721Y-131919289D01*
X254599087Y-131906238D01*
X254697013Y-131746182D01*
X254788215Y-131581974D01*
X254873606Y-131411618D01*
X254954095Y-131233115D01*
X255030594Y-131044468D01*
X255104014Y-130843679D01*
X255160276Y-130675656D01*
X255216313Y-130495462D01*
X255266481Y-130319715D01*
X255312107Y-130143299D01*
X255354515Y-129961097D01*
X255393680Y-129774750D01*
X255451772Y-129459897D01*
X255501543Y-129136454D01*
X255543005Y-128804310D01*
X255576167Y-128463355D01*
X255601040Y-128113479D01*
X255617636Y-127754571D01*
X255625953Y-127387546D01*
X255629123Y-127107750D01*
X256863614Y-127107750D01*
X256860375Y-127371671D01*
X256852713Y-127698183D01*
X256837678Y-128021000D01*
X256815092Y-128341675D01*
X256784778Y-128661762D01*
X256746557Y-128982813D01*
X256700254Y-129306383D01*
X256645689Y-129634023D01*
X256582685Y-129967289D01*
X256539695Y-130175593D01*
X256466249Y-130505394D01*
X256389248Y-130820746D01*
X256308467Y-131122198D01*
X256223684Y-131410297D01*
X256134676Y-131685591D01*
X256041222Y-131948629D01*
X255943096Y-132199958D01*
X255840079Y-132440126D01*
X255731945Y-132669680D01*
X255618473Y-132889170D01*
X255499440Y-133099141D01*
X255374623Y-133300144D01*
X255243799Y-133492724D01*
X255126181Y-133652202D01*
X254985350Y-133826369D01*
X254836203Y-133992038D01*
X254679122Y-134148923D01*
X254514487Y-134296734D01*
X254342679Y-134435184D01*
X254164079Y-134563985D01*
X253979068Y-134682848D01*
X253788028Y-134791485D01*
X253591337Y-134889609D01*
X253389379Y-134976930D01*
X253359340Y-134988811D01*
X253270277Y-135021510D01*
X253180051Y-135050284D01*
X253087445Y-135075372D01*
X252991240Y-135097013D01*
X252890220Y-135115446D01*
X252783167Y-135130912D01*
X252668864Y-135143649D01*
X252546093Y-135153896D01*
X252505900Y-135156619D01*
X252485165Y-135157581D01*
X252454524Y-135158446D01*
X252414227Y-135159215D01*
X252364528Y-135159890D01*
X252305679Y-135160469D01*
X252237932Y-135160953D01*
X252161540Y-135161344D01*
X252076754Y-135161641D01*
X251983829Y-135161844D01*
X251883015Y-135161954D01*
X251774565Y-135161971D01*
X251658732Y-135161897D01*
X251535768Y-135161730D01*
X251405926Y-135161472D01*
X251269458Y-135161123D01*
X251126616Y-135160683D01*
X250977652Y-135160152D01*
X250822820Y-135159532D01*
X250662372Y-135158822D01*
X250496559Y-135158023D01*
X250325635Y-135157136D01*
X250149852Y-135156159D01*
X249969462Y-135155095D01*
X249784717Y-135153943D01*
X249595871Y-135152704D01*
X249494730Y-135152016D01*
X248866079Y-135147685D01*
X248866071Y-132951358D01*
X248866052Y-132710083D01*
X248865998Y-132472606D01*
X248865911Y-132239424D01*
X248865791Y-132011035D01*
X248865640Y-131787938D01*
X248865458Y-131570631D01*
X248865247Y-131359611D01*
X248865008Y-131155378D01*
X248864742Y-130958429D01*
X248864450Y-130769262D01*
X248864133Y-130588376D01*
X248863793Y-130416268D01*
X248863431Y-130253437D01*
X248863047Y-130100382D01*
X248862642Y-129957599D01*
X248862219Y-129825588D01*
X248861778Y-129704846D01*
X248861320Y-129595871D01*
X248860846Y-129499163D01*
X248860358Y-129415218D01*
X248859856Y-129344536D01*
X248859342Y-129287614D01*
X248858816Y-129244950D01*
X248858281Y-129217042D01*
X248857737Y-129204390D01*
X248857602Y-129203673D01*
X248852111Y-129203052D01*
X248838326Y-129203717D01*
X248818072Y-129205520D01*
X248793174Y-129208316D01*
X248780837Y-129209871D01*
X248685322Y-129227883D01*
X248590960Y-129257173D01*
X248496437Y-129298353D01*
X248400440Y-129352037D01*
X248301655Y-129418837D01*
X248251400Y-129456883D01*
X248204920Y-129493850D01*
X248163183Y-129528531D01*
X248123782Y-129563123D01*
X248084312Y-129599821D01*
X248042368Y-129640822D01*
X247995545Y-129688323D01*
X247977080Y-129707387D01*
X247839401Y-129855852D01*
X247711279Y-130006210D01*
X247592129Y-130159346D01*
X247481370Y-130316143D01*
X247378416Y-130477486D01*
X247282686Y-130644260D01*
X247193595Y-130817349D01*
X247110560Y-130997638D01*
X247081972Y-131064632D01*
X246990055Y-131295974D01*
X246905594Y-131532818D01*
X246828371Y-131776076D01*
X246758172Y-132026660D01*
X246694780Y-132285482D01*
X246637978Y-132553454D01*
X246587551Y-132831488D01*
X246543282Y-133120494D01*
X246504955Y-133421387D01*
X246489170Y-133564906D01*
X246459984Y-133877621D01*
X246438002Y-134190845D01*
X246423012Y-134508284D01*
X246414803Y-134833642D01*
X246414177Y-134880546D01*
X246410793Y-135164312D01*
X245181655Y-135164312D01*
X245184654Y-134856734D01*
X245187414Y-134671786D01*
X245192115Y-134497092D01*
X245198990Y-134328501D01*
X245208273Y-134161865D01*
X245220198Y-133993033D01*
X245234998Y-133817857D01*
X245252908Y-133632187D01*
X245254508Y-133616500D01*
X245291108Y-133298878D01*
X245336260Y-132975910D01*
X245389533Y-132649667D01*
X245450496Y-132322219D01*
X245518718Y-131995637D01*
X245593769Y-131671991D01*
X245675217Y-131353351D01*
X245762631Y-131041789D01*
X245849288Y-130759000D01*
X245949486Y-130461891D01*
X246056374Y-130176404D01*
X246169892Y-129902659D01*
X246289983Y-129640774D01*
X246416586Y-129390869D01*
X246549642Y-129153064D01*
X246689093Y-128927477D01*
X246834878Y-128714227D01*
X246922980Y-128595370D01*
X247072398Y-128410085D01*
X247228081Y-128237212D01*
X247390038Y-128076746D01*
X247558281Y-127928679D01*
X247732820Y-127793006D01*
X247913669Y-127669719D01*
X248100837Y-127558812D01*
X248294335Y-127460278D01*
X248494175Y-127374110D01*
X248700369Y-127300302D01*
X248912926Y-127238848D01*
X249131859Y-127189739D01*
X249333440Y-127156220D01*
X249394248Y-127148331D01*
X249461294Y-127140728D01*
X249532642Y-127133558D01*
X249606354Y-127126972D01*
X249680493Y-127121117D01*
X249753121Y-127116142D01*
X249822302Y-127112195D01*
X249886099Y-127109426D01*
X249942574Y-127107982D01*
X249964630Y-127107805D01*
X250004000Y-127107750D01*
X250004000Y-133292755D01*
X251017036Y-133289924D01*
X251117765Y-133289611D01*
X251215791Y-133289245D01*
X251310629Y-133288831D01*
X251401796Y-133288371D01*
X251488807Y-133287872D01*
X251571178Y-133287337D01*
X251648426Y-133286771D01*
X251720064Y-133286178D01*
X251785610Y-133285563D01*
X251844580Y-133284929D01*
X251896488Y-133284282D01*
X251940852Y-133283625D01*
X251977186Y-133282963D01*
X252005006Y-133282301D01*
X252023829Y-133281642D01*
X252033170Y-133280992D01*
X252034143Y-133280734D01*
X252034566Y-133272245D01*
X252034954Y-133248695D01*
X252035307Y-133210896D01*
X252035622Y-133159664D01*
X252035899Y-133095812D01*
X252036136Y-133020152D01*
X252036333Y-132933500D01*
X252036487Y-132836668D01*
X252036599Y-132730471D01*
X252036665Y-132615722D01*
X252036686Y-132493234D01*
X252036660Y-132363821D01*
X252036585Y-132228297D01*
X252036462Y-132087476D01*
X252036287Y-131942171D01*
X252036233Y-131903578D01*
X252035921Y-131687256D01*
X252035632Y-131486150D01*
X252035367Y-131299603D01*
X252035126Y-131126957D01*
X252034907Y-130967554D01*
X252034712Y-130820736D01*
X252034539Y-130685845D01*
X252034390Y-130562223D01*
X252034264Y-130449212D01*
X252034161Y-130346153D01*
X252034080Y-130252390D01*
X252034022Y-130167263D01*
X252033988Y-130090115D01*
X252033975Y-130020288D01*
X252033986Y-129957124D01*
X252034019Y-129899965D01*
X252034074Y-129848152D01*
X252034152Y-129801028D01*
X252034252Y-129757935D01*
X252034375Y-129718215D01*
X252034519Y-129681210D01*
X252034686Y-129646261D01*
X252034875Y-129612711D01*
X252035086Y-129579902D01*
X252035320Y-129547176D01*
X252035575Y-129513874D01*
X252035851Y-129479339D01*
X252036000Y-129461218D01*
X252036349Y-129395412D01*
X252036450Y-129316327D01*
X252036317Y-129226553D01*
X252035961Y-129128681D01*
X252035399Y-129025302D01*
X252034641Y-128919006D01*
X252033704Y-128812383D01*
X252032599Y-128708025D01*
X252031655Y-128631750D01*
X252028657Y-128351766D01*
X252027238Y-128080386D01*
X252027378Y-127810536D01*
X252028464Y-127608622D01*
X252032157Y-127105402D01*
X252363008Y-127110511D01*
X252363008Y-127110511D01*
G37*
X252363008Y-127110511D02*
X252429423Y-127111563D01*
X252500132Y-127112728D01*
X252573228Y-127113974D01*
X252646805Y-127115266D01*
X252718954Y-127116569D01*
X252787770Y-127117850D01*
X252851344Y-127119073D01*
X252907771Y-127120206D01*
X252936430Y-127120807D01*
X253179000Y-127125992D01*
X253178999Y-130192803D01*
X253178999Y-133259614D01*
X253190429Y-133255912D01*
X253201671Y-133253060D01*
X253218705Y-133249580D01*
X253232340Y-133247158D01*
X253304002Y-133230212D01*
X253380319Y-133202910D01*
X253458984Y-133166462D01*
X253537693Y-133122077D01*
X253614139Y-133070965D01*
X253686018Y-133014335D01*
X253700982Y-133001263D01*
X253738292Y-132967408D01*
X253774645Y-132933020D01*
X253810901Y-132897131D01*
X253847921Y-132858773D01*
X253886564Y-132816980D01*
X253927690Y-132770782D01*
X253972159Y-132719214D01*
X254020831Y-132661306D01*
X254074565Y-132596092D01*
X254134222Y-132522605D01*
X254200661Y-132439875D01*
X254207700Y-132431071D01*
X254262460Y-132362501D01*
X254310068Y-132302735D01*
X254351324Y-132250701D01*
X254387029Y-132205323D01*
X254417984Y-132165528D01*
X254444990Y-132130242D01*
X254468847Y-132098391D01*
X254490357Y-132068901D01*
X254510320Y-132040699D01*
X254529537Y-132012711D01*
X254548809Y-131983863D01*
X254568937Y-131953080D01*
X254590721Y-131919289D01*
X254599087Y-131906238D01*
X254697013Y-131746182D01*
X254788215Y-131581974D01*
X254873606Y-131411618D01*
X254954095Y-131233115D01*
X255030594Y-131044468D01*
X255104014Y-130843679D01*
X255160276Y-130675656D01*
X255216313Y-130495462D01*
X255266481Y-130319715D01*
X255312107Y-130143299D01*
X255354515Y-129961097D01*
X255393680Y-129774750D01*
X255451772Y-129459897D01*
X255501543Y-129136454D01*
X255543005Y-128804310D01*
X255576167Y-128463355D01*
X255601040Y-128113479D01*
X255617636Y-127754571D01*
X255625953Y-127387546D01*
X255629123Y-127107750D01*
X256863614Y-127107750D01*
X256860375Y-127371671D01*
X256852713Y-127698183D01*
X256837678Y-128021000D01*
X256815092Y-128341675D01*
X256784778Y-128661762D01*
X256746557Y-128982813D01*
X256700254Y-129306383D01*
X256645689Y-129634023D01*
X256582685Y-129967289D01*
X256539695Y-130175593D01*
X256466249Y-130505394D01*
X256389248Y-130820746D01*
X256308467Y-131122198D01*
X256223684Y-131410297D01*
X256134676Y-131685591D01*
X256041222Y-131948629D01*
X255943096Y-132199958D01*
X255840079Y-132440126D01*
X255731945Y-132669680D01*
X255618473Y-132889170D01*
X255499440Y-133099141D01*
X255374623Y-133300144D01*
X255243799Y-133492724D01*
X255126181Y-133652202D01*
X254985350Y-133826369D01*
X254836203Y-133992038D01*
X254679122Y-134148923D01*
X254514487Y-134296734D01*
X254342679Y-134435184D01*
X254164079Y-134563985D01*
X253979068Y-134682848D01*
X253788028Y-134791485D01*
X253591337Y-134889609D01*
X253389379Y-134976930D01*
X253359340Y-134988811D01*
X253270277Y-135021510D01*
X253180051Y-135050284D01*
X253087445Y-135075372D01*
X252991240Y-135097013D01*
X252890220Y-135115446D01*
X252783167Y-135130912D01*
X252668864Y-135143649D01*
X252546093Y-135153896D01*
X252505900Y-135156619D01*
X252485165Y-135157581D01*
X252454524Y-135158446D01*
X252414227Y-135159215D01*
X252364528Y-135159890D01*
X252305679Y-135160469D01*
X252237932Y-135160953D01*
X252161540Y-135161344D01*
X252076754Y-135161641D01*
X251983829Y-135161844D01*
X251883015Y-135161954D01*
X251774565Y-135161971D01*
X251658732Y-135161897D01*
X251535768Y-135161730D01*
X251405926Y-135161472D01*
X251269458Y-135161123D01*
X251126616Y-135160683D01*
X250977652Y-135160152D01*
X250822820Y-135159532D01*
X250662372Y-135158822D01*
X250496559Y-135158023D01*
X250325635Y-135157136D01*
X250149852Y-135156159D01*
X249969462Y-135155095D01*
X249784717Y-135153943D01*
X249595871Y-135152704D01*
X249494730Y-135152016D01*
X248866079Y-135147685D01*
X248866071Y-132951358D01*
X248866052Y-132710083D01*
X248865998Y-132472606D01*
X248865911Y-132239424D01*
X248865791Y-132011035D01*
X248865640Y-131787938D01*
X248865458Y-131570631D01*
X248865247Y-131359611D01*
X248865008Y-131155378D01*
X248864742Y-130958429D01*
X248864450Y-130769262D01*
X248864133Y-130588376D01*
X248863793Y-130416268D01*
X248863431Y-130253437D01*
X248863047Y-130100382D01*
X248862642Y-129957599D01*
X248862219Y-129825588D01*
X248861778Y-129704846D01*
X248861320Y-129595871D01*
X248860846Y-129499163D01*
X248860358Y-129415218D01*
X248859856Y-129344536D01*
X248859342Y-129287614D01*
X248858816Y-129244950D01*
X248858281Y-129217042D01*
X248857737Y-129204390D01*
X248857602Y-129203673D01*
X248852111Y-129203052D01*
X248838326Y-129203717D01*
X248818072Y-129205520D01*
X248793174Y-129208316D01*
X248780837Y-129209871D01*
X248685322Y-129227883D01*
X248590960Y-129257173D01*
X248496437Y-129298353D01*
X248400440Y-129352037D01*
X248301655Y-129418837D01*
X248251400Y-129456883D01*
X248204920Y-129493850D01*
X248163183Y-129528531D01*
X248123782Y-129563123D01*
X248084312Y-129599821D01*
X248042368Y-129640822D01*
X247995545Y-129688323D01*
X247977080Y-129707387D01*
X247839401Y-129855852D01*
X247711279Y-130006210D01*
X247592129Y-130159346D01*
X247481370Y-130316143D01*
X247378416Y-130477486D01*
X247282686Y-130644260D01*
X247193595Y-130817349D01*
X247110560Y-130997638D01*
X247081972Y-131064632D01*
X246990055Y-131295974D01*
X246905594Y-131532818D01*
X246828371Y-131776076D01*
X246758172Y-132026660D01*
X246694780Y-132285482D01*
X246637978Y-132553454D01*
X246587551Y-132831488D01*
X246543282Y-133120494D01*
X246504955Y-133421387D01*
X246489170Y-133564906D01*
X246459984Y-133877621D01*
X246438002Y-134190845D01*
X246423012Y-134508284D01*
X246414803Y-134833642D01*
X246414177Y-134880546D01*
X246410793Y-135164312D01*
X245181655Y-135164312D01*
X245184654Y-134856734D01*
X245187414Y-134671786D01*
X245192115Y-134497092D01*
X245198990Y-134328501D01*
X245208273Y-134161865D01*
X245220198Y-133993033D01*
X245234998Y-133817857D01*
X245252908Y-133632187D01*
X245254508Y-133616500D01*
X245291108Y-133298878D01*
X245336260Y-132975910D01*
X245389533Y-132649667D01*
X245450496Y-132322219D01*
X245518718Y-131995637D01*
X245593769Y-131671991D01*
X245675217Y-131353351D01*
X245762631Y-131041789D01*
X245849288Y-130759000D01*
X245949486Y-130461891D01*
X246056374Y-130176404D01*
X246169892Y-129902659D01*
X246289983Y-129640774D01*
X246416586Y-129390869D01*
X246549642Y-129153064D01*
X246689093Y-128927477D01*
X246834878Y-128714227D01*
X246922980Y-128595370D01*
X247072398Y-128410085D01*
X247228081Y-128237212D01*
X247390038Y-128076746D01*
X247558281Y-127928679D01*
X247732820Y-127793006D01*
X247913669Y-127669719D01*
X248100837Y-127558812D01*
X248294335Y-127460278D01*
X248494175Y-127374110D01*
X248700369Y-127300302D01*
X248912926Y-127238848D01*
X249131859Y-127189739D01*
X249333440Y-127156220D01*
X249394248Y-127148331D01*
X249461294Y-127140728D01*
X249532642Y-127133558D01*
X249606354Y-127126972D01*
X249680493Y-127121117D01*
X249753121Y-127116142D01*
X249822302Y-127112195D01*
X249886099Y-127109426D01*
X249942574Y-127107982D01*
X249964630Y-127107805D01*
X250004000Y-127107750D01*
X250004000Y-133292755D01*
X251017036Y-133289924D01*
X251117765Y-133289611D01*
X251215791Y-133289245D01*
X251310629Y-133288831D01*
X251401796Y-133288371D01*
X251488807Y-133287872D01*
X251571178Y-133287337D01*
X251648426Y-133286771D01*
X251720064Y-133286178D01*
X251785610Y-133285563D01*
X251844580Y-133284929D01*
X251896488Y-133284282D01*
X251940852Y-133283625D01*
X251977186Y-133282963D01*
X252005006Y-133282301D01*
X252023829Y-133281642D01*
X252033170Y-133280992D01*
X252034143Y-133280734D01*
X252034566Y-133272245D01*
X252034954Y-133248695D01*
X252035307Y-133210896D01*
X252035622Y-133159664D01*
X252035899Y-133095812D01*
X252036136Y-133020152D01*
X252036333Y-132933500D01*
X252036487Y-132836668D01*
X252036599Y-132730471D01*
X252036665Y-132615722D01*
X252036686Y-132493234D01*
X252036660Y-132363821D01*
X252036585Y-132228297D01*
X252036462Y-132087476D01*
X252036287Y-131942171D01*
X252036233Y-131903578D01*
X252035921Y-131687256D01*
X252035632Y-131486150D01*
X252035367Y-131299603D01*
X252035126Y-131126957D01*
X252034907Y-130967554D01*
X252034712Y-130820736D01*
X252034539Y-130685845D01*
X252034390Y-130562223D01*
X252034264Y-130449212D01*
X252034161Y-130346153D01*
X252034080Y-130252390D01*
X252034022Y-130167263D01*
X252033988Y-130090115D01*
X252033975Y-130020288D01*
X252033986Y-129957124D01*
X252034019Y-129899965D01*
X252034074Y-129848152D01*
X252034152Y-129801028D01*
X252034252Y-129757935D01*
X252034375Y-129718215D01*
X252034519Y-129681210D01*
X252034686Y-129646261D01*
X252034875Y-129612711D01*
X252035086Y-129579902D01*
X252035320Y-129547176D01*
X252035575Y-129513874D01*
X252035851Y-129479339D01*
X252036000Y-129461218D01*
X252036349Y-129395412D01*
X252036450Y-129316327D01*
X252036317Y-129226553D01*
X252035961Y-129128681D01*
X252035399Y-129025302D01*
X252034641Y-128919006D01*
X252033704Y-128812383D01*
X252032599Y-128708025D01*
X252031655Y-128631750D01*
X252028657Y-128351766D01*
X252027238Y-128080386D01*
X252027378Y-127810536D01*
X252028464Y-127608622D01*
X252032157Y-127105402D01*
X252363008Y-127110511D01*
D16*
X230837198Y-133345259D02*
G75*
G03X220187200Y-130974184I-5589998J-4741D01*
G01*
X230837198Y-133354741D02*
G75*
G02X220187200Y-135725816I-5589998J4741D01*
G01*
X230247200Y-133350000D02*
G75*
G03X230247200Y-133350000I-5000000J0D01*
G01*
X220187200Y-130974000D02*
X220187200Y-135726000D01*
D17*
X205663800Y-129997200D02*
X205663800Y-135585200D01*
X205663800Y-135585200D02*
X199821800Y-135585200D01*
X199821800Y-135585200D02*
X199821800Y-129997200D01*
X199821800Y-129997200D02*
X205663800Y-129997200D01*
G36*
X200837800Y-133680200D02*
G01*
X202742800Y-131775200D01*
X204647800Y-133680200D01*
X200837800Y-133680200D01*
G37*
X200837800Y-133680200D02*
X202742800Y-131775200D01*
X204647800Y-133680200D01*
X200837800Y-133680200D01*
X198907400Y-130098800D02*
X198907400Y-135686800D01*
X198907400Y-135686800D02*
X193065400Y-135686800D01*
X193065400Y-135686800D02*
X193065400Y-130098800D01*
X193065400Y-130098800D02*
X198907400Y-130098800D01*
G36*
X194081400Y-133781800D02*
G01*
X195986400Y-131876800D01*
X197891400Y-133781800D01*
X194081400Y-133781800D01*
G37*
X194081400Y-133781800D02*
X195986400Y-131876800D01*
X197891400Y-133781800D01*
X194081400Y-133781800D01*
D16*
X216663998Y-108453259D02*
G75*
G03X206014000Y-106082184I-5589998J-4741D01*
G01*
X216663998Y-108462741D02*
G75*
G02X206014000Y-110833816I-5589998J4741D01*
G01*
X216074000Y-108458000D02*
G75*
G03X216074000Y-108458000I-5000000J0D01*
G01*
X206014000Y-106082000D02*
X206014000Y-110834000D01*
X186694741Y-38914798D02*
G75*
G03X189065816Y-28264800I-4741J5589998D01*
G01*
X186685259Y-38914798D02*
G75*
G02X184314184Y-28264800I4741J5589998D01*
G01*
X191690000Y-33324800D02*
G75*
G03X191690000Y-33324800I-5000000J0D01*
G01*
X189066000Y-28264800D02*
X184314000Y-28264800D01*
X100884059Y-88136002D02*
G75*
G03X98512984Y-98786000I4741J-5589998D01*
G01*
X100893541Y-88136002D02*
G75*
G02X103264616Y-98786000I-4741J-5589998D01*
G01*
X105888800Y-93726000D02*
G75*
G03X105888800Y-93726000I-5000000J0D01*
G01*
X98512800Y-98786000D02*
X103264800Y-98786000D01*
X228297198Y-108453259D02*
G75*
G03X217647200Y-106082184I-5589998J-4741D01*
G01*
X228297198Y-108462741D02*
G75*
G02X217647200Y-110833816I-5589998J4741D01*
G01*
X227707200Y-108458000D02*
G75*
G03X227707200Y-108458000I-5000000J0D01*
G01*
X217647200Y-106082000D02*
X217647200Y-110834000D01*
X126131659Y-87831202D02*
G75*
G03X123760584Y-98481200I4741J-5589998D01*
G01*
X126141141Y-87831202D02*
G75*
G02X128512216Y-98481200I-4741J-5589998D01*
G01*
X131136400Y-93421200D02*
G75*
G03X131136400Y-93421200I-5000000J0D01*
G01*
X123760400Y-98481200D02*
X128512400Y-98481200D01*
X101452341Y-38457598D02*
G75*
G03X103823416Y-27807600I-4741J5589998D01*
G01*
X101442859Y-38457598D02*
G75*
G02X99071784Y-27807600I4741J5589998D01*
G01*
X106447600Y-32867600D02*
G75*
G03X106447600Y-32867600I-5000000J0D01*
G01*
X103823600Y-27807600D02*
X99071600Y-27807600D01*
X218441998Y-133345259D02*
G75*
G03X207792000Y-130974184I-5589998J-4741D01*
G01*
X218441998Y-133354741D02*
G75*
G02X207792000Y-135725816I-5589998J4741D01*
G01*
X217852000Y-133350000D02*
G75*
G03X217852000Y-133350000I-5000000J0D01*
G01*
X207792000Y-130974000D02*
X207792000Y-135726000D01*
X119784402Y-33431141D02*
G75*
G03X130434400Y-35802216I5589998J4741D01*
G01*
X119784402Y-33421659D02*
G75*
G02X130434400Y-31050584I5589998J-4741D01*
G01*
X130374400Y-33426400D02*
G75*
G03X130374400Y-33426400I-5000000J0D01*
G01*
X130434400Y-35802400D02*
X130434400Y-31050400D01*
X39781141Y-38762398D02*
G75*
G03X42152216Y-28112400I-4741J5589998D01*
G01*
X39771659Y-38762398D02*
G75*
G02X37400584Y-28112400I4741J5589998D01*
G01*
X44776400Y-33172400D02*
G75*
G03X44776400Y-33172400I-5000000J0D01*
G01*
X42152400Y-28112400D02*
X37400400Y-28112400D01*
X213967602Y-63149141D02*
G75*
G03X224617600Y-65520216I5589998J4741D01*
G01*
X213967602Y-63139659D02*
G75*
G02X224617600Y-60768584I5589998J-4741D01*
G01*
X224557600Y-63144400D02*
G75*
G03X224557600Y-63144400I-5000000J0D01*
G01*
X224617600Y-65520400D02*
X224617600Y-60768400D01*
X180439602Y-94594341D02*
G75*
G03X191089600Y-96965416I5589998J4741D01*
G01*
X180439602Y-94584859D02*
G75*
G02X191089600Y-92213784I5589998J-4741D01*
G01*
X191029600Y-94589600D02*
G75*
G03X191029600Y-94589600I-5000000J0D01*
G01*
X191089600Y-96965600D02*
X191089600Y-92213600D01*
X40686059Y-86916802D02*
G75*
G03X38314984Y-97566800I4741J-5589998D01*
G01*
X40695541Y-86916802D02*
G75*
G02X43066616Y-97566800I-4741J-5589998D01*
G01*
X45690800Y-92506800D02*
G75*
G03X45690800Y-92506800I-5000000J0D01*
G01*
X38314800Y-97566800D02*
X43066800Y-97566800D01*
X247256602Y-120188541D02*
G75*
G03X257906600Y-122559616I5589998J4741D01*
G01*
X247256602Y-120179059D02*
G75*
G02X257906600Y-117807984I5589998J-4741D01*
G01*
X257846600Y-120183800D02*
G75*
G03X257846600Y-120183800I-5000000J0D01*
G01*
X257906600Y-122559800D02*
X257906600Y-117807800D01*
X244931200Y-105836000D02*
X244931200Y-105156000D01*
X244931200Y-105156000D02*
X243971200Y-105156000D01*
X243971200Y-105156000D02*
X243971200Y-103946000D01*
X249251200Y-105156000D02*
X250211200Y-105156000D01*
X250211200Y-105156000D02*
X250211200Y-103946000D01*
X245251200Y-101916000D02*
X248931200Y-101916000D01*
D13*
X189378400Y-136093200D02*
X189378400Y-119463200D01*
X189378400Y-119463200D02*
X181508400Y-119463200D01*
X181508400Y-119463200D02*
X181508400Y-140033200D01*
X181508400Y-140033200D02*
X185318400Y-140033200D01*
D16*
X230612400Y-39546800D02*
X231292400Y-39546800D01*
X231292400Y-39546800D02*
X231292400Y-38586800D01*
X231292400Y-38586800D02*
X232502400Y-38586800D01*
X231292400Y-43866800D02*
X231292400Y-44826800D01*
X231292400Y-44826800D02*
X232502400Y-44826800D01*
X234532400Y-39866800D02*
X234532400Y-43546800D01*
X245446000Y-75005200D02*
X246126000Y-75005200D01*
X246126000Y-75005200D02*
X246126000Y-74045200D01*
X246126000Y-74045200D02*
X247336000Y-74045200D01*
X246126000Y-79325200D02*
X246126000Y-80285200D01*
X246126000Y-80285200D02*
X247336000Y-80285200D01*
X249366000Y-75325200D02*
X249366000Y-79005200D01*
X250362000Y-43933600D02*
X249682000Y-43933600D01*
X249682000Y-43933600D02*
X249682000Y-44893600D01*
X249682000Y-44893600D02*
X248472000Y-44893600D01*
X249682000Y-41613600D02*
X249682000Y-40653600D01*
X249682000Y-40653600D02*
X248472000Y-40653600D01*
X246442000Y-43613600D02*
X246442000Y-41933600D01*
X240964000Y-43917600D02*
X240284000Y-43917600D01*
X240284000Y-43917600D02*
X240284000Y-44877600D01*
X240284000Y-44877600D02*
X239074000Y-44877600D01*
X240284000Y-39597600D02*
X240284000Y-38637600D01*
X240284000Y-38637600D02*
X239074000Y-38637600D01*
X237044000Y-43597600D02*
X237044000Y-39917600D01*
X220808000Y-39597600D02*
X221488000Y-39597600D01*
X221488000Y-39597600D02*
X221488000Y-38637600D01*
X221488000Y-38637600D02*
X222698000Y-38637600D01*
X221488000Y-43917600D02*
X221488000Y-44877600D01*
X221488000Y-44877600D02*
X222698000Y-44877600D01*
X224728000Y-39917600D02*
X224728000Y-43597600D01*
X212730800Y-93531200D02*
X213410800Y-93531200D01*
X213410800Y-93531200D02*
X213410800Y-92571200D01*
X213410800Y-92571200D02*
X214620800Y-92571200D01*
X213410800Y-95851200D02*
X213410800Y-96811200D01*
X213410800Y-96811200D02*
X214620800Y-96811200D01*
X216650800Y-93851200D02*
X216650800Y-95531200D01*
X202793600Y-45466000D02*
X195173600Y-45466000D01*
X195173600Y-65786000D02*
X202793600Y-65786000D01*
X196443600Y-65786000D02*
X196443600Y-45466000D01*
X202793600Y-45466000D02*
X202793600Y-65786000D01*
X195173600Y-45466000D02*
X195173600Y-65786000D01*
D18*
X105562400Y-116054000D02*
X105562400Y-139724000D01*
X105562400Y-139724000D02*
X85242400Y-139724000D01*
X85242400Y-139724000D02*
X85242400Y-116054000D01*
X85242400Y-116054000D02*
X105562400Y-116054000D01*
D13*
X101802400Y-115489000D02*
X101802400Y-115489000D01*
X101602400Y-115489000D02*
X101602400Y-115489000D01*
X101602400Y-115489000D02*
G75*
G02X101802400Y-115489000I100000J0D01*
G01*
X101802400Y-115489000D02*
G75*
G02X101602400Y-115489000I-100000J0D01*
G01*
X166370000Y-139446000D02*
X176465000Y-139446000D01*
X176465000Y-139446000D02*
X176465000Y-131826000D01*
X176465000Y-131826000D02*
X162495000Y-131826000D01*
X162495000Y-131826000D02*
X162495000Y-135636000D01*
D18*
X57099200Y-116155600D02*
X57099200Y-139825600D01*
X57099200Y-139825600D02*
X36779200Y-139825600D01*
X36779200Y-139825600D02*
X36779200Y-116155600D01*
X36779200Y-116155600D02*
X57099200Y-116155600D01*
D13*
X53339200Y-115590600D02*
X53339200Y-115590600D01*
X53139200Y-115590600D02*
X53139200Y-115590600D01*
X53139200Y-115590600D02*
G75*
G02X53339200Y-115590600I100000J0D01*
G01*
X53339200Y-115590600D02*
G75*
G02X53139200Y-115590600I-100000J0D01*
G01*
X166268400Y-129286000D02*
X176363400Y-129286000D01*
X176363400Y-129286000D02*
X176363400Y-121666000D01*
X176363400Y-121666000D02*
X162393400Y-121666000D01*
X162393400Y-121666000D02*
X162393400Y-125476000D01*
D16*
X218725200Y-72144400D02*
X219405200Y-72144400D01*
X219405200Y-72144400D02*
X219405200Y-71184400D01*
X219405200Y-71184400D02*
X220615200Y-71184400D01*
X219405200Y-74464400D02*
X219405200Y-75424400D01*
X219405200Y-75424400D02*
X220615200Y-75424400D01*
X222645200Y-72464400D02*
X222645200Y-74144400D01*
X216630800Y-87723200D02*
X215950800Y-87723200D01*
X215950800Y-87723200D02*
X215950800Y-88683200D01*
X215950800Y-88683200D02*
X214740800Y-88683200D01*
X215950800Y-85403200D02*
X215950800Y-84443200D01*
X215950800Y-84443200D02*
X214740800Y-84443200D01*
X212710800Y-87403200D02*
X212710800Y-85723200D01*
X201980800Y-79603600D02*
X194360800Y-79603600D01*
X194360800Y-99923600D02*
X201980800Y-99923600D01*
X195630800Y-99923600D02*
X195630800Y-79603600D01*
X201980800Y-79603600D02*
X201980800Y-99923600D01*
X194360800Y-79603600D02*
X194360800Y-99923600D01*
D19*
X128756000Y-137470000D02*
X152676000Y-137470000D01*
X128756000Y-128270000D02*
X133749000Y-128270000D01*
X152676000Y-128270000D02*
X152676000Y-131470000D01*
X128756000Y-128270000D02*
X128756000Y-131470000D01*
X137616000Y-128270000D02*
X143816000Y-128270000D01*
X147616000Y-128270000D02*
X152676000Y-128270000D01*
X146070070Y-126822000D02*
G75*
G03X146070070Y-126822000I-245070J0D01*
G01*
D16*
X222672400Y-123491600D02*
X224672400Y-123491600D01*
X224672400Y-125631600D02*
X222672400Y-125631600D01*
X204270000Y-109591600D02*
X204270000Y-111591600D01*
X202130000Y-111591600D02*
X202130000Y-109591600D01*
X170430800Y-43316400D02*
X170430800Y-41316400D01*
X172570800Y-41316400D02*
X172570800Y-43316400D01*
X72240800Y-71542400D02*
X72240800Y-73542400D01*
X70100800Y-73542400D02*
X70100800Y-71542400D01*
X196084800Y-113623600D02*
X196084800Y-111623600D01*
X198224800Y-111623600D02*
X198224800Y-113623600D01*
X152860400Y-75962000D02*
X152860400Y-77962000D01*
X150720400Y-77962000D02*
X150720400Y-75962000D01*
X81581600Y-42808400D02*
X81581600Y-40808400D01*
X83721600Y-40808400D02*
X83721600Y-42808400D01*
X212398000Y-60315600D02*
X212398000Y-62315600D01*
X210258000Y-62315600D02*
X210258000Y-60315600D01*
X198428000Y-70272400D02*
X198428000Y-72272400D01*
X196288000Y-72272400D02*
X196288000Y-70272400D01*
X153057200Y-51342800D02*
X153057200Y-49342800D01*
X155197200Y-49342800D02*
X155197200Y-51342800D01*
X161242400Y-70526400D02*
X161242400Y-72526400D01*
X159102400Y-72526400D02*
X159102400Y-70526400D01*
X63446000Y-73593200D02*
X63446000Y-71593200D01*
X65586000Y-71593200D02*
X65586000Y-73593200D01*
X64868400Y-46161200D02*
X64868400Y-44161200D01*
X67008400Y-44161200D02*
X67008400Y-46161200D01*
X194326000Y-117649600D02*
X196326000Y-117649600D01*
X196326000Y-119789600D02*
X194326000Y-119789600D01*
X213407600Y-72120000D02*
X213407600Y-70120000D01*
X215547600Y-70120000D02*
X215547600Y-72120000D01*
X244675000Y-123758200D02*
X244675000Y-121758200D01*
X246815000Y-121758200D02*
X246815000Y-123758200D01*
X200352000Y-72221600D02*
X200352000Y-70221600D01*
X202492000Y-70221600D02*
X202492000Y-72221600D01*
X211940800Y-70170800D02*
X211940800Y-72170800D01*
X209800800Y-72170800D02*
X209800800Y-70170800D01*
X163318800Y-50784000D02*
X163318800Y-48784000D01*
X165458800Y-48784000D02*
X165458800Y-50784000D01*
X173821600Y-58270800D02*
X171821600Y-58270800D01*
X171821600Y-56130800D02*
X173821600Y-56130800D01*
X167433600Y-77047600D02*
X167433600Y-75047600D01*
X169573600Y-75047600D02*
X169573600Y-77047600D01*
X174634400Y-84636000D02*
X172634400Y-84636000D01*
X172634400Y-82496000D02*
X174634400Y-82496000D01*
X77619200Y-73745600D02*
X77619200Y-71745600D01*
X79759200Y-71745600D02*
X79759200Y-73745600D01*
X90255600Y-80521200D02*
X88255600Y-80521200D01*
X88255600Y-78381200D02*
X90255600Y-78381200D01*
X72996400Y-46262800D02*
X72996400Y-44262800D01*
X75136400Y-44262800D02*
X75136400Y-46262800D01*
X78673200Y-55375200D02*
X76673200Y-55375200D01*
X76673200Y-53235200D02*
X78673200Y-53235200D01*
X258721200Y-33512000D02*
X258721200Y-31512000D01*
X260861200Y-31512000D02*
X260861200Y-33512000D01*
X260454800Y-40402000D02*
X260454800Y-42402000D01*
X258314800Y-42402000D02*
X258314800Y-40402000D01*
X194224400Y-120799200D02*
X196224400Y-120799200D01*
X196224400Y-122939200D02*
X194224400Y-122939200D01*
X196173600Y-126292000D02*
X194173600Y-126292000D01*
X194173600Y-124152000D02*
X196173600Y-124152000D01*
X241150800Y-121783600D02*
X241150800Y-123783600D01*
X239010800Y-123783600D02*
X239010800Y-121783600D01*
X244173400Y-121809000D02*
X244173400Y-123809000D01*
X242033400Y-123809000D02*
X242033400Y-121809000D01*
X246332400Y-113655600D02*
X246332400Y-115655600D01*
X244192400Y-115655600D02*
X244192400Y-113655600D01*
X243176400Y-65160400D02*
X243176400Y-63160400D01*
X245316400Y-63160400D02*
X245316400Y-65160400D01*
X215712800Y-78990800D02*
X217712800Y-78990800D01*
X217712800Y-81130800D02*
X215712800Y-81130800D01*
X218233600Y-86648800D02*
X218233600Y-84648800D01*
X220373600Y-84648800D02*
X220373600Y-86648800D01*
X223421600Y-84801200D02*
X223421600Y-86801200D01*
X221281600Y-86801200D02*
X221281600Y-84801200D01*
X247884400Y-65083200D02*
X248564400Y-65083200D01*
X248564400Y-65083200D02*
X248564400Y-64123200D01*
X248564400Y-64123200D02*
X249774400Y-64123200D01*
X248564400Y-67403200D02*
X248564400Y-68363200D01*
X248564400Y-68363200D02*
X249774400Y-68363200D01*
X251804400Y-65403200D02*
X251804400Y-67083200D01*
X208912800Y-115500800D02*
X207412800Y-115500800D01*
X207412800Y-115500800D02*
X207412800Y-116190800D01*
X207412800Y-116190800D02*
X202287800Y-116190800D01*
X208912800Y-125900800D02*
X207412800Y-125900800D01*
X207412800Y-125900800D02*
X207412800Y-125210800D01*
X207412800Y-125210800D02*
X206312800Y-125210800D01*
X247884400Y-51172000D02*
X248564400Y-51172000D01*
X248564400Y-51172000D02*
X248564400Y-50212000D01*
X248564400Y-50212000D02*
X249774400Y-50212000D01*
X248564400Y-54492000D02*
X248564400Y-55452000D01*
X248564400Y-55452000D02*
X249774400Y-55452000D01*
X251804400Y-51492000D02*
X251804400Y-54172000D01*
X240721600Y-51273600D02*
X241401600Y-51273600D01*
X241401600Y-51273600D02*
X241401600Y-50313600D01*
X241401600Y-50313600D02*
X242611600Y-50313600D01*
X241401600Y-54593600D02*
X241401600Y-55553600D01*
X241401600Y-55553600D02*
X242611600Y-55553600D01*
X244641600Y-51593600D02*
X244641600Y-54273600D01*
X233406400Y-51273600D02*
X234086400Y-51273600D01*
X234086400Y-51273600D02*
X234086400Y-50313600D01*
X234086400Y-50313600D02*
X235296400Y-50313600D01*
X234086400Y-54593600D02*
X234086400Y-55553600D01*
X234086400Y-55553600D02*
X235296400Y-55553600D01*
X237326400Y-51593600D02*
X237326400Y-54273600D01*
X226396000Y-51273600D02*
X227076000Y-51273600D01*
X227076000Y-51273600D02*
X227076000Y-50313600D01*
X227076000Y-50313600D02*
X228286000Y-50313600D01*
X227076000Y-54593600D02*
X227076000Y-55553600D01*
X227076000Y-55553600D02*
X228286000Y-55553600D01*
X230316000Y-51593600D02*
X230316000Y-54273600D01*
X219436400Y-51375200D02*
X220116400Y-51375200D01*
X220116400Y-51375200D02*
X220116400Y-50415200D01*
X220116400Y-50415200D02*
X221326400Y-50415200D01*
X220116400Y-54695200D02*
X220116400Y-55655200D01*
X220116400Y-55655200D02*
X221326400Y-55655200D01*
X223356400Y-51695200D02*
X223356400Y-54375200D01*
X212273600Y-51426000D02*
X212953600Y-51426000D01*
X212953600Y-51426000D02*
X212953600Y-50466000D01*
X212953600Y-50466000D02*
X214163600Y-50466000D01*
X212953600Y-54746000D02*
X212953600Y-55706000D01*
X212953600Y-55706000D02*
X214163600Y-55706000D01*
X216193600Y-51746000D02*
X216193600Y-54426000D01*
X259245600Y-21722800D02*
X259245600Y-22402800D01*
X259245600Y-22402800D02*
X260205600Y-22402800D01*
X260205600Y-22402800D02*
X260205600Y-23612800D01*
X246925600Y-22402800D02*
X245965600Y-22402800D01*
X245965600Y-22402800D02*
X245965600Y-23612800D01*
X258925600Y-25642800D02*
X255455600Y-25642800D01*
X255455600Y-25642800D02*
X255455600Y-27112800D01*
X255455600Y-27112800D02*
X250715600Y-27112800D01*
X250715600Y-27112800D02*
X250715600Y-25642800D01*
X250715600Y-25642800D02*
X247245600Y-25642800D01*
X217088000Y-43417600D02*
X216408000Y-43417600D01*
X216408000Y-43417600D02*
X216408000Y-44377600D01*
X216408000Y-44377600D02*
X215198000Y-44377600D01*
X216408000Y-40097600D02*
X216408000Y-39137600D01*
X216408000Y-39137600D02*
X215198000Y-39137600D01*
X213168000Y-43097600D02*
X213168000Y-40417600D01*
D15*
X251903200Y-99750400D02*
X251903200Y-84520400D01*
X235903200Y-99750400D02*
X251903200Y-99750400D01*
X235903200Y-84520400D02*
X235903200Y-99750400D01*
X235903200Y-84520400D02*
X251903200Y-84520400D01*
D18*
X152087600Y-122481600D02*
X132087600Y-122481600D01*
X132087600Y-122481600D02*
X132087600Y-116481600D01*
X132087600Y-116481600D02*
X152087600Y-116481600D01*
X152087600Y-116481600D02*
X152087600Y-122481600D01*
D10*
X45212000Y-60655200D02*
X97212000Y-60655200D01*
X97212000Y-60655200D02*
X97212000Y-38655200D01*
X97212000Y-38655200D02*
X45212000Y-38655200D01*
X45212000Y-38655200D02*
X45212000Y-60655200D01*
X45516800Y-87579200D02*
X97516800Y-87579200D01*
X97516800Y-87579200D02*
X97516800Y-65579200D01*
X97516800Y-65579200D02*
X45516800Y-65579200D01*
X45516800Y-65579200D02*
X45516800Y-87579200D01*
X130098800Y-61722000D02*
X182098800Y-61722000D01*
X182098800Y-61722000D02*
X182098800Y-39722000D01*
X182098800Y-39722000D02*
X130098800Y-39722000D01*
X130098800Y-39722000D02*
X130098800Y-61722000D01*
X130454400Y-87071200D02*
X182454400Y-87071200D01*
X182454400Y-87071200D02*
X182454400Y-65071200D01*
X182454400Y-65071200D02*
X130454400Y-65071200D01*
X130454400Y-65071200D02*
X130454400Y-87071200D01*
D18*
X183980900Y-134755700D02*
X183980900Y-137430700D01*
X186655900Y-137430700D01*
X186655900Y-134755700D01*
X183980900Y-134755700D01*
X186655900Y-129743200D02*
G75*
G03X186655900Y-129743200I-1337500J0D01*
G01*
X186655900Y-123393200D02*
G75*
G03X186655900Y-123393200I-1337500J0D01*
G01*
X103097400Y-118364000D02*
G75*
G03X103097400Y-118364000I-1345000J0D01*
G01*
X96747400Y-118364000D02*
G75*
G03X96747400Y-118364000I-1345000J0D01*
G01*
X90397400Y-118364000D02*
G75*
G03X90397400Y-118364000I-1345000J0D01*
G01*
X103097400Y-124714000D02*
G75*
G03X103097400Y-124714000I-1345000J0D01*
G01*
X96747400Y-124714000D02*
G75*
G03X96747400Y-124714000I-1345000J0D01*
G01*
X90397400Y-124714000D02*
G75*
G03X90397400Y-124714000I-1345000J0D01*
G01*
X103097400Y-131064000D02*
G75*
G03X103097400Y-131064000I-1345000J0D01*
G01*
X96747400Y-131064000D02*
G75*
G03X96747400Y-131064000I-1345000J0D01*
G01*
X90397400Y-131064000D02*
G75*
G03X90397400Y-131064000I-1345000J0D01*
G01*
X103097400Y-137414000D02*
G75*
G03X103097400Y-137414000I-1345000J0D01*
G01*
X96747400Y-137414000D02*
G75*
G03X96747400Y-137414000I-1345000J0D01*
G01*
X90397400Y-137414000D02*
G75*
G03X90397400Y-137414000I-1345000J0D01*
G01*
X164882500Y-134148500D02*
X164882500Y-137123500D01*
X167857500Y-137123500D01*
X167857500Y-134148500D01*
X164882500Y-134148500D01*
X174207500Y-135636000D02*
G75*
G03X174207500Y-135636000I-1487500J0D01*
G01*
X54634200Y-118465600D02*
G75*
G03X54634200Y-118465600I-1345000J0D01*
G01*
X48284200Y-118465600D02*
G75*
G03X48284200Y-118465600I-1345000J0D01*
G01*
X41934200Y-118465600D02*
G75*
G03X41934200Y-118465600I-1345000J0D01*
G01*
X54634200Y-124815600D02*
G75*
G03X54634200Y-124815600I-1345000J0D01*
G01*
X48284200Y-124815600D02*
G75*
G03X48284200Y-124815600I-1345000J0D01*
G01*
X41934200Y-124815600D02*
G75*
G03X41934200Y-124815600I-1345000J0D01*
G01*
X54634200Y-131165600D02*
G75*
G03X54634200Y-131165600I-1345000J0D01*
G01*
X48284200Y-131165600D02*
G75*
G03X48284200Y-131165600I-1345000J0D01*
G01*
X41934200Y-131165600D02*
G75*
G03X41934200Y-131165600I-1345000J0D01*
G01*
X54634200Y-137515600D02*
G75*
G03X54634200Y-137515600I-1345000J0D01*
G01*
X48284200Y-137515600D02*
G75*
G03X48284200Y-137515600I-1345000J0D01*
G01*
X41934200Y-137515600D02*
G75*
G03X41934200Y-137515600I-1345000J0D01*
G01*
X164780900Y-123988500D02*
X164780900Y-126963500D01*
X167755900Y-126963500D01*
X167755900Y-123988500D01*
X164780900Y-123988500D01*
X174105900Y-125476000D02*
G75*
G03X174105900Y-125476000I-1487500J0D01*
G01*
X147716000Y-129610000D02*
G75*
G03X147716000Y-129610000I-2000000J0D01*
G01*
X147716000Y-134010000D02*
G75*
G03X147716000Y-134010000I-2000000J0D01*
G01*
X137716000Y-129610000D02*
G75*
G03X137716000Y-129610000I-2000000J0D01*
G01*
X137716000Y-134010000D02*
G75*
G03X137716000Y-134010000I-2000000J0D01*
G01*
X132136000Y-133660000D02*
G75*
G03X132136000Y-133660000I-2150000J0D01*
G01*
X153596000Y-133660000D02*
G75*
G03X153596000Y-133660000I-2150000J0D01*
G01*
D10*
X92504780Y-26263504D02*
X91504780Y-26263504D01*
X91885733Y-26263504D02*
X91838114Y-26168266D01*
X91838114Y-25977790D01*
X91885733Y-25882552D01*
X91933352Y-25834933D01*
X92028590Y-25787314D01*
X92314304Y-25787314D01*
X92409542Y-25834933D01*
X92457161Y-25882552D01*
X92504780Y-25977790D01*
X92504780Y-26168266D01*
X92457161Y-26263504D01*
X92504780Y-25215885D02*
X92457161Y-25311123D01*
X92361923Y-25358742D01*
X91504780Y-25358742D01*
X92504780Y-24406361D02*
X91980971Y-24406361D01*
X91885733Y-24453980D01*
X91838114Y-24549219D01*
X91838114Y-24739695D01*
X91885733Y-24834933D01*
X92457161Y-24406361D02*
X92504780Y-24501600D01*
X92504780Y-24739695D01*
X92457161Y-24834933D01*
X92361923Y-24882552D01*
X92266685Y-24882552D01*
X92171447Y-24834933D01*
X92123828Y-24739695D01*
X92123828Y-24501600D01*
X92076209Y-24406361D01*
X92457161Y-23501600D02*
X92504780Y-23596838D01*
X92504780Y-23787314D01*
X92457161Y-23882552D01*
X92409542Y-23930171D01*
X92314304Y-23977790D01*
X92028590Y-23977790D01*
X91933352Y-23930171D01*
X91885733Y-23882552D01*
X91838114Y-23787314D01*
X91838114Y-23596838D01*
X91885733Y-23501600D01*
X92504780Y-23073028D02*
X91504780Y-23073028D01*
X92123828Y-22977790D02*
X92504780Y-22692076D01*
X91838114Y-22692076D02*
X92219066Y-23073028D01*
X76504780Y-26553980D02*
X75838114Y-26553980D01*
X76028590Y-26553980D02*
X75933352Y-26506361D01*
X75885733Y-26458742D01*
X75838114Y-26363504D01*
X75838114Y-26268266D01*
X76457161Y-25553980D02*
X76504780Y-25649219D01*
X76504780Y-25839695D01*
X76457161Y-25934933D01*
X76361923Y-25982552D01*
X75980971Y-25982552D01*
X75885733Y-25934933D01*
X75838114Y-25839695D01*
X75838114Y-25649219D01*
X75885733Y-25553980D01*
X75980971Y-25506361D01*
X76076209Y-25506361D01*
X76171447Y-25982552D01*
X76504780Y-24649219D02*
X75504780Y-24649219D01*
X76457161Y-24649219D02*
X76504780Y-24744457D01*
X76504780Y-24934933D01*
X76457161Y-25030171D01*
X76409542Y-25077790D01*
X76314304Y-25125409D01*
X76028590Y-25125409D01*
X75933352Y-25077790D01*
X75885733Y-25030171D01*
X75838114Y-24934933D01*
X75838114Y-24744457D01*
X75885733Y-24649219D01*
X76538114Y-103187314D02*
X77204780Y-102996838D01*
X76728590Y-102806361D01*
X77204780Y-102615885D01*
X76538114Y-102425409D01*
X77204780Y-102044457D02*
X76204780Y-102044457D01*
X77204780Y-101615885D02*
X76680971Y-101615885D01*
X76585733Y-101663504D01*
X76538114Y-101758742D01*
X76538114Y-101901600D01*
X76585733Y-101996838D01*
X76633352Y-102044457D01*
X77204780Y-101139695D02*
X76538114Y-101139695D01*
X76204780Y-101139695D02*
X76252400Y-101187314D01*
X76300019Y-101139695D01*
X76252400Y-101092076D01*
X76204780Y-101139695D01*
X76300019Y-101139695D01*
X76538114Y-100806361D02*
X76538114Y-100425409D01*
X76204780Y-100663504D02*
X77061923Y-100663504D01*
X77157161Y-100615885D01*
X77204780Y-100520647D01*
X77204780Y-100425409D01*
X77157161Y-99711123D02*
X77204780Y-99806361D01*
X77204780Y-99996838D01*
X77157161Y-100092076D01*
X77061923Y-100139695D01*
X76680971Y-100139695D01*
X76585733Y-100092076D01*
X76538114Y-99996838D01*
X76538114Y-99806361D01*
X76585733Y-99711123D01*
X76680971Y-99663504D01*
X76776209Y-99663504D01*
X76871447Y-100139695D01*
X83938114Y-103406361D02*
X84747638Y-103406361D01*
X84842876Y-103453980D01*
X84890495Y-103501600D01*
X84938114Y-103596838D01*
X84938114Y-103739695D01*
X84890495Y-103834933D01*
X84557161Y-103406361D02*
X84604780Y-103501600D01*
X84604780Y-103692076D01*
X84557161Y-103787314D01*
X84509542Y-103834933D01*
X84414304Y-103882552D01*
X84128590Y-103882552D01*
X84033352Y-103834933D01*
X83985733Y-103787314D01*
X83938114Y-103692076D01*
X83938114Y-103501600D01*
X83985733Y-103406361D01*
X84604780Y-102930171D02*
X83938114Y-102930171D01*
X84128590Y-102930171D02*
X84033352Y-102882552D01*
X83985733Y-102834933D01*
X83938114Y-102739695D01*
X83938114Y-102644457D01*
X84557161Y-101930171D02*
X84604780Y-102025409D01*
X84604780Y-102215885D01*
X84557161Y-102311123D01*
X84461923Y-102358742D01*
X84080971Y-102358742D01*
X83985733Y-102311123D01*
X83938114Y-102215885D01*
X83938114Y-102025409D01*
X83985733Y-101930171D01*
X84080971Y-101882552D01*
X84176209Y-101882552D01*
X84271447Y-102358742D01*
X84557161Y-101073028D02*
X84604780Y-101168266D01*
X84604780Y-101358742D01*
X84557161Y-101453980D01*
X84461923Y-101501600D01*
X84080971Y-101501600D01*
X83985733Y-101453980D01*
X83938114Y-101358742D01*
X83938114Y-101168266D01*
X83985733Y-101073028D01*
X84080971Y-101025409D01*
X84176209Y-101025409D01*
X84271447Y-101501600D01*
X83938114Y-100596838D02*
X84604780Y-100596838D01*
X84033352Y-100596838D02*
X83985733Y-100549219D01*
X83938114Y-100453980D01*
X83938114Y-100311123D01*
X83985733Y-100215885D01*
X84080971Y-100168266D01*
X84604780Y-100168266D01*
X91604780Y-102658742D02*
X90604780Y-102658742D01*
X90985733Y-102658742D02*
X90938114Y-102563504D01*
X90938114Y-102373028D01*
X90985733Y-102277790D01*
X91033352Y-102230171D01*
X91128590Y-102182552D01*
X91414304Y-102182552D01*
X91509542Y-102230171D01*
X91557161Y-102277790D01*
X91604780Y-102373028D01*
X91604780Y-102563504D01*
X91557161Y-102658742D01*
X91604780Y-101611123D02*
X91557161Y-101706361D01*
X91461923Y-101753980D01*
X90604780Y-101753980D01*
X90938114Y-100801600D02*
X91604780Y-100801600D01*
X90938114Y-101230171D02*
X91461923Y-101230171D01*
X91557161Y-101182552D01*
X91604780Y-101087314D01*
X91604780Y-100944457D01*
X91557161Y-100849219D01*
X91509542Y-100801600D01*
X91557161Y-99944457D02*
X91604780Y-100039695D01*
X91604780Y-100230171D01*
X91557161Y-100325409D01*
X91461923Y-100373028D01*
X91080971Y-100373028D01*
X90985733Y-100325409D01*
X90938114Y-100230171D01*
X90938114Y-100039695D01*
X90985733Y-99944457D01*
X91080971Y-99896838D01*
X91176209Y-99896838D01*
X91271447Y-100373028D01*
X83904780Y-39163504D02*
X82904780Y-39163504D01*
X83285733Y-39163504D02*
X83238114Y-39068266D01*
X83238114Y-38877790D01*
X83285733Y-38782552D01*
X83333352Y-38734933D01*
X83428590Y-38687314D01*
X83714304Y-38687314D01*
X83809542Y-38734933D01*
X83857161Y-38782552D01*
X83904780Y-38877790D01*
X83904780Y-39068266D01*
X83857161Y-39163504D01*
X83904780Y-38115885D02*
X83857161Y-38211123D01*
X83761923Y-38258742D01*
X82904780Y-38258742D01*
X83904780Y-37306361D02*
X83380971Y-37306361D01*
X83285733Y-37353980D01*
X83238114Y-37449219D01*
X83238114Y-37639695D01*
X83285733Y-37734933D01*
X83857161Y-37306361D02*
X83904780Y-37401600D01*
X83904780Y-37639695D01*
X83857161Y-37734933D01*
X83761923Y-37782552D01*
X83666685Y-37782552D01*
X83571447Y-37734933D01*
X83523828Y-37639695D01*
X83523828Y-37401600D01*
X83476209Y-37306361D01*
X83857161Y-36401600D02*
X83904780Y-36496838D01*
X83904780Y-36687314D01*
X83857161Y-36782552D01*
X83809542Y-36830171D01*
X83714304Y-36877790D01*
X83428590Y-36877790D01*
X83333352Y-36830171D01*
X83285733Y-36782552D01*
X83238114Y-36687314D01*
X83238114Y-36496838D01*
X83285733Y-36401600D01*
X83904780Y-35973028D02*
X82904780Y-35973028D01*
X83523828Y-35877790D02*
X83904780Y-35592076D01*
X83238114Y-35592076D02*
X83619066Y-35973028D01*
X84838114Y-39487314D02*
X85504780Y-39296838D01*
X85028590Y-39106361D01*
X85504780Y-38915885D01*
X84838114Y-38725409D01*
X85504780Y-38344457D02*
X84504780Y-38344457D01*
X85504780Y-37915885D02*
X84980971Y-37915885D01*
X84885733Y-37963504D01*
X84838114Y-38058742D01*
X84838114Y-38201600D01*
X84885733Y-38296838D01*
X84933352Y-38344457D01*
X85504780Y-37439695D02*
X84838114Y-37439695D01*
X84504780Y-37439695D02*
X84552400Y-37487314D01*
X84600019Y-37439695D01*
X84552400Y-37392076D01*
X84504780Y-37439695D01*
X84600019Y-37439695D01*
X84838114Y-37106361D02*
X84838114Y-36725409D01*
X84504780Y-36963504D02*
X85361923Y-36963504D01*
X85457161Y-36915885D01*
X85504780Y-36820647D01*
X85504780Y-36725409D01*
X85457161Y-36011123D02*
X85504780Y-36106361D01*
X85504780Y-36296838D01*
X85457161Y-36392076D01*
X85361923Y-36439695D01*
X84980971Y-36439695D01*
X84885733Y-36392076D01*
X84838114Y-36296838D01*
X84838114Y-36106361D01*
X84885733Y-36011123D01*
X84980971Y-35963504D01*
X85076209Y-35963504D01*
X85171447Y-36439695D01*
X87069066Y-68515885D02*
X87235733Y-68992076D01*
X87235733Y-69944457D01*
X87069066Y-70420647D01*
X86735733Y-70658742D01*
X85402400Y-70658742D01*
X85069066Y-70420647D01*
X84902400Y-69944457D01*
X84902400Y-68992076D01*
X85069066Y-68515885D01*
X85402400Y-68277790D01*
X85735733Y-68277790D01*
X86069066Y-70658742D01*
X87069066Y-66373028D02*
X87235733Y-65896838D01*
X87235733Y-64944457D01*
X87069066Y-64468266D01*
X86735733Y-64230171D01*
X86569066Y-64230171D01*
X86235733Y-64468266D01*
X86069066Y-64944457D01*
X86069066Y-65658742D01*
X85902400Y-66134933D01*
X85569066Y-66373028D01*
X85402400Y-66373028D01*
X85069066Y-66134933D01*
X84902400Y-65658742D01*
X84902400Y-64944457D01*
X85069066Y-64468266D01*
X87069066Y-59944457D02*
X87235733Y-60420647D01*
X87235733Y-61373028D01*
X87069066Y-61849219D01*
X86902400Y-62087314D01*
X86569066Y-62325409D01*
X85569066Y-62325409D01*
X85235733Y-62087314D01*
X85069066Y-61849219D01*
X84902400Y-61373028D01*
X84902400Y-60420647D01*
X85069066Y-59944457D01*
D20*
X207575768Y-135395856D02*
X206173258Y-135395856D01*
X206173258Y-135061925D01*
X206240045Y-134861566D01*
X206373617Y-134727994D01*
X206507189Y-134661208D01*
X206774334Y-134594422D01*
X206974693Y-134594422D01*
X207241837Y-134661208D01*
X207375410Y-134727994D01*
X207508982Y-134861566D01*
X207575768Y-135061925D01*
X207575768Y-135395856D01*
X207709341Y-134327277D02*
X207709341Y-133258698D01*
X207175051Y-132991553D02*
X207175051Y-132323691D01*
X207575768Y-133125125D02*
X206173258Y-132657622D01*
X207575768Y-132190119D01*
X207575768Y-131054754D02*
X207575768Y-131722615D01*
X206173258Y-131722615D01*
X206173258Y-130787609D02*
X206173258Y-129986175D01*
X207575768Y-130386892D02*
X206173258Y-130386892D01*
X200819368Y-135497456D02*
X199416858Y-135497456D01*
X199416858Y-135163525D01*
X199483645Y-134963166D01*
X199617217Y-134829594D01*
X199750789Y-134762808D01*
X200017934Y-134696022D01*
X200218293Y-134696022D01*
X200485437Y-134762808D01*
X200619010Y-134829594D01*
X200752582Y-134963166D01*
X200819368Y-135163525D01*
X200819368Y-135497456D01*
X200952941Y-134428877D02*
X200952941Y-133360298D01*
X200418651Y-133093153D02*
X200418651Y-132425291D01*
X200819368Y-133226725D02*
X199416858Y-132759222D01*
X200819368Y-132291719D01*
X200819368Y-131156354D02*
X200819368Y-131824215D01*
X199416858Y-131824215D01*
X199416858Y-130889209D02*
X199416858Y-130087775D01*
X200819368Y-130488492D02*
X199416858Y-130488492D01*
D10*
X66444380Y-26314304D02*
X65444380Y-26314304D01*
X65825333Y-26314304D02*
X65777714Y-26219066D01*
X65777714Y-26028590D01*
X65825333Y-25933352D01*
X65872952Y-25885733D01*
X65968190Y-25838114D01*
X66253904Y-25838114D01*
X66349142Y-25885733D01*
X66396761Y-25933352D01*
X66444380Y-26028590D01*
X66444380Y-26219066D01*
X66396761Y-26314304D01*
X66444380Y-25266685D02*
X66396761Y-25361923D01*
X66301523Y-25409542D01*
X65444380Y-25409542D01*
X66444380Y-24457161D02*
X65920571Y-24457161D01*
X65825333Y-24504780D01*
X65777714Y-24600019D01*
X65777714Y-24790495D01*
X65825333Y-24885733D01*
X66396761Y-24457161D02*
X66444380Y-24552400D01*
X66444380Y-24790495D01*
X66396761Y-24885733D01*
X66301523Y-24933352D01*
X66206285Y-24933352D01*
X66111047Y-24885733D01*
X66063428Y-24790495D01*
X66063428Y-24552400D01*
X66015809Y-24457161D01*
X66396761Y-23552400D02*
X66444380Y-23647638D01*
X66444380Y-23838114D01*
X66396761Y-23933352D01*
X66349142Y-23980971D01*
X66253904Y-24028590D01*
X65968190Y-24028590D01*
X65872952Y-23980971D01*
X65825333Y-23933352D01*
X65777714Y-23838114D01*
X65777714Y-23647638D01*
X65825333Y-23552400D01*
X66444380Y-23123828D02*
X65444380Y-23123828D01*
X66063428Y-23028590D02*
X66444380Y-22742876D01*
X65777714Y-22742876D02*
X66158666Y-23123828D01*
X50444380Y-26604780D02*
X49777714Y-26604780D01*
X49968190Y-26604780D02*
X49872952Y-26557161D01*
X49825333Y-26509542D01*
X49777714Y-26414304D01*
X49777714Y-26319066D01*
X50396761Y-25604780D02*
X50444380Y-25700019D01*
X50444380Y-25890495D01*
X50396761Y-25985733D01*
X50301523Y-26033352D01*
X49920571Y-26033352D01*
X49825333Y-25985733D01*
X49777714Y-25890495D01*
X49777714Y-25700019D01*
X49825333Y-25604780D01*
X49920571Y-25557161D01*
X50015809Y-25557161D01*
X50111047Y-26033352D01*
X50444380Y-24700019D02*
X49444380Y-24700019D01*
X50396761Y-24700019D02*
X50444380Y-24795257D01*
X50444380Y-24985733D01*
X50396761Y-25080971D01*
X50349142Y-25128590D01*
X50253904Y-25176209D01*
X49968190Y-25176209D01*
X49872952Y-25128590D01*
X49825333Y-25080971D01*
X49777714Y-24985733D01*
X49777714Y-24795257D01*
X49825333Y-24700019D01*
X50477714Y-103238114D02*
X51144380Y-103047638D01*
X50668190Y-102857161D01*
X51144380Y-102666685D01*
X50477714Y-102476209D01*
X51144380Y-102095257D02*
X50144380Y-102095257D01*
X51144380Y-101666685D02*
X50620571Y-101666685D01*
X50525333Y-101714304D01*
X50477714Y-101809542D01*
X50477714Y-101952400D01*
X50525333Y-102047638D01*
X50572952Y-102095257D01*
X51144380Y-101190495D02*
X50477714Y-101190495D01*
X50144380Y-101190495D02*
X50192000Y-101238114D01*
X50239619Y-101190495D01*
X50192000Y-101142876D01*
X50144380Y-101190495D01*
X50239619Y-101190495D01*
X50477714Y-100857161D02*
X50477714Y-100476209D01*
X50144380Y-100714304D02*
X51001523Y-100714304D01*
X51096761Y-100666685D01*
X51144380Y-100571447D01*
X51144380Y-100476209D01*
X51096761Y-99761923D02*
X51144380Y-99857161D01*
X51144380Y-100047638D01*
X51096761Y-100142876D01*
X51001523Y-100190495D01*
X50620571Y-100190495D01*
X50525333Y-100142876D01*
X50477714Y-100047638D01*
X50477714Y-99857161D01*
X50525333Y-99761923D01*
X50620571Y-99714304D01*
X50715809Y-99714304D01*
X50811047Y-100190495D01*
X57877714Y-103457161D02*
X58687238Y-103457161D01*
X58782476Y-103504780D01*
X58830095Y-103552400D01*
X58877714Y-103647638D01*
X58877714Y-103790495D01*
X58830095Y-103885733D01*
X58496761Y-103457161D02*
X58544380Y-103552400D01*
X58544380Y-103742876D01*
X58496761Y-103838114D01*
X58449142Y-103885733D01*
X58353904Y-103933352D01*
X58068190Y-103933352D01*
X57972952Y-103885733D01*
X57925333Y-103838114D01*
X57877714Y-103742876D01*
X57877714Y-103552400D01*
X57925333Y-103457161D01*
X58544380Y-102980971D02*
X57877714Y-102980971D01*
X58068190Y-102980971D02*
X57972952Y-102933352D01*
X57925333Y-102885733D01*
X57877714Y-102790495D01*
X57877714Y-102695257D01*
X58496761Y-101980971D02*
X58544380Y-102076209D01*
X58544380Y-102266685D01*
X58496761Y-102361923D01*
X58401523Y-102409542D01*
X58020571Y-102409542D01*
X57925333Y-102361923D01*
X57877714Y-102266685D01*
X57877714Y-102076209D01*
X57925333Y-101980971D01*
X58020571Y-101933352D01*
X58115809Y-101933352D01*
X58211047Y-102409542D01*
X58496761Y-101123828D02*
X58544380Y-101219066D01*
X58544380Y-101409542D01*
X58496761Y-101504780D01*
X58401523Y-101552400D01*
X58020571Y-101552400D01*
X57925333Y-101504780D01*
X57877714Y-101409542D01*
X57877714Y-101219066D01*
X57925333Y-101123828D01*
X58020571Y-101076209D01*
X58115809Y-101076209D01*
X58211047Y-101552400D01*
X57877714Y-100647638D02*
X58544380Y-100647638D01*
X57972952Y-100647638D02*
X57925333Y-100600019D01*
X57877714Y-100504780D01*
X57877714Y-100361923D01*
X57925333Y-100266685D01*
X58020571Y-100219066D01*
X58544380Y-100219066D01*
X65544380Y-102709542D02*
X64544380Y-102709542D01*
X64925333Y-102709542D02*
X64877714Y-102614304D01*
X64877714Y-102423828D01*
X64925333Y-102328590D01*
X64972952Y-102280971D01*
X65068190Y-102233352D01*
X65353904Y-102233352D01*
X65449142Y-102280971D01*
X65496761Y-102328590D01*
X65544380Y-102423828D01*
X65544380Y-102614304D01*
X65496761Y-102709542D01*
X65544380Y-101661923D02*
X65496761Y-101757161D01*
X65401523Y-101804780D01*
X64544380Y-101804780D01*
X64877714Y-100852400D02*
X65544380Y-100852400D01*
X64877714Y-101280971D02*
X65401523Y-101280971D01*
X65496761Y-101233352D01*
X65544380Y-101138114D01*
X65544380Y-100995257D01*
X65496761Y-100900019D01*
X65449142Y-100852400D01*
X65496761Y-99995257D02*
X65544380Y-100090495D01*
X65544380Y-100280971D01*
X65496761Y-100376209D01*
X65401523Y-100423828D01*
X65020571Y-100423828D01*
X64925333Y-100376209D01*
X64877714Y-100280971D01*
X64877714Y-100090495D01*
X64925333Y-99995257D01*
X65020571Y-99947638D01*
X65115809Y-99947638D01*
X65211047Y-100423828D01*
X57844380Y-39214304D02*
X56844380Y-39214304D01*
X57225333Y-39214304D02*
X57177714Y-39119066D01*
X57177714Y-38928590D01*
X57225333Y-38833352D01*
X57272952Y-38785733D01*
X57368190Y-38738114D01*
X57653904Y-38738114D01*
X57749142Y-38785733D01*
X57796761Y-38833352D01*
X57844380Y-38928590D01*
X57844380Y-39119066D01*
X57796761Y-39214304D01*
X57844380Y-38166685D02*
X57796761Y-38261923D01*
X57701523Y-38309542D01*
X56844380Y-38309542D01*
X57844380Y-37357161D02*
X57320571Y-37357161D01*
X57225333Y-37404780D01*
X57177714Y-37500019D01*
X57177714Y-37690495D01*
X57225333Y-37785733D01*
X57796761Y-37357161D02*
X57844380Y-37452400D01*
X57844380Y-37690495D01*
X57796761Y-37785733D01*
X57701523Y-37833352D01*
X57606285Y-37833352D01*
X57511047Y-37785733D01*
X57463428Y-37690495D01*
X57463428Y-37452400D01*
X57415809Y-37357161D01*
X57796761Y-36452400D02*
X57844380Y-36547638D01*
X57844380Y-36738114D01*
X57796761Y-36833352D01*
X57749142Y-36880971D01*
X57653904Y-36928590D01*
X57368190Y-36928590D01*
X57272952Y-36880971D01*
X57225333Y-36833352D01*
X57177714Y-36738114D01*
X57177714Y-36547638D01*
X57225333Y-36452400D01*
X57844380Y-36023828D02*
X56844380Y-36023828D01*
X57463428Y-35928590D02*
X57844380Y-35642876D01*
X57177714Y-35642876D02*
X57558666Y-36023828D01*
X58777714Y-39538114D02*
X59444380Y-39347638D01*
X58968190Y-39157161D01*
X59444380Y-38966685D01*
X58777714Y-38776209D01*
X59444380Y-38395257D02*
X58444380Y-38395257D01*
X59444380Y-37966685D02*
X58920571Y-37966685D01*
X58825333Y-38014304D01*
X58777714Y-38109542D01*
X58777714Y-38252400D01*
X58825333Y-38347638D01*
X58872952Y-38395257D01*
X59444380Y-37490495D02*
X58777714Y-37490495D01*
X58444380Y-37490495D02*
X58492000Y-37538114D01*
X58539619Y-37490495D01*
X58492000Y-37442876D01*
X58444380Y-37490495D01*
X58539619Y-37490495D01*
X58777714Y-37157161D02*
X58777714Y-36776209D01*
X58444380Y-37014304D02*
X59301523Y-37014304D01*
X59396761Y-36966685D01*
X59444380Y-36871447D01*
X59444380Y-36776209D01*
X59396761Y-36061923D02*
X59444380Y-36157161D01*
X59444380Y-36347638D01*
X59396761Y-36442876D01*
X59301523Y-36490495D01*
X58920571Y-36490495D01*
X58825333Y-36442876D01*
X58777714Y-36347638D01*
X58777714Y-36157161D01*
X58825333Y-36061923D01*
X58920571Y-36014304D01*
X59015809Y-36014304D01*
X59111047Y-36490495D01*
X61008666Y-68566685D02*
X61175333Y-69042876D01*
X61175333Y-69995257D01*
X61008666Y-70471447D01*
X60675333Y-70709542D01*
X59342000Y-70709542D01*
X59008666Y-70471447D01*
X58842000Y-69995257D01*
X58842000Y-69042876D01*
X59008666Y-68566685D01*
X59342000Y-68328590D01*
X59675333Y-68328590D01*
X60008666Y-70709542D01*
X61008666Y-66423828D02*
X61175333Y-65947638D01*
X61175333Y-64995257D01*
X61008666Y-64519066D01*
X60675333Y-64280971D01*
X60508666Y-64280971D01*
X60175333Y-64519066D01*
X60008666Y-64995257D01*
X60008666Y-65709542D01*
X59842000Y-66185733D01*
X59508666Y-66423828D01*
X59342000Y-66423828D01*
X59008666Y-66185733D01*
X58842000Y-65709542D01*
X58842000Y-64995257D01*
X59008666Y-64519066D01*
X61008666Y-59995257D02*
X61175333Y-60471447D01*
X61175333Y-61423828D01*
X61008666Y-61900019D01*
X60842000Y-62138114D01*
X60508666Y-62376209D01*
X59508666Y-62376209D01*
X59175333Y-62138114D01*
X59008666Y-61900019D01*
X58842000Y-61423828D01*
X58842000Y-60471447D01*
X59008666Y-59995257D01*
X151635980Y-26009504D02*
X150635980Y-26009504D01*
X151016933Y-26009504D02*
X150969314Y-25914266D01*
X150969314Y-25723790D01*
X151016933Y-25628552D01*
X151064552Y-25580933D01*
X151159790Y-25533314D01*
X151445504Y-25533314D01*
X151540742Y-25580933D01*
X151588361Y-25628552D01*
X151635980Y-25723790D01*
X151635980Y-25914266D01*
X151588361Y-26009504D01*
X151635980Y-24961885D02*
X151588361Y-25057123D01*
X151493123Y-25104742D01*
X150635980Y-25104742D01*
X151635980Y-24152361D02*
X151112171Y-24152361D01*
X151016933Y-24199980D01*
X150969314Y-24295219D01*
X150969314Y-24485695D01*
X151016933Y-24580933D01*
X151588361Y-24152361D02*
X151635980Y-24247600D01*
X151635980Y-24485695D01*
X151588361Y-24580933D01*
X151493123Y-24628552D01*
X151397885Y-24628552D01*
X151302647Y-24580933D01*
X151255028Y-24485695D01*
X151255028Y-24247600D01*
X151207409Y-24152361D01*
X151588361Y-23247600D02*
X151635980Y-23342838D01*
X151635980Y-23533314D01*
X151588361Y-23628552D01*
X151540742Y-23676171D01*
X151445504Y-23723790D01*
X151159790Y-23723790D01*
X151064552Y-23676171D01*
X151016933Y-23628552D01*
X150969314Y-23533314D01*
X150969314Y-23342838D01*
X151016933Y-23247600D01*
X151635980Y-22819028D02*
X150635980Y-22819028D01*
X151255028Y-22723790D02*
X151635980Y-22438076D01*
X150969314Y-22438076D02*
X151350266Y-22819028D01*
X135635980Y-26299980D02*
X134969314Y-26299980D01*
X135159790Y-26299980D02*
X135064552Y-26252361D01*
X135016933Y-26204742D01*
X134969314Y-26109504D01*
X134969314Y-26014266D01*
X135588361Y-25299980D02*
X135635980Y-25395219D01*
X135635980Y-25585695D01*
X135588361Y-25680933D01*
X135493123Y-25728552D01*
X135112171Y-25728552D01*
X135016933Y-25680933D01*
X134969314Y-25585695D01*
X134969314Y-25395219D01*
X135016933Y-25299980D01*
X135112171Y-25252361D01*
X135207409Y-25252361D01*
X135302647Y-25728552D01*
X135635980Y-24395219D02*
X134635980Y-24395219D01*
X135588361Y-24395219D02*
X135635980Y-24490457D01*
X135635980Y-24680933D01*
X135588361Y-24776171D01*
X135540742Y-24823790D01*
X135445504Y-24871409D01*
X135159790Y-24871409D01*
X135064552Y-24823790D01*
X135016933Y-24776171D01*
X134969314Y-24680933D01*
X134969314Y-24490457D01*
X135016933Y-24395219D01*
X135669314Y-102933314D02*
X136335980Y-102742838D01*
X135859790Y-102552361D01*
X136335980Y-102361885D01*
X135669314Y-102171409D01*
X136335980Y-101790457D02*
X135335980Y-101790457D01*
X136335980Y-101361885D02*
X135812171Y-101361885D01*
X135716933Y-101409504D01*
X135669314Y-101504742D01*
X135669314Y-101647600D01*
X135716933Y-101742838D01*
X135764552Y-101790457D01*
X136335980Y-100885695D02*
X135669314Y-100885695D01*
X135335980Y-100885695D02*
X135383600Y-100933314D01*
X135431219Y-100885695D01*
X135383600Y-100838076D01*
X135335980Y-100885695D01*
X135431219Y-100885695D01*
X135669314Y-100552361D02*
X135669314Y-100171409D01*
X135335980Y-100409504D02*
X136193123Y-100409504D01*
X136288361Y-100361885D01*
X136335980Y-100266647D01*
X136335980Y-100171409D01*
X136288361Y-99457123D02*
X136335980Y-99552361D01*
X136335980Y-99742838D01*
X136288361Y-99838076D01*
X136193123Y-99885695D01*
X135812171Y-99885695D01*
X135716933Y-99838076D01*
X135669314Y-99742838D01*
X135669314Y-99552361D01*
X135716933Y-99457123D01*
X135812171Y-99409504D01*
X135907409Y-99409504D01*
X136002647Y-99885695D01*
X143069314Y-103152361D02*
X143878838Y-103152361D01*
X143974076Y-103199980D01*
X144021695Y-103247600D01*
X144069314Y-103342838D01*
X144069314Y-103485695D01*
X144021695Y-103580933D01*
X143688361Y-103152361D02*
X143735980Y-103247600D01*
X143735980Y-103438076D01*
X143688361Y-103533314D01*
X143640742Y-103580933D01*
X143545504Y-103628552D01*
X143259790Y-103628552D01*
X143164552Y-103580933D01*
X143116933Y-103533314D01*
X143069314Y-103438076D01*
X143069314Y-103247600D01*
X143116933Y-103152361D01*
X143735980Y-102676171D02*
X143069314Y-102676171D01*
X143259790Y-102676171D02*
X143164552Y-102628552D01*
X143116933Y-102580933D01*
X143069314Y-102485695D01*
X143069314Y-102390457D01*
X143688361Y-101676171D02*
X143735980Y-101771409D01*
X143735980Y-101961885D01*
X143688361Y-102057123D01*
X143593123Y-102104742D01*
X143212171Y-102104742D01*
X143116933Y-102057123D01*
X143069314Y-101961885D01*
X143069314Y-101771409D01*
X143116933Y-101676171D01*
X143212171Y-101628552D01*
X143307409Y-101628552D01*
X143402647Y-102104742D01*
X143688361Y-100819028D02*
X143735980Y-100914266D01*
X143735980Y-101104742D01*
X143688361Y-101199980D01*
X143593123Y-101247600D01*
X143212171Y-101247600D01*
X143116933Y-101199980D01*
X143069314Y-101104742D01*
X143069314Y-100914266D01*
X143116933Y-100819028D01*
X143212171Y-100771409D01*
X143307409Y-100771409D01*
X143402647Y-101247600D01*
X143069314Y-100342838D02*
X143735980Y-100342838D01*
X143164552Y-100342838D02*
X143116933Y-100295219D01*
X143069314Y-100199980D01*
X143069314Y-100057123D01*
X143116933Y-99961885D01*
X143212171Y-99914266D01*
X143735980Y-99914266D01*
X150735980Y-102404742D02*
X149735980Y-102404742D01*
X150116933Y-102404742D02*
X150069314Y-102309504D01*
X150069314Y-102119028D01*
X150116933Y-102023790D01*
X150164552Y-101976171D01*
X150259790Y-101928552D01*
X150545504Y-101928552D01*
X150640742Y-101976171D01*
X150688361Y-102023790D01*
X150735980Y-102119028D01*
X150735980Y-102309504D01*
X150688361Y-102404742D01*
X150735980Y-101357123D02*
X150688361Y-101452361D01*
X150593123Y-101499980D01*
X149735980Y-101499980D01*
X150069314Y-100547600D02*
X150735980Y-100547600D01*
X150069314Y-100976171D02*
X150593123Y-100976171D01*
X150688361Y-100928552D01*
X150735980Y-100833314D01*
X150735980Y-100690457D01*
X150688361Y-100595219D01*
X150640742Y-100547600D01*
X150688361Y-99690457D02*
X150735980Y-99785695D01*
X150735980Y-99976171D01*
X150688361Y-100071409D01*
X150593123Y-100119028D01*
X150212171Y-100119028D01*
X150116933Y-100071409D01*
X150069314Y-99976171D01*
X150069314Y-99785695D01*
X150116933Y-99690457D01*
X150212171Y-99642838D01*
X150307409Y-99642838D01*
X150402647Y-100119028D01*
X143035980Y-38909504D02*
X142035980Y-38909504D01*
X142416933Y-38909504D02*
X142369314Y-38814266D01*
X142369314Y-38623790D01*
X142416933Y-38528552D01*
X142464552Y-38480933D01*
X142559790Y-38433314D01*
X142845504Y-38433314D01*
X142940742Y-38480933D01*
X142988361Y-38528552D01*
X143035980Y-38623790D01*
X143035980Y-38814266D01*
X142988361Y-38909504D01*
X143035980Y-37861885D02*
X142988361Y-37957123D01*
X142893123Y-38004742D01*
X142035980Y-38004742D01*
X143035980Y-37052361D02*
X142512171Y-37052361D01*
X142416933Y-37099980D01*
X142369314Y-37195219D01*
X142369314Y-37385695D01*
X142416933Y-37480933D01*
X142988361Y-37052361D02*
X143035980Y-37147600D01*
X143035980Y-37385695D01*
X142988361Y-37480933D01*
X142893123Y-37528552D01*
X142797885Y-37528552D01*
X142702647Y-37480933D01*
X142655028Y-37385695D01*
X142655028Y-37147600D01*
X142607409Y-37052361D01*
X142988361Y-36147600D02*
X143035980Y-36242838D01*
X143035980Y-36433314D01*
X142988361Y-36528552D01*
X142940742Y-36576171D01*
X142845504Y-36623790D01*
X142559790Y-36623790D01*
X142464552Y-36576171D01*
X142416933Y-36528552D01*
X142369314Y-36433314D01*
X142369314Y-36242838D01*
X142416933Y-36147600D01*
X143035980Y-35719028D02*
X142035980Y-35719028D01*
X142655028Y-35623790D02*
X143035980Y-35338076D01*
X142369314Y-35338076D02*
X142750266Y-35719028D01*
X143969314Y-39233314D02*
X144635980Y-39042838D01*
X144159790Y-38852361D01*
X144635980Y-38661885D01*
X143969314Y-38471409D01*
X144635980Y-38090457D02*
X143635980Y-38090457D01*
X144635980Y-37661885D02*
X144112171Y-37661885D01*
X144016933Y-37709504D01*
X143969314Y-37804742D01*
X143969314Y-37947600D01*
X144016933Y-38042838D01*
X144064552Y-38090457D01*
X144635980Y-37185695D02*
X143969314Y-37185695D01*
X143635980Y-37185695D02*
X143683600Y-37233314D01*
X143731219Y-37185695D01*
X143683600Y-37138076D01*
X143635980Y-37185695D01*
X143731219Y-37185695D01*
X143969314Y-36852361D02*
X143969314Y-36471409D01*
X143635980Y-36709504D02*
X144493123Y-36709504D01*
X144588361Y-36661885D01*
X144635980Y-36566647D01*
X144635980Y-36471409D01*
X144588361Y-35757123D02*
X144635980Y-35852361D01*
X144635980Y-36042838D01*
X144588361Y-36138076D01*
X144493123Y-36185695D01*
X144112171Y-36185695D01*
X144016933Y-36138076D01*
X143969314Y-36042838D01*
X143969314Y-35852361D01*
X144016933Y-35757123D01*
X144112171Y-35709504D01*
X144207409Y-35709504D01*
X144302647Y-36185695D01*
X146200266Y-68261885D02*
X146366933Y-68738076D01*
X146366933Y-69690457D01*
X146200266Y-70166647D01*
X145866933Y-70404742D01*
X144533600Y-70404742D01*
X144200266Y-70166647D01*
X144033600Y-69690457D01*
X144033600Y-68738076D01*
X144200266Y-68261885D01*
X144533600Y-68023790D01*
X144866933Y-68023790D01*
X145200266Y-70404742D01*
X146200266Y-66119028D02*
X146366933Y-65642838D01*
X146366933Y-64690457D01*
X146200266Y-64214266D01*
X145866933Y-63976171D01*
X145700266Y-63976171D01*
X145366933Y-64214266D01*
X145200266Y-64690457D01*
X145200266Y-65404742D01*
X145033600Y-65880933D01*
X144700266Y-66119028D01*
X144533600Y-66119028D01*
X144200266Y-65880933D01*
X144033600Y-65404742D01*
X144033600Y-64690457D01*
X144200266Y-64214266D01*
X146200266Y-59690457D02*
X146366933Y-60166647D01*
X146366933Y-61119028D01*
X146200266Y-61595219D01*
X146033600Y-61833314D01*
X145700266Y-62071409D01*
X144700266Y-62071409D01*
X144366933Y-61833314D01*
X144200266Y-61595219D01*
X144033600Y-61119028D01*
X144033600Y-60166647D01*
X144200266Y-59690457D01*
X177848780Y-26923904D02*
X176848780Y-26923904D01*
X177229733Y-26923904D02*
X177182114Y-26828666D01*
X177182114Y-26638190D01*
X177229733Y-26542952D01*
X177277352Y-26495333D01*
X177372590Y-26447714D01*
X177658304Y-26447714D01*
X177753542Y-26495333D01*
X177801161Y-26542952D01*
X177848780Y-26638190D01*
X177848780Y-26828666D01*
X177801161Y-26923904D01*
X177848780Y-25876285D02*
X177801161Y-25971523D01*
X177705923Y-26019142D01*
X176848780Y-26019142D01*
X177848780Y-25066761D02*
X177324971Y-25066761D01*
X177229733Y-25114380D01*
X177182114Y-25209619D01*
X177182114Y-25400095D01*
X177229733Y-25495333D01*
X177801161Y-25066761D02*
X177848780Y-25162000D01*
X177848780Y-25400095D01*
X177801161Y-25495333D01*
X177705923Y-25542952D01*
X177610685Y-25542952D01*
X177515447Y-25495333D01*
X177467828Y-25400095D01*
X177467828Y-25162000D01*
X177420209Y-25066761D01*
X177801161Y-24162000D02*
X177848780Y-24257238D01*
X177848780Y-24447714D01*
X177801161Y-24542952D01*
X177753542Y-24590571D01*
X177658304Y-24638190D01*
X177372590Y-24638190D01*
X177277352Y-24590571D01*
X177229733Y-24542952D01*
X177182114Y-24447714D01*
X177182114Y-24257238D01*
X177229733Y-24162000D01*
X177848780Y-23733428D02*
X176848780Y-23733428D01*
X177467828Y-23638190D02*
X177848780Y-23352476D01*
X177182114Y-23352476D02*
X177563066Y-23733428D01*
X161848780Y-27214380D02*
X161182114Y-27214380D01*
X161372590Y-27214380D02*
X161277352Y-27166761D01*
X161229733Y-27119142D01*
X161182114Y-27023904D01*
X161182114Y-26928666D01*
X161801161Y-26214380D02*
X161848780Y-26309619D01*
X161848780Y-26500095D01*
X161801161Y-26595333D01*
X161705923Y-26642952D01*
X161324971Y-26642952D01*
X161229733Y-26595333D01*
X161182114Y-26500095D01*
X161182114Y-26309619D01*
X161229733Y-26214380D01*
X161324971Y-26166761D01*
X161420209Y-26166761D01*
X161515447Y-26642952D01*
X161848780Y-25309619D02*
X160848780Y-25309619D01*
X161801161Y-25309619D02*
X161848780Y-25404857D01*
X161848780Y-25595333D01*
X161801161Y-25690571D01*
X161753542Y-25738190D01*
X161658304Y-25785809D01*
X161372590Y-25785809D01*
X161277352Y-25738190D01*
X161229733Y-25690571D01*
X161182114Y-25595333D01*
X161182114Y-25404857D01*
X161229733Y-25309619D01*
X161882114Y-103847714D02*
X162548780Y-103657238D01*
X162072590Y-103466761D01*
X162548780Y-103276285D01*
X161882114Y-103085809D01*
X162548780Y-102704857D02*
X161548780Y-102704857D01*
X162548780Y-102276285D02*
X162024971Y-102276285D01*
X161929733Y-102323904D01*
X161882114Y-102419142D01*
X161882114Y-102562000D01*
X161929733Y-102657238D01*
X161977352Y-102704857D01*
X162548780Y-101800095D02*
X161882114Y-101800095D01*
X161548780Y-101800095D02*
X161596400Y-101847714D01*
X161644019Y-101800095D01*
X161596400Y-101752476D01*
X161548780Y-101800095D01*
X161644019Y-101800095D01*
X161882114Y-101466761D02*
X161882114Y-101085809D01*
X161548780Y-101323904D02*
X162405923Y-101323904D01*
X162501161Y-101276285D01*
X162548780Y-101181047D01*
X162548780Y-101085809D01*
X162501161Y-100371523D02*
X162548780Y-100466761D01*
X162548780Y-100657238D01*
X162501161Y-100752476D01*
X162405923Y-100800095D01*
X162024971Y-100800095D01*
X161929733Y-100752476D01*
X161882114Y-100657238D01*
X161882114Y-100466761D01*
X161929733Y-100371523D01*
X162024971Y-100323904D01*
X162120209Y-100323904D01*
X162215447Y-100800095D01*
X169282114Y-104066761D02*
X170091638Y-104066761D01*
X170186876Y-104114380D01*
X170234495Y-104162000D01*
X170282114Y-104257238D01*
X170282114Y-104400095D01*
X170234495Y-104495333D01*
X169901161Y-104066761D02*
X169948780Y-104162000D01*
X169948780Y-104352476D01*
X169901161Y-104447714D01*
X169853542Y-104495333D01*
X169758304Y-104542952D01*
X169472590Y-104542952D01*
X169377352Y-104495333D01*
X169329733Y-104447714D01*
X169282114Y-104352476D01*
X169282114Y-104162000D01*
X169329733Y-104066761D01*
X169948780Y-103590571D02*
X169282114Y-103590571D01*
X169472590Y-103590571D02*
X169377352Y-103542952D01*
X169329733Y-103495333D01*
X169282114Y-103400095D01*
X169282114Y-103304857D01*
X169901161Y-102590571D02*
X169948780Y-102685809D01*
X169948780Y-102876285D01*
X169901161Y-102971523D01*
X169805923Y-103019142D01*
X169424971Y-103019142D01*
X169329733Y-102971523D01*
X169282114Y-102876285D01*
X169282114Y-102685809D01*
X169329733Y-102590571D01*
X169424971Y-102542952D01*
X169520209Y-102542952D01*
X169615447Y-103019142D01*
X169901161Y-101733428D02*
X169948780Y-101828666D01*
X169948780Y-102019142D01*
X169901161Y-102114380D01*
X169805923Y-102162000D01*
X169424971Y-102162000D01*
X169329733Y-102114380D01*
X169282114Y-102019142D01*
X169282114Y-101828666D01*
X169329733Y-101733428D01*
X169424971Y-101685809D01*
X169520209Y-101685809D01*
X169615447Y-102162000D01*
X169282114Y-101257238D02*
X169948780Y-101257238D01*
X169377352Y-101257238D02*
X169329733Y-101209619D01*
X169282114Y-101114380D01*
X169282114Y-100971523D01*
X169329733Y-100876285D01*
X169424971Y-100828666D01*
X169948780Y-100828666D01*
X176948780Y-103319142D02*
X175948780Y-103319142D01*
X176329733Y-103319142D02*
X176282114Y-103223904D01*
X176282114Y-103033428D01*
X176329733Y-102938190D01*
X176377352Y-102890571D01*
X176472590Y-102842952D01*
X176758304Y-102842952D01*
X176853542Y-102890571D01*
X176901161Y-102938190D01*
X176948780Y-103033428D01*
X176948780Y-103223904D01*
X176901161Y-103319142D01*
X176948780Y-102271523D02*
X176901161Y-102366761D01*
X176805923Y-102414380D01*
X175948780Y-102414380D01*
X176282114Y-101462000D02*
X176948780Y-101462000D01*
X176282114Y-101890571D02*
X176805923Y-101890571D01*
X176901161Y-101842952D01*
X176948780Y-101747714D01*
X176948780Y-101604857D01*
X176901161Y-101509619D01*
X176853542Y-101462000D01*
X176901161Y-100604857D02*
X176948780Y-100700095D01*
X176948780Y-100890571D01*
X176901161Y-100985809D01*
X176805923Y-101033428D01*
X176424971Y-101033428D01*
X176329733Y-100985809D01*
X176282114Y-100890571D01*
X176282114Y-100700095D01*
X176329733Y-100604857D01*
X176424971Y-100557238D01*
X176520209Y-100557238D01*
X176615447Y-101033428D01*
X169248780Y-39823904D02*
X168248780Y-39823904D01*
X168629733Y-39823904D02*
X168582114Y-39728666D01*
X168582114Y-39538190D01*
X168629733Y-39442952D01*
X168677352Y-39395333D01*
X168772590Y-39347714D01*
X169058304Y-39347714D01*
X169153542Y-39395333D01*
X169201161Y-39442952D01*
X169248780Y-39538190D01*
X169248780Y-39728666D01*
X169201161Y-39823904D01*
X169248780Y-38776285D02*
X169201161Y-38871523D01*
X169105923Y-38919142D01*
X168248780Y-38919142D01*
X169248780Y-37966761D02*
X168724971Y-37966761D01*
X168629733Y-38014380D01*
X168582114Y-38109619D01*
X168582114Y-38300095D01*
X168629733Y-38395333D01*
X169201161Y-37966761D02*
X169248780Y-38062000D01*
X169248780Y-38300095D01*
X169201161Y-38395333D01*
X169105923Y-38442952D01*
X169010685Y-38442952D01*
X168915447Y-38395333D01*
X168867828Y-38300095D01*
X168867828Y-38062000D01*
X168820209Y-37966761D01*
X169201161Y-37062000D02*
X169248780Y-37157238D01*
X169248780Y-37347714D01*
X169201161Y-37442952D01*
X169153542Y-37490571D01*
X169058304Y-37538190D01*
X168772590Y-37538190D01*
X168677352Y-37490571D01*
X168629733Y-37442952D01*
X168582114Y-37347714D01*
X168582114Y-37157238D01*
X168629733Y-37062000D01*
X169248780Y-36633428D02*
X168248780Y-36633428D01*
X168867828Y-36538190D02*
X169248780Y-36252476D01*
X168582114Y-36252476D02*
X168963066Y-36633428D01*
X170182114Y-40147714D02*
X170848780Y-39957238D01*
X170372590Y-39766761D01*
X170848780Y-39576285D01*
X170182114Y-39385809D01*
X170848780Y-39004857D02*
X169848780Y-39004857D01*
X170848780Y-38576285D02*
X170324971Y-38576285D01*
X170229733Y-38623904D01*
X170182114Y-38719142D01*
X170182114Y-38862000D01*
X170229733Y-38957238D01*
X170277352Y-39004857D01*
X170848780Y-38100095D02*
X170182114Y-38100095D01*
X169848780Y-38100095D02*
X169896400Y-38147714D01*
X169944019Y-38100095D01*
X169896400Y-38052476D01*
X169848780Y-38100095D01*
X169944019Y-38100095D01*
X170182114Y-37766761D02*
X170182114Y-37385809D01*
X169848780Y-37623904D02*
X170705923Y-37623904D01*
X170801161Y-37576285D01*
X170848780Y-37481047D01*
X170848780Y-37385809D01*
X170801161Y-36671523D02*
X170848780Y-36766761D01*
X170848780Y-36957238D01*
X170801161Y-37052476D01*
X170705923Y-37100095D01*
X170324971Y-37100095D01*
X170229733Y-37052476D01*
X170182114Y-36957238D01*
X170182114Y-36766761D01*
X170229733Y-36671523D01*
X170324971Y-36623904D01*
X170420209Y-36623904D01*
X170515447Y-37100095D01*
X172413066Y-69176285D02*
X172579733Y-69652476D01*
X172579733Y-70604857D01*
X172413066Y-71081047D01*
X172079733Y-71319142D01*
X170746400Y-71319142D01*
X170413066Y-71081047D01*
X170246400Y-70604857D01*
X170246400Y-69652476D01*
X170413066Y-69176285D01*
X170746400Y-68938190D01*
X171079733Y-68938190D01*
X171413066Y-71319142D01*
X172413066Y-67033428D02*
X172579733Y-66557238D01*
X172579733Y-65604857D01*
X172413066Y-65128666D01*
X172079733Y-64890571D01*
X171913066Y-64890571D01*
X171579733Y-65128666D01*
X171413066Y-65604857D01*
X171413066Y-66319142D01*
X171246400Y-66795333D01*
X170913066Y-67033428D01*
X170746400Y-67033428D01*
X170413066Y-66795333D01*
X170246400Y-66319142D01*
X170246400Y-65604857D01*
X170413066Y-65128666D01*
X172413066Y-60604857D02*
X172579733Y-61081047D01*
X172579733Y-62033428D01*
X172413066Y-62509619D01*
X172246400Y-62747714D01*
X171913066Y-62985809D01*
X170913066Y-62985809D01*
X170579733Y-62747714D01*
X170413066Y-62509619D01*
X170246400Y-62033428D01*
X170246400Y-61081047D01*
X170413066Y-60604857D01*
M02*
