G04 #@! TF.GenerationSoftware,KiCad,Pcbnew,5.1.2-f72e74a~84~ubuntu16.04.1*
G04 #@! TF.CreationDate,2019-05-07T21:52:54+05:30*
G04 #@! TF.ProjectId,MasterPcb,4d617374-6572-4506-9362-2e6b69636164,rev?*
G04 #@! TF.SameCoordinates,Original*
G04 #@! TF.FileFunction,Soldermask,Top*
G04 #@! TF.FilePolarity,Negative*
%FSLAX46Y46*%
G04 Gerber Fmt 4.6, Leading zero omitted, Abs format (unit mm)*
G04 Created by KiCad (PCBNEW 5.1.2-f72e74a~84~ubuntu16.04.1) date 2019-05-07 21:52:54*
%MOMM*%
%LPD*%
G04 APERTURE LIST*
%ADD10C,1.950000*%
%ADD11R,5.400000X10.400000*%
%ADD12R,2.200000X2.200000*%
%ADD13C,2.200000*%
%ADD14R,5.200000X2.686000*%
%ADD15R,1.000000X1.950000*%
%ADD16R,1.600000X2.200000*%
%ADD17R,3.175000X3.175000*%
%ADD18C,3.175000*%
%ADD19R,1.950000X1.000000*%
%ADD20R,2.200000X1.600000*%
%ADD21C,3.400000*%
%ADD22R,3.400000X3.400000*%
%ADD23C,3.190000*%
%ADD24R,3.475000X3.475000*%
%ADD25C,3.475000*%
%ADD26C,4.500000*%
%ADD27C,4.800000*%
%ADD28R,2.400000X2.100000*%
%ADD29R,2.100000X2.400000*%
%ADD30R,5.000000X1.200000*%
%ADD31R,9.800000X11.200000*%
%ADD32O,2.127200X2.127200*%
%ADD33C,0.500000*%
%ADD34C,3.600000*%
%ADD35C,2.100000*%
%ADD36C,2.800000*%
%ADD37C,0.400000*%
%ADD38C,0.254000*%
G04 APERTURE END LIST*
D10*
X85362400Y-32721600D03*
X83412400Y-32721600D03*
D11*
X91052400Y-94001600D03*
X84052400Y-94001600D03*
X77052400Y-94001600D03*
X91452400Y-31951600D03*
X76452400Y-31951600D03*
D12*
X223977200Y-133350000D03*
D13*
X226517200Y-133350000D03*
D14*
X202742800Y-129691200D03*
X202742800Y-135891200D03*
X195986400Y-129792800D03*
X195986400Y-135992800D03*
D12*
X209804000Y-108458000D03*
D13*
X212344000Y-108458000D03*
D12*
X186690000Y-32054800D03*
D13*
X186690000Y-34594800D03*
D12*
X100888800Y-94996000D03*
D13*
X100888800Y-92456000D03*
D12*
X221437200Y-108458000D03*
D13*
X223977200Y-108458000D03*
D12*
X126136400Y-94691200D03*
D13*
X126136400Y-92151200D03*
D12*
X101447600Y-31597600D03*
D13*
X101447600Y-34137600D03*
D12*
X211582000Y-133350000D03*
D13*
X214122000Y-133350000D03*
D12*
X126644400Y-33426400D03*
D13*
X124104400Y-33426400D03*
D12*
X39776400Y-31902400D03*
D13*
X39776400Y-34442400D03*
D12*
X220827600Y-63144400D03*
D13*
X218287600Y-63144400D03*
D12*
X187299600Y-94589600D03*
D13*
X184759600Y-94589600D03*
D12*
X40690800Y-93776800D03*
D13*
X40690800Y-91236800D03*
D12*
X254116600Y-120183800D03*
D13*
X251576600Y-120183800D03*
D15*
X245591200Y-105211000D03*
X246591200Y-105211000D03*
X247591200Y-105211000D03*
X248591200Y-105211000D03*
D16*
X244291200Y-102686000D03*
X249891200Y-102686000D03*
D17*
X185318400Y-136093200D03*
D18*
X185318400Y-129743200D03*
X185318400Y-123393200D03*
D19*
X231237400Y-40206800D03*
X231237400Y-41206800D03*
X231237400Y-42206800D03*
X231237400Y-43206800D03*
D20*
X233762400Y-38906800D03*
X233762400Y-44506800D03*
D19*
X246071000Y-75665200D03*
X246071000Y-76665200D03*
X246071000Y-77665200D03*
X246071000Y-78665200D03*
D20*
X248596000Y-74365200D03*
X248596000Y-79965200D03*
D19*
X249737000Y-43273600D03*
X249737000Y-42273600D03*
D20*
X247212000Y-44573600D03*
X247212000Y-40973600D03*
D19*
X240339000Y-43257600D03*
X240339000Y-42257600D03*
X240339000Y-41257600D03*
X240339000Y-40257600D03*
D20*
X237814000Y-44557600D03*
X237814000Y-38957600D03*
D19*
X221433000Y-40257600D03*
X221433000Y-41257600D03*
X221433000Y-42257600D03*
X221433000Y-43257600D03*
D20*
X223958000Y-38957600D03*
X223958000Y-44557600D03*
D19*
X213355800Y-94191200D03*
X213355800Y-95191200D03*
D20*
X215880800Y-92891200D03*
X215880800Y-96491200D03*
D21*
X198983600Y-53086000D03*
X198983600Y-58166000D03*
D22*
X198983600Y-48006000D03*
D21*
X198983600Y-63246000D03*
D23*
X101752400Y-118364000D03*
X95402400Y-118364000D03*
X89052400Y-118364000D03*
X101752400Y-124714000D03*
X95402400Y-124714000D03*
X89052400Y-124714000D03*
X101752400Y-131064000D03*
X95402400Y-131064000D03*
X89052400Y-131064000D03*
X101752400Y-137414000D03*
X95402400Y-137414000D03*
X89052400Y-137414000D03*
D24*
X166370000Y-135636000D03*
D25*
X172720000Y-135636000D03*
D23*
X53289200Y-118465600D03*
X46939200Y-118465600D03*
X40589200Y-118465600D03*
X53289200Y-124815600D03*
X46939200Y-124815600D03*
X40589200Y-124815600D03*
X53289200Y-131165600D03*
X46939200Y-131165600D03*
X40589200Y-131165600D03*
X53289200Y-137515600D03*
X46939200Y-137515600D03*
X40589200Y-137515600D03*
D24*
X166268400Y-125476000D03*
D25*
X172618400Y-125476000D03*
D19*
X219350200Y-72804400D03*
X219350200Y-73804400D03*
D20*
X221875200Y-71504400D03*
X221875200Y-75104400D03*
D19*
X216005800Y-87063200D03*
X216005800Y-86063200D03*
D20*
X213480800Y-88363200D03*
X213480800Y-84763200D03*
D21*
X198170800Y-87223600D03*
X198170800Y-92303600D03*
D22*
X198170800Y-82143600D03*
D21*
X198170800Y-97383600D03*
D26*
X145716000Y-129610000D03*
X145716000Y-134010000D03*
X135716000Y-129610000D03*
X135716000Y-134010000D03*
D27*
X129986000Y-133660000D03*
X151446000Y-133660000D03*
D28*
X225672400Y-124561600D03*
X221672400Y-124561600D03*
D29*
X203200000Y-112591600D03*
X203200000Y-108591600D03*
X171500800Y-40316400D03*
X171500800Y-44316400D03*
X71170800Y-74542400D03*
X71170800Y-70542400D03*
X197154800Y-110623600D03*
X197154800Y-114623600D03*
X151790400Y-78962000D03*
X151790400Y-74962000D03*
X82651600Y-39808400D03*
X82651600Y-43808400D03*
X211328000Y-63315600D03*
X211328000Y-59315600D03*
X197358000Y-73272400D03*
X197358000Y-69272400D03*
X154127200Y-48342800D03*
X154127200Y-52342800D03*
X160172400Y-73526400D03*
X160172400Y-69526400D03*
X64516000Y-70593200D03*
X64516000Y-74593200D03*
X65938400Y-43161200D03*
X65938400Y-47161200D03*
D28*
X197326000Y-118719600D03*
X193326000Y-118719600D03*
D29*
X214477600Y-69120000D03*
X214477600Y-73120000D03*
X245745000Y-120758200D03*
X245745000Y-124758200D03*
X201422000Y-69221600D03*
X201422000Y-73221600D03*
X210870800Y-73170800D03*
X210870800Y-69170800D03*
X164388800Y-47784000D03*
X164388800Y-51784000D03*
D28*
X170821600Y-57200800D03*
X174821600Y-57200800D03*
D29*
X168503600Y-74047600D03*
X168503600Y-78047600D03*
D28*
X171634400Y-83566000D03*
X175634400Y-83566000D03*
D29*
X78689200Y-70745600D03*
X78689200Y-74745600D03*
D28*
X87255600Y-79451200D03*
X91255600Y-79451200D03*
D29*
X74066400Y-43262800D03*
X74066400Y-47262800D03*
D28*
X75673200Y-54305200D03*
X79673200Y-54305200D03*
D29*
X259791200Y-30512000D03*
X259791200Y-34512000D03*
X259384800Y-43402000D03*
X259384800Y-39402000D03*
D28*
X197224400Y-121869200D03*
X193224400Y-121869200D03*
X193173600Y-125222000D03*
X197173600Y-125222000D03*
D29*
X240080800Y-124783600D03*
X240080800Y-120783600D03*
X243103400Y-124809000D03*
X243103400Y-120809000D03*
X245262400Y-116655600D03*
X245262400Y-112655600D03*
X244246400Y-62160400D03*
X244246400Y-66160400D03*
D28*
X218712800Y-80060800D03*
X214712800Y-80060800D03*
D29*
X219303600Y-83648800D03*
X219303600Y-87648800D03*
X222351600Y-87801200D03*
X222351600Y-83801200D03*
D19*
X248509400Y-65743200D03*
X248509400Y-66743200D03*
D20*
X251034400Y-64443200D03*
X251034400Y-68043200D03*
D30*
X204587800Y-116890800D03*
X204587800Y-118160800D03*
X204587800Y-119430800D03*
X204587800Y-120700800D03*
X204587800Y-121970800D03*
X204587800Y-123240800D03*
X204587800Y-124510800D03*
D31*
X213737800Y-120700800D03*
D32*
X229616000Y-63474600D03*
X229616000Y-60934600D03*
X232156000Y-60934600D03*
X232156000Y-63474600D03*
X234696000Y-60934600D03*
X206756000Y-76301600D03*
X206756000Y-81381600D03*
X206756000Y-83921600D03*
X206756000Y-86461600D03*
X206756000Y-89001600D03*
X206756000Y-91541600D03*
X206756000Y-94081600D03*
X206756000Y-96621600D03*
X255016000Y-40741600D03*
X255016000Y-43281600D03*
X255016000Y-45821600D03*
X255016000Y-48361600D03*
X255016000Y-50901600D03*
X255016000Y-53441600D03*
X255016000Y-55981600D03*
X255016000Y-58521600D03*
X255016000Y-63601600D03*
X255016000Y-66141600D03*
X255016000Y-68681600D03*
X255016000Y-71221600D03*
X255016000Y-73761600D03*
X255016000Y-76301600D03*
X255016000Y-78841600D03*
X255016000Y-81381600D03*
X255016000Y-100685600D03*
X255016000Y-85445600D03*
X255016000Y-87985600D03*
X255016000Y-90525600D03*
D33*
X215836000Y-61061600D03*
D34*
X239776000Y-61061600D03*
D33*
X255016000Y-36931600D03*
D34*
X255016000Y-111861600D03*
X206756000Y-30581600D03*
D33*
X206756000Y-113131600D03*
D32*
X255016000Y-108305600D03*
X255016000Y-105765600D03*
X255016000Y-103225600D03*
X255016000Y-98145600D03*
X255016000Y-95605600D03*
X255016000Y-93065600D03*
X206756000Y-99161600D03*
X206756000Y-73761600D03*
X206756000Y-71221600D03*
X206756000Y-68681600D03*
X206756000Y-66141600D03*
X206756000Y-63601600D03*
X206756000Y-61061600D03*
X206756000Y-58521600D03*
X206756000Y-53441600D03*
X206756000Y-50901600D03*
X206756000Y-48361600D03*
X206756000Y-45821600D03*
X206756000Y-43281600D03*
X206756000Y-40741600D03*
X206756000Y-38201600D03*
X206756000Y-35661600D03*
X255016000Y-33121600D03*
X255016000Y-30581600D03*
X252476000Y-33121600D03*
X252476000Y-30581600D03*
X249936000Y-33121600D03*
X249936000Y-30581600D03*
X247396000Y-33121600D03*
X247396000Y-30581600D03*
X244856000Y-33121600D03*
X244856000Y-30581600D03*
X242316000Y-33121600D03*
X242316000Y-30581600D03*
X239776000Y-33121600D03*
X239776000Y-30581600D03*
X237236000Y-33121600D03*
X237236000Y-30581600D03*
X234696000Y-33121600D03*
X234696000Y-30581600D03*
X232156000Y-33121600D03*
X232156000Y-30581600D03*
X229616000Y-33121600D03*
X229616000Y-30581600D03*
X227076000Y-33121600D03*
X227076000Y-30581600D03*
X224536000Y-33121600D03*
X224536000Y-30581600D03*
X221996000Y-33121600D03*
X221996000Y-30581600D03*
X219456000Y-33121600D03*
X219456000Y-30581600D03*
X216916000Y-33121600D03*
X216916000Y-30581600D03*
X214376000Y-33121600D03*
X214376000Y-30581600D03*
X211836000Y-33121600D03*
X211836000Y-30581600D03*
X234696000Y-63474600D03*
D19*
X248509400Y-51832000D03*
X248509400Y-52832000D03*
X248509400Y-53832000D03*
D20*
X251034400Y-50532000D03*
X251034400Y-55132000D03*
D19*
X241346600Y-51933600D03*
X241346600Y-52933600D03*
X241346600Y-53933600D03*
D20*
X243871600Y-50633600D03*
X243871600Y-55233600D03*
D19*
X234031400Y-51933600D03*
X234031400Y-52933600D03*
X234031400Y-53933600D03*
D20*
X236556400Y-50633600D03*
X236556400Y-55233600D03*
D19*
X227021000Y-51933600D03*
X227021000Y-52933600D03*
X227021000Y-53933600D03*
D20*
X229546000Y-50633600D03*
X229546000Y-55233600D03*
D19*
X220061400Y-52035200D03*
X220061400Y-53035200D03*
X220061400Y-54035200D03*
D20*
X222586400Y-50735200D03*
X222586400Y-55335200D03*
D19*
X212898600Y-52086000D03*
X212898600Y-53086000D03*
X212898600Y-54086000D03*
D20*
X215423600Y-50786000D03*
X215423600Y-55386000D03*
D15*
X258585600Y-22347800D03*
X257585600Y-22347800D03*
X256585600Y-22347800D03*
X255585600Y-22347800D03*
X254585600Y-22347800D03*
X253585600Y-22347800D03*
X252585600Y-22347800D03*
X251585600Y-22347800D03*
X250585600Y-22347800D03*
X249585600Y-22347800D03*
X248585600Y-22347800D03*
X247585600Y-22347800D03*
D16*
X259885600Y-24872800D03*
X246285600Y-24872800D03*
D19*
X216463000Y-42757600D03*
X216463000Y-41757600D03*
X216463000Y-40757600D03*
D20*
X213938000Y-44057600D03*
X213938000Y-39457600D03*
D35*
X237693200Y-98750400D03*
X240233200Y-98750400D03*
X245313200Y-98750400D03*
X242773200Y-98750400D03*
X250393200Y-98750400D03*
X247853200Y-98750400D03*
X247853200Y-85750400D03*
X250393200Y-85750400D03*
X242773200Y-85750400D03*
X245313200Y-85750400D03*
X240233200Y-85750400D03*
X237693200Y-85750400D03*
D36*
X148127600Y-118231600D03*
X148127600Y-120731600D03*
X144627600Y-118231600D03*
X144627600Y-120731600D03*
X139547600Y-118231600D03*
X139547600Y-120731600D03*
X136047600Y-118231600D03*
X136047600Y-120731600D03*
D37*
X142087600Y-119526600D03*
D10*
X59302000Y-32772400D03*
X57352000Y-32772400D03*
D11*
X64992000Y-94052400D03*
X57992000Y-94052400D03*
X50992000Y-94052400D03*
X65392000Y-32002400D03*
X50392000Y-32002400D03*
D10*
X101492000Y-50965200D03*
X101492000Y-49015200D03*
X101796800Y-77889200D03*
X101796800Y-75939200D03*
X144493600Y-32467600D03*
X142543600Y-32467600D03*
D11*
X150183600Y-93747600D03*
X143183600Y-93747600D03*
X136183600Y-93747600D03*
X150583600Y-31697600D03*
X135583600Y-31697600D03*
D10*
X170706400Y-33382000D03*
X168756400Y-33382000D03*
D11*
X176396400Y-94662000D03*
X169396400Y-94662000D03*
X162396400Y-94662000D03*
X176796400Y-32612000D03*
X161796400Y-32612000D03*
D10*
X186378800Y-52032000D03*
X186378800Y-50082000D03*
X186734400Y-77381200D03*
X186734400Y-75431200D03*
D34*
X256946400Y-137160000D03*
X25603200Y-137160000D03*
X78028800Y-137160000D03*
X25501600Y-24079200D03*
X115417600Y-27584400D03*
D38*
G36*
X192811400Y-131319055D02*
G01*
X192811400Y-133856194D01*
X189624603Y-130669397D01*
X189605357Y-130653603D01*
X189583401Y-130641867D01*
X189559576Y-130634640D01*
X189534800Y-130632200D01*
X186359800Y-130632200D01*
X186359800Y-128854200D01*
X190395842Y-128854200D01*
X192811400Y-131319055D01*
X192811400Y-131319055D01*
G37*
X192811400Y-131319055D02*
X192811400Y-133856194D01*
X189624603Y-130669397D01*
X189605357Y-130653603D01*
X189583401Y-130641867D01*
X189559576Y-130634640D01*
X189534800Y-130632200D01*
X186359800Y-130632200D01*
X186359800Y-128854200D01*
X190395842Y-128854200D01*
X192811400Y-131319055D01*
G36*
X199043174Y-95116402D02*
G01*
X199567877Y-95354903D01*
X200100504Y-95935952D01*
X200391526Y-96420987D01*
X200534857Y-96850980D01*
X200583320Y-97384078D01*
X200534848Y-97965743D01*
X200343163Y-98492877D01*
X200003537Y-98978057D01*
X190498194Y-108483400D01*
X186537600Y-108483400D01*
X186512824Y-108485840D01*
X186488999Y-108493067D01*
X186467043Y-108504803D01*
X186447797Y-108520597D01*
X175068597Y-119899797D01*
X175052803Y-119919043D01*
X175041067Y-119940999D01*
X175033840Y-119964824D01*
X175031400Y-119989600D01*
X175031400Y-125765166D01*
X174934110Y-126154326D01*
X174838008Y-126490684D01*
X174598091Y-126874552D01*
X174359739Y-127160573D01*
X173822203Y-127551509D01*
X173343486Y-127790867D01*
X172521962Y-127887517D01*
X171799916Y-127743108D01*
X171116313Y-127352477D01*
X170835085Y-127118121D01*
X170400227Y-126441675D01*
X170205497Y-125614074D01*
X170255852Y-118010554D01*
X170320603Y-117945803D01*
X170320762Y-117945643D01*
X184558337Y-103657400D01*
X188417200Y-103657400D01*
X188441976Y-103654960D01*
X188465801Y-103647733D01*
X188487757Y-103635997D01*
X188507003Y-103620203D01*
X196426216Y-95700990D01*
X196867245Y-95357968D01*
X197351526Y-95115827D01*
X197932434Y-94970600D01*
X198459966Y-94970600D01*
X199043174Y-95116402D01*
X199043174Y-95116402D01*
G37*
X199043174Y-95116402D02*
X199567877Y-95354903D01*
X200100504Y-95935952D01*
X200391526Y-96420987D01*
X200534857Y-96850980D01*
X200583320Y-97384078D01*
X200534848Y-97965743D01*
X200343163Y-98492877D01*
X200003537Y-98978057D01*
X190498194Y-108483400D01*
X186537600Y-108483400D01*
X186512824Y-108485840D01*
X186488999Y-108493067D01*
X186467043Y-108504803D01*
X186447797Y-108520597D01*
X175068597Y-119899797D01*
X175052803Y-119919043D01*
X175041067Y-119940999D01*
X175033840Y-119964824D01*
X175031400Y-119989600D01*
X175031400Y-125765166D01*
X174934110Y-126154326D01*
X174838008Y-126490684D01*
X174598091Y-126874552D01*
X174359739Y-127160573D01*
X173822203Y-127551509D01*
X173343486Y-127790867D01*
X172521962Y-127887517D01*
X171799916Y-127743108D01*
X171116313Y-127352477D01*
X170835085Y-127118121D01*
X170400227Y-126441675D01*
X170205497Y-125614074D01*
X170255852Y-118010554D01*
X170320603Y-117945803D01*
X170320762Y-117945643D01*
X184558337Y-103657400D01*
X188417200Y-103657400D01*
X188441976Y-103654960D01*
X188465801Y-103647733D01*
X188487757Y-103635997D01*
X188507003Y-103620203D01*
X196426216Y-95700990D01*
X196867245Y-95357968D01*
X197351526Y-95115827D01*
X197932434Y-94970600D01*
X198459966Y-94970600D01*
X199043174Y-95116402D01*
G36*
X155102710Y-51106426D02*
G01*
X155083000Y-59709709D01*
X155085384Y-59734491D01*
X155092556Y-59758332D01*
X155104242Y-59780315D01*
X155120422Y-59800027D01*
X161103562Y-65753351D01*
X161133007Y-68511356D01*
X161135712Y-68536105D01*
X161143193Y-68559851D01*
X161155163Y-68581681D01*
X161171161Y-68600756D01*
X161190574Y-68616344D01*
X161212655Y-68627845D01*
X161236555Y-68634817D01*
X161260000Y-68637000D01*
X171560000Y-68637000D01*
X171584776Y-68634560D01*
X171608601Y-68627333D01*
X171630557Y-68615597D01*
X171649803Y-68599803D01*
X177922504Y-62327102D01*
X198579755Y-62367000D01*
X198604536Y-62364607D01*
X198628374Y-62357426D01*
X198650353Y-62345733D01*
X198669803Y-62329803D01*
X198808255Y-62191351D01*
X199120470Y-62008591D01*
X202302816Y-65123227D01*
X202293001Y-67969562D01*
X202295356Y-67994347D01*
X202302500Y-68018196D01*
X202314161Y-68040193D01*
X202329888Y-68059492D01*
X202349079Y-68075353D01*
X202370995Y-68087164D01*
X202394794Y-68094474D01*
X202413539Y-68095568D01*
X202422496Y-70343814D01*
X196428353Y-70382176D01*
X196436993Y-69561337D01*
X196434814Y-69536536D01*
X196427838Y-69512637D01*
X196416333Y-69490558D01*
X196397767Y-69468207D01*
X195296422Y-68415167D01*
X195267566Y-65712306D01*
X196649485Y-64340119D01*
X196665347Y-64320930D01*
X196677160Y-64299015D01*
X196684471Y-64275216D01*
X196686999Y-64250449D01*
X196684647Y-64225664D01*
X196677504Y-64201814D01*
X196665845Y-64179816D01*
X196650119Y-64160515D01*
X196630930Y-64144653D01*
X196609015Y-64132840D01*
X196585216Y-64125529D01*
X196559929Y-64123000D01*
X178659929Y-64133000D01*
X178635154Y-64135454D01*
X178611334Y-64142694D01*
X178589384Y-64154443D01*
X178570269Y-64170126D01*
X172317501Y-70412953D01*
X161230114Y-70403000D01*
X161205335Y-70405418D01*
X161181505Y-70412624D01*
X161159537Y-70424340D01*
X161140278Y-70440117D01*
X161124467Y-70459348D01*
X161112711Y-70481294D01*
X161105463Y-70505112D01*
X161103000Y-70530000D01*
X161103000Y-70603000D01*
X159247000Y-70603000D01*
X159247000Y-70530000D01*
X159244560Y-70505224D01*
X159237333Y-70481399D01*
X159225597Y-70459443D01*
X159209803Y-70440197D01*
X159190557Y-70424403D01*
X159168601Y-70412667D01*
X159144776Y-70405440D01*
X159119487Y-70403001D01*
X151752393Y-70432787D01*
X149587412Y-68267806D01*
X150793293Y-67000758D01*
X152431254Y-68600847D01*
X152450682Y-68616415D01*
X152472775Y-68627893D01*
X152496682Y-68634841D01*
X152519610Y-68636999D01*
X159039610Y-68656999D01*
X159064394Y-68654635D01*
X159088241Y-68647481D01*
X159110233Y-68635813D01*
X159129527Y-68620078D01*
X159145380Y-68600881D01*
X159157183Y-68578960D01*
X159164483Y-68555158D01*
X159166824Y-68536675D01*
X159172732Y-68424431D01*
X159191580Y-68416054D01*
X159213230Y-68403761D01*
X159232065Y-68387481D01*
X159247363Y-68367839D01*
X159258535Y-68345590D01*
X159265152Y-68321589D01*
X159266998Y-68299221D01*
X159256998Y-66669221D01*
X159254405Y-66644460D01*
X159247032Y-66620680D01*
X159235162Y-66598796D01*
X159219803Y-66580197D01*
X153226566Y-60586960D01*
X153148060Y-51097581D01*
X155102710Y-51106426D01*
X155102710Y-51106426D01*
G37*
X155102710Y-51106426D02*
X155083000Y-59709709D01*
X155085384Y-59734491D01*
X155092556Y-59758332D01*
X155104242Y-59780315D01*
X155120422Y-59800027D01*
X161103562Y-65753351D01*
X161133007Y-68511356D01*
X161135712Y-68536105D01*
X161143193Y-68559851D01*
X161155163Y-68581681D01*
X161171161Y-68600756D01*
X161190574Y-68616344D01*
X161212655Y-68627845D01*
X161236555Y-68634817D01*
X161260000Y-68637000D01*
X171560000Y-68637000D01*
X171584776Y-68634560D01*
X171608601Y-68627333D01*
X171630557Y-68615597D01*
X171649803Y-68599803D01*
X177922504Y-62327102D01*
X198579755Y-62367000D01*
X198604536Y-62364607D01*
X198628374Y-62357426D01*
X198650353Y-62345733D01*
X198669803Y-62329803D01*
X198808255Y-62191351D01*
X199120470Y-62008591D01*
X202302816Y-65123227D01*
X202293001Y-67969562D01*
X202295356Y-67994347D01*
X202302500Y-68018196D01*
X202314161Y-68040193D01*
X202329888Y-68059492D01*
X202349079Y-68075353D01*
X202370995Y-68087164D01*
X202394794Y-68094474D01*
X202413539Y-68095568D01*
X202422496Y-70343814D01*
X196428353Y-70382176D01*
X196436993Y-69561337D01*
X196434814Y-69536536D01*
X196427838Y-69512637D01*
X196416333Y-69490558D01*
X196397767Y-69468207D01*
X195296422Y-68415167D01*
X195267566Y-65712306D01*
X196649485Y-64340119D01*
X196665347Y-64320930D01*
X196677160Y-64299015D01*
X196684471Y-64275216D01*
X196686999Y-64250449D01*
X196684647Y-64225664D01*
X196677504Y-64201814D01*
X196665845Y-64179816D01*
X196650119Y-64160515D01*
X196630930Y-64144653D01*
X196609015Y-64132840D01*
X196585216Y-64125529D01*
X196559929Y-64123000D01*
X178659929Y-64133000D01*
X178635154Y-64135454D01*
X178611334Y-64142694D01*
X178589384Y-64154443D01*
X178570269Y-64170126D01*
X172317501Y-70412953D01*
X161230114Y-70403000D01*
X161205335Y-70405418D01*
X161181505Y-70412624D01*
X161159537Y-70424340D01*
X161140278Y-70440117D01*
X161124467Y-70459348D01*
X161112711Y-70481294D01*
X161105463Y-70505112D01*
X161103000Y-70530000D01*
X161103000Y-70603000D01*
X159247000Y-70603000D01*
X159247000Y-70530000D01*
X159244560Y-70505224D01*
X159237333Y-70481399D01*
X159225597Y-70459443D01*
X159209803Y-70440197D01*
X159190557Y-70424403D01*
X159168601Y-70412667D01*
X159144776Y-70405440D01*
X159119487Y-70403001D01*
X151752393Y-70432787D01*
X149587412Y-68267806D01*
X150793293Y-67000758D01*
X152431254Y-68600847D01*
X152450682Y-68616415D01*
X152472775Y-68627893D01*
X152496682Y-68634841D01*
X152519610Y-68636999D01*
X159039610Y-68656999D01*
X159064394Y-68654635D01*
X159088241Y-68647481D01*
X159110233Y-68635813D01*
X159129527Y-68620078D01*
X159145380Y-68600881D01*
X159157183Y-68578960D01*
X159164483Y-68555158D01*
X159166824Y-68536675D01*
X159172732Y-68424431D01*
X159191580Y-68416054D01*
X159213230Y-68403761D01*
X159232065Y-68387481D01*
X159247363Y-68367839D01*
X159258535Y-68345590D01*
X159265152Y-68321589D01*
X159266998Y-68299221D01*
X159256998Y-66669221D01*
X159254405Y-66644460D01*
X159247032Y-66620680D01*
X159235162Y-66598796D01*
X159219803Y-66580197D01*
X153226566Y-60586960D01*
X153148060Y-51097581D01*
X155102710Y-51106426D01*
G36*
X182171278Y-67536696D02*
G01*
X182294233Y-69354667D01*
X179188432Y-69393010D01*
X179163688Y-69395756D01*
X179139954Y-69403276D01*
X179118144Y-69415282D01*
X179100035Y-69430360D01*
X173607355Y-74942905D01*
X168169323Y-74933089D01*
X167635593Y-74446177D01*
X167615645Y-74431281D01*
X167593173Y-74420563D01*
X167569043Y-74414436D01*
X167549817Y-74413000D01*
X160609817Y-74423000D01*
X160585044Y-74425476D01*
X160561230Y-74432737D01*
X160539290Y-74444505D01*
X160519257Y-74461148D01*
X159146548Y-75863063D01*
X150925760Y-75872850D01*
X150917017Y-74981124D01*
X150943553Y-74017000D01*
X158190000Y-74017000D01*
X158214776Y-74014560D01*
X158238601Y-74007333D01*
X158260557Y-73995597D01*
X158279480Y-73980124D01*
X159642218Y-72627120D01*
X168303524Y-72646895D01*
X168838195Y-73097144D01*
X168858718Y-73111237D01*
X168881597Y-73121055D01*
X168905952Y-73126221D01*
X168918667Y-73126993D01*
X172728667Y-73166993D01*
X172753467Y-73164813D01*
X172777366Y-73157836D01*
X172799445Y-73146332D01*
X172819643Y-73129961D01*
X178442337Y-67527135D01*
X182171278Y-67536696D01*
X182171278Y-67536696D01*
G37*
X182171278Y-67536696D02*
X182294233Y-69354667D01*
X179188432Y-69393010D01*
X179163688Y-69395756D01*
X179139954Y-69403276D01*
X179118144Y-69415282D01*
X179100035Y-69430360D01*
X173607355Y-74942905D01*
X168169323Y-74933089D01*
X167635593Y-74446177D01*
X167615645Y-74431281D01*
X167593173Y-74420563D01*
X167569043Y-74414436D01*
X167549817Y-74413000D01*
X160609817Y-74423000D01*
X160585044Y-74425476D01*
X160561230Y-74432737D01*
X160539290Y-74444505D01*
X160519257Y-74461148D01*
X159146548Y-75863063D01*
X150925760Y-75872850D01*
X150917017Y-74981124D01*
X150943553Y-74017000D01*
X158190000Y-74017000D01*
X158214776Y-74014560D01*
X158238601Y-74007333D01*
X158260557Y-73995597D01*
X158279480Y-73980124D01*
X159642218Y-72627120D01*
X168303524Y-72646895D01*
X168838195Y-73097144D01*
X168858718Y-73111237D01*
X168881597Y-73121055D01*
X168905952Y-73126221D01*
X168918667Y-73126993D01*
X172728667Y-73166993D01*
X172753467Y-73164813D01*
X172777366Y-73157836D01*
X172799445Y-73146332D01*
X172819643Y-73129961D01*
X178442337Y-67527135D01*
X182171278Y-67536696D01*
G36*
X176577598Y-56296815D02*
G01*
X177500669Y-57210271D01*
X177519996Y-57225965D01*
X177542014Y-57237586D01*
X177565876Y-57244688D01*
X177589040Y-57246996D01*
X181559040Y-57276996D01*
X181560000Y-57277000D01*
X181955465Y-57277000D01*
X181990485Y-59063000D01*
X176819436Y-59063000D01*
X175885861Y-58206421D01*
X175865955Y-58191469D01*
X175843514Y-58180687D01*
X175819401Y-58174491D01*
X175801276Y-58173006D01*
X173936409Y-58154264D01*
X173927603Y-56287451D01*
X176577598Y-56296815D01*
X176577598Y-56296815D01*
G37*
X176577598Y-56296815D02*
X177500669Y-57210271D01*
X177519996Y-57225965D01*
X177542014Y-57237586D01*
X177565876Y-57244688D01*
X177589040Y-57246996D01*
X181559040Y-57276996D01*
X181560000Y-57277000D01*
X181955465Y-57277000D01*
X181990485Y-59063000D01*
X176819436Y-59063000D01*
X175885861Y-58206421D01*
X175865955Y-58191469D01*
X175843514Y-58180687D01*
X175819401Y-58174491D01*
X175801276Y-58173006D01*
X173936409Y-58154264D01*
X173927603Y-56287451D01*
X176577598Y-56296815D01*
G36*
X165263000Y-54450000D02*
G01*
X165265440Y-54474776D01*
X165272667Y-54498601D01*
X165284403Y-54520557D01*
X165300197Y-54539803D01*
X167050197Y-56289803D01*
X167069443Y-56305597D01*
X167091399Y-56317333D01*
X167115224Y-56324560D01*
X167140000Y-56327000D01*
X171763000Y-56327000D01*
X171763000Y-57140776D01*
X171762667Y-57141399D01*
X171755440Y-57165224D01*
X171753006Y-57188743D01*
X171744240Y-58074136D01*
X166411874Y-58122524D01*
X163526765Y-55256909D01*
X163507556Y-50944487D01*
X165263000Y-50909553D01*
X165263000Y-54450000D01*
X165263000Y-54450000D01*
G37*
X165263000Y-54450000D02*
X165265440Y-54474776D01*
X165272667Y-54498601D01*
X165284403Y-54520557D01*
X165300197Y-54539803D01*
X167050197Y-56289803D01*
X167069443Y-56305597D01*
X167091399Y-56317333D01*
X167115224Y-56324560D01*
X167140000Y-56327000D01*
X171763000Y-56327000D01*
X171763000Y-57140776D01*
X171762667Y-57141399D01*
X171755440Y-57165224D01*
X171753006Y-57188743D01*
X171744240Y-58074136D01*
X166411874Y-58122524D01*
X163526765Y-55256909D01*
X163507556Y-50944487D01*
X165263000Y-50909553D01*
X165263000Y-54450000D01*
G36*
X181388642Y-43526993D02*
G01*
X181390000Y-43527000D01*
X182021184Y-43527000D01*
X182083281Y-44458448D01*
X182087364Y-44483007D01*
X182096160Y-44506298D01*
X182116091Y-44535499D01*
X182706353Y-45183820D01*
X171919892Y-45193000D01*
X171895118Y-45195461D01*
X171871299Y-45202709D01*
X171849353Y-45214463D01*
X171830069Y-45230326D01*
X168387431Y-48682857D01*
X164740343Y-48673000D01*
X164715560Y-48675374D01*
X164691716Y-48682536D01*
X164669728Y-48694213D01*
X164650440Y-48709955D01*
X164636656Y-48726183D01*
X164362752Y-49109649D01*
X163882804Y-49242968D01*
X153217617Y-49223236D01*
X153226385Y-47417000D01*
X153309875Y-47417000D01*
X163499875Y-47427000D01*
X163524654Y-47424584D01*
X163548486Y-47417380D01*
X163570454Y-47405666D01*
X163589714Y-47389891D01*
X163605670Y-47370447D01*
X163787295Y-47098009D01*
X164180574Y-46897000D01*
X167620000Y-46897000D01*
X167644776Y-46894560D01*
X167668601Y-46887333D01*
X167690557Y-46875597D01*
X167709803Y-46859803D01*
X171152042Y-43417564D01*
X181388642Y-43526993D01*
X181388642Y-43526993D01*
G37*
X181388642Y-43526993D02*
X181390000Y-43527000D01*
X182021184Y-43527000D01*
X182083281Y-44458448D01*
X182087364Y-44483007D01*
X182096160Y-44506298D01*
X182116091Y-44535499D01*
X182706353Y-45183820D01*
X171919892Y-45193000D01*
X171895118Y-45195461D01*
X171871299Y-45202709D01*
X171849353Y-45214463D01*
X171830069Y-45230326D01*
X168387431Y-48682857D01*
X164740343Y-48673000D01*
X164715560Y-48675374D01*
X164691716Y-48682536D01*
X164669728Y-48694213D01*
X164650440Y-48709955D01*
X164636656Y-48726183D01*
X164362752Y-49109649D01*
X163882804Y-49242968D01*
X153217617Y-49223236D01*
X153226385Y-47417000D01*
X153309875Y-47417000D01*
X163499875Y-47427000D01*
X163524654Y-47424584D01*
X163548486Y-47417380D01*
X163570454Y-47405666D01*
X163589714Y-47389891D01*
X163605670Y-47370447D01*
X163787295Y-47098009D01*
X164180574Y-46897000D01*
X167620000Y-46897000D01*
X167644776Y-46894560D01*
X167668601Y-46887333D01*
X167690557Y-46875597D01*
X167709803Y-46859803D01*
X171152042Y-43417564D01*
X181388642Y-43526993D01*
G36*
X169423003Y-79940864D02*
G01*
X169425612Y-79965623D01*
X169433001Y-79989398D01*
X169444886Y-80011274D01*
X169460068Y-80029673D01*
X172843449Y-83422861D01*
X172821462Y-83463694D01*
X172295386Y-84227993D01*
X172288083Y-84241216D01*
X172058068Y-84463563D01*
X171251212Y-84472430D01*
X167626198Y-80925794D01*
X167568929Y-77127000D01*
X169403861Y-77127000D01*
X169423003Y-79940864D01*
X169423003Y-79940864D01*
G37*
X169423003Y-79940864D02*
X169425612Y-79965623D01*
X169433001Y-79989398D01*
X169444886Y-80011274D01*
X169460068Y-80029673D01*
X172843449Y-83422861D01*
X172821462Y-83463694D01*
X172295386Y-84227993D01*
X172288083Y-84241216D01*
X172058068Y-84463563D01*
X171251212Y-84472430D01*
X167626198Y-80925794D01*
X167568929Y-77127000D01*
X169403861Y-77127000D01*
X169423003Y-79940864D01*
G36*
X79109987Y-69788271D02*
G01*
X79127179Y-69806279D01*
X79147553Y-69820586D01*
X79170327Y-69830644D01*
X79194626Y-69836066D01*
X79209862Y-69837000D01*
X97443731Y-69856863D01*
X97453002Y-71460734D01*
X97455586Y-71485496D01*
X97462950Y-71509278D01*
X97474813Y-71531167D01*
X97490718Y-71550320D01*
X97510054Y-71566003D01*
X97532078Y-71577612D01*
X97555944Y-71584701D01*
X97578905Y-71586995D01*
X98613000Y-71595910D01*
X98613000Y-71632938D01*
X78431573Y-71623015D01*
X78119422Y-71457759D01*
X78096383Y-71448323D01*
X78060096Y-71443000D01*
X64840096Y-71433000D01*
X64804165Y-71438161D01*
X64654780Y-71482098D01*
X64112154Y-71455411D01*
X63680405Y-71058202D01*
X63636066Y-70694626D01*
X63630644Y-70670327D01*
X63627000Y-70662076D01*
X63627000Y-69616918D01*
X78968154Y-69607040D01*
X79109987Y-69788271D01*
X79109987Y-69788271D01*
G37*
X79109987Y-69788271D02*
X79127179Y-69806279D01*
X79147553Y-69820586D01*
X79170327Y-69830644D01*
X79194626Y-69836066D01*
X79209862Y-69837000D01*
X97443731Y-69856863D01*
X97453002Y-71460734D01*
X97455586Y-71485496D01*
X97462950Y-71509278D01*
X97474813Y-71531167D01*
X97490718Y-71550320D01*
X97510054Y-71566003D01*
X97532078Y-71577612D01*
X97555944Y-71584701D01*
X97578905Y-71586995D01*
X98613000Y-71595910D01*
X98613000Y-71632938D01*
X78431573Y-71623015D01*
X78119422Y-71457759D01*
X78096383Y-71448323D01*
X78060096Y-71443000D01*
X64840096Y-71433000D01*
X64804165Y-71438161D01*
X64654780Y-71482098D01*
X64112154Y-71455411D01*
X63680405Y-71058202D01*
X63636066Y-70694626D01*
X63630644Y-70670327D01*
X63627000Y-70662076D01*
X63627000Y-69616918D01*
X78968154Y-69607040D01*
X79109987Y-69788271D01*
G36*
X89120688Y-62370290D02*
G01*
X89140019Y-62385979D01*
X89162039Y-62397596D01*
X89185902Y-62404693D01*
X89209953Y-62407000D01*
X142658072Y-62426951D01*
X142587746Y-64273000D01*
X88462955Y-64273000D01*
X85321461Y-61101870D01*
X85253001Y-61028846D01*
X86444677Y-59723261D01*
X89120688Y-62370290D01*
X89120688Y-62370290D01*
G37*
X89120688Y-62370290D02*
X89140019Y-62385979D01*
X89162039Y-62397596D01*
X89185902Y-62404693D01*
X89209953Y-62407000D01*
X142658072Y-62426951D01*
X142587746Y-64273000D01*
X88462955Y-64273000D01*
X85321461Y-61101870D01*
X85253001Y-61028846D01*
X86444677Y-59723261D01*
X89120688Y-62370290D01*
G36*
X87619043Y-56098633D02*
G01*
X87638082Y-56114675D01*
X87659885Y-56126694D01*
X87683614Y-56134229D01*
X87709867Y-56137000D01*
X97142382Y-56146867D01*
X97133613Y-57953244D01*
X86909755Y-57973000D01*
X86853009Y-57973000D01*
X84140288Y-55230686D01*
X84121129Y-55214788D01*
X84099237Y-55202933D01*
X84075452Y-55195577D01*
X84050000Y-55193000D01*
X78778264Y-55193000D01*
X78786988Y-54311890D01*
X78804414Y-53475445D01*
X84987088Y-53397676D01*
X87619043Y-56098633D01*
X87619043Y-56098633D01*
G37*
X87619043Y-56098633D02*
X87638082Y-56114675D01*
X87659885Y-56126694D01*
X87683614Y-56134229D01*
X87709867Y-56137000D01*
X97142382Y-56146867D01*
X97133613Y-57953244D01*
X86909755Y-57973000D01*
X86853009Y-57973000D01*
X84140288Y-55230686D01*
X84121129Y-55214788D01*
X84099237Y-55202933D01*
X84075452Y-55195577D01*
X84050000Y-55193000D01*
X78778264Y-55193000D01*
X78786988Y-54311890D01*
X78804414Y-53475445D01*
X84987088Y-53397676D01*
X87619043Y-56098633D01*
G36*
X74982382Y-46364026D02*
G01*
X74953002Y-52269368D01*
X74955319Y-52294156D01*
X74962427Y-52318016D01*
X74974054Y-52340031D01*
X74989966Y-52359570D01*
X76845216Y-54224433D01*
X76308729Y-54933363D01*
X76295724Y-54954592D01*
X76294659Y-54957480D01*
X76092999Y-55244457D01*
X75311782Y-55261818D01*
X73231980Y-53162487D01*
X73136901Y-52996099D01*
X73117380Y-46320040D01*
X74982382Y-46364026D01*
X74982382Y-46364026D01*
G37*
X74982382Y-46364026D02*
X74953002Y-52269368D01*
X74955319Y-52294156D01*
X74962427Y-52318016D01*
X74974054Y-52340031D01*
X74989966Y-52359570D01*
X76845216Y-54224433D01*
X76308729Y-54933363D01*
X76295724Y-54954592D01*
X76294659Y-54957480D01*
X76092999Y-55244457D01*
X75311782Y-55261818D01*
X73231980Y-53162487D01*
X73136901Y-52996099D01*
X73117380Y-46320040D01*
X74982382Y-46364026D01*
G36*
X79583043Y-74547901D02*
G01*
X79603002Y-78010732D01*
X79605585Y-78035494D01*
X79612949Y-78059276D01*
X79624812Y-78081165D01*
X79639171Y-78098764D01*
X80069171Y-78538764D01*
X80088234Y-78554779D01*
X80110054Y-78566766D01*
X80133794Y-78574267D01*
X80159844Y-78577000D01*
X88151750Y-78586842D01*
X88134240Y-80372859D01*
X79351999Y-80363058D01*
X77737735Y-78777449D01*
X77805321Y-73862981D01*
X78604139Y-73836933D01*
X78605464Y-73836759D01*
X79497353Y-73828100D01*
X79583043Y-74547901D01*
X79583043Y-74547901D01*
G37*
X79583043Y-74547901D02*
X79603002Y-78010732D01*
X79605585Y-78035494D01*
X79612949Y-78059276D01*
X79624812Y-78081165D01*
X79639171Y-78098764D01*
X80069171Y-78538764D01*
X80088234Y-78554779D01*
X80110054Y-78566766D01*
X80133794Y-78574267D01*
X80159844Y-78577000D01*
X88151750Y-78586842D01*
X88134240Y-80372859D01*
X79351999Y-80363058D01*
X77737735Y-78777449D01*
X77805321Y-73862981D01*
X78604139Y-73836933D01*
X78605464Y-73836759D01*
X79497353Y-73828100D01*
X79583043Y-74547901D01*
G36*
X97462646Y-81660710D02*
G01*
X97445097Y-84196560D01*
X93639578Y-80409974D01*
X93620294Y-80394228D01*
X93598308Y-80382546D01*
X93574466Y-80375379D01*
X93551318Y-80373007D01*
X90736099Y-80343783D01*
X90333533Y-79599911D01*
X90344534Y-79544907D01*
X90346995Y-79521154D01*
X90355859Y-78546119D01*
X94446222Y-78517381D01*
X97462646Y-81660710D01*
X97462646Y-81660710D01*
G37*
X97462646Y-81660710D02*
X97445097Y-84196560D01*
X93639578Y-80409974D01*
X93620294Y-80394228D01*
X93598308Y-80382546D01*
X93574466Y-80375379D01*
X93551318Y-80373007D01*
X90736099Y-80343783D01*
X90333533Y-79599911D01*
X90344534Y-79544907D01*
X90346995Y-79521154D01*
X90355859Y-78546119D01*
X94446222Y-78517381D01*
X97462646Y-81660710D01*
G36*
X97133606Y-41146395D02*
G01*
X97142388Y-42973170D01*
X89789830Y-42983000D01*
X89765057Y-42985474D01*
X89741242Y-42992732D01*
X89719301Y-43004498D01*
X89701190Y-43019216D01*
X87898118Y-44783091D01*
X82331316Y-44792909D01*
X81738343Y-44218761D01*
X81718845Y-44203279D01*
X81696702Y-44191899D01*
X81672764Y-44185057D01*
X81650187Y-44183000D01*
X74860187Y-44173000D01*
X74824368Y-44178101D01*
X74208432Y-44358144D01*
X73686227Y-44218889D01*
X73632709Y-44145302D01*
X73616163Y-44126700D01*
X73596306Y-44111683D01*
X73573900Y-44100829D01*
X73549807Y-44094554D01*
X73530590Y-44093001D01*
X65045663Y-44053582D01*
X65037000Y-43239307D01*
X65037000Y-43210620D01*
X65045837Y-42247350D01*
X82872829Y-42296842D01*
X83395079Y-42884374D01*
X83413363Y-42901271D01*
X83434593Y-42914276D01*
X83457952Y-42922890D01*
X83490702Y-42926998D01*
X87110702Y-42906998D01*
X87135464Y-42904421D01*
X87159248Y-42897062D01*
X87181140Y-42885205D01*
X87199305Y-42870297D01*
X88981940Y-41107251D01*
X97133606Y-41146395D01*
X97133606Y-41146395D01*
G37*
X97133606Y-41146395D02*
X97142388Y-42973170D01*
X89789830Y-42983000D01*
X89765057Y-42985474D01*
X89741242Y-42992732D01*
X89719301Y-43004498D01*
X89701190Y-43019216D01*
X87898118Y-44783091D01*
X82331316Y-44792909D01*
X81738343Y-44218761D01*
X81718845Y-44203279D01*
X81696702Y-44191899D01*
X81672764Y-44185057D01*
X81650187Y-44183000D01*
X74860187Y-44173000D01*
X74824368Y-44178101D01*
X74208432Y-44358144D01*
X73686227Y-44218889D01*
X73632709Y-44145302D01*
X73616163Y-44126700D01*
X73596306Y-44111683D01*
X73573900Y-44100829D01*
X73549807Y-44094554D01*
X73530590Y-44093001D01*
X65045663Y-44053582D01*
X65037000Y-43239307D01*
X65037000Y-43210620D01*
X65045837Y-42247350D01*
X82872829Y-42296842D01*
X83395079Y-42884374D01*
X83413363Y-42901271D01*
X83434593Y-42914276D01*
X83457952Y-42922890D01*
X83490702Y-42926998D01*
X87110702Y-42906998D01*
X87135464Y-42904421D01*
X87159248Y-42897062D01*
X87181140Y-42885205D01*
X87199305Y-42870297D01*
X88981940Y-41107251D01*
X97133606Y-41146395D01*
G36*
X66813000Y-46324522D02*
G01*
X66813000Y-58310000D01*
X66815440Y-58334776D01*
X66822667Y-58358601D01*
X66834403Y-58380557D01*
X66850197Y-58399803D01*
X70430705Y-61980311D01*
X69170243Y-63249526D01*
X66030353Y-60070752D01*
X66011206Y-60054840D01*
X65989322Y-60042969D01*
X65965543Y-60035595D01*
X65940782Y-60033002D01*
X65915991Y-60035290D01*
X65892122Y-60042370D01*
X65870094Y-60053971D01*
X65850197Y-60070197D01*
X61880197Y-64040197D01*
X61864403Y-64059443D01*
X61852667Y-64081399D01*
X61845440Y-64105224D01*
X61843000Y-64130149D01*
X61853000Y-72640149D01*
X61855469Y-72664923D01*
X61862724Y-72688739D01*
X61874486Y-72710681D01*
X61890197Y-72729803D01*
X62810197Y-73649803D01*
X62829443Y-73665597D01*
X62851399Y-73677333D01*
X62875224Y-73684560D01*
X62897657Y-73686978D01*
X65481747Y-73734655D01*
X65473006Y-74608730D01*
X65473000Y-74610000D01*
X65473000Y-74798207D01*
X64916374Y-75552345D01*
X62093475Y-75523539D01*
X59957156Y-73367887D01*
X59986842Y-63422836D01*
X64989713Y-58429892D01*
X65005527Y-58410662D01*
X65017284Y-58388717D01*
X65024535Y-58364900D01*
X65027000Y-58340104D01*
X65036894Y-46289525D01*
X66813000Y-46324522D01*
X66813000Y-46324522D01*
G37*
X66813000Y-46324522D02*
X66813000Y-58310000D01*
X66815440Y-58334776D01*
X66822667Y-58358601D01*
X66834403Y-58380557D01*
X66850197Y-58399803D01*
X70430705Y-61980311D01*
X69170243Y-63249526D01*
X66030353Y-60070752D01*
X66011206Y-60054840D01*
X65989322Y-60042969D01*
X65965543Y-60035595D01*
X65940782Y-60033002D01*
X65915991Y-60035290D01*
X65892122Y-60042370D01*
X65870094Y-60053971D01*
X65850197Y-60070197D01*
X61880197Y-64040197D01*
X61864403Y-64059443D01*
X61852667Y-64081399D01*
X61845440Y-64105224D01*
X61843000Y-64130149D01*
X61853000Y-72640149D01*
X61855469Y-72664923D01*
X61862724Y-72688739D01*
X61874486Y-72710681D01*
X61890197Y-72729803D01*
X62810197Y-73649803D01*
X62829443Y-73665597D01*
X62851399Y-73677333D01*
X62875224Y-73684560D01*
X62897657Y-73686978D01*
X65481747Y-73734655D01*
X65473006Y-74608730D01*
X65473000Y-74610000D01*
X65473000Y-74798207D01*
X64916374Y-75552345D01*
X62093475Y-75523539D01*
X59957156Y-73367887D01*
X59986842Y-63422836D01*
X64989713Y-58429892D01*
X65005527Y-58410662D01*
X65017284Y-58388717D01*
X65024535Y-58364900D01*
X65027000Y-58340104D01*
X65036894Y-46289525D01*
X66813000Y-46324522D01*
G36*
X182233000Y-82914484D02*
G01*
X182193477Y-83368998D01*
X182194728Y-83400879D01*
X182243000Y-83690511D01*
X182243000Y-83970000D01*
X182244165Y-83987159D01*
X182273878Y-84205055D01*
X182298287Y-84443043D01*
X182228639Y-84438294D01*
X182219585Y-84438001D01*
X174700920Y-84462572D01*
X174726942Y-83603847D01*
X174727000Y-83600000D01*
X174727000Y-82666022D01*
X182233000Y-82607986D01*
X182233000Y-82914484D01*
X182233000Y-82914484D01*
G37*
X182233000Y-82914484D02*
X182193477Y-83368998D01*
X182194728Y-83400879D01*
X182243000Y-83690511D01*
X182243000Y-83970000D01*
X182244165Y-83987159D01*
X182273878Y-84205055D01*
X182298287Y-84443043D01*
X182228639Y-84438294D01*
X182219585Y-84438001D01*
X174700920Y-84462572D01*
X174726942Y-83603847D01*
X174727000Y-83600000D01*
X174727000Y-82666022D01*
X182233000Y-82607986D01*
X182233000Y-82914484D01*
M02*
