G04 #@! TF.GenerationSoftware,KiCad,Pcbnew,5.1.2-f72e74a~84~ubuntu16.04.1*
G04 #@! TF.CreationDate,2019-05-07T21:52:54+05:30*
G04 #@! TF.ProjectId,MasterPcb,4d617374-6572-4506-9362-2e6b69636164,rev?*
G04 #@! TF.SameCoordinates,Original*
G04 #@! TF.FileFunction,Copper,L3,Inr*
G04 #@! TF.FilePolarity,Positive*
%FSLAX46Y46*%
G04 Gerber Fmt 4.6, Leading zero omitted, Abs format (unit mm)*
G04 Created by KiCad (PCBNEW 5.1.2-f72e74a~84~ubuntu16.04.1) date 2019-05-07 21:52:54*
%MOMM*%
%LPD*%
G04 APERTURE LIST*
%ADD10C,1.550000*%
%ADD11R,5.000000X10.000000*%
%ADD12R,1.800000X1.800000*%
%ADD13C,1.800000*%
%ADD14R,2.775000X2.775000*%
%ADD15C,2.775000*%
%ADD16C,3.000000*%
%ADD17R,3.000000X3.000000*%
%ADD18C,2.790000*%
%ADD19R,3.075000X3.075000*%
%ADD20C,3.075000*%
%ADD21C,4.100000*%
%ADD22C,4.400000*%
%ADD23O,1.727200X1.727200*%
%ADD24C,1.700000*%
%ADD25C,2.400000*%
%ADD26R,10.000000X5.000000*%
%ADD27C,2.000000*%
%ADD28C,0.600000*%
%ADD29C,4.000000*%
%ADD30C,0.250000*%
%ADD31C,0.500000*%
%ADD32C,1.000000*%
%ADD33C,2.000000*%
G04 APERTURE END LIST*
D10*
X85362400Y-32721600D03*
X83412400Y-32721600D03*
D11*
X91052400Y-94001600D03*
X84052400Y-94001600D03*
X77052400Y-94001600D03*
X91452400Y-31951600D03*
X76452400Y-31951600D03*
D12*
X223977200Y-133350000D03*
D13*
X226517200Y-133350000D03*
D12*
X209804000Y-108458000D03*
D13*
X212344000Y-108458000D03*
D12*
X186690000Y-32054800D03*
D13*
X186690000Y-34594800D03*
D12*
X100888800Y-94996000D03*
D13*
X100888800Y-92456000D03*
D12*
X221437200Y-108458000D03*
D13*
X223977200Y-108458000D03*
D12*
X126136400Y-94691200D03*
D13*
X126136400Y-92151200D03*
D12*
X101447600Y-31597600D03*
D13*
X101447600Y-34137600D03*
D12*
X211582000Y-133350000D03*
D13*
X214122000Y-133350000D03*
D12*
X126644400Y-33426400D03*
D13*
X124104400Y-33426400D03*
D12*
X39776400Y-31902400D03*
D13*
X39776400Y-34442400D03*
D12*
X220827600Y-63144400D03*
D13*
X218287600Y-63144400D03*
D12*
X187299600Y-94589600D03*
D13*
X184759600Y-94589600D03*
D12*
X40690800Y-93776800D03*
D13*
X40690800Y-91236800D03*
D12*
X254116600Y-120183800D03*
D13*
X251576600Y-120183800D03*
D14*
X185318400Y-136093200D03*
D15*
X185318400Y-129743200D03*
X185318400Y-123393200D03*
D16*
X198983600Y-53086000D03*
X198983600Y-58166000D03*
D17*
X198983600Y-48006000D03*
D16*
X198983600Y-63246000D03*
D18*
X101752400Y-118364000D03*
X95402400Y-118364000D03*
X89052400Y-118364000D03*
X101752400Y-124714000D03*
X95402400Y-124714000D03*
X89052400Y-124714000D03*
X101752400Y-131064000D03*
X95402400Y-131064000D03*
X89052400Y-131064000D03*
X101752400Y-137414000D03*
X95402400Y-137414000D03*
X89052400Y-137414000D03*
D19*
X166370000Y-135636000D03*
D20*
X172720000Y-135636000D03*
D18*
X53289200Y-118465600D03*
X46939200Y-118465600D03*
X40589200Y-118465600D03*
X53289200Y-124815600D03*
X46939200Y-124815600D03*
X40589200Y-124815600D03*
X53289200Y-131165600D03*
X46939200Y-131165600D03*
X40589200Y-131165600D03*
X53289200Y-137515600D03*
X46939200Y-137515600D03*
X40589200Y-137515600D03*
D19*
X166268400Y-125476000D03*
D20*
X172618400Y-125476000D03*
D16*
X198170800Y-87223600D03*
X198170800Y-92303600D03*
D17*
X198170800Y-82143600D03*
D16*
X198170800Y-97383600D03*
D21*
X145716000Y-129610000D03*
X145716000Y-134010000D03*
X135716000Y-129610000D03*
X135716000Y-134010000D03*
D22*
X129986000Y-133660000D03*
X151446000Y-133660000D03*
D23*
X229616000Y-63474600D03*
X229616000Y-60934600D03*
X232156000Y-60934600D03*
X232156000Y-63474600D03*
X234696000Y-60934600D03*
X206756000Y-76301600D03*
X206756000Y-81381600D03*
X206756000Y-83921600D03*
X206756000Y-86461600D03*
X206756000Y-89001600D03*
X206756000Y-91541600D03*
X206756000Y-94081600D03*
X206756000Y-96621600D03*
X255016000Y-40741600D03*
X255016000Y-43281600D03*
X255016000Y-45821600D03*
X255016000Y-48361600D03*
X255016000Y-50901600D03*
X255016000Y-53441600D03*
X255016000Y-55981600D03*
X255016000Y-58521600D03*
X255016000Y-63601600D03*
X255016000Y-66141600D03*
X255016000Y-68681600D03*
X255016000Y-71221600D03*
X255016000Y-73761600D03*
X255016000Y-76301600D03*
X255016000Y-78841600D03*
X255016000Y-81381600D03*
X255016000Y-100685600D03*
X255016000Y-85445600D03*
X255016000Y-87985600D03*
X255016000Y-90525600D03*
X255016000Y-108305600D03*
X255016000Y-105765600D03*
X255016000Y-103225600D03*
X255016000Y-98145600D03*
X255016000Y-95605600D03*
X255016000Y-93065600D03*
X206756000Y-99161600D03*
X206756000Y-73761600D03*
X206756000Y-71221600D03*
X206756000Y-68681600D03*
X206756000Y-66141600D03*
X206756000Y-63601600D03*
X206756000Y-61061600D03*
X206756000Y-58521600D03*
X206756000Y-53441600D03*
X206756000Y-50901600D03*
X206756000Y-48361600D03*
X206756000Y-45821600D03*
X206756000Y-43281600D03*
X206756000Y-40741600D03*
X206756000Y-38201600D03*
X206756000Y-35661600D03*
X255016000Y-33121600D03*
X255016000Y-30581600D03*
X252476000Y-33121600D03*
X252476000Y-30581600D03*
X249936000Y-33121600D03*
X249936000Y-30581600D03*
X247396000Y-33121600D03*
X247396000Y-30581600D03*
X244856000Y-33121600D03*
X244856000Y-30581600D03*
X242316000Y-33121600D03*
X242316000Y-30581600D03*
X239776000Y-33121600D03*
X239776000Y-30581600D03*
X237236000Y-33121600D03*
X237236000Y-30581600D03*
X234696000Y-33121600D03*
X234696000Y-30581600D03*
X232156000Y-33121600D03*
X232156000Y-30581600D03*
X229616000Y-33121600D03*
X229616000Y-30581600D03*
X227076000Y-33121600D03*
X227076000Y-30581600D03*
X224536000Y-33121600D03*
X224536000Y-30581600D03*
X221996000Y-33121600D03*
X221996000Y-30581600D03*
X219456000Y-33121600D03*
X219456000Y-30581600D03*
X216916000Y-33121600D03*
X216916000Y-30581600D03*
X214376000Y-33121600D03*
X214376000Y-30581600D03*
X211836000Y-33121600D03*
X211836000Y-30581600D03*
X234696000Y-63474600D03*
D24*
X237693200Y-98750400D03*
X240233200Y-98750400D03*
X245313200Y-98750400D03*
X242773200Y-98750400D03*
X250393200Y-98750400D03*
X247853200Y-98750400D03*
X247853200Y-85750400D03*
X250393200Y-85750400D03*
X242773200Y-85750400D03*
X245313200Y-85750400D03*
X240233200Y-85750400D03*
X237693200Y-85750400D03*
D25*
X148127600Y-118231600D03*
X148127600Y-120731600D03*
X144627600Y-118231600D03*
X144627600Y-120731600D03*
X139547600Y-118231600D03*
X139547600Y-120731600D03*
X136047600Y-118231600D03*
X136047600Y-120731600D03*
D10*
X59302000Y-32772400D03*
X57352000Y-32772400D03*
D11*
X64992000Y-94052400D03*
X57992000Y-94052400D03*
X50992000Y-94052400D03*
X65392000Y-32002400D03*
X50392000Y-32002400D03*
D10*
X101492000Y-50965200D03*
X101492000Y-49015200D03*
D26*
X40212000Y-56655200D03*
X40212000Y-49655200D03*
X40212000Y-42655200D03*
X102262000Y-57055200D03*
X102262000Y-42055200D03*
D10*
X101796800Y-77889200D03*
X101796800Y-75939200D03*
D26*
X40516800Y-83579200D03*
X40516800Y-76579200D03*
X40516800Y-69579200D03*
X102566800Y-83979200D03*
X102566800Y-68979200D03*
D10*
X144493600Y-32467600D03*
X142543600Y-32467600D03*
D11*
X150183600Y-93747600D03*
X143183600Y-93747600D03*
X136183600Y-93747600D03*
X150583600Y-31697600D03*
X135583600Y-31697600D03*
D10*
X170706400Y-33382000D03*
X168756400Y-33382000D03*
D11*
X176396400Y-94662000D03*
X169396400Y-94662000D03*
X162396400Y-94662000D03*
X176796400Y-32612000D03*
X161796400Y-32612000D03*
D10*
X186378800Y-52032000D03*
X186378800Y-50082000D03*
D26*
X125098800Y-57722000D03*
X125098800Y-50722000D03*
X125098800Y-43722000D03*
X187148800Y-58122000D03*
X187148800Y-43122000D03*
D10*
X186734400Y-77381200D03*
X186734400Y-75431200D03*
D26*
X125454400Y-83071200D03*
X125454400Y-76071200D03*
X125454400Y-69071200D03*
X187504400Y-83471200D03*
X187504400Y-68471200D03*
D27*
X189382400Y-115214400D03*
D28*
X248513600Y-58318400D03*
X258267200Y-32715200D03*
X258572000Y-24790400D03*
X213258400Y-129794000D03*
X220980000Y-120751600D03*
X224536000Y-72796400D03*
X254609600Y-24485600D03*
X247599200Y-23672800D03*
X213737800Y-120700800D03*
X205384400Y-132638800D03*
D27*
X193326000Y-116179600D03*
D29*
X240080800Y-116535200D03*
X84480400Y-59334400D03*
X148894800Y-66344800D03*
X140766800Y-62534800D03*
X71120000Y-63906400D03*
D28*
X250444000Y-65786000D03*
X216103200Y-100279200D03*
X239369600Y-94538800D03*
X223113600Y-117856000D03*
X237388400Y-46939200D03*
D27*
X209365600Y-59315600D03*
D28*
X235000800Y-47548800D03*
X232105200Y-51562000D03*
X229362000Y-51933600D03*
X227177600Y-48361600D03*
X227025200Y-47396400D03*
D27*
X211937600Y-79959200D03*
D28*
X170992800Y-60655200D03*
X177647600Y-73406000D03*
X148793200Y-48260000D03*
X169468800Y-50495200D03*
X75641200Y-74726800D03*
X75692000Y-57404000D03*
X56489600Y-60198000D03*
X200761600Y-39674800D03*
X84632800Y-50800000D03*
X256590800Y-23672800D03*
X259791200Y-28651200D03*
X248615200Y-25196800D03*
X257505200Y-43027600D03*
X191008000Y-121869200D03*
X190601600Y-126085600D03*
D29*
X240080800Y-127965200D03*
D28*
X243078000Y-115824000D03*
X226212400Y-86207600D03*
X224840800Y-21590000D03*
X222250000Y-21996400D03*
X253593600Y-23723600D03*
X220675200Y-24688800D03*
X224586800Y-22910800D03*
X220827600Y-21234400D03*
X223926400Y-25450800D03*
X217627200Y-22199600D03*
X219760800Y-22402800D03*
X111150400Y-33782000D03*
X96570800Y-76962000D03*
D30*
X256235200Y-27838400D02*
X256946400Y-27127200D01*
X255574800Y-24485600D02*
X254609600Y-24485600D01*
X256946400Y-25857200D02*
X255574800Y-24485600D01*
X256946400Y-27127200D02*
X256946400Y-25857200D01*
X247599200Y-23672800D02*
X250240800Y-23672800D01*
X258318000Y-29921200D02*
X258318000Y-32766000D01*
X256235200Y-27838400D02*
X258318000Y-29921200D01*
X254406400Y-27838400D02*
X256235200Y-27838400D01*
X250240800Y-23672800D02*
X254406400Y-27838400D01*
D31*
X250444000Y-75387200D02*
X250444000Y-65786000D01*
X246938800Y-78892400D02*
X250444000Y-75387200D01*
X243433600Y-78892400D02*
X246938800Y-78892400D01*
X240233200Y-82092800D02*
X243433600Y-78892400D01*
X240233200Y-85750400D02*
X240233200Y-82092800D01*
D32*
X101752400Y-118364000D02*
X101752400Y-108864400D01*
X101752400Y-108864400D02*
X104190800Y-106426000D01*
X104190800Y-106426000D02*
X106578400Y-106426000D01*
X106578400Y-106426000D02*
X113080800Y-99923600D01*
X113080800Y-99923600D02*
X113080800Y-65989200D01*
X113080800Y-65989200D02*
X121348000Y-57722000D01*
X121348000Y-57722000D02*
X128098800Y-57722000D01*
X128098800Y-50722000D02*
X118184400Y-50722000D01*
X118184400Y-50722000D02*
X110896400Y-58010000D01*
X110896400Y-58010000D02*
X110896400Y-99822000D01*
X110896400Y-99822000D02*
X106172000Y-104546400D01*
X106172000Y-104546400D02*
X98298000Y-104546400D01*
X98298000Y-104546400D02*
X95402400Y-107442000D01*
X95402400Y-107442000D02*
X95402400Y-118364000D01*
X89052400Y-118364000D02*
X89052400Y-106019600D01*
X89052400Y-106019600D02*
X93167200Y-101904800D01*
X93167200Y-101904800D02*
X105918000Y-101904800D01*
X105918000Y-101904800D02*
X108966000Y-98856800D01*
X108966000Y-98856800D02*
X108966000Y-49225200D01*
X108966000Y-49225200D02*
X114469200Y-43722000D01*
X114469200Y-43722000D02*
X128098800Y-43722000D01*
X128454400Y-83071200D02*
X124548400Y-83071200D01*
X124548400Y-83071200D02*
X118973600Y-88646000D01*
X118973600Y-88646000D02*
X118973600Y-102717600D01*
X118973600Y-102717600D02*
X112268000Y-109423200D01*
X112268000Y-109423200D02*
X112268000Y-120548400D01*
X112268000Y-120548400D02*
X108102400Y-124714000D01*
X108102400Y-124714000D02*
X101752400Y-124714000D01*
X95402400Y-124714000D02*
X95402400Y-123952000D01*
X95402400Y-123952000D02*
X97282000Y-122072400D01*
X97282000Y-122072400D02*
X108000800Y-122072400D01*
X108000800Y-122072400D02*
X110439200Y-119634000D01*
X110439200Y-119634000D02*
X110439200Y-108661200D01*
X110439200Y-108661200D02*
X116890800Y-102209600D01*
X116890800Y-102209600D02*
X116890800Y-78689200D01*
X116890800Y-78689200D02*
X119508800Y-76071200D01*
X119508800Y-76071200D02*
X128454400Y-76071200D01*
X128454400Y-69071200D02*
X120666800Y-69071200D01*
X120666800Y-69071200D02*
X115011200Y-74726800D01*
X115011200Y-74726800D02*
X115011200Y-101346000D01*
X115011200Y-101346000D02*
X108458000Y-107899200D01*
X108458000Y-107899200D02*
X108458000Y-118973600D01*
X108458000Y-118973600D02*
X106781600Y-120650000D01*
X106781600Y-120650000D02*
X93116400Y-120650000D01*
X93116400Y-120650000D02*
X89052400Y-124714000D01*
X101752400Y-131064000D02*
X111252000Y-131064000D01*
X111252000Y-131064000D02*
X118465600Y-123850400D01*
X118465600Y-123850400D02*
X118465600Y-113131600D01*
X118465600Y-113131600D02*
X125069600Y-106527600D01*
X125069600Y-106527600D02*
X143052800Y-106527600D01*
X143052800Y-106527600D02*
X149568600Y-100011800D01*
X149568600Y-100011800D02*
X149568600Y-91636600D01*
X142568600Y-91636600D02*
X142568600Y-98680600D01*
X142568600Y-98680600D02*
X137414000Y-103835200D01*
X137414000Y-103835200D02*
X124409200Y-103835200D01*
X124409200Y-103835200D02*
X115824000Y-112420400D01*
X115824000Y-112420400D02*
X115824000Y-123190000D01*
X115824000Y-123190000D02*
X110591600Y-128422400D01*
X110591600Y-128422400D02*
X98044000Y-128422400D01*
X98044000Y-128422400D02*
X95402400Y-131064000D01*
X89052400Y-131064000D02*
X89052400Y-130759200D01*
X89052400Y-130759200D02*
X92862400Y-126949200D01*
X92862400Y-126949200D02*
X109423200Y-126949200D01*
X109423200Y-126949200D02*
X113893600Y-122478800D01*
X113893600Y-122478800D02*
X113893600Y-110845600D01*
X113893600Y-110845600D02*
X123444000Y-101295200D01*
X123444000Y-101295200D02*
X130302000Y-101295200D01*
X130302000Y-101295200D02*
X135568600Y-96028600D01*
X135568600Y-96028600D02*
X135568600Y-91636600D01*
X114604800Y-137414000D02*
X101752400Y-137414000D01*
X176721200Y-91916000D02*
X176721200Y-102146800D01*
X176721200Y-102146800D02*
X175056800Y-103811200D01*
X175056800Y-103811200D02*
X163955600Y-103811200D01*
X163955600Y-103811200D02*
X160477200Y-107289600D01*
X160477200Y-107289600D02*
X153263600Y-107289600D01*
X153263600Y-107289600D02*
X147218400Y-113334800D01*
X147218400Y-113334800D02*
X129590800Y-113334800D01*
X129590800Y-113334800D02*
X125425200Y-117500400D01*
X125425200Y-117500400D02*
X125425200Y-126593600D01*
X125425200Y-126593600D02*
X114604800Y-137414000D01*
X95402400Y-137414000D02*
X95402400Y-136956800D01*
X95402400Y-136956800D02*
X97536000Y-134823200D01*
X97536000Y-134823200D02*
X114096800Y-134823200D01*
X114096800Y-134823200D02*
X123393200Y-125526800D01*
X123393200Y-125526800D02*
X123393200Y-115468400D01*
X123393200Y-115468400D02*
X127558800Y-111302800D01*
X127558800Y-111302800D02*
X145999200Y-111302800D01*
X145999200Y-111302800D02*
X152400000Y-104902000D01*
X152400000Y-104902000D02*
X159664400Y-104902000D01*
X159664400Y-104902000D02*
X162306000Y-102260400D01*
X162306000Y-102260400D02*
X168198800Y-102260400D01*
X168198800Y-102260400D02*
X169721200Y-100738000D01*
X169721200Y-100738000D02*
X169721200Y-91916000D01*
X162721200Y-91916000D02*
X162721200Y-97222400D01*
X162721200Y-97222400D02*
X157073600Y-102870000D01*
X157073600Y-102870000D02*
X150876000Y-102870000D01*
X150876000Y-102870000D02*
X144729200Y-109016800D01*
X144729200Y-109016800D02*
X126238000Y-109016800D01*
X126238000Y-109016800D02*
X121005600Y-114249200D01*
X121005600Y-114249200D02*
X121005600Y-124510800D01*
X121005600Y-124510800D02*
X112115600Y-133400800D01*
X112115600Y-133400800D02*
X93065600Y-133400800D01*
X93065600Y-133400800D02*
X89052400Y-137414000D01*
X53289200Y-118465600D02*
X42672000Y-107848400D01*
X33629600Y-87477600D02*
X37528000Y-83579200D01*
X33629600Y-100990400D02*
X33629600Y-87477600D01*
X40487600Y-107848400D02*
X33629600Y-100990400D01*
X42672000Y-107848400D02*
X40487600Y-107848400D01*
X37528000Y-83579200D02*
X43516800Y-83579200D01*
X46939200Y-118465600D02*
X30581600Y-102108000D01*
X30581600Y-102108000D02*
X30581600Y-84734400D01*
X30581600Y-84734400D02*
X38736800Y-76579200D01*
X38736800Y-76579200D02*
X43516800Y-76579200D01*
X40589200Y-118465600D02*
X40589200Y-115468400D01*
X35068800Y-69579200D02*
X43516800Y-69579200D01*
X28244800Y-76403200D02*
X35068800Y-69579200D01*
X28244800Y-103124000D02*
X28244800Y-76403200D01*
X40589200Y-115468400D02*
X28244800Y-103124000D01*
X35153600Y-120802400D02*
X26416000Y-112064800D01*
X26416000Y-112064800D02*
X26416000Y-63652400D01*
X26416000Y-63652400D02*
X33413200Y-56655200D01*
X33413200Y-56655200D02*
X43212000Y-56655200D01*
X53289200Y-124815600D02*
X53289200Y-123952000D01*
X53289200Y-123952000D02*
X50139600Y-120802400D01*
X50139600Y-120802400D02*
X35153600Y-120802400D01*
X43148000Y-56591200D02*
X43212000Y-56655200D01*
X43212000Y-49655200D02*
X32640800Y-49655200D01*
X32640800Y-49655200D02*
X24485600Y-57810400D01*
X24485600Y-57810400D02*
X24485600Y-116738400D01*
X24485600Y-116738400D02*
X30022800Y-122275600D01*
X30022800Y-122275600D02*
X42418000Y-122275600D01*
X42418000Y-122275600D02*
X44958000Y-124815600D01*
X44958000Y-124815600D02*
X46939200Y-124815600D01*
X46939200Y-124815600D02*
X46888400Y-124815600D01*
X40589200Y-124815600D02*
X26974800Y-124815600D01*
X27499600Y-42655200D02*
X43212000Y-42655200D01*
X22504400Y-47650400D02*
X27499600Y-42655200D01*
X22504400Y-120345200D02*
X22504400Y-47650400D01*
X26974800Y-124815600D02*
X22504400Y-120345200D01*
X53289200Y-131165600D02*
X61010800Y-131165600D01*
X61010800Y-131165600D02*
X63347600Y-128828800D01*
X63347600Y-128828800D02*
X63347600Y-102768400D01*
X64719200Y-101396800D02*
X64719200Y-91192800D01*
X63347600Y-102768400D02*
X64719200Y-101396800D01*
X64719200Y-91192800D02*
X64732600Y-91179400D01*
X46939200Y-131165600D02*
X46939200Y-130606800D01*
X46939200Y-130606800D02*
X49072800Y-128473200D01*
X57732600Y-109193000D02*
X57732600Y-91179400D01*
X61468000Y-112928400D02*
X57732600Y-109193000D01*
X61468000Y-127050800D02*
X61468000Y-112928400D01*
X60045600Y-128473200D02*
X61468000Y-127050800D01*
X49072800Y-128473200D02*
X60045600Y-128473200D01*
X40589200Y-131165600D02*
X40589200Y-130403600D01*
X40589200Y-130403600D02*
X43942000Y-127050800D01*
X50732600Y-109762200D02*
X50732600Y-91179400D01*
X51663600Y-110693200D02*
X50732600Y-109762200D01*
X55372000Y-110693200D02*
X51663600Y-110693200D01*
X59537600Y-114858800D02*
X55372000Y-110693200D01*
X59537600Y-125577600D02*
X59537600Y-114858800D01*
X58064400Y-127050800D02*
X59537600Y-125577600D01*
X43942000Y-127050800D02*
X58064400Y-127050800D01*
X53289200Y-137515600D02*
X64465200Y-137515600D01*
X64465200Y-137515600D02*
X76352400Y-125628400D01*
X76352400Y-113538000D02*
X91174000Y-98716400D01*
X76352400Y-125628400D02*
X76352400Y-113538000D01*
X91174000Y-98716400D02*
X91174000Y-91052400D01*
X46939200Y-137515600D02*
X46939200Y-136906000D01*
X46939200Y-136906000D02*
X49022000Y-134823200D01*
X70967600Y-111810800D02*
X84174000Y-98604400D01*
X70967600Y-127508000D02*
X70967600Y-111810800D01*
X63652400Y-134823200D02*
X70967600Y-127508000D01*
X49022000Y-134823200D02*
X63652400Y-134823200D01*
X84174000Y-98604400D02*
X84174000Y-91052400D01*
X40589200Y-137515600D02*
X40589200Y-136499600D01*
X40589200Y-136499600D02*
X43637200Y-133451600D01*
X67665600Y-100560800D02*
X77174000Y-91052400D01*
X67665600Y-127812800D02*
X67665600Y-100560800D01*
X62026800Y-133451600D02*
X67665600Y-127812800D01*
X43637200Y-133451600D02*
X62026800Y-133451600D01*
D33*
X212090000Y-79959200D02*
X212098598Y-79959200D01*
D32*
X198170800Y-82143600D02*
X201168000Y-82143600D01*
X211277200Y-79146400D02*
X212090000Y-79959200D01*
X204165200Y-79146400D02*
X211277200Y-79146400D01*
X201168000Y-82143600D02*
X204165200Y-79146400D01*
D30*
X172415200Y-70967600D02*
X172415200Y-62077600D01*
X172415200Y-62077600D02*
X170992800Y-60655200D01*
X172415200Y-70967600D02*
X180949600Y-79502000D01*
X180949600Y-79502000D02*
X201015600Y-79502000D01*
X201015600Y-79502000D02*
X206756000Y-73761600D01*
X177647600Y-73406000D02*
X204571600Y-73406000D01*
X204571600Y-73406000D02*
X206756000Y-71221600D01*
X148793200Y-48260000D02*
X165709600Y-48260000D01*
X197510400Y-68681600D02*
X206756000Y-68681600D01*
X194970400Y-66141600D02*
X197510400Y-68681600D01*
X194970400Y-55422800D02*
X194970400Y-66141600D01*
X191262000Y-51714400D02*
X194970400Y-55422800D01*
X169164000Y-51714400D02*
X191262000Y-51714400D01*
X165709600Y-48260000D02*
X169164000Y-51714400D01*
X169468800Y-50495200D02*
X192582800Y-50495200D01*
X197866000Y-66141600D02*
X206756000Y-66141600D01*
X196494400Y-64770000D02*
X197866000Y-66141600D01*
X196494400Y-54406800D02*
X196494400Y-64770000D01*
X192582800Y-50495200D02*
X196494400Y-54406800D01*
X190144400Y-23266400D02*
X194970400Y-23266400D01*
X202234800Y-59080400D02*
X206756000Y-63601600D01*
X202234800Y-30530800D02*
X202234800Y-59080400D01*
X194970400Y-23266400D02*
X202234800Y-30530800D01*
X105003600Y-23266400D02*
X190144400Y-23266400D01*
X75641200Y-59639200D02*
X82397600Y-52882800D01*
X82397600Y-52882800D02*
X82397600Y-28346400D01*
X82397600Y-28346400D02*
X87477600Y-23266400D01*
X87477600Y-23266400D02*
X105003600Y-23266400D01*
X75641200Y-74726800D02*
X75641200Y-59639200D01*
X190144400Y-23266400D02*
X190195200Y-23317200D01*
X190195200Y-22504400D02*
X195224400Y-22504400D01*
X203098400Y-57404000D02*
X206756000Y-61061600D01*
X203098400Y-30378400D02*
X203098400Y-57404000D01*
X195224400Y-22504400D02*
X203098400Y-30378400D01*
X104902000Y-22504400D02*
X190195200Y-22504400D01*
X190195200Y-22504400D02*
X190246000Y-22555200D01*
X75692000Y-57404000D02*
X75692000Y-41910000D01*
X86207600Y-22504400D02*
X104902000Y-22504400D01*
X104902000Y-22504400D02*
X105003600Y-22504400D01*
X80975200Y-27736800D02*
X86207600Y-22504400D01*
X80975200Y-36626800D02*
X80975200Y-27736800D01*
X75692000Y-41910000D02*
X80975200Y-36626800D01*
X190347600Y-21844000D02*
X195630800Y-21844000D01*
X56489600Y-60198000D02*
X60299600Y-60198000D01*
X72948800Y-21844000D02*
X105257600Y-21844000D01*
X69291200Y-25501600D02*
X72948800Y-21844000D01*
X69291200Y-51206400D02*
X69291200Y-25501600D01*
X60299600Y-60198000D02*
X69291200Y-51206400D01*
X190347600Y-21844000D02*
X105257600Y-21844000D01*
X204063600Y-55829200D02*
X206756000Y-58521600D01*
X204063600Y-30276800D02*
X204063600Y-55829200D01*
X195630800Y-21844000D02*
X204063600Y-30276800D01*
X194360800Y-24333200D02*
X200761600Y-30734000D01*
X200761600Y-30734000D02*
X200761600Y-39674800D01*
X104749600Y-24333200D02*
X189890400Y-24333200D01*
X189890400Y-24333200D02*
X194360800Y-24333200D01*
X84632800Y-50800000D02*
X84632800Y-28194000D01*
X88493600Y-24333200D02*
X104749600Y-24333200D01*
X104749600Y-24333200D02*
X104800400Y-24333200D01*
X84632800Y-28194000D02*
X88493600Y-24333200D01*
X257302000Y-42824400D02*
X257505200Y-43027600D01*
X257302000Y-42316400D02*
X257302000Y-42824400D01*
X250291600Y-25196800D02*
X254101600Y-29006800D01*
X254101600Y-29006800D02*
X255981200Y-29006800D01*
X255981200Y-29006800D02*
X257302000Y-30327600D01*
X257302000Y-30327600D02*
X257302000Y-42316400D01*
X248615200Y-25196800D02*
X250291600Y-25196800D01*
X191008000Y-121869200D02*
X191008000Y-113538000D01*
X214223600Y-58369200D02*
X206756000Y-50901600D01*
X214223600Y-99923600D02*
X214223600Y-58369200D01*
X210515200Y-103632000D02*
X214223600Y-99923600D01*
X200914000Y-103632000D02*
X210515200Y-103632000D01*
X191008000Y-113538000D02*
X200914000Y-103632000D01*
X215036400Y-56642000D02*
X206756000Y-48361600D01*
X215036400Y-100431600D02*
X215036400Y-56642000D01*
X211023200Y-104444800D02*
X215036400Y-100431600D01*
X201168000Y-104444800D02*
X211023200Y-104444800D01*
X191668400Y-113944400D02*
X201168000Y-104444800D01*
X191668400Y-122986800D02*
X191668400Y-113944400D01*
X190601600Y-124053600D02*
X191668400Y-122986800D01*
X190601600Y-126085600D02*
X190601600Y-124053600D01*
X243078000Y-115824000D02*
X243078000Y-112268000D01*
X216662000Y-55727600D02*
X206756000Y-45821600D01*
X216662000Y-93268800D02*
X216662000Y-55727600D01*
X220675200Y-97282000D02*
X216662000Y-93268800D01*
X228092000Y-97282000D02*
X220675200Y-97282000D01*
X243078000Y-112268000D02*
X228092000Y-97282000D01*
X226212400Y-86207600D02*
X226212400Y-62738000D01*
X226212400Y-62738000D02*
X206756000Y-43281600D01*
X224840800Y-21590000D02*
X227126800Y-23876000D01*
X249478800Y-27584400D02*
X252476000Y-30581600D01*
X246634000Y-27584400D02*
X249478800Y-27584400D01*
X242925600Y-23876000D02*
X246634000Y-27584400D01*
X227126800Y-23876000D02*
X242925600Y-23876000D01*
X222250000Y-21996400D02*
X222250000Y-22860000D01*
X248208800Y-28854400D02*
X249936000Y-30581600D01*
X245262400Y-28854400D02*
X248208800Y-28854400D01*
X241198400Y-24790400D02*
X245262400Y-28854400D01*
X224180400Y-24790400D02*
X241198400Y-24790400D01*
X222250000Y-22860000D02*
X224180400Y-24790400D01*
X237642400Y-28448000D02*
X239776000Y-30581600D01*
X222199200Y-28448000D02*
X237642400Y-28448000D01*
X217627200Y-23876000D02*
X222199200Y-28448000D01*
X217627200Y-22199600D02*
X217627200Y-23876000D01*
X223621600Y-26263600D02*
X237998000Y-26263600D01*
X242316000Y-30581600D02*
X237998000Y-26263600D01*
X219760800Y-22402800D02*
X223621600Y-26263600D01*
M02*
