G04 #@! TF.GenerationSoftware,KiCad,Pcbnew,5.1.2-f72e74a~84~ubuntu16.04.1*
G04 #@! TF.CreationDate,2019-05-07T21:52:54+05:30*
G04 #@! TF.ProjectId,MasterPcb,4d617374-6572-4506-9362-2e6b69636164,rev?*
G04 #@! TF.SameCoordinates,Original*
G04 #@! TF.FileFunction,Legend,Bot*
G04 #@! TF.FilePolarity,Positive*
%FSLAX46Y46*%
G04 Gerber Fmt 4.6, Leading zero omitted, Abs format (unit mm)*
G04 Created by KiCad (PCBNEW 5.1.2-f72e74a~84~ubuntu16.04.1) date 2019-05-07 21:52:54*
%MOMM*%
%LPD*%
G04 APERTURE LIST*
%ADD10C,0.150000*%
%ADD11C,0.127000*%
%ADD12C,0.120000*%
%ADD13C,0.050000*%
G04 APERTURE END LIST*
D10*
X95052400Y-89001600D02*
X95052400Y-37001600D01*
X95052400Y-37001600D02*
X73052400Y-37001600D01*
X73052400Y-37001600D02*
X73052400Y-89001600D01*
X73052400Y-89001600D02*
X95052400Y-89001600D01*
D11*
X201244200Y-112217200D02*
X201244200Y-106629200D01*
X201244200Y-106629200D02*
X195402200Y-106629200D01*
X195402200Y-106629200D02*
X195402200Y-112217200D01*
X195402200Y-112217200D02*
X201244200Y-112217200D01*
G36*
X196418200Y-108534200D02*
G01*
X198323200Y-110439200D01*
X200228200Y-108534200D01*
X196418200Y-108534200D01*
G37*
X196418200Y-108534200D02*
X198323200Y-110439200D01*
X200228200Y-108534200D01*
X196418200Y-108534200D01*
X193522600Y-112217200D02*
X193522600Y-106629200D01*
X193522600Y-106629200D02*
X187680600Y-106629200D01*
X187680600Y-106629200D02*
X187680600Y-112217200D01*
X187680600Y-112217200D02*
X193522600Y-112217200D01*
G36*
X188696600Y-108534200D02*
G01*
X190601600Y-110439200D01*
X192506600Y-108534200D01*
X188696600Y-108534200D01*
G37*
X188696600Y-108534200D02*
X190601600Y-110439200D01*
X192506600Y-108534200D01*
X188696600Y-108534200D01*
D12*
X213363200Y-103057200D02*
X213363200Y-101057200D01*
X211223200Y-101057200D02*
X211223200Y-103057200D01*
X202695200Y-133435600D02*
X202695200Y-131435600D01*
X200555200Y-131435600D02*
X200555200Y-133435600D01*
X196745200Y-131435600D02*
X196745200Y-133435600D01*
X198885200Y-133435600D02*
X198885200Y-131435600D01*
X135162800Y-45615200D02*
X133162800Y-45615200D01*
X133162800Y-47755200D02*
X135162800Y-47755200D01*
X51952400Y-46834400D02*
X49952400Y-46834400D01*
X49952400Y-48974400D02*
X51952400Y-48974400D01*
X139734800Y-58467600D02*
X137734800Y-58467600D01*
X137734800Y-60607600D02*
X139734800Y-60607600D01*
X162017200Y-58778800D02*
X164017200Y-58778800D01*
X164017200Y-56638800D02*
X162017200Y-56638800D01*
X55483000Y-66316200D02*
X53483000Y-66316200D01*
X53483000Y-68456200D02*
X55483000Y-68456200D01*
X83448400Y-61414000D02*
X81448400Y-61414000D01*
X81448400Y-63554000D02*
X83448400Y-63554000D01*
X194834000Y-120450000D02*
X196834000Y-120450000D01*
X196834000Y-118310000D02*
X194834000Y-118310000D01*
X166741600Y-66652800D02*
X168741600Y-66652800D01*
X168741600Y-64512800D02*
X166741600Y-64512800D01*
X81448400Y-55375200D02*
X83448400Y-55375200D01*
X83448400Y-53235200D02*
X81448400Y-53235200D01*
X139633200Y-51609600D02*
X137633200Y-51609600D01*
X137633200Y-53749600D02*
X139633200Y-53749600D01*
X144827600Y-45278800D02*
X144827600Y-47278800D01*
X146967600Y-47278800D02*
X146967600Y-45278800D01*
X168487600Y-46224800D02*
X166487600Y-46224800D01*
X166487600Y-48364800D02*
X168487600Y-48364800D01*
X176272800Y-42535600D02*
X176272800Y-44535600D01*
X178412800Y-44535600D02*
X178412800Y-42535600D01*
X61820400Y-51324000D02*
X61820400Y-53324000D01*
X63960400Y-53324000D02*
X63960400Y-51324000D01*
X55483000Y-56156200D02*
X53483000Y-56156200D01*
X53483000Y-58296200D02*
X55483000Y-58296200D01*
X83651600Y-46732800D02*
X81651600Y-46732800D01*
X81651600Y-48872800D02*
X83651600Y-48872800D01*
X89912800Y-43805600D02*
X89912800Y-45805600D01*
X92052800Y-45805600D02*
X92052800Y-43805600D01*
X194783200Y-123396400D02*
X196783200Y-123396400D01*
X196783200Y-121256400D02*
X194783200Y-121256400D01*
X194668800Y-129066800D02*
X194668800Y-127066800D01*
X192528800Y-127066800D02*
X192528800Y-129066800D01*
X209268400Y-126154800D02*
X207768400Y-126154800D01*
X207768400Y-126154800D02*
X207768400Y-125464800D01*
X207768400Y-125464800D02*
X202643400Y-125464800D01*
X209268400Y-115754800D02*
X207768400Y-115754800D01*
X207768400Y-115754800D02*
X207768400Y-116444800D01*
X207768400Y-116444800D02*
X206668400Y-116444800D01*
D10*
X257556000Y-127101600D02*
X204216000Y-127101600D01*
X244856000Y-28041600D02*
X256032000Y-28041600D01*
X242316000Y-25501600D02*
X244856000Y-28041600D01*
X208026000Y-25501600D02*
X242316000Y-25501600D01*
X205486000Y-28041600D02*
X208026000Y-25501600D01*
X204216000Y-28041600D02*
X205486000Y-28041600D01*
X257556000Y-29565600D02*
X256032000Y-28041600D01*
X204216000Y-127101600D02*
X204216000Y-28041600D01*
X257556000Y-127101600D02*
X257556000Y-29565600D01*
X68992000Y-89052400D02*
X68992000Y-37052400D01*
X68992000Y-37052400D02*
X46992000Y-37052400D01*
X46992000Y-37052400D02*
X46992000Y-89052400D01*
X46992000Y-89052400D02*
X68992000Y-89052400D01*
X154183600Y-88747600D02*
X154183600Y-36747600D01*
X154183600Y-36747600D02*
X132183600Y-36747600D01*
X132183600Y-36747600D02*
X132183600Y-88747600D01*
X132183600Y-88747600D02*
X154183600Y-88747600D01*
X180396400Y-89662000D02*
X180396400Y-37662000D01*
X180396400Y-37662000D02*
X158396400Y-37662000D01*
X158396400Y-37662000D02*
X158396400Y-89662000D01*
X158396400Y-89662000D02*
X180396400Y-89662000D01*
D13*
X203156168Y-106818543D02*
X201753658Y-106818543D01*
X201753658Y-107152474D01*
X201820445Y-107352833D01*
X201954017Y-107486405D01*
X202087589Y-107553191D01*
X202354734Y-107619977D01*
X202555093Y-107619977D01*
X202822237Y-107553191D01*
X202955810Y-107486405D01*
X203089382Y-107352833D01*
X203156168Y-107152474D01*
X203156168Y-106818543D01*
X203289741Y-107887122D02*
X203289741Y-108955701D01*
X202755451Y-109222846D02*
X202755451Y-109890708D01*
X203156168Y-109089274D02*
X201753658Y-109556777D01*
X203156168Y-110024280D01*
X203156168Y-111159645D02*
X203156168Y-110491784D01*
X201753658Y-110491784D01*
X201753658Y-111426790D02*
X201753658Y-112228225D01*
X203156168Y-111827507D02*
X201753658Y-111827507D01*
X195434568Y-106818543D02*
X194032058Y-106818543D01*
X194032058Y-107152474D01*
X194098845Y-107352833D01*
X194232417Y-107486405D01*
X194365989Y-107553191D01*
X194633134Y-107619977D01*
X194833493Y-107619977D01*
X195100637Y-107553191D01*
X195234210Y-107486405D01*
X195367782Y-107352833D01*
X195434568Y-107152474D01*
X195434568Y-106818543D01*
X195568141Y-107887122D02*
X195568141Y-108955701D01*
X195033851Y-109222846D02*
X195033851Y-109890708D01*
X195434568Y-109089274D02*
X194032058Y-109556777D01*
X195434568Y-110024280D01*
X195434568Y-111159645D02*
X195434568Y-110491784D01*
X194032058Y-110491784D01*
X194032058Y-111426790D02*
X194032058Y-112228225D01*
X195434568Y-111827507D02*
X194032058Y-111827507D01*
D10*
X236577142Y-64617600D02*
X236624761Y-64665219D01*
X236672380Y-64617600D01*
X236624761Y-64569980D01*
X236577142Y-64617600D01*
X236672380Y-64617600D01*
X111473904Y-58107580D02*
X111473904Y-57107580D01*
X111473904Y-57488533D02*
X111378666Y-57440914D01*
X111188190Y-57440914D01*
X111092952Y-57488533D01*
X111045333Y-57536152D01*
X110997714Y-57631390D01*
X110997714Y-57917104D01*
X111045333Y-58012342D01*
X111092952Y-58059961D01*
X111188190Y-58107580D01*
X111378666Y-58107580D01*
X111473904Y-58059961D01*
X110426285Y-58107580D02*
X110521523Y-58059961D01*
X110569142Y-57964723D01*
X110569142Y-57107580D01*
X109616761Y-58107580D02*
X109616761Y-57583771D01*
X109664380Y-57488533D01*
X109759619Y-57440914D01*
X109950095Y-57440914D01*
X110045333Y-57488533D01*
X109616761Y-58059961D02*
X109712000Y-58107580D01*
X109950095Y-58107580D01*
X110045333Y-58059961D01*
X110092952Y-57964723D01*
X110092952Y-57869485D01*
X110045333Y-57774247D01*
X109950095Y-57726628D01*
X109712000Y-57726628D01*
X109616761Y-57679009D01*
X108712000Y-58059961D02*
X108807238Y-58107580D01*
X108997714Y-58107580D01*
X109092952Y-58059961D01*
X109140571Y-58012342D01*
X109188190Y-57917104D01*
X109188190Y-57631390D01*
X109140571Y-57536152D01*
X109092952Y-57488533D01*
X108997714Y-57440914D01*
X108807238Y-57440914D01*
X108712000Y-57488533D01*
X108283428Y-58107580D02*
X108283428Y-57107580D01*
X108188190Y-57726628D02*
X107902476Y-58107580D01*
X107902476Y-57440914D02*
X108283428Y-57821866D01*
X109564380Y-42107580D02*
X109564380Y-41440914D01*
X109564380Y-41631390D02*
X109516761Y-41536152D01*
X109469142Y-41488533D01*
X109373904Y-41440914D01*
X109278666Y-41440914D01*
X108564380Y-42059961D02*
X108659619Y-42107580D01*
X108850095Y-42107580D01*
X108945333Y-42059961D01*
X108992952Y-41964723D01*
X108992952Y-41583771D01*
X108945333Y-41488533D01*
X108850095Y-41440914D01*
X108659619Y-41440914D01*
X108564380Y-41488533D01*
X108516761Y-41583771D01*
X108516761Y-41679009D01*
X108992952Y-41774247D01*
X107659619Y-42107580D02*
X107659619Y-41107580D01*
X107659619Y-42059961D02*
X107754857Y-42107580D01*
X107945333Y-42107580D01*
X108040571Y-42059961D01*
X108088190Y-42012342D01*
X108135809Y-41917104D01*
X108135809Y-41631390D01*
X108088190Y-41536152D01*
X108040571Y-41488533D01*
X107945333Y-41440914D01*
X107754857Y-41440914D01*
X107659619Y-41488533D01*
X34597714Y-42140914D02*
X34407238Y-42807580D01*
X34216761Y-42331390D01*
X34026285Y-42807580D01*
X33835809Y-42140914D01*
X33454857Y-42807580D02*
X33454857Y-41807580D01*
X33026285Y-42807580D02*
X33026285Y-42283771D01*
X33073904Y-42188533D01*
X33169142Y-42140914D01*
X33312000Y-42140914D01*
X33407238Y-42188533D01*
X33454857Y-42236152D01*
X32550095Y-42807580D02*
X32550095Y-42140914D01*
X32550095Y-41807580D02*
X32597714Y-41855200D01*
X32550095Y-41902819D01*
X32502476Y-41855200D01*
X32550095Y-41807580D01*
X32550095Y-41902819D01*
X32216761Y-42140914D02*
X31835809Y-42140914D01*
X32073904Y-41807580D02*
X32073904Y-42664723D01*
X32026285Y-42759961D01*
X31931047Y-42807580D01*
X31835809Y-42807580D01*
X31121523Y-42759961D02*
X31216761Y-42807580D01*
X31407238Y-42807580D01*
X31502476Y-42759961D01*
X31550095Y-42664723D01*
X31550095Y-42283771D01*
X31502476Y-42188533D01*
X31407238Y-42140914D01*
X31216761Y-42140914D01*
X31121523Y-42188533D01*
X31073904Y-42283771D01*
X31073904Y-42379009D01*
X31550095Y-42474247D01*
X33616761Y-49540914D02*
X33616761Y-50350438D01*
X33664380Y-50445676D01*
X33712000Y-50493295D01*
X33807238Y-50540914D01*
X33950095Y-50540914D01*
X34045333Y-50493295D01*
X33616761Y-50159961D02*
X33712000Y-50207580D01*
X33902476Y-50207580D01*
X33997714Y-50159961D01*
X34045333Y-50112342D01*
X34092952Y-50017104D01*
X34092952Y-49731390D01*
X34045333Y-49636152D01*
X33997714Y-49588533D01*
X33902476Y-49540914D01*
X33712000Y-49540914D01*
X33616761Y-49588533D01*
X33140571Y-50207580D02*
X33140571Y-49540914D01*
X33140571Y-49731390D02*
X33092952Y-49636152D01*
X33045333Y-49588533D01*
X32950095Y-49540914D01*
X32854857Y-49540914D01*
X32140571Y-50159961D02*
X32235809Y-50207580D01*
X32426285Y-50207580D01*
X32521523Y-50159961D01*
X32569142Y-50064723D01*
X32569142Y-49683771D01*
X32521523Y-49588533D01*
X32426285Y-49540914D01*
X32235809Y-49540914D01*
X32140571Y-49588533D01*
X32092952Y-49683771D01*
X32092952Y-49779009D01*
X32569142Y-49874247D01*
X31283428Y-50159961D02*
X31378666Y-50207580D01*
X31569142Y-50207580D01*
X31664380Y-50159961D01*
X31712000Y-50064723D01*
X31712000Y-49683771D01*
X31664380Y-49588533D01*
X31569142Y-49540914D01*
X31378666Y-49540914D01*
X31283428Y-49588533D01*
X31235809Y-49683771D01*
X31235809Y-49779009D01*
X31712000Y-49874247D01*
X30807238Y-49540914D02*
X30807238Y-50207580D01*
X30807238Y-49636152D02*
X30759619Y-49588533D01*
X30664380Y-49540914D01*
X30521523Y-49540914D01*
X30426285Y-49588533D01*
X30378666Y-49683771D01*
X30378666Y-50207580D01*
X34269142Y-57207580D02*
X34269142Y-56207580D01*
X34269142Y-56588533D02*
X34173904Y-56540914D01*
X33983428Y-56540914D01*
X33888190Y-56588533D01*
X33840571Y-56636152D01*
X33792952Y-56731390D01*
X33792952Y-57017104D01*
X33840571Y-57112342D01*
X33888190Y-57159961D01*
X33983428Y-57207580D01*
X34173904Y-57207580D01*
X34269142Y-57159961D01*
X33221523Y-57207580D02*
X33316761Y-57159961D01*
X33364380Y-57064723D01*
X33364380Y-56207580D01*
X32412000Y-56540914D02*
X32412000Y-57207580D01*
X32840571Y-56540914D02*
X32840571Y-57064723D01*
X32792952Y-57159961D01*
X32697714Y-57207580D01*
X32554857Y-57207580D01*
X32459619Y-57159961D01*
X32412000Y-57112342D01*
X31554857Y-57159961D02*
X31650095Y-57207580D01*
X31840571Y-57207580D01*
X31935809Y-57159961D01*
X31983428Y-57064723D01*
X31983428Y-56683771D01*
X31935809Y-56588533D01*
X31840571Y-56540914D01*
X31650095Y-56540914D01*
X31554857Y-56588533D01*
X31507238Y-56683771D01*
X31507238Y-56779009D01*
X31983428Y-56874247D01*
X98573904Y-49507580D02*
X98573904Y-48507580D01*
X98573904Y-48888533D02*
X98478666Y-48840914D01*
X98288190Y-48840914D01*
X98192952Y-48888533D01*
X98145333Y-48936152D01*
X98097714Y-49031390D01*
X98097714Y-49317104D01*
X98145333Y-49412342D01*
X98192952Y-49459961D01*
X98288190Y-49507580D01*
X98478666Y-49507580D01*
X98573904Y-49459961D01*
X97526285Y-49507580D02*
X97621523Y-49459961D01*
X97669142Y-49364723D01*
X97669142Y-48507580D01*
X96716761Y-49507580D02*
X96716761Y-48983771D01*
X96764380Y-48888533D01*
X96859619Y-48840914D01*
X97050095Y-48840914D01*
X97145333Y-48888533D01*
X96716761Y-49459961D02*
X96812000Y-49507580D01*
X97050095Y-49507580D01*
X97145333Y-49459961D01*
X97192952Y-49364723D01*
X97192952Y-49269485D01*
X97145333Y-49174247D01*
X97050095Y-49126628D01*
X96812000Y-49126628D01*
X96716761Y-49079009D01*
X95812000Y-49459961D02*
X95907238Y-49507580D01*
X96097714Y-49507580D01*
X96192952Y-49459961D01*
X96240571Y-49412342D01*
X96288190Y-49317104D01*
X96288190Y-49031390D01*
X96240571Y-48936152D01*
X96192952Y-48888533D01*
X96097714Y-48840914D01*
X95907238Y-48840914D01*
X95812000Y-48888533D01*
X95383428Y-49507580D02*
X95383428Y-48507580D01*
X95288190Y-49126628D02*
X95002476Y-49507580D01*
X95002476Y-48840914D02*
X95383428Y-49221866D01*
X98297714Y-50440914D02*
X98107238Y-51107580D01*
X97916761Y-50631390D01*
X97726285Y-51107580D01*
X97535809Y-50440914D01*
X97154857Y-51107580D02*
X97154857Y-50107580D01*
X96726285Y-51107580D02*
X96726285Y-50583771D01*
X96773904Y-50488533D01*
X96869142Y-50440914D01*
X97012000Y-50440914D01*
X97107238Y-50488533D01*
X97154857Y-50536152D01*
X96250095Y-51107580D02*
X96250095Y-50440914D01*
X96250095Y-50107580D02*
X96297714Y-50155200D01*
X96250095Y-50202819D01*
X96202476Y-50155200D01*
X96250095Y-50107580D01*
X96250095Y-50202819D01*
X95916761Y-50440914D02*
X95535809Y-50440914D01*
X95773904Y-50107580D02*
X95773904Y-50964723D01*
X95726285Y-51059961D01*
X95631047Y-51107580D01*
X95535809Y-51107580D01*
X94821523Y-51059961D02*
X94916761Y-51107580D01*
X95107238Y-51107580D01*
X95202476Y-51059961D01*
X95250095Y-50964723D01*
X95250095Y-50583771D01*
X95202476Y-50488533D01*
X95107238Y-50440914D01*
X94916761Y-50440914D01*
X94821523Y-50488533D01*
X94773904Y-50583771D01*
X94773904Y-50679009D01*
X95250095Y-50774247D01*
X72126285Y-52671866D02*
X72602476Y-52838533D01*
X73554857Y-52838533D01*
X74031047Y-52671866D01*
X74269142Y-52338533D01*
X74269142Y-51005200D01*
X74031047Y-50671866D01*
X73554857Y-50505200D01*
X72602476Y-50505200D01*
X72126285Y-50671866D01*
X71888190Y-51005200D01*
X71888190Y-51338533D01*
X74269142Y-51671866D01*
X69983428Y-52671866D02*
X69507238Y-52838533D01*
X68554857Y-52838533D01*
X68078666Y-52671866D01*
X67840571Y-52338533D01*
X67840571Y-52171866D01*
X68078666Y-51838533D01*
X68554857Y-51671866D01*
X69269142Y-51671866D01*
X69745333Y-51505200D01*
X69983428Y-51171866D01*
X69983428Y-51005200D01*
X69745333Y-50671866D01*
X69269142Y-50505200D01*
X68554857Y-50505200D01*
X68078666Y-50671866D01*
X63554857Y-52671866D02*
X64031047Y-52838533D01*
X64983428Y-52838533D01*
X65459619Y-52671866D01*
X65697714Y-52505200D01*
X65935809Y-52171866D01*
X65935809Y-51171866D01*
X65697714Y-50838533D01*
X65459619Y-50671866D01*
X64983428Y-50505200D01*
X64031047Y-50505200D01*
X63554857Y-50671866D01*
X111778704Y-85031580D02*
X111778704Y-84031580D01*
X111778704Y-84412533D02*
X111683466Y-84364914D01*
X111492990Y-84364914D01*
X111397752Y-84412533D01*
X111350133Y-84460152D01*
X111302514Y-84555390D01*
X111302514Y-84841104D01*
X111350133Y-84936342D01*
X111397752Y-84983961D01*
X111492990Y-85031580D01*
X111683466Y-85031580D01*
X111778704Y-84983961D01*
X110731085Y-85031580D02*
X110826323Y-84983961D01*
X110873942Y-84888723D01*
X110873942Y-84031580D01*
X109921561Y-85031580D02*
X109921561Y-84507771D01*
X109969180Y-84412533D01*
X110064419Y-84364914D01*
X110254895Y-84364914D01*
X110350133Y-84412533D01*
X109921561Y-84983961D02*
X110016800Y-85031580D01*
X110254895Y-85031580D01*
X110350133Y-84983961D01*
X110397752Y-84888723D01*
X110397752Y-84793485D01*
X110350133Y-84698247D01*
X110254895Y-84650628D01*
X110016800Y-84650628D01*
X109921561Y-84603009D01*
X109016800Y-84983961D02*
X109112038Y-85031580D01*
X109302514Y-85031580D01*
X109397752Y-84983961D01*
X109445371Y-84936342D01*
X109492990Y-84841104D01*
X109492990Y-84555390D01*
X109445371Y-84460152D01*
X109397752Y-84412533D01*
X109302514Y-84364914D01*
X109112038Y-84364914D01*
X109016800Y-84412533D01*
X108588228Y-85031580D02*
X108588228Y-84031580D01*
X108492990Y-84650628D02*
X108207276Y-85031580D01*
X108207276Y-84364914D02*
X108588228Y-84745866D01*
X109869180Y-69031580D02*
X109869180Y-68364914D01*
X109869180Y-68555390D02*
X109821561Y-68460152D01*
X109773942Y-68412533D01*
X109678704Y-68364914D01*
X109583466Y-68364914D01*
X108869180Y-68983961D02*
X108964419Y-69031580D01*
X109154895Y-69031580D01*
X109250133Y-68983961D01*
X109297752Y-68888723D01*
X109297752Y-68507771D01*
X109250133Y-68412533D01*
X109154895Y-68364914D01*
X108964419Y-68364914D01*
X108869180Y-68412533D01*
X108821561Y-68507771D01*
X108821561Y-68603009D01*
X109297752Y-68698247D01*
X107964419Y-69031580D02*
X107964419Y-68031580D01*
X107964419Y-68983961D02*
X108059657Y-69031580D01*
X108250133Y-69031580D01*
X108345371Y-68983961D01*
X108392990Y-68936342D01*
X108440609Y-68841104D01*
X108440609Y-68555390D01*
X108392990Y-68460152D01*
X108345371Y-68412533D01*
X108250133Y-68364914D01*
X108059657Y-68364914D01*
X107964419Y-68412533D01*
X34902514Y-69064914D02*
X34712038Y-69731580D01*
X34521561Y-69255390D01*
X34331085Y-69731580D01*
X34140609Y-69064914D01*
X33759657Y-69731580D02*
X33759657Y-68731580D01*
X33331085Y-69731580D02*
X33331085Y-69207771D01*
X33378704Y-69112533D01*
X33473942Y-69064914D01*
X33616800Y-69064914D01*
X33712038Y-69112533D01*
X33759657Y-69160152D01*
X32854895Y-69731580D02*
X32854895Y-69064914D01*
X32854895Y-68731580D02*
X32902514Y-68779200D01*
X32854895Y-68826819D01*
X32807276Y-68779200D01*
X32854895Y-68731580D01*
X32854895Y-68826819D01*
X32521561Y-69064914D02*
X32140609Y-69064914D01*
X32378704Y-68731580D02*
X32378704Y-69588723D01*
X32331085Y-69683961D01*
X32235847Y-69731580D01*
X32140609Y-69731580D01*
X31426323Y-69683961D02*
X31521561Y-69731580D01*
X31712038Y-69731580D01*
X31807276Y-69683961D01*
X31854895Y-69588723D01*
X31854895Y-69207771D01*
X31807276Y-69112533D01*
X31712038Y-69064914D01*
X31521561Y-69064914D01*
X31426323Y-69112533D01*
X31378704Y-69207771D01*
X31378704Y-69303009D01*
X31854895Y-69398247D01*
X33921561Y-76464914D02*
X33921561Y-77274438D01*
X33969180Y-77369676D01*
X34016800Y-77417295D01*
X34112038Y-77464914D01*
X34254895Y-77464914D01*
X34350133Y-77417295D01*
X33921561Y-77083961D02*
X34016800Y-77131580D01*
X34207276Y-77131580D01*
X34302514Y-77083961D01*
X34350133Y-77036342D01*
X34397752Y-76941104D01*
X34397752Y-76655390D01*
X34350133Y-76560152D01*
X34302514Y-76512533D01*
X34207276Y-76464914D01*
X34016800Y-76464914D01*
X33921561Y-76512533D01*
X33445371Y-77131580D02*
X33445371Y-76464914D01*
X33445371Y-76655390D02*
X33397752Y-76560152D01*
X33350133Y-76512533D01*
X33254895Y-76464914D01*
X33159657Y-76464914D01*
X32445371Y-77083961D02*
X32540609Y-77131580D01*
X32731085Y-77131580D01*
X32826323Y-77083961D01*
X32873942Y-76988723D01*
X32873942Y-76607771D01*
X32826323Y-76512533D01*
X32731085Y-76464914D01*
X32540609Y-76464914D01*
X32445371Y-76512533D01*
X32397752Y-76607771D01*
X32397752Y-76703009D01*
X32873942Y-76798247D01*
X31588228Y-77083961D02*
X31683466Y-77131580D01*
X31873942Y-77131580D01*
X31969180Y-77083961D01*
X32016800Y-76988723D01*
X32016800Y-76607771D01*
X31969180Y-76512533D01*
X31873942Y-76464914D01*
X31683466Y-76464914D01*
X31588228Y-76512533D01*
X31540609Y-76607771D01*
X31540609Y-76703009D01*
X32016800Y-76798247D01*
X31112038Y-76464914D02*
X31112038Y-77131580D01*
X31112038Y-76560152D02*
X31064419Y-76512533D01*
X30969180Y-76464914D01*
X30826323Y-76464914D01*
X30731085Y-76512533D01*
X30683466Y-76607771D01*
X30683466Y-77131580D01*
X34573942Y-84131580D02*
X34573942Y-83131580D01*
X34573942Y-83512533D02*
X34478704Y-83464914D01*
X34288228Y-83464914D01*
X34192990Y-83512533D01*
X34145371Y-83560152D01*
X34097752Y-83655390D01*
X34097752Y-83941104D01*
X34145371Y-84036342D01*
X34192990Y-84083961D01*
X34288228Y-84131580D01*
X34478704Y-84131580D01*
X34573942Y-84083961D01*
X33526323Y-84131580D02*
X33621561Y-84083961D01*
X33669180Y-83988723D01*
X33669180Y-83131580D01*
X32716800Y-83464914D02*
X32716800Y-84131580D01*
X33145371Y-83464914D02*
X33145371Y-83988723D01*
X33097752Y-84083961D01*
X33002514Y-84131580D01*
X32859657Y-84131580D01*
X32764419Y-84083961D01*
X32716800Y-84036342D01*
X31859657Y-84083961D02*
X31954895Y-84131580D01*
X32145371Y-84131580D01*
X32240609Y-84083961D01*
X32288228Y-83988723D01*
X32288228Y-83607771D01*
X32240609Y-83512533D01*
X32145371Y-83464914D01*
X31954895Y-83464914D01*
X31859657Y-83512533D01*
X31812038Y-83607771D01*
X31812038Y-83703009D01*
X32288228Y-83798247D01*
X98878704Y-76431580D02*
X98878704Y-75431580D01*
X98878704Y-75812533D02*
X98783466Y-75764914D01*
X98592990Y-75764914D01*
X98497752Y-75812533D01*
X98450133Y-75860152D01*
X98402514Y-75955390D01*
X98402514Y-76241104D01*
X98450133Y-76336342D01*
X98497752Y-76383961D01*
X98592990Y-76431580D01*
X98783466Y-76431580D01*
X98878704Y-76383961D01*
X97831085Y-76431580D02*
X97926323Y-76383961D01*
X97973942Y-76288723D01*
X97973942Y-75431580D01*
X97021561Y-76431580D02*
X97021561Y-75907771D01*
X97069180Y-75812533D01*
X97164419Y-75764914D01*
X97354895Y-75764914D01*
X97450133Y-75812533D01*
X97021561Y-76383961D02*
X97116800Y-76431580D01*
X97354895Y-76431580D01*
X97450133Y-76383961D01*
X97497752Y-76288723D01*
X97497752Y-76193485D01*
X97450133Y-76098247D01*
X97354895Y-76050628D01*
X97116800Y-76050628D01*
X97021561Y-76003009D01*
X96116800Y-76383961D02*
X96212038Y-76431580D01*
X96402514Y-76431580D01*
X96497752Y-76383961D01*
X96545371Y-76336342D01*
X96592990Y-76241104D01*
X96592990Y-75955390D01*
X96545371Y-75860152D01*
X96497752Y-75812533D01*
X96402514Y-75764914D01*
X96212038Y-75764914D01*
X96116800Y-75812533D01*
X95688228Y-76431580D02*
X95688228Y-75431580D01*
X95592990Y-76050628D02*
X95307276Y-76431580D01*
X95307276Y-75764914D02*
X95688228Y-76145866D01*
X98602514Y-77364914D02*
X98412038Y-78031580D01*
X98221561Y-77555390D01*
X98031085Y-78031580D01*
X97840609Y-77364914D01*
X97459657Y-78031580D02*
X97459657Y-77031580D01*
X97031085Y-78031580D02*
X97031085Y-77507771D01*
X97078704Y-77412533D01*
X97173942Y-77364914D01*
X97316800Y-77364914D01*
X97412038Y-77412533D01*
X97459657Y-77460152D01*
X96554895Y-78031580D02*
X96554895Y-77364914D01*
X96554895Y-77031580D02*
X96602514Y-77079200D01*
X96554895Y-77126819D01*
X96507276Y-77079200D01*
X96554895Y-77031580D01*
X96554895Y-77126819D01*
X96221561Y-77364914D02*
X95840609Y-77364914D01*
X96078704Y-77031580D02*
X96078704Y-77888723D01*
X96031085Y-77983961D01*
X95935847Y-78031580D01*
X95840609Y-78031580D01*
X95126323Y-77983961D02*
X95221561Y-78031580D01*
X95412038Y-78031580D01*
X95507276Y-77983961D01*
X95554895Y-77888723D01*
X95554895Y-77507771D01*
X95507276Y-77412533D01*
X95412038Y-77364914D01*
X95221561Y-77364914D01*
X95126323Y-77412533D01*
X95078704Y-77507771D01*
X95078704Y-77603009D01*
X95554895Y-77698247D01*
X72431085Y-79595866D02*
X72907276Y-79762533D01*
X73859657Y-79762533D01*
X74335847Y-79595866D01*
X74573942Y-79262533D01*
X74573942Y-77929200D01*
X74335847Y-77595866D01*
X73859657Y-77429200D01*
X72907276Y-77429200D01*
X72431085Y-77595866D01*
X72192990Y-77929200D01*
X72192990Y-78262533D01*
X74573942Y-78595866D01*
X70288228Y-79595866D02*
X69812038Y-79762533D01*
X68859657Y-79762533D01*
X68383466Y-79595866D01*
X68145371Y-79262533D01*
X68145371Y-79095866D01*
X68383466Y-78762533D01*
X68859657Y-78595866D01*
X69573942Y-78595866D01*
X70050133Y-78429200D01*
X70288228Y-78095866D01*
X70288228Y-77929200D01*
X70050133Y-77595866D01*
X69573942Y-77429200D01*
X68859657Y-77429200D01*
X68383466Y-77595866D01*
X63859657Y-79595866D02*
X64335847Y-79762533D01*
X65288228Y-79762533D01*
X65764419Y-79595866D01*
X66002514Y-79429200D01*
X66240609Y-79095866D01*
X66240609Y-78095866D01*
X66002514Y-77762533D01*
X65764419Y-77595866D01*
X65288228Y-77429200D01*
X64335847Y-77429200D01*
X63859657Y-77595866D01*
X196360704Y-59174380D02*
X196360704Y-58174380D01*
X196360704Y-58555333D02*
X196265466Y-58507714D01*
X196074990Y-58507714D01*
X195979752Y-58555333D01*
X195932133Y-58602952D01*
X195884514Y-58698190D01*
X195884514Y-58983904D01*
X195932133Y-59079142D01*
X195979752Y-59126761D01*
X196074990Y-59174380D01*
X196265466Y-59174380D01*
X196360704Y-59126761D01*
X195313085Y-59174380D02*
X195408323Y-59126761D01*
X195455942Y-59031523D01*
X195455942Y-58174380D01*
X194503561Y-59174380D02*
X194503561Y-58650571D01*
X194551180Y-58555333D01*
X194646419Y-58507714D01*
X194836895Y-58507714D01*
X194932133Y-58555333D01*
X194503561Y-59126761D02*
X194598800Y-59174380D01*
X194836895Y-59174380D01*
X194932133Y-59126761D01*
X194979752Y-59031523D01*
X194979752Y-58936285D01*
X194932133Y-58841047D01*
X194836895Y-58793428D01*
X194598800Y-58793428D01*
X194503561Y-58745809D01*
X193598800Y-59126761D02*
X193694038Y-59174380D01*
X193884514Y-59174380D01*
X193979752Y-59126761D01*
X194027371Y-59079142D01*
X194074990Y-58983904D01*
X194074990Y-58698190D01*
X194027371Y-58602952D01*
X193979752Y-58555333D01*
X193884514Y-58507714D01*
X193694038Y-58507714D01*
X193598800Y-58555333D01*
X193170228Y-59174380D02*
X193170228Y-58174380D01*
X193074990Y-58793428D02*
X192789276Y-59174380D01*
X192789276Y-58507714D02*
X193170228Y-58888666D01*
X194451180Y-43174380D02*
X194451180Y-42507714D01*
X194451180Y-42698190D02*
X194403561Y-42602952D01*
X194355942Y-42555333D01*
X194260704Y-42507714D01*
X194165466Y-42507714D01*
X193451180Y-43126761D02*
X193546419Y-43174380D01*
X193736895Y-43174380D01*
X193832133Y-43126761D01*
X193879752Y-43031523D01*
X193879752Y-42650571D01*
X193832133Y-42555333D01*
X193736895Y-42507714D01*
X193546419Y-42507714D01*
X193451180Y-42555333D01*
X193403561Y-42650571D01*
X193403561Y-42745809D01*
X193879752Y-42841047D01*
X192546419Y-43174380D02*
X192546419Y-42174380D01*
X192546419Y-43126761D02*
X192641657Y-43174380D01*
X192832133Y-43174380D01*
X192927371Y-43126761D01*
X192974990Y-43079142D01*
X193022609Y-42983904D01*
X193022609Y-42698190D01*
X192974990Y-42602952D01*
X192927371Y-42555333D01*
X192832133Y-42507714D01*
X192641657Y-42507714D01*
X192546419Y-42555333D01*
X119484514Y-43207714D02*
X119294038Y-43874380D01*
X119103561Y-43398190D01*
X118913085Y-43874380D01*
X118722609Y-43207714D01*
X118341657Y-43874380D02*
X118341657Y-42874380D01*
X117913085Y-43874380D02*
X117913085Y-43350571D01*
X117960704Y-43255333D01*
X118055942Y-43207714D01*
X118198800Y-43207714D01*
X118294038Y-43255333D01*
X118341657Y-43302952D01*
X117436895Y-43874380D02*
X117436895Y-43207714D01*
X117436895Y-42874380D02*
X117484514Y-42922000D01*
X117436895Y-42969619D01*
X117389276Y-42922000D01*
X117436895Y-42874380D01*
X117436895Y-42969619D01*
X117103561Y-43207714D02*
X116722609Y-43207714D01*
X116960704Y-42874380D02*
X116960704Y-43731523D01*
X116913085Y-43826761D01*
X116817847Y-43874380D01*
X116722609Y-43874380D01*
X116008323Y-43826761D02*
X116103561Y-43874380D01*
X116294038Y-43874380D01*
X116389276Y-43826761D01*
X116436895Y-43731523D01*
X116436895Y-43350571D01*
X116389276Y-43255333D01*
X116294038Y-43207714D01*
X116103561Y-43207714D01*
X116008323Y-43255333D01*
X115960704Y-43350571D01*
X115960704Y-43445809D01*
X116436895Y-43541047D01*
X118503561Y-50607714D02*
X118503561Y-51417238D01*
X118551180Y-51512476D01*
X118598800Y-51560095D01*
X118694038Y-51607714D01*
X118836895Y-51607714D01*
X118932133Y-51560095D01*
X118503561Y-51226761D02*
X118598800Y-51274380D01*
X118789276Y-51274380D01*
X118884514Y-51226761D01*
X118932133Y-51179142D01*
X118979752Y-51083904D01*
X118979752Y-50798190D01*
X118932133Y-50702952D01*
X118884514Y-50655333D01*
X118789276Y-50607714D01*
X118598800Y-50607714D01*
X118503561Y-50655333D01*
X118027371Y-51274380D02*
X118027371Y-50607714D01*
X118027371Y-50798190D02*
X117979752Y-50702952D01*
X117932133Y-50655333D01*
X117836895Y-50607714D01*
X117741657Y-50607714D01*
X117027371Y-51226761D02*
X117122609Y-51274380D01*
X117313085Y-51274380D01*
X117408323Y-51226761D01*
X117455942Y-51131523D01*
X117455942Y-50750571D01*
X117408323Y-50655333D01*
X117313085Y-50607714D01*
X117122609Y-50607714D01*
X117027371Y-50655333D01*
X116979752Y-50750571D01*
X116979752Y-50845809D01*
X117455942Y-50941047D01*
X116170228Y-51226761D02*
X116265466Y-51274380D01*
X116455942Y-51274380D01*
X116551180Y-51226761D01*
X116598800Y-51131523D01*
X116598800Y-50750571D01*
X116551180Y-50655333D01*
X116455942Y-50607714D01*
X116265466Y-50607714D01*
X116170228Y-50655333D01*
X116122609Y-50750571D01*
X116122609Y-50845809D01*
X116598800Y-50941047D01*
X115694038Y-50607714D02*
X115694038Y-51274380D01*
X115694038Y-50702952D02*
X115646419Y-50655333D01*
X115551180Y-50607714D01*
X115408323Y-50607714D01*
X115313085Y-50655333D01*
X115265466Y-50750571D01*
X115265466Y-51274380D01*
X119155942Y-58274380D02*
X119155942Y-57274380D01*
X119155942Y-57655333D02*
X119060704Y-57607714D01*
X118870228Y-57607714D01*
X118774990Y-57655333D01*
X118727371Y-57702952D01*
X118679752Y-57798190D01*
X118679752Y-58083904D01*
X118727371Y-58179142D01*
X118774990Y-58226761D01*
X118870228Y-58274380D01*
X119060704Y-58274380D01*
X119155942Y-58226761D01*
X118108323Y-58274380D02*
X118203561Y-58226761D01*
X118251180Y-58131523D01*
X118251180Y-57274380D01*
X117298800Y-57607714D02*
X117298800Y-58274380D01*
X117727371Y-57607714D02*
X117727371Y-58131523D01*
X117679752Y-58226761D01*
X117584514Y-58274380D01*
X117441657Y-58274380D01*
X117346419Y-58226761D01*
X117298800Y-58179142D01*
X116441657Y-58226761D02*
X116536895Y-58274380D01*
X116727371Y-58274380D01*
X116822609Y-58226761D01*
X116870228Y-58131523D01*
X116870228Y-57750571D01*
X116822609Y-57655333D01*
X116727371Y-57607714D01*
X116536895Y-57607714D01*
X116441657Y-57655333D01*
X116394038Y-57750571D01*
X116394038Y-57845809D01*
X116870228Y-57941047D01*
X183460704Y-50574380D02*
X183460704Y-49574380D01*
X183460704Y-49955333D02*
X183365466Y-49907714D01*
X183174990Y-49907714D01*
X183079752Y-49955333D01*
X183032133Y-50002952D01*
X182984514Y-50098190D01*
X182984514Y-50383904D01*
X183032133Y-50479142D01*
X183079752Y-50526761D01*
X183174990Y-50574380D01*
X183365466Y-50574380D01*
X183460704Y-50526761D01*
X182413085Y-50574380D02*
X182508323Y-50526761D01*
X182555942Y-50431523D01*
X182555942Y-49574380D01*
X181603561Y-50574380D02*
X181603561Y-50050571D01*
X181651180Y-49955333D01*
X181746419Y-49907714D01*
X181936895Y-49907714D01*
X182032133Y-49955333D01*
X181603561Y-50526761D02*
X181698800Y-50574380D01*
X181936895Y-50574380D01*
X182032133Y-50526761D01*
X182079752Y-50431523D01*
X182079752Y-50336285D01*
X182032133Y-50241047D01*
X181936895Y-50193428D01*
X181698800Y-50193428D01*
X181603561Y-50145809D01*
X180698800Y-50526761D02*
X180794038Y-50574380D01*
X180984514Y-50574380D01*
X181079752Y-50526761D01*
X181127371Y-50479142D01*
X181174990Y-50383904D01*
X181174990Y-50098190D01*
X181127371Y-50002952D01*
X181079752Y-49955333D01*
X180984514Y-49907714D01*
X180794038Y-49907714D01*
X180698800Y-49955333D01*
X180270228Y-50574380D02*
X180270228Y-49574380D01*
X180174990Y-50193428D02*
X179889276Y-50574380D01*
X179889276Y-49907714D02*
X180270228Y-50288666D01*
X183184514Y-51507714D02*
X182994038Y-52174380D01*
X182803561Y-51698190D01*
X182613085Y-52174380D01*
X182422609Y-51507714D01*
X182041657Y-52174380D02*
X182041657Y-51174380D01*
X181613085Y-52174380D02*
X181613085Y-51650571D01*
X181660704Y-51555333D01*
X181755942Y-51507714D01*
X181898800Y-51507714D01*
X181994038Y-51555333D01*
X182041657Y-51602952D01*
X181136895Y-52174380D02*
X181136895Y-51507714D01*
X181136895Y-51174380D02*
X181184514Y-51222000D01*
X181136895Y-51269619D01*
X181089276Y-51222000D01*
X181136895Y-51174380D01*
X181136895Y-51269619D01*
X180803561Y-51507714D02*
X180422609Y-51507714D01*
X180660704Y-51174380D02*
X180660704Y-52031523D01*
X180613085Y-52126761D01*
X180517847Y-52174380D01*
X180422609Y-52174380D01*
X179708323Y-52126761D02*
X179803561Y-52174380D01*
X179994038Y-52174380D01*
X180089276Y-52126761D01*
X180136895Y-52031523D01*
X180136895Y-51650571D01*
X180089276Y-51555333D01*
X179994038Y-51507714D01*
X179803561Y-51507714D01*
X179708323Y-51555333D01*
X179660704Y-51650571D01*
X179660704Y-51745809D01*
X180136895Y-51841047D01*
X157013085Y-53738666D02*
X157489276Y-53905333D01*
X158441657Y-53905333D01*
X158917847Y-53738666D01*
X159155942Y-53405333D01*
X159155942Y-52072000D01*
X158917847Y-51738666D01*
X158441657Y-51572000D01*
X157489276Y-51572000D01*
X157013085Y-51738666D01*
X156774990Y-52072000D01*
X156774990Y-52405333D01*
X159155942Y-52738666D01*
X154870228Y-53738666D02*
X154394038Y-53905333D01*
X153441657Y-53905333D01*
X152965466Y-53738666D01*
X152727371Y-53405333D01*
X152727371Y-53238666D01*
X152965466Y-52905333D01*
X153441657Y-52738666D01*
X154155942Y-52738666D01*
X154632133Y-52572000D01*
X154870228Y-52238666D01*
X154870228Y-52072000D01*
X154632133Y-51738666D01*
X154155942Y-51572000D01*
X153441657Y-51572000D01*
X152965466Y-51738666D01*
X148441657Y-53738666D02*
X148917847Y-53905333D01*
X149870228Y-53905333D01*
X150346419Y-53738666D01*
X150584514Y-53572000D01*
X150822609Y-53238666D01*
X150822609Y-52238666D01*
X150584514Y-51905333D01*
X150346419Y-51738666D01*
X149870228Y-51572000D01*
X148917847Y-51572000D01*
X148441657Y-51738666D01*
X196716304Y-84523580D02*
X196716304Y-83523580D01*
X196716304Y-83904533D02*
X196621066Y-83856914D01*
X196430590Y-83856914D01*
X196335352Y-83904533D01*
X196287733Y-83952152D01*
X196240114Y-84047390D01*
X196240114Y-84333104D01*
X196287733Y-84428342D01*
X196335352Y-84475961D01*
X196430590Y-84523580D01*
X196621066Y-84523580D01*
X196716304Y-84475961D01*
X195668685Y-84523580D02*
X195763923Y-84475961D01*
X195811542Y-84380723D01*
X195811542Y-83523580D01*
X194859161Y-84523580D02*
X194859161Y-83999771D01*
X194906780Y-83904533D01*
X195002019Y-83856914D01*
X195192495Y-83856914D01*
X195287733Y-83904533D01*
X194859161Y-84475961D02*
X194954400Y-84523580D01*
X195192495Y-84523580D01*
X195287733Y-84475961D01*
X195335352Y-84380723D01*
X195335352Y-84285485D01*
X195287733Y-84190247D01*
X195192495Y-84142628D01*
X194954400Y-84142628D01*
X194859161Y-84095009D01*
X193954400Y-84475961D02*
X194049638Y-84523580D01*
X194240114Y-84523580D01*
X194335352Y-84475961D01*
X194382971Y-84428342D01*
X194430590Y-84333104D01*
X194430590Y-84047390D01*
X194382971Y-83952152D01*
X194335352Y-83904533D01*
X194240114Y-83856914D01*
X194049638Y-83856914D01*
X193954400Y-83904533D01*
X193525828Y-84523580D02*
X193525828Y-83523580D01*
X193430590Y-84142628D02*
X193144876Y-84523580D01*
X193144876Y-83856914D02*
X193525828Y-84237866D01*
X194806780Y-68523580D02*
X194806780Y-67856914D01*
X194806780Y-68047390D02*
X194759161Y-67952152D01*
X194711542Y-67904533D01*
X194616304Y-67856914D01*
X194521066Y-67856914D01*
X193806780Y-68475961D02*
X193902019Y-68523580D01*
X194092495Y-68523580D01*
X194187733Y-68475961D01*
X194235352Y-68380723D01*
X194235352Y-67999771D01*
X194187733Y-67904533D01*
X194092495Y-67856914D01*
X193902019Y-67856914D01*
X193806780Y-67904533D01*
X193759161Y-67999771D01*
X193759161Y-68095009D01*
X194235352Y-68190247D01*
X192902019Y-68523580D02*
X192902019Y-67523580D01*
X192902019Y-68475961D02*
X192997257Y-68523580D01*
X193187733Y-68523580D01*
X193282971Y-68475961D01*
X193330590Y-68428342D01*
X193378209Y-68333104D01*
X193378209Y-68047390D01*
X193330590Y-67952152D01*
X193282971Y-67904533D01*
X193187733Y-67856914D01*
X192997257Y-67856914D01*
X192902019Y-67904533D01*
X119840114Y-68556914D02*
X119649638Y-69223580D01*
X119459161Y-68747390D01*
X119268685Y-69223580D01*
X119078209Y-68556914D01*
X118697257Y-69223580D02*
X118697257Y-68223580D01*
X118268685Y-69223580D02*
X118268685Y-68699771D01*
X118316304Y-68604533D01*
X118411542Y-68556914D01*
X118554400Y-68556914D01*
X118649638Y-68604533D01*
X118697257Y-68652152D01*
X117792495Y-69223580D02*
X117792495Y-68556914D01*
X117792495Y-68223580D02*
X117840114Y-68271200D01*
X117792495Y-68318819D01*
X117744876Y-68271200D01*
X117792495Y-68223580D01*
X117792495Y-68318819D01*
X117459161Y-68556914D02*
X117078209Y-68556914D01*
X117316304Y-68223580D02*
X117316304Y-69080723D01*
X117268685Y-69175961D01*
X117173447Y-69223580D01*
X117078209Y-69223580D01*
X116363923Y-69175961D02*
X116459161Y-69223580D01*
X116649638Y-69223580D01*
X116744876Y-69175961D01*
X116792495Y-69080723D01*
X116792495Y-68699771D01*
X116744876Y-68604533D01*
X116649638Y-68556914D01*
X116459161Y-68556914D01*
X116363923Y-68604533D01*
X116316304Y-68699771D01*
X116316304Y-68795009D01*
X116792495Y-68890247D01*
X118859161Y-75956914D02*
X118859161Y-76766438D01*
X118906780Y-76861676D01*
X118954400Y-76909295D01*
X119049638Y-76956914D01*
X119192495Y-76956914D01*
X119287733Y-76909295D01*
X118859161Y-76575961D02*
X118954400Y-76623580D01*
X119144876Y-76623580D01*
X119240114Y-76575961D01*
X119287733Y-76528342D01*
X119335352Y-76433104D01*
X119335352Y-76147390D01*
X119287733Y-76052152D01*
X119240114Y-76004533D01*
X119144876Y-75956914D01*
X118954400Y-75956914D01*
X118859161Y-76004533D01*
X118382971Y-76623580D02*
X118382971Y-75956914D01*
X118382971Y-76147390D02*
X118335352Y-76052152D01*
X118287733Y-76004533D01*
X118192495Y-75956914D01*
X118097257Y-75956914D01*
X117382971Y-76575961D02*
X117478209Y-76623580D01*
X117668685Y-76623580D01*
X117763923Y-76575961D01*
X117811542Y-76480723D01*
X117811542Y-76099771D01*
X117763923Y-76004533D01*
X117668685Y-75956914D01*
X117478209Y-75956914D01*
X117382971Y-76004533D01*
X117335352Y-76099771D01*
X117335352Y-76195009D01*
X117811542Y-76290247D01*
X116525828Y-76575961D02*
X116621066Y-76623580D01*
X116811542Y-76623580D01*
X116906780Y-76575961D01*
X116954400Y-76480723D01*
X116954400Y-76099771D01*
X116906780Y-76004533D01*
X116811542Y-75956914D01*
X116621066Y-75956914D01*
X116525828Y-76004533D01*
X116478209Y-76099771D01*
X116478209Y-76195009D01*
X116954400Y-76290247D01*
X116049638Y-75956914D02*
X116049638Y-76623580D01*
X116049638Y-76052152D02*
X116002019Y-76004533D01*
X115906780Y-75956914D01*
X115763923Y-75956914D01*
X115668685Y-76004533D01*
X115621066Y-76099771D01*
X115621066Y-76623580D01*
X119511542Y-83623580D02*
X119511542Y-82623580D01*
X119511542Y-83004533D02*
X119416304Y-82956914D01*
X119225828Y-82956914D01*
X119130590Y-83004533D01*
X119082971Y-83052152D01*
X119035352Y-83147390D01*
X119035352Y-83433104D01*
X119082971Y-83528342D01*
X119130590Y-83575961D01*
X119225828Y-83623580D01*
X119416304Y-83623580D01*
X119511542Y-83575961D01*
X118463923Y-83623580D02*
X118559161Y-83575961D01*
X118606780Y-83480723D01*
X118606780Y-82623580D01*
X117654400Y-82956914D02*
X117654400Y-83623580D01*
X118082971Y-82956914D02*
X118082971Y-83480723D01*
X118035352Y-83575961D01*
X117940114Y-83623580D01*
X117797257Y-83623580D01*
X117702019Y-83575961D01*
X117654400Y-83528342D01*
X116797257Y-83575961D02*
X116892495Y-83623580D01*
X117082971Y-83623580D01*
X117178209Y-83575961D01*
X117225828Y-83480723D01*
X117225828Y-83099771D01*
X117178209Y-83004533D01*
X117082971Y-82956914D01*
X116892495Y-82956914D01*
X116797257Y-83004533D01*
X116749638Y-83099771D01*
X116749638Y-83195009D01*
X117225828Y-83290247D01*
X183816304Y-75923580D02*
X183816304Y-74923580D01*
X183816304Y-75304533D02*
X183721066Y-75256914D01*
X183530590Y-75256914D01*
X183435352Y-75304533D01*
X183387733Y-75352152D01*
X183340114Y-75447390D01*
X183340114Y-75733104D01*
X183387733Y-75828342D01*
X183435352Y-75875961D01*
X183530590Y-75923580D01*
X183721066Y-75923580D01*
X183816304Y-75875961D01*
X182768685Y-75923580D02*
X182863923Y-75875961D01*
X182911542Y-75780723D01*
X182911542Y-74923580D01*
X181959161Y-75923580D02*
X181959161Y-75399771D01*
X182006780Y-75304533D01*
X182102019Y-75256914D01*
X182292495Y-75256914D01*
X182387733Y-75304533D01*
X181959161Y-75875961D02*
X182054400Y-75923580D01*
X182292495Y-75923580D01*
X182387733Y-75875961D01*
X182435352Y-75780723D01*
X182435352Y-75685485D01*
X182387733Y-75590247D01*
X182292495Y-75542628D01*
X182054400Y-75542628D01*
X181959161Y-75495009D01*
X181054400Y-75875961D02*
X181149638Y-75923580D01*
X181340114Y-75923580D01*
X181435352Y-75875961D01*
X181482971Y-75828342D01*
X181530590Y-75733104D01*
X181530590Y-75447390D01*
X181482971Y-75352152D01*
X181435352Y-75304533D01*
X181340114Y-75256914D01*
X181149638Y-75256914D01*
X181054400Y-75304533D01*
X180625828Y-75923580D02*
X180625828Y-74923580D01*
X180530590Y-75542628D02*
X180244876Y-75923580D01*
X180244876Y-75256914D02*
X180625828Y-75637866D01*
X183540114Y-76856914D02*
X183349638Y-77523580D01*
X183159161Y-77047390D01*
X182968685Y-77523580D01*
X182778209Y-76856914D01*
X182397257Y-77523580D02*
X182397257Y-76523580D01*
X181968685Y-77523580D02*
X181968685Y-76999771D01*
X182016304Y-76904533D01*
X182111542Y-76856914D01*
X182254400Y-76856914D01*
X182349638Y-76904533D01*
X182397257Y-76952152D01*
X181492495Y-77523580D02*
X181492495Y-76856914D01*
X181492495Y-76523580D02*
X181540114Y-76571200D01*
X181492495Y-76618819D01*
X181444876Y-76571200D01*
X181492495Y-76523580D01*
X181492495Y-76618819D01*
X181159161Y-76856914D02*
X180778209Y-76856914D01*
X181016304Y-76523580D02*
X181016304Y-77380723D01*
X180968685Y-77475961D01*
X180873447Y-77523580D01*
X180778209Y-77523580D01*
X180063923Y-77475961D02*
X180159161Y-77523580D01*
X180349638Y-77523580D01*
X180444876Y-77475961D01*
X180492495Y-77380723D01*
X180492495Y-76999771D01*
X180444876Y-76904533D01*
X180349638Y-76856914D01*
X180159161Y-76856914D01*
X180063923Y-76904533D01*
X180016304Y-76999771D01*
X180016304Y-77095009D01*
X180492495Y-77190247D01*
X157368685Y-79087866D02*
X157844876Y-79254533D01*
X158797257Y-79254533D01*
X159273447Y-79087866D01*
X159511542Y-78754533D01*
X159511542Y-77421200D01*
X159273447Y-77087866D01*
X158797257Y-76921200D01*
X157844876Y-76921200D01*
X157368685Y-77087866D01*
X157130590Y-77421200D01*
X157130590Y-77754533D01*
X159511542Y-78087866D01*
X155225828Y-79087866D02*
X154749638Y-79254533D01*
X153797257Y-79254533D01*
X153321066Y-79087866D01*
X153082971Y-78754533D01*
X153082971Y-78587866D01*
X153321066Y-78254533D01*
X153797257Y-78087866D01*
X154511542Y-78087866D01*
X154987733Y-77921200D01*
X155225828Y-77587866D01*
X155225828Y-77421200D01*
X154987733Y-77087866D01*
X154511542Y-76921200D01*
X153797257Y-76921200D01*
X153321066Y-77087866D01*
X148797257Y-79087866D02*
X149273447Y-79254533D01*
X150225828Y-79254533D01*
X150702019Y-79087866D01*
X150940114Y-78921200D01*
X151178209Y-78587866D01*
X151178209Y-77587866D01*
X150940114Y-77254533D01*
X150702019Y-77087866D01*
X150225828Y-76921200D01*
X149273447Y-76921200D01*
X148797257Y-77087866D01*
M02*
