G04 #@! TF.GenerationSoftware,KiCad,Pcbnew,5.1.2-f72e74a~84~ubuntu16.04.1*
G04 #@! TF.CreationDate,2019-05-07T21:52:54+05:30*
G04 #@! TF.ProjectId,MasterPcb,4d617374-6572-4506-9362-2e6b69636164,rev?*
G04 #@! TF.SameCoordinates,Original*
G04 #@! TF.FileFunction,Soldermask,Bot*
G04 #@! TF.FilePolarity,Negative*
%FSLAX46Y46*%
G04 Gerber Fmt 4.6, Leading zero omitted, Abs format (unit mm)*
G04 Created by KiCad (PCBNEW 5.1.2-f72e74a~84~ubuntu16.04.1) date 2019-05-07 21:52:54*
%MOMM*%
%LPD*%
G04 APERTURE LIST*
%ADD10C,1.950000*%
%ADD11R,2.200000X2.200000*%
%ADD12C,2.200000*%
%ADD13R,5.200000X2.686000*%
%ADD14R,3.175000X3.175000*%
%ADD15C,3.175000*%
%ADD16C,3.400000*%
%ADD17R,3.400000X3.400000*%
%ADD18C,3.190000*%
%ADD19R,3.475000X3.475000*%
%ADD20C,3.475000*%
%ADD21C,4.500000*%
%ADD22C,4.800000*%
%ADD23R,2.100000X2.400000*%
%ADD24R,2.400000X2.100000*%
%ADD25R,5.000000X1.200000*%
%ADD26R,9.800000X11.200000*%
%ADD27O,2.127200X2.127200*%
%ADD28C,0.500000*%
%ADD29C,3.600000*%
%ADD30C,2.100000*%
%ADD31C,2.800000*%
%ADD32C,0.400000*%
%ADD33R,10.400000X5.400000*%
%ADD34C,0.254000*%
G04 APERTURE END LIST*
D10*
X85362400Y-32721600D03*
X83412400Y-32721600D03*
D11*
X223977200Y-133350000D03*
D12*
X226517200Y-133350000D03*
D11*
X209804000Y-108458000D03*
D12*
X212344000Y-108458000D03*
D13*
X198323200Y-112523200D03*
X198323200Y-106323200D03*
X190601600Y-112523200D03*
X190601600Y-106323200D03*
D11*
X186690000Y-32054800D03*
D12*
X186690000Y-34594800D03*
D11*
X100888800Y-94996000D03*
D12*
X100888800Y-92456000D03*
D11*
X221437200Y-108458000D03*
D12*
X223977200Y-108458000D03*
D11*
X126136400Y-94691200D03*
D12*
X126136400Y-92151200D03*
D11*
X101447600Y-31597600D03*
D12*
X101447600Y-34137600D03*
D11*
X211582000Y-133350000D03*
D12*
X214122000Y-133350000D03*
D11*
X126644400Y-33426400D03*
D12*
X124104400Y-33426400D03*
D11*
X39776400Y-31902400D03*
D12*
X39776400Y-34442400D03*
D11*
X220827600Y-63144400D03*
D12*
X218287600Y-63144400D03*
D11*
X187299600Y-94589600D03*
D12*
X184759600Y-94589600D03*
D11*
X40690800Y-93776800D03*
D12*
X40690800Y-91236800D03*
D11*
X254116600Y-120183800D03*
D12*
X251576600Y-120183800D03*
D14*
X185318400Y-136093200D03*
D15*
X185318400Y-129743200D03*
X185318400Y-123393200D03*
D16*
X198983600Y-53086000D03*
X198983600Y-58166000D03*
D17*
X198983600Y-48006000D03*
D16*
X198983600Y-63246000D03*
D18*
X101752400Y-118364000D03*
X95402400Y-118364000D03*
X89052400Y-118364000D03*
X101752400Y-124714000D03*
X95402400Y-124714000D03*
X89052400Y-124714000D03*
X101752400Y-131064000D03*
X95402400Y-131064000D03*
X89052400Y-131064000D03*
X101752400Y-137414000D03*
X95402400Y-137414000D03*
X89052400Y-137414000D03*
D19*
X166370000Y-135636000D03*
D20*
X172720000Y-135636000D03*
D18*
X53289200Y-118465600D03*
X46939200Y-118465600D03*
X40589200Y-118465600D03*
X53289200Y-124815600D03*
X46939200Y-124815600D03*
X40589200Y-124815600D03*
X53289200Y-131165600D03*
X46939200Y-131165600D03*
X40589200Y-131165600D03*
X53289200Y-137515600D03*
X46939200Y-137515600D03*
X40589200Y-137515600D03*
D19*
X166268400Y-125476000D03*
D20*
X172618400Y-125476000D03*
D16*
X198170800Y-87223600D03*
X198170800Y-92303600D03*
D17*
X198170800Y-82143600D03*
D16*
X198170800Y-97383600D03*
D21*
X145716000Y-129610000D03*
X145716000Y-134010000D03*
X135716000Y-129610000D03*
X135716000Y-134010000D03*
D22*
X129986000Y-133660000D03*
X151446000Y-133660000D03*
D23*
X212293200Y-100057200D03*
X212293200Y-104057200D03*
X201625200Y-130435600D03*
X201625200Y-134435600D03*
X197815200Y-134435600D03*
X197815200Y-130435600D03*
D24*
X132162800Y-46685200D03*
X136162800Y-46685200D03*
X48952400Y-47904400D03*
X52952400Y-47904400D03*
X136734800Y-59537600D03*
X140734800Y-59537600D03*
X165017200Y-57708800D03*
X161017200Y-57708800D03*
X52483000Y-67386200D03*
X56483000Y-67386200D03*
X80448400Y-62484000D03*
X84448400Y-62484000D03*
X197834000Y-119380000D03*
X193834000Y-119380000D03*
X169741600Y-65582800D03*
X165741600Y-65582800D03*
X84448400Y-54305200D03*
X80448400Y-54305200D03*
X136633200Y-52679600D03*
X140633200Y-52679600D03*
D23*
X145897600Y-48278800D03*
X145897600Y-44278800D03*
D24*
X165487600Y-47294800D03*
X169487600Y-47294800D03*
D23*
X177342800Y-45535600D03*
X177342800Y-41535600D03*
X62890400Y-54324000D03*
X62890400Y-50324000D03*
D24*
X52483000Y-57226200D03*
X56483000Y-57226200D03*
X80651600Y-47802800D03*
X84651600Y-47802800D03*
D23*
X90982800Y-46805600D03*
X90982800Y-42805600D03*
D24*
X197783200Y-122326400D03*
X193783200Y-122326400D03*
D23*
X193598800Y-126066800D03*
X193598800Y-130066800D03*
D25*
X204943400Y-124764800D03*
X204943400Y-123494800D03*
X204943400Y-122224800D03*
X204943400Y-120954800D03*
X204943400Y-119684800D03*
X204943400Y-118414800D03*
X204943400Y-117144800D03*
D26*
X214093400Y-120954800D03*
D27*
X229616000Y-63474600D03*
X229616000Y-60934600D03*
X232156000Y-60934600D03*
X232156000Y-63474600D03*
X234696000Y-60934600D03*
X206756000Y-76301600D03*
X206756000Y-81381600D03*
X206756000Y-83921600D03*
X206756000Y-86461600D03*
X206756000Y-89001600D03*
X206756000Y-91541600D03*
X206756000Y-94081600D03*
X206756000Y-96621600D03*
X255016000Y-40741600D03*
X255016000Y-43281600D03*
X255016000Y-45821600D03*
X255016000Y-48361600D03*
X255016000Y-50901600D03*
X255016000Y-53441600D03*
X255016000Y-55981600D03*
X255016000Y-58521600D03*
X255016000Y-63601600D03*
X255016000Y-66141600D03*
X255016000Y-68681600D03*
X255016000Y-71221600D03*
X255016000Y-73761600D03*
X255016000Y-76301600D03*
X255016000Y-78841600D03*
X255016000Y-81381600D03*
X255016000Y-100685600D03*
X255016000Y-85445600D03*
X255016000Y-87985600D03*
X255016000Y-90525600D03*
D28*
X215836000Y-61061600D03*
D29*
X239776000Y-61061600D03*
D28*
X255016000Y-36931600D03*
D29*
X255016000Y-111861600D03*
X206756000Y-30581600D03*
D28*
X206756000Y-113131600D03*
D27*
X255016000Y-108305600D03*
X255016000Y-105765600D03*
X255016000Y-103225600D03*
X255016000Y-98145600D03*
X255016000Y-95605600D03*
X255016000Y-93065600D03*
X206756000Y-99161600D03*
X206756000Y-73761600D03*
X206756000Y-71221600D03*
X206756000Y-68681600D03*
X206756000Y-66141600D03*
X206756000Y-63601600D03*
X206756000Y-61061600D03*
X206756000Y-58521600D03*
X206756000Y-53441600D03*
X206756000Y-50901600D03*
X206756000Y-48361600D03*
X206756000Y-45821600D03*
X206756000Y-43281600D03*
X206756000Y-40741600D03*
X206756000Y-38201600D03*
X206756000Y-35661600D03*
X255016000Y-33121600D03*
X255016000Y-30581600D03*
X252476000Y-33121600D03*
X252476000Y-30581600D03*
X249936000Y-33121600D03*
X249936000Y-30581600D03*
X247396000Y-33121600D03*
X247396000Y-30581600D03*
X244856000Y-33121600D03*
X244856000Y-30581600D03*
X242316000Y-33121600D03*
X242316000Y-30581600D03*
X239776000Y-33121600D03*
X239776000Y-30581600D03*
X237236000Y-33121600D03*
X237236000Y-30581600D03*
X234696000Y-33121600D03*
X234696000Y-30581600D03*
X232156000Y-33121600D03*
X232156000Y-30581600D03*
X229616000Y-33121600D03*
X229616000Y-30581600D03*
X227076000Y-33121600D03*
X227076000Y-30581600D03*
X224536000Y-33121600D03*
X224536000Y-30581600D03*
X221996000Y-33121600D03*
X221996000Y-30581600D03*
X219456000Y-33121600D03*
X219456000Y-30581600D03*
X216916000Y-33121600D03*
X216916000Y-30581600D03*
X214376000Y-33121600D03*
X214376000Y-30581600D03*
X211836000Y-33121600D03*
X211836000Y-30581600D03*
X234696000Y-63474600D03*
D30*
X237693200Y-98750400D03*
X240233200Y-98750400D03*
X245313200Y-98750400D03*
X242773200Y-98750400D03*
X250393200Y-98750400D03*
X247853200Y-98750400D03*
X247853200Y-85750400D03*
X250393200Y-85750400D03*
X242773200Y-85750400D03*
X245313200Y-85750400D03*
X240233200Y-85750400D03*
X237693200Y-85750400D03*
D31*
X148127600Y-118231600D03*
X148127600Y-120731600D03*
X144627600Y-118231600D03*
X144627600Y-120731600D03*
X139547600Y-118231600D03*
X139547600Y-120731600D03*
X136047600Y-118231600D03*
X136047600Y-120731600D03*
D32*
X142087600Y-119526600D03*
D10*
X59302000Y-32772400D03*
X57352000Y-32772400D03*
X101492000Y-50965200D03*
X101492000Y-49015200D03*
D33*
X40212000Y-56655200D03*
X40212000Y-49655200D03*
X40212000Y-42655200D03*
X102262000Y-57055200D03*
X102262000Y-42055200D03*
D10*
X101796800Y-77889200D03*
X101796800Y-75939200D03*
D33*
X40516800Y-83579200D03*
X40516800Y-76579200D03*
X40516800Y-69579200D03*
X102566800Y-83979200D03*
X102566800Y-68979200D03*
D10*
X144493600Y-32467600D03*
X142543600Y-32467600D03*
X170706400Y-33382000D03*
X168756400Y-33382000D03*
X186378800Y-52032000D03*
X186378800Y-50082000D03*
D33*
X125098800Y-57722000D03*
X125098800Y-50722000D03*
X125098800Y-43722000D03*
X187148800Y-58122000D03*
X187148800Y-43122000D03*
D10*
X186734400Y-77381200D03*
X186734400Y-75431200D03*
D33*
X125454400Y-83071200D03*
X125454400Y-76071200D03*
X125454400Y-69071200D03*
X187504400Y-83471200D03*
X187504400Y-68471200D03*
D29*
X256946400Y-137160000D03*
X25603200Y-137160000D03*
X78028800Y-137160000D03*
X25501600Y-24079200D03*
X115417600Y-27584400D03*
D34*
G36*
X240461800Y-132941526D02*
G01*
X233475212Y-139877851D01*
X181307461Y-139928548D01*
X177636411Y-136207210D01*
X177617274Y-136191286D01*
X177595398Y-136179401D01*
X177571623Y-136172012D01*
X177546000Y-136169400D01*
X174218600Y-136169400D01*
X174218600Y-135204200D01*
X177950594Y-135204200D01*
X181672597Y-138926203D01*
X181691843Y-138941997D01*
X181713799Y-138953733D01*
X181737624Y-138960960D01*
X181762526Y-138963400D01*
X233070526Y-138912600D01*
X233095300Y-138910135D01*
X233119117Y-138902885D01*
X233141062Y-138891127D01*
X233159841Y-138875762D01*
X239509841Y-132576562D01*
X239525712Y-132557381D01*
X239537537Y-132535472D01*
X239544859Y-132511677D01*
X239547377Y-132488842D01*
X239595782Y-129971800D01*
X240461800Y-129971800D01*
X240461800Y-132941526D01*
X240461800Y-132941526D01*
G37*
X240461800Y-132941526D02*
X233475212Y-139877851D01*
X181307461Y-139928548D01*
X177636411Y-136207210D01*
X177617274Y-136191286D01*
X177595398Y-136179401D01*
X177571623Y-136172012D01*
X177546000Y-136169400D01*
X174218600Y-136169400D01*
X174218600Y-135204200D01*
X177950594Y-135204200D01*
X181672597Y-138926203D01*
X181691843Y-138941997D01*
X181713799Y-138953733D01*
X181737624Y-138960960D01*
X181762526Y-138963400D01*
X233070526Y-138912600D01*
X233095300Y-138910135D01*
X233119117Y-138902885D01*
X233141062Y-138891127D01*
X233159841Y-138875762D01*
X239509841Y-132576562D01*
X239525712Y-132557381D01*
X239537537Y-132535472D01*
X239544859Y-132511677D01*
X239547377Y-132488842D01*
X239595782Y-129971800D01*
X240461800Y-129971800D01*
X240461800Y-132941526D01*
G36*
X187274200Y-110996194D02*
G01*
X186295397Y-111974997D01*
X186279603Y-111994243D01*
X186267867Y-112016199D01*
X186260640Y-112040024D01*
X186258202Y-112064177D01*
X186208021Y-122301000D01*
X184428837Y-122301000D01*
X184378834Y-111050372D01*
X187274200Y-108155006D01*
X187274200Y-110996194D01*
X187274200Y-110996194D01*
G37*
X187274200Y-110996194D02*
X186295397Y-111974997D01*
X186279603Y-111994243D01*
X186267867Y-112016199D01*
X186260640Y-112040024D01*
X186258202Y-112064177D01*
X186208021Y-122301000D01*
X184428837Y-122301000D01*
X184378834Y-111050372D01*
X187274200Y-108155006D01*
X187274200Y-110996194D01*
G36*
X211596256Y-78946627D02*
G01*
X210870811Y-79629399D01*
X204519792Y-79679804D01*
X204495036Y-79682441D01*
X204471270Y-79689857D01*
X204449407Y-79701767D01*
X204431782Y-79716220D01*
X201522441Y-82575400D01*
X199720200Y-82575400D01*
X199720200Y-81710946D01*
X201071100Y-81660913D01*
X201095770Y-81657557D01*
X201119310Y-81649454D01*
X201140817Y-81636913D01*
X201154668Y-81625312D01*
X204165749Y-78714600D01*
X211331082Y-78714600D01*
X211596256Y-78946627D01*
X211596256Y-78946627D01*
G37*
X211596256Y-78946627D02*
X210870811Y-79629399D01*
X204519792Y-79679804D01*
X204495036Y-79682441D01*
X204471270Y-79689857D01*
X204449407Y-79701767D01*
X204431782Y-79716220D01*
X201522441Y-82575400D01*
X199720200Y-82575400D01*
X199720200Y-81710946D01*
X201071100Y-81660913D01*
X201095770Y-81657557D01*
X201119310Y-81649454D01*
X201140817Y-81636913D01*
X201154668Y-81625312D01*
X204165749Y-78714600D01*
X211331082Y-78714600D01*
X211596256Y-78946627D01*
G36*
X161975800Y-56768313D02*
G01*
X161975800Y-58851800D01*
X144373600Y-58851800D01*
X144348824Y-58854240D01*
X144324999Y-58861467D01*
X144303043Y-58873203D01*
X144288859Y-58884206D01*
X141884438Y-61038167D01*
X139575342Y-61132415D01*
X139621693Y-58490396D01*
X141636441Y-58394456D01*
X141661073Y-58390840D01*
X141684527Y-58382488D01*
X141705900Y-58369721D01*
X141720203Y-58357403D01*
X143409921Y-56667685D01*
X161975800Y-56768313D01*
X161975800Y-56768313D01*
G37*
X161975800Y-56768313D02*
X161975800Y-58851800D01*
X144373600Y-58851800D01*
X144348824Y-58854240D01*
X144324999Y-58861467D01*
X144303043Y-58873203D01*
X144288859Y-58884206D01*
X141884438Y-61038167D01*
X139575342Y-61132415D01*
X139621693Y-58490396D01*
X141636441Y-58394456D01*
X141661073Y-58390840D01*
X141684527Y-58382488D01*
X141705900Y-58369721D01*
X141720203Y-58357403D01*
X143409921Y-56667685D01*
X161975800Y-56768313D01*
G36*
X178190826Y-44418452D02*
G01*
X178372932Y-46558200D01*
X177850800Y-46558200D01*
X177826024Y-46560640D01*
X177802199Y-46567867D01*
X177780243Y-46579603D01*
X177760997Y-46595397D01*
X176121453Y-48234941D01*
X168478200Y-48284573D01*
X168478200Y-46482000D01*
X168477219Y-46466248D01*
X168443991Y-46200422D01*
X174957139Y-46100985D01*
X174981875Y-46098167D01*
X175005586Y-46090577D01*
X175027361Y-46078507D01*
X175052993Y-46055028D01*
X176485395Y-44326266D01*
X178190826Y-44418452D01*
X178190826Y-44418452D01*
G37*
X178190826Y-44418452D02*
X178372932Y-46558200D01*
X177850800Y-46558200D01*
X177826024Y-46560640D01*
X177802199Y-46567867D01*
X177780243Y-46579603D01*
X177760997Y-46595397D01*
X176121453Y-48234941D01*
X168478200Y-48284573D01*
X168478200Y-46482000D01*
X168477219Y-46466248D01*
X168443991Y-46200422D01*
X174957139Y-46100985D01*
X174981875Y-46098167D01*
X175005586Y-46090577D01*
X175027361Y-46078507D01*
X175052993Y-46055028D01*
X176485395Y-44326266D01*
X178190826Y-44418452D01*
G36*
X178384200Y-42694781D02*
G01*
X176152750Y-42649241D01*
X176297684Y-37769800D01*
X178384200Y-37769800D01*
X178384200Y-42694781D01*
X178384200Y-42694781D01*
G37*
X178384200Y-42694781D02*
X176152750Y-42649241D01*
X176297684Y-37769800D01*
X178384200Y-37769800D01*
X178384200Y-42694781D01*
G36*
X151055970Y-36853787D02*
G01*
X151153875Y-40133579D01*
X147075660Y-44413187D01*
X147060334Y-44432807D01*
X147049131Y-44455040D01*
X147044054Y-44471384D01*
X146815085Y-45433052D01*
X144957800Y-45297154D01*
X144957800Y-43283880D01*
X148933229Y-39358773D01*
X148949145Y-39339629D01*
X148961021Y-39317747D01*
X148968399Y-39293969D01*
X148971000Y-39268400D01*
X148971000Y-36807454D01*
X151055970Y-36853787D01*
X151055970Y-36853787D01*
G37*
X151055970Y-36853787D02*
X151153875Y-40133579D01*
X147075660Y-44413187D01*
X147060334Y-44432807D01*
X147049131Y-44455040D01*
X147044054Y-44471384D01*
X146815085Y-45433052D01*
X144957800Y-45297154D01*
X144957800Y-43283880D01*
X148933229Y-39358773D01*
X148949145Y-39339629D01*
X148961021Y-39317747D01*
X148968399Y-39293969D01*
X148971000Y-39268400D01*
X148971000Y-36807454D01*
X151055970Y-36853787D01*
G36*
X138100161Y-37221379D02*
G01*
X138200943Y-47047623D01*
X137619630Y-47774264D01*
X137606057Y-47795135D01*
X137596818Y-47818254D01*
X137591800Y-47853600D01*
X137591800Y-51968400D01*
X137594240Y-51993176D01*
X137605208Y-52025196D01*
X137744020Y-52302820D01*
X137694158Y-60629800D01*
X135763000Y-60629800D01*
X135763000Y-54152800D01*
X135760560Y-54128024D01*
X135753333Y-54104199D01*
X135741597Y-54082243D01*
X135725803Y-54062997D01*
X135708830Y-54048758D01*
X135255000Y-53731077D01*
X135255000Y-51671213D01*
X135566251Y-51404426D01*
X135583474Y-51386448D01*
X135596860Y-51365457D01*
X135605893Y-51342257D01*
X135610587Y-51309840D01*
X135661387Y-47804640D01*
X135659306Y-47779831D01*
X135652425Y-47755905D01*
X135641008Y-47733780D01*
X135625494Y-47714308D01*
X135606480Y-47698237D01*
X135584696Y-47686184D01*
X135560979Y-47678612D01*
X135534400Y-47675800D01*
X135150264Y-47675800D01*
X135105172Y-45872104D01*
X135917550Y-45691576D01*
X135941207Y-45683819D01*
X135962897Y-45671596D01*
X135981784Y-45655376D01*
X135997145Y-45635783D01*
X136008388Y-45613570D01*
X136015082Y-45589590D01*
X136016997Y-45566759D01*
X135966197Y-37895959D01*
X135963593Y-37871199D01*
X135956208Y-37847423D01*
X135944327Y-37825545D01*
X135929003Y-37806997D01*
X135064997Y-36942991D01*
X137852209Y-36808126D01*
X138100161Y-37221379D01*
X138100161Y-37221379D01*
G37*
X138100161Y-37221379D02*
X138200943Y-47047623D01*
X137619630Y-47774264D01*
X137606057Y-47795135D01*
X137596818Y-47818254D01*
X137591800Y-47853600D01*
X137591800Y-51968400D01*
X137594240Y-51993176D01*
X137605208Y-52025196D01*
X137744020Y-52302820D01*
X137694158Y-60629800D01*
X135763000Y-60629800D01*
X135763000Y-54152800D01*
X135760560Y-54128024D01*
X135753333Y-54104199D01*
X135741597Y-54082243D01*
X135725803Y-54062997D01*
X135708830Y-54048758D01*
X135255000Y-53731077D01*
X135255000Y-51671213D01*
X135566251Y-51404426D01*
X135583474Y-51386448D01*
X135596860Y-51365457D01*
X135605893Y-51342257D01*
X135610587Y-51309840D01*
X135661387Y-47804640D01*
X135659306Y-47779831D01*
X135652425Y-47755905D01*
X135641008Y-47733780D01*
X135625494Y-47714308D01*
X135606480Y-47698237D01*
X135584696Y-47686184D01*
X135560979Y-47678612D01*
X135534400Y-47675800D01*
X135150264Y-47675800D01*
X135105172Y-45872104D01*
X135917550Y-45691576D01*
X135941207Y-45683819D01*
X135962897Y-45671596D01*
X135981784Y-45655376D01*
X135997145Y-45635783D01*
X136008388Y-45613570D01*
X136015082Y-45589590D01*
X136016997Y-45566759D01*
X135966197Y-37895959D01*
X135963593Y-37871199D01*
X135956208Y-37847423D01*
X135944327Y-37825545D01*
X135929003Y-37806997D01*
X135064997Y-36942991D01*
X137852209Y-36808126D01*
X138100161Y-37221379D01*
G36*
X146791728Y-47209816D02*
G01*
X146882430Y-49250600D01*
X146354800Y-49250600D01*
X146330024Y-49253040D01*
X146306199Y-49260267D01*
X146284243Y-49272003D01*
X146262910Y-49289935D01*
X142083024Y-53671261D01*
X139674600Y-53718485D01*
X139674600Y-51875885D01*
X141038153Y-51687809D01*
X141062364Y-51682006D01*
X141084977Y-51671592D01*
X141111761Y-51650629D01*
X144972561Y-47688229D01*
X144988104Y-47668780D01*
X144999554Y-47646673D01*
X145006471Y-47622757D01*
X145008600Y-47599600D01*
X145008600Y-47076081D01*
X146791728Y-47209816D01*
X146791728Y-47209816D01*
G37*
X146791728Y-47209816D02*
X146882430Y-49250600D01*
X146354800Y-49250600D01*
X146330024Y-49253040D01*
X146306199Y-49260267D01*
X146284243Y-49272003D01*
X146262910Y-49289935D01*
X142083024Y-53671261D01*
X139674600Y-53718485D01*
X139674600Y-51875885D01*
X141038153Y-51687809D01*
X141062364Y-51682006D01*
X141084977Y-51671592D01*
X141111761Y-51650629D01*
X144972561Y-47688229D01*
X144988104Y-47668780D01*
X144999554Y-47646673D01*
X145006471Y-47622757D01*
X145008600Y-47599600D01*
X145008600Y-47076081D01*
X146791728Y-47209816D01*
G36*
X163195000Y-44196000D02*
G01*
X163197440Y-44220776D01*
X163204667Y-44244601D01*
X163216403Y-44266557D01*
X163229804Y-44283344D01*
X165058604Y-46213744D01*
X165077415Y-46230052D01*
X165099047Y-46242377D01*
X165122667Y-46250245D01*
X165146569Y-46253330D01*
X166547800Y-46300038D01*
X166547800Y-48195866D01*
X166154163Y-48235230D01*
X166129752Y-48240124D01*
X166106765Y-48249686D01*
X166086085Y-48263548D01*
X166068507Y-48281179D01*
X166054707Y-48301900D01*
X166045214Y-48324915D01*
X166040393Y-48349341D01*
X166039802Y-48362338D01*
X166090602Y-57099938D01*
X166093186Y-57124700D01*
X166100552Y-57148482D01*
X166112415Y-57170370D01*
X166131458Y-57192520D01*
X166751317Y-57764698D01*
X166801072Y-66471800D01*
X164720717Y-66471800D01*
X164820589Y-59031305D01*
X164818481Y-59006498D01*
X164807192Y-58972804D01*
X164654792Y-58668004D01*
X164641529Y-58646934D01*
X164624411Y-58628857D01*
X164604094Y-58614467D01*
X164581361Y-58604317D01*
X164549122Y-58598047D01*
X163856558Y-58554762D01*
X163956994Y-48159627D01*
X163954793Y-48134828D01*
X163947797Y-48110935D01*
X163936273Y-48088866D01*
X163919803Y-48068597D01*
X161163000Y-45311794D01*
X161163000Y-37719000D01*
X163195000Y-37719000D01*
X163195000Y-44196000D01*
X163195000Y-44196000D01*
G37*
X163195000Y-44196000D02*
X163197440Y-44220776D01*
X163204667Y-44244601D01*
X163216403Y-44266557D01*
X163229804Y-44283344D01*
X165058604Y-46213744D01*
X165077415Y-46230052D01*
X165099047Y-46242377D01*
X165122667Y-46250245D01*
X165146569Y-46253330D01*
X166547800Y-46300038D01*
X166547800Y-48195866D01*
X166154163Y-48235230D01*
X166129752Y-48240124D01*
X166106765Y-48249686D01*
X166086085Y-48263548D01*
X166068507Y-48281179D01*
X166054707Y-48301900D01*
X166045214Y-48324915D01*
X166040393Y-48349341D01*
X166039802Y-48362338D01*
X166090602Y-57099938D01*
X166093186Y-57124700D01*
X166100552Y-57148482D01*
X166112415Y-57170370D01*
X166131458Y-57192520D01*
X166751317Y-57764698D01*
X166801072Y-66471800D01*
X164720717Y-66471800D01*
X164820589Y-59031305D01*
X164818481Y-59006498D01*
X164807192Y-58972804D01*
X164654792Y-58668004D01*
X164641529Y-58646934D01*
X164624411Y-58628857D01*
X164604094Y-58614467D01*
X164581361Y-58604317D01*
X164549122Y-58598047D01*
X163856558Y-58554762D01*
X163956994Y-48159627D01*
X163954793Y-48134828D01*
X163947797Y-48110935D01*
X163936273Y-48088866D01*
X163919803Y-48068597D01*
X161163000Y-45311794D01*
X161163000Y-37719000D01*
X163195000Y-37719000D01*
X163195000Y-44196000D01*
G36*
X85725000Y-67003394D02*
G01*
X81024037Y-71704357D01*
X64059324Y-71754847D01*
X60692832Y-68488847D01*
X60673350Y-68473347D01*
X60651218Y-68461944D01*
X60627287Y-68455079D01*
X60604400Y-68453000D01*
X55397400Y-68453000D01*
X55397400Y-66319400D01*
X61769828Y-66319400D01*
X64932805Y-69582789D01*
X64951801Y-69598881D01*
X64973572Y-69610959D01*
X64997281Y-69618557D01*
X65024432Y-69621399D01*
X79959632Y-69570599D01*
X79984400Y-69568075D01*
X80008200Y-69560767D01*
X80030116Y-69548956D01*
X80049003Y-69533403D01*
X83452603Y-66129803D01*
X83468397Y-66110557D01*
X83480133Y-66088601D01*
X83487360Y-66064776D01*
X83489800Y-66040000D01*
X83489800Y-61188600D01*
X85725000Y-61188600D01*
X85725000Y-67003394D01*
X85725000Y-67003394D01*
G37*
X85725000Y-67003394D02*
X81024037Y-71704357D01*
X64059324Y-71754847D01*
X60692832Y-68488847D01*
X60673350Y-68473347D01*
X60651218Y-68461944D01*
X60627287Y-68455079D01*
X60604400Y-68453000D01*
X55397400Y-68453000D01*
X55397400Y-66319400D01*
X61769828Y-66319400D01*
X64932805Y-69582789D01*
X64951801Y-69598881D01*
X64973572Y-69610959D01*
X64997281Y-69618557D01*
X65024432Y-69621399D01*
X79959632Y-69570599D01*
X79984400Y-69568075D01*
X80008200Y-69560767D01*
X80030116Y-69548956D01*
X80049003Y-69533403D01*
X83452603Y-66129803D01*
X83468397Y-66110557D01*
X83480133Y-66088601D01*
X83487360Y-66064776D01*
X83489800Y-66040000D01*
X83489800Y-61188600D01*
X85725000Y-61188600D01*
X85725000Y-67003394D01*
G36*
X51231800Y-41503600D02*
G01*
X51234240Y-41528376D01*
X51241467Y-41552201D01*
X51253203Y-41574157D01*
X51269825Y-41594223D01*
X54026343Y-44300622D01*
X54075298Y-49098200D01*
X53644800Y-49098200D01*
X53620024Y-49100640D01*
X53596199Y-49107867D01*
X53574243Y-49119603D01*
X53554997Y-49135397D01*
X53539203Y-49154643D01*
X53527467Y-49176599D01*
X53520240Y-49200424D01*
X53517800Y-49225534D01*
X53568265Y-68402200D01*
X51435613Y-68402200D01*
X51536371Y-47444379D01*
X51860777Y-47073630D01*
X51875256Y-47053377D01*
X51885506Y-47030688D01*
X51891132Y-47006436D01*
X51892200Y-46990000D01*
X51892200Y-45262800D01*
X51889760Y-45238024D01*
X51882533Y-45214199D01*
X51870797Y-45192243D01*
X51855808Y-45173810D01*
X49098200Y-42366064D01*
X49098200Y-37109400D01*
X51231800Y-37109400D01*
X51231800Y-41503600D01*
X51231800Y-41503600D01*
G37*
X51231800Y-41503600D02*
X51234240Y-41528376D01*
X51241467Y-41552201D01*
X51253203Y-41574157D01*
X51269825Y-41594223D01*
X54026343Y-44300622D01*
X54075298Y-49098200D01*
X53644800Y-49098200D01*
X53620024Y-49100640D01*
X53596199Y-49107867D01*
X53574243Y-49119603D01*
X53554997Y-49135397D01*
X53539203Y-49154643D01*
X53527467Y-49176599D01*
X53520240Y-49200424D01*
X53517800Y-49225534D01*
X53568265Y-68402200D01*
X51435613Y-68402200D01*
X51536371Y-47444379D01*
X51860777Y-47073630D01*
X51875256Y-47053377D01*
X51885506Y-47030688D01*
X51891132Y-47006436D01*
X51892200Y-46990000D01*
X51892200Y-45262800D01*
X51889760Y-45238024D01*
X51882533Y-45214199D01*
X51870797Y-45192243D01*
X51855808Y-45173810D01*
X49098200Y-42366064D01*
X49098200Y-37109400D01*
X51231800Y-37109400D01*
X51231800Y-41503600D01*
G36*
X63830200Y-55325798D02*
G01*
X63364984Y-55452675D01*
X63341723Y-55461548D01*
X63320639Y-55474789D01*
X63306069Y-55487999D01*
X60752384Y-58191901D01*
X55397400Y-58241029D01*
X55397400Y-56259479D01*
X59488330Y-56210191D01*
X59513075Y-56207452D01*
X59536811Y-56199939D01*
X59558624Y-56187939D01*
X59577584Y-56172010D01*
X61863584Y-53835210D01*
X61879166Y-53815793D01*
X61890660Y-53793709D01*
X61897624Y-53769806D01*
X61899800Y-53746400D01*
X61899800Y-53416200D01*
X63830200Y-53416200D01*
X63830200Y-55325798D01*
X63830200Y-55325798D01*
G37*
X63830200Y-55325798D02*
X63364984Y-55452675D01*
X63341723Y-55461548D01*
X63320639Y-55474789D01*
X63306069Y-55487999D01*
X60752384Y-58191901D01*
X55397400Y-58241029D01*
X55397400Y-56259479D01*
X59488330Y-56210191D01*
X59513075Y-56207452D01*
X59536811Y-56199939D01*
X59558624Y-56187939D01*
X59577584Y-56172010D01*
X61863584Y-53835210D01*
X61879166Y-53815793D01*
X61890660Y-53793709D01*
X61897624Y-53769806D01*
X61899800Y-53746400D01*
X61899800Y-53416200D01*
X63830200Y-53416200D01*
X63830200Y-55325798D01*
G36*
X66167000Y-46125393D02*
G01*
X63866437Y-48475968D01*
X63850851Y-48495382D01*
X63839352Y-48517464D01*
X63832381Y-48541364D01*
X63830275Y-48560423D01*
X63732903Y-51384200D01*
X61950600Y-51384200D01*
X61950600Y-47550606D01*
X63996203Y-45505003D01*
X64011997Y-45485757D01*
X64023733Y-45463801D01*
X64030960Y-45439976D01*
X64033400Y-45415200D01*
X64033400Y-37058600D01*
X66167000Y-37058600D01*
X66167000Y-46125393D01*
X66167000Y-46125393D01*
G37*
X66167000Y-46125393D02*
X63866437Y-48475968D01*
X63850851Y-48495382D01*
X63839352Y-48517464D01*
X63832381Y-48541364D01*
X63830275Y-48560423D01*
X63732903Y-51384200D01*
X61950600Y-51384200D01*
X61950600Y-47550606D01*
X63996203Y-45505003D01*
X64011997Y-45485757D01*
X64023733Y-45463801D01*
X64030960Y-45439976D01*
X64033400Y-45415200D01*
X64033400Y-37058600D01*
X66167000Y-37058600D01*
X66167000Y-46125393D01*
G36*
X77546200Y-42621200D02*
G01*
X77548640Y-42645976D01*
X77555867Y-42669801D01*
X77567603Y-42691757D01*
X77583397Y-42711003D01*
X81661000Y-46788606D01*
X81661000Y-55338273D01*
X81474533Y-55664590D01*
X81464359Y-55687313D01*
X81458814Y-55711584D01*
X81457803Y-55728419D01*
X81507778Y-63474600D01*
X79325843Y-63474600D01*
X79527389Y-47804433D01*
X79525268Y-47779628D01*
X79518348Y-47755712D01*
X79506895Y-47733606D01*
X79492392Y-47715241D01*
X75514200Y-43535622D01*
X75514200Y-37109400D01*
X77546200Y-37109400D01*
X77546200Y-42621200D01*
X77546200Y-42621200D01*
G37*
X77546200Y-42621200D02*
X77548640Y-42645976D01*
X77555867Y-42669801D01*
X77567603Y-42691757D01*
X77583397Y-42711003D01*
X81661000Y-46788606D01*
X81661000Y-55338273D01*
X81474533Y-55664590D01*
X81464359Y-55687313D01*
X81458814Y-55711584D01*
X81457803Y-55728419D01*
X81507778Y-63474600D01*
X79325843Y-63474600D01*
X79527389Y-47804433D01*
X79525268Y-47779628D01*
X79518348Y-47755712D01*
X79506895Y-47733606D01*
X79492392Y-47715241D01*
X75514200Y-43535622D01*
X75514200Y-37109400D01*
X77546200Y-37109400D01*
X77546200Y-42621200D01*
G36*
X91925490Y-47916755D02*
G01*
X91554237Y-47879630D01*
X91529341Y-47879593D01*
X91504915Y-47884414D01*
X91481900Y-47893907D01*
X91461179Y-47907707D01*
X91446371Y-47921974D01*
X90722289Y-48742600D01*
X83591400Y-48742600D01*
X83591400Y-46860866D01*
X89460952Y-46761382D01*
X89485684Y-46758522D01*
X89509382Y-46750892D01*
X89531137Y-46738786D01*
X89548603Y-46724203D01*
X89955003Y-46317803D01*
X89970797Y-46298557D01*
X89982533Y-46276601D01*
X89989760Y-46252776D01*
X89991761Y-46238547D01*
X90032857Y-45745400D01*
X91970727Y-45745400D01*
X91925490Y-47916755D01*
X91925490Y-47916755D01*
G37*
X91925490Y-47916755D02*
X91554237Y-47879630D01*
X91529341Y-47879593D01*
X91504915Y-47884414D01*
X91481900Y-47893907D01*
X91461179Y-47907707D01*
X91446371Y-47921974D01*
X90722289Y-48742600D01*
X83591400Y-48742600D01*
X83591400Y-46860866D01*
X89460952Y-46761382D01*
X89485684Y-46758522D01*
X89509382Y-46750892D01*
X89531137Y-46738786D01*
X89548603Y-46724203D01*
X89955003Y-46317803D01*
X89970797Y-46298557D01*
X89982533Y-46276601D01*
X89989760Y-46252776D01*
X89991761Y-46238547D01*
X90032857Y-45745400D01*
X91970727Y-45745400D01*
X91925490Y-47916755D01*
G36*
X91972483Y-43865800D02*
G01*
X90091986Y-43865800D01*
X89994041Y-37058600D01*
X91923510Y-37058600D01*
X91972483Y-43865800D01*
X91972483Y-43865800D01*
G37*
X91972483Y-43865800D02*
X90091986Y-43865800D01*
X89994041Y-37058600D01*
X91923510Y-37058600D01*
X91972483Y-43865800D01*
G36*
X177368200Y-102460896D02*
G01*
X175309889Y-104470200D01*
X164236400Y-104470200D01*
X164211624Y-104472640D01*
X164187799Y-104479867D01*
X164165843Y-104491603D01*
X164147255Y-104506744D01*
X160679136Y-107924600D01*
X153517600Y-107924600D01*
X153492824Y-107927040D01*
X153468999Y-107934267D01*
X153447043Y-107946003D01*
X153427419Y-107962177D01*
X147470280Y-113969800D01*
X129844800Y-113969800D01*
X129820024Y-113972240D01*
X129796199Y-113979467D01*
X129774243Y-113991203D01*
X129754997Y-114006997D01*
X126046597Y-117715397D01*
X126030803Y-117734643D01*
X126019067Y-117756599D01*
X126011840Y-117780424D01*
X126009400Y-117805200D01*
X126009400Y-126744365D01*
X115009224Y-137795000D01*
X103098600Y-137795000D01*
X103098600Y-136982200D01*
X114350800Y-136982200D01*
X114375576Y-136979760D01*
X114399401Y-136972533D01*
X114421357Y-136960797D01*
X114440819Y-136944786D01*
X124956419Y-126378386D01*
X124972166Y-126359103D01*
X124983849Y-126337118D01*
X124991019Y-126313276D01*
X124993398Y-126289513D01*
X125043902Y-117299720D01*
X129490585Y-112903000D01*
X147015200Y-112903000D01*
X147039976Y-112900560D01*
X147063801Y-112893333D01*
X147085757Y-112881597D01*
X147105003Y-112865803D01*
X153113006Y-106857800D01*
X160274000Y-106857800D01*
X160298776Y-106855360D01*
X160322601Y-106848133D01*
X160344557Y-106836397D01*
X160363803Y-106820603D01*
X163781250Y-103403156D01*
X174650991Y-103352599D01*
X174675756Y-103350043D01*
X174699546Y-103342705D01*
X174721448Y-103330867D01*
X174740203Y-103315403D01*
X176162603Y-101893003D01*
X176178397Y-101873757D01*
X176190133Y-101851801D01*
X176197360Y-101827976D01*
X176199800Y-101803200D01*
X176199800Y-99796600D01*
X177368200Y-99796600D01*
X177368200Y-102460896D01*
X177368200Y-102460896D01*
G37*
X177368200Y-102460896D02*
X175309889Y-104470200D01*
X164236400Y-104470200D01*
X164211624Y-104472640D01*
X164187799Y-104479867D01*
X164165843Y-104491603D01*
X164147255Y-104506744D01*
X160679136Y-107924600D01*
X153517600Y-107924600D01*
X153492824Y-107927040D01*
X153468999Y-107934267D01*
X153447043Y-107946003D01*
X153427419Y-107962177D01*
X147470280Y-113969800D01*
X129844800Y-113969800D01*
X129820024Y-113972240D01*
X129796199Y-113979467D01*
X129774243Y-113991203D01*
X129754997Y-114006997D01*
X126046597Y-117715397D01*
X126030803Y-117734643D01*
X126019067Y-117756599D01*
X126011840Y-117780424D01*
X126009400Y-117805200D01*
X126009400Y-126744365D01*
X115009224Y-137795000D01*
X103098600Y-137795000D01*
X103098600Y-136982200D01*
X114350800Y-136982200D01*
X114375576Y-136979760D01*
X114399401Y-136972533D01*
X114421357Y-136960797D01*
X114440819Y-136944786D01*
X124956419Y-126378386D01*
X124972166Y-126359103D01*
X124983849Y-126337118D01*
X124991019Y-126313276D01*
X124993398Y-126289513D01*
X125043902Y-117299720D01*
X129490585Y-112903000D01*
X147015200Y-112903000D01*
X147039976Y-112900560D01*
X147063801Y-112893333D01*
X147085757Y-112881597D01*
X147105003Y-112865803D01*
X153113006Y-106857800D01*
X160274000Y-106857800D01*
X160298776Y-106855360D01*
X160322601Y-106848133D01*
X160344557Y-106836397D01*
X160363803Y-106820603D01*
X163781250Y-103403156D01*
X174650991Y-103352599D01*
X174675756Y-103350043D01*
X174699546Y-103342705D01*
X174721448Y-103330867D01*
X174740203Y-103315403D01*
X176162603Y-101893003D01*
X176178397Y-101873757D01*
X176190133Y-101851801D01*
X176197360Y-101827976D01*
X176199800Y-101803200D01*
X176199800Y-99796600D01*
X177368200Y-99796600D01*
X177368200Y-102460896D01*
G36*
X170154600Y-100888011D02*
G01*
X168399173Y-102692200D01*
X162610800Y-102692200D01*
X162586024Y-102694640D01*
X162562199Y-102701867D01*
X162540243Y-102713603D01*
X162520130Y-102730273D01*
X159966671Y-105333800D01*
X152654000Y-105333800D01*
X152629224Y-105336240D01*
X152605399Y-105343467D01*
X152583443Y-105355203D01*
X152563843Y-105371353D01*
X146200300Y-111785400D01*
X127812800Y-111785400D01*
X127788024Y-111787840D01*
X127764199Y-111795067D01*
X127742243Y-111806803D01*
X127723602Y-111821997D01*
X123913602Y-115581197D01*
X123897679Y-115600335D01*
X123885796Y-115622213D01*
X123878409Y-115645988D01*
X123875800Y-115671600D01*
X123875800Y-125778798D01*
X114349193Y-135255000D01*
X97739200Y-135255000D01*
X97714424Y-135257440D01*
X97690599Y-135264667D01*
X97668643Y-135276403D01*
X97649397Y-135292197D01*
X96358788Y-136582806D01*
X95744174Y-136083432D01*
X97436369Y-134391237D01*
X113792393Y-134340599D01*
X113817162Y-134338082D01*
X113840964Y-134330782D01*
X113862884Y-134318978D01*
X113881548Y-134303657D01*
X122873148Y-125362857D01*
X122888996Y-125343656D01*
X122900795Y-125321733D01*
X122908089Y-125297929D01*
X122910600Y-125272800D01*
X122910600Y-115267006D01*
X127306750Y-110870856D01*
X145745549Y-110820200D01*
X145770319Y-110817691D01*
X145794123Y-110810399D01*
X145816047Y-110798602D01*
X145834644Y-110783360D01*
X152198677Y-104469835D01*
X159411288Y-104419397D01*
X159436047Y-104416783D01*
X159459820Y-104409390D01*
X159481694Y-104397501D01*
X159501087Y-104381309D01*
X162003743Y-101828600D01*
X167944800Y-101828600D01*
X167969576Y-101826160D01*
X167993401Y-101818933D01*
X168015357Y-101807197D01*
X168034603Y-101791403D01*
X169253803Y-100572203D01*
X169269597Y-100552957D01*
X169281333Y-100531001D01*
X169288560Y-100507176D01*
X169291000Y-100482400D01*
X169291000Y-99796600D01*
X170154600Y-99796600D01*
X170154600Y-100888011D01*
X170154600Y-100888011D01*
G37*
X170154600Y-100888011D02*
X168399173Y-102692200D01*
X162610800Y-102692200D01*
X162586024Y-102694640D01*
X162562199Y-102701867D01*
X162540243Y-102713603D01*
X162520130Y-102730273D01*
X159966671Y-105333800D01*
X152654000Y-105333800D01*
X152629224Y-105336240D01*
X152605399Y-105343467D01*
X152583443Y-105355203D01*
X152563843Y-105371353D01*
X146200300Y-111785400D01*
X127812800Y-111785400D01*
X127788024Y-111787840D01*
X127764199Y-111795067D01*
X127742243Y-111806803D01*
X127723602Y-111821997D01*
X123913602Y-115581197D01*
X123897679Y-115600335D01*
X123885796Y-115622213D01*
X123878409Y-115645988D01*
X123875800Y-115671600D01*
X123875800Y-125778798D01*
X114349193Y-135255000D01*
X97739200Y-135255000D01*
X97714424Y-135257440D01*
X97690599Y-135264667D01*
X97668643Y-135276403D01*
X97649397Y-135292197D01*
X96358788Y-136582806D01*
X95744174Y-136083432D01*
X97436369Y-134391237D01*
X113792393Y-134340599D01*
X113817162Y-134338082D01*
X113840964Y-134330782D01*
X113862884Y-134318978D01*
X113881548Y-134303657D01*
X122873148Y-125362857D01*
X122888996Y-125343656D01*
X122900795Y-125321733D01*
X122908089Y-125297929D01*
X122910600Y-125272800D01*
X122910600Y-115267006D01*
X127306750Y-110870856D01*
X145745549Y-110820200D01*
X145770319Y-110817691D01*
X145794123Y-110810399D01*
X145816047Y-110798602D01*
X145834644Y-110783360D01*
X152198677Y-104469835D01*
X159411288Y-104419397D01*
X159436047Y-104416783D01*
X159459820Y-104409390D01*
X159481694Y-104397501D01*
X159501087Y-104381309D01*
X162003743Y-101828600D01*
X167944800Y-101828600D01*
X167969576Y-101826160D01*
X167993401Y-101818933D01*
X168015357Y-101807197D01*
X168034603Y-101791403D01*
X169253803Y-100572203D01*
X169269597Y-100552957D01*
X169281333Y-100531001D01*
X169288560Y-100507176D01*
X169291000Y-100482400D01*
X169291000Y-99796600D01*
X170154600Y-99796600D01*
X170154600Y-100888011D01*
G36*
X160798643Y-99676551D02*
G01*
X157173394Y-103301800D01*
X151079200Y-103301800D01*
X151054424Y-103304240D01*
X151030599Y-103311467D01*
X151008643Y-103323203D01*
X150989768Y-103338629D01*
X144829301Y-109448600D01*
X126441200Y-109448600D01*
X126416424Y-109451040D01*
X126392599Y-109458267D01*
X126370643Y-109470003D01*
X126351397Y-109485797D01*
X121474597Y-114362597D01*
X121458803Y-114381843D01*
X121447067Y-114403799D01*
X121439840Y-114427624D01*
X121437400Y-114452400D01*
X121437400Y-124610594D01*
X112215394Y-133832600D01*
X93726000Y-133832600D01*
X93701224Y-133835040D01*
X93677399Y-133842267D01*
X93655443Y-133854003D01*
X93636875Y-133869125D01*
X90350127Y-137106817D01*
X89922396Y-136368010D01*
X93270748Y-133019658D01*
X111912745Y-132969000D01*
X111937515Y-132966492D01*
X111961319Y-132959200D01*
X111983244Y-132947405D01*
X112002203Y-132931803D01*
X120536603Y-124397403D01*
X120552397Y-124378157D01*
X120564133Y-124356201D01*
X120571360Y-124332376D01*
X120573800Y-124307600D01*
X120573800Y-114098606D01*
X126036606Y-108635800D01*
X144526000Y-108635800D01*
X144550776Y-108633360D01*
X144574601Y-108626133D01*
X144596557Y-108614397D01*
X144615803Y-108598603D01*
X150725406Y-102489000D01*
X156819600Y-102489000D01*
X156844376Y-102486560D01*
X156868201Y-102479333D01*
X156890157Y-102467597D01*
X156909403Y-102451803D01*
X159953548Y-99407658D01*
X160798643Y-99676551D01*
X160798643Y-99676551D01*
G37*
X160798643Y-99676551D02*
X157173394Y-103301800D01*
X151079200Y-103301800D01*
X151054424Y-103304240D01*
X151030599Y-103311467D01*
X151008643Y-103323203D01*
X150989768Y-103338629D01*
X144829301Y-109448600D01*
X126441200Y-109448600D01*
X126416424Y-109451040D01*
X126392599Y-109458267D01*
X126370643Y-109470003D01*
X126351397Y-109485797D01*
X121474597Y-114362597D01*
X121458803Y-114381843D01*
X121447067Y-114403799D01*
X121439840Y-114427624D01*
X121437400Y-114452400D01*
X121437400Y-124610594D01*
X112215394Y-133832600D01*
X93726000Y-133832600D01*
X93701224Y-133835040D01*
X93677399Y-133842267D01*
X93655443Y-133854003D01*
X93636875Y-133869125D01*
X90350127Y-137106817D01*
X89922396Y-136368010D01*
X93270748Y-133019658D01*
X111912745Y-132969000D01*
X111937515Y-132966492D01*
X111961319Y-132959200D01*
X111983244Y-132947405D01*
X112002203Y-132931803D01*
X120536603Y-124397403D01*
X120552397Y-124378157D01*
X120564133Y-124356201D01*
X120571360Y-124332376D01*
X120573800Y-124307600D01*
X120573800Y-114098606D01*
X126036606Y-108635800D01*
X144526000Y-108635800D01*
X144550776Y-108633360D01*
X144574601Y-108626133D01*
X144596557Y-108614397D01*
X144615803Y-108598603D01*
X150725406Y-102489000D01*
X156819600Y-102489000D01*
X156844376Y-102486560D01*
X156868201Y-102479333D01*
X156890157Y-102467597D01*
X156909403Y-102451803D01*
X159953548Y-99407658D01*
X160798643Y-99676551D01*
G36*
X150088600Y-100124722D02*
G01*
X143203667Y-106959400D01*
X125272800Y-106959400D01*
X125248024Y-106961840D01*
X125224199Y-106969067D01*
X125202243Y-106980803D01*
X125182997Y-106996597D01*
X118883797Y-113295797D01*
X118868003Y-113315043D01*
X118856267Y-113336999D01*
X118849040Y-113360824D01*
X118846600Y-113385600D01*
X118846600Y-124051543D01*
X111402847Y-131445000D01*
X103143496Y-131445000D01*
X103104791Y-130632200D01*
X111048800Y-130632200D01*
X111073576Y-130629760D01*
X111097401Y-130622533D01*
X111119357Y-130610797D01*
X111138936Y-130594668D01*
X117946136Y-123736668D01*
X117961858Y-123717364D01*
X117973513Y-123695364D01*
X117980651Y-123671513D01*
X117982999Y-123647802D01*
X118033551Y-112981255D01*
X124919006Y-106095800D01*
X142849600Y-106095800D01*
X142874376Y-106093360D01*
X142898201Y-106086133D01*
X142920157Y-106074397D01*
X142939771Y-106058232D01*
X149086571Y-99860632D01*
X149102286Y-99841322D01*
X149113932Y-99819318D01*
X149121061Y-99795464D01*
X149123400Y-99771200D01*
X149123400Y-98882200D01*
X150088600Y-98882200D01*
X150088600Y-100124722D01*
X150088600Y-100124722D01*
G37*
X150088600Y-100124722D02*
X143203667Y-106959400D01*
X125272800Y-106959400D01*
X125248024Y-106961840D01*
X125224199Y-106969067D01*
X125202243Y-106980803D01*
X125182997Y-106996597D01*
X118883797Y-113295797D01*
X118868003Y-113315043D01*
X118856267Y-113336999D01*
X118849040Y-113360824D01*
X118846600Y-113385600D01*
X118846600Y-124051543D01*
X111402847Y-131445000D01*
X103143496Y-131445000D01*
X103104791Y-130632200D01*
X111048800Y-130632200D01*
X111073576Y-130629760D01*
X111097401Y-130622533D01*
X111119357Y-130610797D01*
X111138936Y-130594668D01*
X117946136Y-123736668D01*
X117961858Y-123717364D01*
X117973513Y-123695364D01*
X117980651Y-123671513D01*
X117982999Y-123647802D01*
X118033551Y-112981255D01*
X124919006Y-106095800D01*
X142849600Y-106095800D01*
X142874376Y-106093360D01*
X142898201Y-106086133D01*
X142920157Y-106074397D01*
X142939771Y-106058232D01*
X149086571Y-99860632D01*
X149102286Y-99841322D01*
X149113932Y-99819318D01*
X149121061Y-99795464D01*
X149123400Y-99771200D01*
X149123400Y-98882200D01*
X150088600Y-98882200D01*
X150088600Y-100124722D01*
G36*
X142912337Y-98872177D02*
G01*
X137614718Y-104267000D01*
X124663200Y-104267000D01*
X124638424Y-104269440D01*
X124614599Y-104276667D01*
X124592643Y-104288403D01*
X124573953Y-104303645D01*
X116293553Y-112482445D01*
X116277641Y-112501592D01*
X116265770Y-112523476D01*
X116258396Y-112547255D01*
X116255800Y-112572800D01*
X116255800Y-123340594D01*
X110792994Y-128803400D01*
X98552000Y-128803400D01*
X98527224Y-128805840D01*
X98503399Y-128813067D01*
X98481443Y-128824803D01*
X98462197Y-128840597D01*
X96729386Y-130573408D01*
X96185818Y-129952188D01*
X98197986Y-127940020D01*
X110286269Y-127990599D01*
X110311055Y-127988262D01*
X110334909Y-127981135D01*
X110356915Y-127969491D01*
X110377514Y-127952482D01*
X115305114Y-122923282D01*
X115320711Y-122903876D01*
X115332222Y-122881801D01*
X115339206Y-122857904D01*
X115341399Y-122833792D01*
X115290852Y-112269554D01*
X124157006Y-103403400D01*
X137160000Y-103403400D01*
X137184776Y-103400960D01*
X137208601Y-103393733D01*
X137230557Y-103381997D01*
X137249803Y-103366203D01*
X141782779Y-98833227D01*
X142912337Y-98872177D01*
X142912337Y-98872177D01*
G37*
X142912337Y-98872177D02*
X137614718Y-104267000D01*
X124663200Y-104267000D01*
X124638424Y-104269440D01*
X124614599Y-104276667D01*
X124592643Y-104288403D01*
X124573953Y-104303645D01*
X116293553Y-112482445D01*
X116277641Y-112501592D01*
X116265770Y-112523476D01*
X116258396Y-112547255D01*
X116255800Y-112572800D01*
X116255800Y-123340594D01*
X110792994Y-128803400D01*
X98552000Y-128803400D01*
X98527224Y-128805840D01*
X98503399Y-128813067D01*
X98481443Y-128824803D01*
X98462197Y-128840597D01*
X96729386Y-130573408D01*
X96185818Y-129952188D01*
X98197986Y-127940020D01*
X110286269Y-127990599D01*
X110311055Y-127988262D01*
X110334909Y-127981135D01*
X110356915Y-127969491D01*
X110377514Y-127952482D01*
X115305114Y-122923282D01*
X115320711Y-122903876D01*
X115332222Y-122881801D01*
X115339206Y-122857904D01*
X115341399Y-122833792D01*
X115290852Y-112269554D01*
X124157006Y-103403400D01*
X137160000Y-103403400D01*
X137184776Y-103400960D01*
X137208601Y-103393733D01*
X137230557Y-103381997D01*
X137249803Y-103366203D01*
X141782779Y-98833227D01*
X142912337Y-98872177D01*
G36*
X133578600Y-98600408D02*
G01*
X130402379Y-101727000D01*
X123647200Y-101727000D01*
X123622424Y-101729440D01*
X123598599Y-101736667D01*
X123576643Y-101748403D01*
X123557397Y-101764197D01*
X114362597Y-110958997D01*
X114346803Y-110978243D01*
X114335067Y-111000199D01*
X114327840Y-111024024D01*
X114325400Y-111048800D01*
X114325400Y-122629394D01*
X109624594Y-127330200D01*
X93116400Y-127330200D01*
X93091624Y-127332640D01*
X93067799Y-127339867D01*
X93045843Y-127351603D01*
X93026597Y-127367397D01*
X90049302Y-130344692D01*
X89357861Y-129922145D01*
X92762606Y-126517400D01*
X109169200Y-126517400D01*
X109193976Y-126514960D01*
X109217801Y-126507733D01*
X109239757Y-126495997D01*
X109259003Y-126480203D01*
X113373803Y-122365403D01*
X113389597Y-122346157D01*
X113401333Y-122324201D01*
X113408560Y-122300376D01*
X113411000Y-122275600D01*
X113411000Y-110695196D01*
X123293215Y-100863400D01*
X129997200Y-100863400D01*
X130021976Y-100860960D01*
X130045801Y-100853733D01*
X130067757Y-100841997D01*
X130087003Y-100826203D01*
X133578600Y-97334606D01*
X133578600Y-98600408D01*
X133578600Y-98600408D01*
G37*
X133578600Y-98600408D02*
X130402379Y-101727000D01*
X123647200Y-101727000D01*
X123622424Y-101729440D01*
X123598599Y-101736667D01*
X123576643Y-101748403D01*
X123557397Y-101764197D01*
X114362597Y-110958997D01*
X114346803Y-110978243D01*
X114335067Y-111000199D01*
X114327840Y-111024024D01*
X114325400Y-111048800D01*
X114325400Y-122629394D01*
X109624594Y-127330200D01*
X93116400Y-127330200D01*
X93091624Y-127332640D01*
X93067799Y-127339867D01*
X93045843Y-127351603D01*
X93026597Y-127367397D01*
X90049302Y-130344692D01*
X89357861Y-129922145D01*
X92762606Y-126517400D01*
X109169200Y-126517400D01*
X109193976Y-126514960D01*
X109217801Y-126507733D01*
X109239757Y-126495997D01*
X109259003Y-126480203D01*
X113373803Y-122365403D01*
X113389597Y-122346157D01*
X113401333Y-122324201D01*
X113408560Y-122300376D01*
X113411000Y-122275600D01*
X113411000Y-110695196D01*
X123293215Y-100863400D01*
X129997200Y-100863400D01*
X130021976Y-100860960D01*
X130045801Y-100853733D01*
X130067757Y-100841997D01*
X130087003Y-100826203D01*
X133578600Y-97334606D01*
X133578600Y-98600408D01*
G36*
X119442597Y-88810197D02*
G01*
X119426803Y-88829443D01*
X119415067Y-88851399D01*
X119407840Y-88875224D01*
X119405400Y-88900000D01*
X119405400Y-102868194D01*
X112736997Y-109536597D01*
X112721203Y-109555843D01*
X112709467Y-109577799D01*
X112702240Y-109601624D01*
X112699801Y-109625823D01*
X112649241Y-120749132D01*
X108253420Y-125095000D01*
X103104791Y-125095000D01*
X103143496Y-124282200D01*
X107848400Y-124282200D01*
X107873176Y-124279760D01*
X107897001Y-124272533D01*
X107918957Y-124260797D01*
X107938203Y-124245003D01*
X111799003Y-120384203D01*
X111814797Y-120364957D01*
X111826533Y-120343001D01*
X111833760Y-120319176D01*
X111836200Y-120294400D01*
X111836200Y-109272606D01*
X118555403Y-102553403D01*
X118571197Y-102534157D01*
X118582933Y-102512201D01*
X118590160Y-102488376D01*
X118592600Y-102463600D01*
X118592600Y-88393806D01*
X121261406Y-85725000D01*
X122527794Y-85725000D01*
X119442597Y-88810197D01*
X119442597Y-88810197D01*
G37*
X119442597Y-88810197D02*
X119426803Y-88829443D01*
X119415067Y-88851399D01*
X119407840Y-88875224D01*
X119405400Y-88900000D01*
X119405400Y-102868194D01*
X112736997Y-109536597D01*
X112721203Y-109555843D01*
X112709467Y-109577799D01*
X112702240Y-109601624D01*
X112699801Y-109625823D01*
X112649241Y-120749132D01*
X108253420Y-125095000D01*
X103104791Y-125095000D01*
X103143496Y-124282200D01*
X107848400Y-124282200D01*
X107873176Y-124279760D01*
X107897001Y-124272533D01*
X107918957Y-124260797D01*
X107938203Y-124245003D01*
X111799003Y-120384203D01*
X111814797Y-120364957D01*
X111826533Y-120343001D01*
X111833760Y-120319176D01*
X111836200Y-120294400D01*
X111836200Y-109272606D01*
X118555403Y-102553403D01*
X118571197Y-102534157D01*
X118582933Y-102512201D01*
X118590160Y-102488376D01*
X118592600Y-102463600D01*
X118592600Y-88393806D01*
X121261406Y-85725000D01*
X122527794Y-85725000D01*
X119442597Y-88810197D01*
G36*
X120370600Y-76479400D02*
G01*
X119735600Y-76479400D01*
X119710824Y-76481840D01*
X119686999Y-76489067D01*
X119665043Y-76500803D01*
X119645797Y-76516597D01*
X117308997Y-78853397D01*
X117293203Y-78872643D01*
X117281467Y-78894599D01*
X117274240Y-78918424D01*
X117271800Y-78943200D01*
X117271800Y-102410994D01*
X110857397Y-108825397D01*
X110841603Y-108844643D01*
X110829867Y-108866599D01*
X110822640Y-108890424D01*
X110820200Y-108915200D01*
X110820200Y-119835394D01*
X108202194Y-122453400D01*
X97485200Y-122453400D01*
X97460424Y-122455840D01*
X97436599Y-122463067D01*
X97414643Y-122474803D01*
X97395397Y-122490597D01*
X96281652Y-123604342D01*
X95436557Y-123335449D01*
X97131406Y-121640600D01*
X107797600Y-121640600D01*
X107822376Y-121638160D01*
X107846201Y-121630933D01*
X107868157Y-121619197D01*
X107887403Y-121603403D01*
X109970203Y-119520603D01*
X109985997Y-119501357D01*
X109997733Y-119479401D01*
X110004960Y-119455576D01*
X110007400Y-119430800D01*
X110007400Y-108561115D01*
X116472951Y-102045052D01*
X116488670Y-102025746D01*
X116500321Y-102003744D01*
X116507455Y-101979892D01*
X116509800Y-101955600D01*
X116509800Y-78387515D01*
X119380505Y-75615800D01*
X120370600Y-75615800D01*
X120370600Y-76479400D01*
X120370600Y-76479400D01*
G37*
X120370600Y-76479400D02*
X119735600Y-76479400D01*
X119710824Y-76481840D01*
X119686999Y-76489067D01*
X119665043Y-76500803D01*
X119645797Y-76516597D01*
X117308997Y-78853397D01*
X117293203Y-78872643D01*
X117281467Y-78894599D01*
X117274240Y-78918424D01*
X117271800Y-78943200D01*
X117271800Y-102410994D01*
X110857397Y-108825397D01*
X110841603Y-108844643D01*
X110829867Y-108866599D01*
X110822640Y-108890424D01*
X110820200Y-108915200D01*
X110820200Y-119835394D01*
X108202194Y-122453400D01*
X97485200Y-122453400D01*
X97460424Y-122455840D01*
X97436599Y-122463067D01*
X97414643Y-122474803D01*
X97395397Y-122490597D01*
X96281652Y-123604342D01*
X95436557Y-123335449D01*
X97131406Y-121640600D01*
X107797600Y-121640600D01*
X107822376Y-121638160D01*
X107846201Y-121630933D01*
X107868157Y-121619197D01*
X107887403Y-121603403D01*
X109970203Y-119520603D01*
X109985997Y-119501357D01*
X109997733Y-119479401D01*
X110004960Y-119455576D01*
X110007400Y-119430800D01*
X110007400Y-108561115D01*
X116472951Y-102045052D01*
X116488670Y-102025746D01*
X116500321Y-102003744D01*
X116507455Y-101979892D01*
X116509800Y-101955600D01*
X116509800Y-78387515D01*
X119380505Y-75615800D01*
X120370600Y-75615800D01*
X120370600Y-76479400D01*
G36*
X120319800Y-70000594D02*
G01*
X115530997Y-74789397D01*
X115515203Y-74808643D01*
X115503467Y-74830599D01*
X115496240Y-74854424D01*
X115493800Y-74878958D01*
X115443100Y-101496494D01*
X108926997Y-108012597D01*
X108911203Y-108031843D01*
X108899467Y-108053799D01*
X108892240Y-108077624D01*
X108889800Y-108102400D01*
X108889800Y-119123250D01*
X106932950Y-121031179D01*
X92303161Y-121081801D01*
X92278393Y-121084327D01*
X92254594Y-121091636D01*
X92232678Y-121103448D01*
X92213797Y-121118997D01*
X89869141Y-123463653D01*
X88771191Y-123346015D01*
X91899006Y-120218200D01*
X106476800Y-120218200D01*
X106501576Y-120215760D01*
X106525401Y-120208533D01*
X106547357Y-120196797D01*
X106566603Y-120181003D01*
X106667335Y-120080271D01*
X107987225Y-118811146D01*
X108003393Y-118792214D01*
X108015557Y-118770492D01*
X108023250Y-118746814D01*
X108026200Y-118719600D01*
X108026200Y-107697806D01*
X114491403Y-101232603D01*
X114507197Y-101213357D01*
X114518933Y-101191401D01*
X114526160Y-101167576D01*
X114528600Y-101142800D01*
X114528600Y-74627320D01*
X120319800Y-68884785D01*
X120319800Y-70000594D01*
X120319800Y-70000594D01*
G37*
X120319800Y-70000594D02*
X115530997Y-74789397D01*
X115515203Y-74808643D01*
X115503467Y-74830599D01*
X115496240Y-74854424D01*
X115493800Y-74878958D01*
X115443100Y-101496494D01*
X108926997Y-108012597D01*
X108911203Y-108031843D01*
X108899467Y-108053799D01*
X108892240Y-108077624D01*
X108889800Y-108102400D01*
X108889800Y-119123250D01*
X106932950Y-121031179D01*
X92303161Y-121081801D01*
X92278393Y-121084327D01*
X92254594Y-121091636D01*
X92232678Y-121103448D01*
X92213797Y-121118997D01*
X89869141Y-123463653D01*
X88771191Y-123346015D01*
X91899006Y-120218200D01*
X106476800Y-120218200D01*
X106501576Y-120215760D01*
X106525401Y-120208533D01*
X106547357Y-120196797D01*
X106566603Y-120181003D01*
X106667335Y-120080271D01*
X107987225Y-118811146D01*
X108003393Y-118792214D01*
X108015557Y-118770492D01*
X108023250Y-118746814D01*
X108026200Y-118719600D01*
X108026200Y-107697806D01*
X114491403Y-101232603D01*
X114507197Y-101213357D01*
X114518933Y-101191401D01*
X114526160Y-101167576D01*
X114528600Y-101142800D01*
X114528600Y-74627320D01*
X120319800Y-68884785D01*
X120319800Y-70000594D01*
G36*
X119964200Y-59637394D02*
G01*
X113498997Y-66102597D01*
X113483203Y-66121843D01*
X113471467Y-66143799D01*
X113464240Y-66167624D01*
X113461800Y-66192400D01*
X113461800Y-100074194D01*
X106728994Y-106807000D01*
X104394000Y-106807000D01*
X104369224Y-106809440D01*
X104345399Y-106816667D01*
X104323443Y-106828403D01*
X104304197Y-106844197D01*
X102170597Y-108977797D01*
X102154803Y-108997043D01*
X102143067Y-109018999D01*
X102135840Y-109042824D01*
X102133400Y-109067600D01*
X102133400Y-116967000D01*
X101371400Y-116967000D01*
X101371400Y-108713806D01*
X104040206Y-106045000D01*
X106375200Y-106045000D01*
X106399976Y-106042560D01*
X106423801Y-106035333D01*
X106445757Y-106023597D01*
X106465003Y-106007803D01*
X112662603Y-99810203D01*
X112678397Y-99790957D01*
X112690133Y-99769001D01*
X112697360Y-99745176D01*
X112699800Y-99720400D01*
X112699800Y-65838606D01*
X119964200Y-58574206D01*
X119964200Y-59637394D01*
X119964200Y-59637394D01*
G37*
X119964200Y-59637394D02*
X113498997Y-66102597D01*
X113483203Y-66121843D01*
X113471467Y-66143799D01*
X113464240Y-66167624D01*
X113461800Y-66192400D01*
X113461800Y-100074194D01*
X106728994Y-106807000D01*
X104394000Y-106807000D01*
X104369224Y-106809440D01*
X104345399Y-106816667D01*
X104323443Y-106828403D01*
X104304197Y-106844197D01*
X102170597Y-108977797D01*
X102154803Y-108997043D01*
X102143067Y-109018999D01*
X102135840Y-109042824D01*
X102133400Y-109067600D01*
X102133400Y-116967000D01*
X101371400Y-116967000D01*
X101371400Y-108713806D01*
X104040206Y-106045000D01*
X106375200Y-106045000D01*
X106399976Y-106042560D01*
X106423801Y-106035333D01*
X106445757Y-106023597D01*
X106465003Y-106007803D01*
X112662603Y-99810203D01*
X112678397Y-99790957D01*
X112690133Y-99769001D01*
X112697360Y-99745176D01*
X112699800Y-99720400D01*
X112699800Y-65838606D01*
X119964200Y-58574206D01*
X119964200Y-59637394D01*
G36*
X119964200Y-51130200D02*
G01*
X118313200Y-51130200D01*
X118288424Y-51132640D01*
X118264599Y-51139867D01*
X118242643Y-51151603D01*
X118223397Y-51167397D01*
X111212997Y-58177797D01*
X111197203Y-58197043D01*
X111185467Y-58218999D01*
X111178240Y-58242824D01*
X111175800Y-58267600D01*
X111175800Y-99972594D01*
X106220994Y-104927400D01*
X98501200Y-104927400D01*
X98476424Y-104929840D01*
X98452599Y-104937067D01*
X98430643Y-104948803D01*
X98411397Y-104964597D01*
X95820597Y-107555397D01*
X95804803Y-107574643D01*
X95793067Y-107596599D01*
X95785840Y-107620424D01*
X95783400Y-107645200D01*
X95783400Y-116973191D01*
X95021400Y-117011291D01*
X95021400Y-107291406D01*
X98147406Y-104165400D01*
X105867200Y-104165400D01*
X105891976Y-104162960D01*
X105915801Y-104155733D01*
X105937757Y-104143997D01*
X105957003Y-104128203D01*
X110376603Y-99708603D01*
X110392397Y-99689357D01*
X110404133Y-99667401D01*
X110411360Y-99643576D01*
X110413800Y-99618800D01*
X110413800Y-57913806D01*
X117960623Y-50366983D01*
X119964200Y-50320388D01*
X119964200Y-51130200D01*
X119964200Y-51130200D01*
G37*
X119964200Y-51130200D02*
X118313200Y-51130200D01*
X118288424Y-51132640D01*
X118264599Y-51139867D01*
X118242643Y-51151603D01*
X118223397Y-51167397D01*
X111212997Y-58177797D01*
X111197203Y-58197043D01*
X111185467Y-58218999D01*
X111178240Y-58242824D01*
X111175800Y-58267600D01*
X111175800Y-99972594D01*
X106220994Y-104927400D01*
X98501200Y-104927400D01*
X98476424Y-104929840D01*
X98452599Y-104937067D01*
X98430643Y-104948803D01*
X98411397Y-104964597D01*
X95820597Y-107555397D01*
X95804803Y-107574643D01*
X95793067Y-107596599D01*
X95785840Y-107620424D01*
X95783400Y-107645200D01*
X95783400Y-116973191D01*
X95021400Y-117011291D01*
X95021400Y-107291406D01*
X98147406Y-104165400D01*
X105867200Y-104165400D01*
X105891976Y-104162960D01*
X105915801Y-104155733D01*
X105937757Y-104143997D01*
X105957003Y-104128203D01*
X110376603Y-99708603D01*
X110392397Y-99689357D01*
X110404133Y-99667401D01*
X110411360Y-99643576D01*
X110413800Y-99618800D01*
X110413800Y-57913806D01*
X117960623Y-50366983D01*
X119964200Y-50320388D01*
X119964200Y-51130200D01*
G36*
X119964200Y-44119800D02*
G01*
X114655600Y-44119800D01*
X114630824Y-44122240D01*
X114606999Y-44129467D01*
X114585043Y-44141203D01*
X114565797Y-44156997D01*
X109384197Y-49338597D01*
X109368403Y-49357843D01*
X109356667Y-49379799D01*
X109349440Y-49403624D01*
X109347000Y-49428400D01*
X109347000Y-99007394D01*
X106068594Y-102285800D01*
X93370400Y-102285800D01*
X93345624Y-102288240D01*
X93321799Y-102295467D01*
X93299843Y-102307203D01*
X93280597Y-102322997D01*
X89470597Y-106132997D01*
X89454803Y-106152243D01*
X89443067Y-106174199D01*
X89435840Y-106198024D01*
X89433400Y-106222800D01*
X89433400Y-116979066D01*
X88671400Y-117055266D01*
X88671400Y-105869006D01*
X93016606Y-101523800D01*
X105714800Y-101523800D01*
X105739576Y-101521360D01*
X105763401Y-101514133D01*
X105785357Y-101502397D01*
X105804603Y-101486603D01*
X108547803Y-98743403D01*
X108563597Y-98724157D01*
X108575333Y-98702201D01*
X108582560Y-98678376D01*
X108585000Y-98653600D01*
X108585000Y-49074606D01*
X114352606Y-43307000D01*
X119964200Y-43307000D01*
X119964200Y-44119800D01*
X119964200Y-44119800D01*
G37*
X119964200Y-44119800D02*
X114655600Y-44119800D01*
X114630824Y-44122240D01*
X114606999Y-44129467D01*
X114585043Y-44141203D01*
X114565797Y-44156997D01*
X109384197Y-49338597D01*
X109368403Y-49357843D01*
X109356667Y-49379799D01*
X109349440Y-49403624D01*
X109347000Y-49428400D01*
X109347000Y-99007394D01*
X106068594Y-102285800D01*
X93370400Y-102285800D01*
X93345624Y-102288240D01*
X93321799Y-102295467D01*
X93299843Y-102307203D01*
X93280597Y-102322997D01*
X89470597Y-106132997D01*
X89454803Y-106152243D01*
X89443067Y-106174199D01*
X89435840Y-106198024D01*
X89433400Y-106222800D01*
X89433400Y-116979066D01*
X88671400Y-117055266D01*
X88671400Y-105869006D01*
X93016606Y-101523800D01*
X105714800Y-101523800D01*
X105739576Y-101521360D01*
X105763401Y-101514133D01*
X105785357Y-101502397D01*
X105804603Y-101486603D01*
X108547803Y-98743403D01*
X108563597Y-98724157D01*
X108575333Y-98702201D01*
X108582560Y-98678376D01*
X108585000Y-98653600D01*
X108585000Y-49074606D01*
X114352606Y-43307000D01*
X119964200Y-43307000D01*
X119964200Y-44119800D01*
G36*
X76770597Y-113651397D02*
G01*
X76754803Y-113670643D01*
X76743067Y-113692599D01*
X76735840Y-113716424D01*
X76733400Y-113741200D01*
X76733400Y-125778994D01*
X64615794Y-137896600D01*
X54635400Y-137896600D01*
X54635400Y-137184740D01*
X64262661Y-137134598D01*
X64287425Y-137132029D01*
X64311211Y-137124678D01*
X64333106Y-137112828D01*
X64351803Y-137097403D01*
X75934203Y-125515003D01*
X75949997Y-125495757D01*
X75961733Y-125473801D01*
X75968960Y-125449976D01*
X75971400Y-125425200D01*
X75971400Y-113387406D01*
X90222606Y-99136200D01*
X91285794Y-99136200D01*
X76770597Y-113651397D01*
X76770597Y-113651397D01*
G37*
X76770597Y-113651397D02*
X76754803Y-113670643D01*
X76743067Y-113692599D01*
X76735840Y-113716424D01*
X76733400Y-113741200D01*
X76733400Y-125778994D01*
X64615794Y-137896600D01*
X54635400Y-137896600D01*
X54635400Y-137184740D01*
X64262661Y-137134598D01*
X64287425Y-137132029D01*
X64311211Y-137124678D01*
X64333106Y-137112828D01*
X64351803Y-137097403D01*
X75934203Y-125515003D01*
X75949997Y-125495757D01*
X75961733Y-125473801D01*
X75968960Y-125449976D01*
X75971400Y-125425200D01*
X75971400Y-113387406D01*
X90222606Y-99136200D01*
X91285794Y-99136200D01*
X76770597Y-113651397D01*
G36*
X71385797Y-111974997D02*
G01*
X71370003Y-111994243D01*
X71358267Y-112016199D01*
X71351040Y-112040024D01*
X71348600Y-112064800D01*
X71348600Y-127658594D01*
X63802994Y-135204200D01*
X49276000Y-135204200D01*
X49251224Y-135206640D01*
X49227399Y-135213867D01*
X49205443Y-135225603D01*
X49186197Y-135241397D01*
X47834502Y-136593092D01*
X47143061Y-136170545D01*
X48871406Y-134442200D01*
X63449200Y-134442200D01*
X63473976Y-134439760D01*
X63497801Y-134432533D01*
X63519757Y-134420797D01*
X63539003Y-134405003D01*
X70549403Y-127394603D01*
X70565197Y-127375357D01*
X70576933Y-127353401D01*
X70584160Y-127329576D01*
X70586600Y-127304800D01*
X70586600Y-111711006D01*
X83161406Y-99136200D01*
X84224594Y-99136200D01*
X71385797Y-111974997D01*
X71385797Y-111974997D01*
G37*
X71385797Y-111974997D02*
X71370003Y-111994243D01*
X71358267Y-112016199D01*
X71351040Y-112040024D01*
X71348600Y-112064800D01*
X71348600Y-127658594D01*
X63802994Y-135204200D01*
X49276000Y-135204200D01*
X49251224Y-135206640D01*
X49227399Y-135213867D01*
X49205443Y-135225603D01*
X49186197Y-135241397D01*
X47834502Y-136593092D01*
X47143061Y-136170545D01*
X48871406Y-134442200D01*
X63449200Y-134442200D01*
X63473976Y-134439760D01*
X63497801Y-134432533D01*
X63519757Y-134420797D01*
X63539003Y-134405003D01*
X70549403Y-127394603D01*
X70565197Y-127375357D01*
X70576933Y-127353401D01*
X70584160Y-127329576D01*
X70586600Y-127304800D01*
X70586600Y-111711006D01*
X83161406Y-99136200D01*
X84224594Y-99136200D01*
X71385797Y-111974997D01*
G36*
X74447400Y-94333794D02*
G01*
X68134597Y-100646597D01*
X68118803Y-100665843D01*
X68107067Y-100687799D01*
X68099840Y-100711624D01*
X68097400Y-100736164D01*
X68046698Y-128014096D01*
X62228194Y-133832600D01*
X43891200Y-133832600D01*
X43866424Y-133835040D01*
X43842599Y-133842267D01*
X43820643Y-133854003D01*
X43801397Y-133869797D01*
X41253398Y-136417796D01*
X40416201Y-136138730D01*
X43436392Y-133070600D01*
X61823600Y-133070600D01*
X61848376Y-133068160D01*
X61872201Y-133060933D01*
X61894157Y-133049197D01*
X61913403Y-133033403D01*
X67247403Y-127699403D01*
X67263197Y-127680157D01*
X67274933Y-127658201D01*
X67282160Y-127634376D01*
X67284600Y-127609600D01*
X67284600Y-100332319D01*
X74447400Y-93267640D01*
X74447400Y-94333794D01*
X74447400Y-94333794D01*
G37*
X74447400Y-94333794D02*
X68134597Y-100646597D01*
X68118803Y-100665843D01*
X68107067Y-100687799D01*
X68099840Y-100711624D01*
X68097400Y-100736164D01*
X68046698Y-128014096D01*
X62228194Y-133832600D01*
X43891200Y-133832600D01*
X43866424Y-133835040D01*
X43842599Y-133842267D01*
X43820643Y-133854003D01*
X43801397Y-133869797D01*
X41253398Y-136417796D01*
X40416201Y-136138730D01*
X43436392Y-133070600D01*
X61823600Y-133070600D01*
X61848376Y-133068160D01*
X61872201Y-133060933D01*
X61894157Y-133049197D01*
X61913403Y-133033403D01*
X67247403Y-127699403D01*
X67263197Y-127680157D01*
X67274933Y-127658201D01*
X67282160Y-127634376D01*
X67284600Y-127609600D01*
X67284600Y-100332319D01*
X74447400Y-93267640D01*
X74447400Y-94333794D01*
G36*
X65100200Y-101547394D02*
G01*
X63765797Y-102881797D01*
X63750003Y-102901043D01*
X63738267Y-102922999D01*
X63731040Y-102946824D01*
X63728600Y-102971600D01*
X63728600Y-128979394D01*
X61161394Y-131546600D01*
X54686200Y-131546600D01*
X54686200Y-130784600D01*
X60807600Y-130784600D01*
X60832376Y-130782160D01*
X60856201Y-130774933D01*
X60878157Y-130763197D01*
X60897403Y-130747403D01*
X62929403Y-128715403D01*
X62945197Y-128696157D01*
X62956933Y-128674201D01*
X62964160Y-128650376D01*
X62966600Y-128625600D01*
X62966600Y-102617806D01*
X64301003Y-101283403D01*
X64316797Y-101264157D01*
X64328533Y-101242201D01*
X64335760Y-101218376D01*
X64338200Y-101193600D01*
X64338200Y-99187000D01*
X65100200Y-99187000D01*
X65100200Y-101547394D01*
X65100200Y-101547394D01*
G37*
X65100200Y-101547394D02*
X63765797Y-102881797D01*
X63750003Y-102901043D01*
X63738267Y-102922999D01*
X63731040Y-102946824D01*
X63728600Y-102971600D01*
X63728600Y-128979394D01*
X61161394Y-131546600D01*
X54686200Y-131546600D01*
X54686200Y-130784600D01*
X60807600Y-130784600D01*
X60832376Y-130782160D01*
X60856201Y-130774933D01*
X60878157Y-130763197D01*
X60897403Y-130747403D01*
X62929403Y-128715403D01*
X62945197Y-128696157D01*
X62956933Y-128674201D01*
X62964160Y-128650376D01*
X62966600Y-128625600D01*
X62966600Y-102617806D01*
X64301003Y-101283403D01*
X64316797Y-101264157D01*
X64328533Y-101242201D01*
X64335760Y-101218376D01*
X64338200Y-101193600D01*
X64338200Y-99187000D01*
X65100200Y-99187000D01*
X65100200Y-101547394D01*
G36*
X58140600Y-108966000D02*
G01*
X58143040Y-108990776D01*
X58150267Y-109014601D01*
X58162003Y-109036557D01*
X58177797Y-109055803D01*
X61849000Y-112727006D01*
X61849000Y-127201394D01*
X60196194Y-128854200D01*
X49276000Y-128854200D01*
X49251224Y-128856640D01*
X49227399Y-128863867D01*
X49205443Y-128875603D01*
X49186197Y-128891397D01*
X47971698Y-130105896D01*
X47174307Y-129840099D01*
X48922206Y-128092200D01*
X59842400Y-128092200D01*
X59867176Y-128089760D01*
X59891001Y-128082533D01*
X59912957Y-128070797D01*
X59932203Y-128055003D01*
X61049803Y-126937403D01*
X61065597Y-126918157D01*
X61077333Y-126896201D01*
X61084560Y-126872376D01*
X61087000Y-126847600D01*
X61087000Y-113131600D01*
X61084560Y-113106824D01*
X61077333Y-113082999D01*
X61065597Y-113061043D01*
X61049803Y-113041797D01*
X57401092Y-109393086D01*
X57327800Y-109283148D01*
X57327800Y-99187000D01*
X58140600Y-99187000D01*
X58140600Y-108966000D01*
X58140600Y-108966000D01*
G37*
X58140600Y-108966000D02*
X58143040Y-108990776D01*
X58150267Y-109014601D01*
X58162003Y-109036557D01*
X58177797Y-109055803D01*
X61849000Y-112727006D01*
X61849000Y-127201394D01*
X60196194Y-128854200D01*
X49276000Y-128854200D01*
X49251224Y-128856640D01*
X49227399Y-128863867D01*
X49205443Y-128875603D01*
X49186197Y-128891397D01*
X47971698Y-130105896D01*
X47174307Y-129840099D01*
X48922206Y-128092200D01*
X59842400Y-128092200D01*
X59867176Y-128089760D01*
X59891001Y-128082533D01*
X59912957Y-128070797D01*
X59932203Y-128055003D01*
X61049803Y-126937403D01*
X61065597Y-126918157D01*
X61077333Y-126896201D01*
X61084560Y-126872376D01*
X61087000Y-126847600D01*
X61087000Y-113131600D01*
X61084560Y-113106824D01*
X61077333Y-113082999D01*
X61065597Y-113061043D01*
X61049803Y-113041797D01*
X57401092Y-109393086D01*
X57327800Y-109283148D01*
X57327800Y-99187000D01*
X58140600Y-99187000D01*
X58140600Y-108966000D01*
G36*
X51130200Y-109575600D02*
G01*
X51132640Y-109600376D01*
X51139867Y-109624201D01*
X51151603Y-109646157D01*
X51167397Y-109665403D01*
X51776997Y-110275003D01*
X51796243Y-110290797D01*
X51818199Y-110302533D01*
X51842024Y-110309760D01*
X51866800Y-110312200D01*
X55522594Y-110312200D01*
X59918600Y-114708206D01*
X59918600Y-125778994D01*
X58265794Y-127431800D01*
X44145200Y-127431800D01*
X44120424Y-127434240D01*
X44096599Y-127441467D01*
X44074643Y-127453203D01*
X44055397Y-127468997D01*
X41473013Y-130051381D01*
X40713593Y-129747613D01*
X43791406Y-126669800D01*
X57810400Y-126669800D01*
X57835176Y-126667360D01*
X57859001Y-126660133D01*
X57880957Y-126648397D01*
X57898272Y-126634493D01*
X59117472Y-125466093D01*
X59133672Y-125447188D01*
X59145872Y-125425486D01*
X59153605Y-125401820D01*
X59156600Y-125374400D01*
X59156600Y-115062000D01*
X59154160Y-115037224D01*
X59146933Y-115013399D01*
X59135197Y-114991443D01*
X59119403Y-114972197D01*
X55258603Y-111111397D01*
X55239357Y-111095603D01*
X55217401Y-111083867D01*
X55193576Y-111076640D01*
X55168800Y-111074200D01*
X51460630Y-111074200D01*
X50317400Y-109978605D01*
X50317400Y-99187000D01*
X51130200Y-99187000D01*
X51130200Y-109575600D01*
X51130200Y-109575600D01*
G37*
X51130200Y-109575600D02*
X51132640Y-109600376D01*
X51139867Y-109624201D01*
X51151603Y-109646157D01*
X51167397Y-109665403D01*
X51776997Y-110275003D01*
X51796243Y-110290797D01*
X51818199Y-110302533D01*
X51842024Y-110309760D01*
X51866800Y-110312200D01*
X55522594Y-110312200D01*
X59918600Y-114708206D01*
X59918600Y-125778994D01*
X58265794Y-127431800D01*
X44145200Y-127431800D01*
X44120424Y-127434240D01*
X44096599Y-127441467D01*
X44074643Y-127453203D01*
X44055397Y-127468997D01*
X41473013Y-130051381D01*
X40713593Y-129747613D01*
X43791406Y-126669800D01*
X57810400Y-126669800D01*
X57835176Y-126667360D01*
X57859001Y-126660133D01*
X57880957Y-126648397D01*
X57898272Y-126634493D01*
X59117472Y-125466093D01*
X59133672Y-125447188D01*
X59145872Y-125425486D01*
X59153605Y-125401820D01*
X59156600Y-125374400D01*
X59156600Y-115062000D01*
X59154160Y-115037224D01*
X59146933Y-115013399D01*
X59135197Y-114991443D01*
X59119403Y-114972197D01*
X55258603Y-111111397D01*
X55239357Y-111095603D01*
X55217401Y-111083867D01*
X55193576Y-111076640D01*
X55168800Y-111074200D01*
X51460630Y-111074200D01*
X50317400Y-109978605D01*
X50317400Y-99187000D01*
X51130200Y-99187000D01*
X51130200Y-109575600D01*
G36*
X35128200Y-42900600D02*
G01*
X27787600Y-42900600D01*
X27762824Y-42903040D01*
X27738999Y-42910267D01*
X27717043Y-42922003D01*
X27697797Y-42937797D01*
X22820997Y-47814597D01*
X22805203Y-47833843D01*
X22793467Y-47855799D01*
X22786240Y-47879624D01*
X22783800Y-47904400D01*
X22783800Y-120040400D01*
X22786240Y-120065176D01*
X22793467Y-120089001D01*
X22805203Y-120110957D01*
X22820997Y-120130203D01*
X27088197Y-124397403D01*
X27107443Y-124413197D01*
X27129399Y-124424933D01*
X27153224Y-124432160D01*
X27178000Y-124434600D01*
X39192200Y-124434600D01*
X39192200Y-125196600D01*
X26824206Y-125196600D01*
X22021800Y-120394194D01*
X22021800Y-47550606D01*
X27433806Y-42138600D01*
X35128200Y-42138600D01*
X35128200Y-42900600D01*
X35128200Y-42900600D01*
G37*
X35128200Y-42900600D02*
X27787600Y-42900600D01*
X27762824Y-42903040D01*
X27738999Y-42910267D01*
X27717043Y-42922003D01*
X27697797Y-42937797D01*
X22820997Y-47814597D01*
X22805203Y-47833843D01*
X22793467Y-47855799D01*
X22786240Y-47879624D01*
X22783800Y-47904400D01*
X22783800Y-120040400D01*
X22786240Y-120065176D01*
X22793467Y-120089001D01*
X22805203Y-120110957D01*
X22820997Y-120130203D01*
X27088197Y-124397403D01*
X27107443Y-124413197D01*
X27129399Y-124424933D01*
X27153224Y-124432160D01*
X27178000Y-124434600D01*
X39192200Y-124434600D01*
X39192200Y-125196600D01*
X26824206Y-125196600D01*
X22021800Y-120394194D01*
X22021800Y-47550606D01*
X27433806Y-42138600D01*
X35128200Y-42138600D01*
X35128200Y-42900600D01*
G36*
X35128200Y-50063400D02*
G01*
X32816800Y-50063400D01*
X32792024Y-50065840D01*
X32768199Y-50073067D01*
X32746243Y-50084803D01*
X32726997Y-50100597D01*
X24903797Y-57923797D01*
X24888003Y-57943043D01*
X24876267Y-57964999D01*
X24869040Y-57988824D01*
X24866600Y-58013600D01*
X24866600Y-116535200D01*
X24869040Y-116559976D01*
X24876267Y-116583801D01*
X24888003Y-116605757D01*
X24903797Y-116625003D01*
X30136197Y-121857403D01*
X30155443Y-121873197D01*
X30177399Y-121884933D01*
X30201224Y-121892160D01*
X30226000Y-121894600D01*
X42568594Y-121894600D01*
X45071397Y-124397403D01*
X45090643Y-124413197D01*
X45112599Y-124424933D01*
X45136424Y-124432160D01*
X45161200Y-124434600D01*
X45542200Y-124434600D01*
X45542200Y-125196600D01*
X44807406Y-125196600D01*
X42304603Y-122693797D01*
X42285357Y-122678003D01*
X42263401Y-122666267D01*
X42239576Y-122659040D01*
X42214800Y-122656600D01*
X29872206Y-122656600D01*
X24053845Y-116838239D01*
X24104555Y-57558475D01*
X32462780Y-49250600D01*
X35128200Y-49250600D01*
X35128200Y-50063400D01*
X35128200Y-50063400D01*
G37*
X35128200Y-50063400D02*
X32816800Y-50063400D01*
X32792024Y-50065840D01*
X32768199Y-50073067D01*
X32746243Y-50084803D01*
X32726997Y-50100597D01*
X24903797Y-57923797D01*
X24888003Y-57943043D01*
X24876267Y-57964999D01*
X24869040Y-57988824D01*
X24866600Y-58013600D01*
X24866600Y-116535200D01*
X24869040Y-116559976D01*
X24876267Y-116583801D01*
X24888003Y-116605757D01*
X24903797Y-116625003D01*
X30136197Y-121857403D01*
X30155443Y-121873197D01*
X30177399Y-121884933D01*
X30201224Y-121892160D01*
X30226000Y-121894600D01*
X42568594Y-121894600D01*
X45071397Y-124397403D01*
X45090643Y-124413197D01*
X45112599Y-124424933D01*
X45136424Y-124432160D01*
X45161200Y-124434600D01*
X45542200Y-124434600D01*
X45542200Y-125196600D01*
X44807406Y-125196600D01*
X42304603Y-122693797D01*
X42285357Y-122678003D01*
X42263401Y-122666267D01*
X42239576Y-122659040D01*
X42214800Y-122656600D01*
X29872206Y-122656600D01*
X24053845Y-116838239D01*
X24104555Y-57558475D01*
X32462780Y-49250600D01*
X35128200Y-49250600D01*
X35128200Y-50063400D01*
G36*
X35128200Y-57073800D02*
G01*
X33578800Y-57073800D01*
X33554024Y-57076240D01*
X33530199Y-57083467D01*
X33508243Y-57095203D01*
X33488997Y-57110997D01*
X26834197Y-63765797D01*
X26818403Y-63785043D01*
X26806667Y-63806999D01*
X26799440Y-63830824D01*
X26797000Y-63855600D01*
X26797000Y-111861600D01*
X26799440Y-111886376D01*
X26806667Y-111910201D01*
X26818403Y-111932157D01*
X26834197Y-111951403D01*
X35266997Y-120384203D01*
X35286243Y-120399997D01*
X35308199Y-120411733D01*
X35332024Y-120418960D01*
X35356800Y-120421400D01*
X50239394Y-120421400D01*
X53204243Y-123386249D01*
X52359148Y-123655142D01*
X49924603Y-121220597D01*
X49905357Y-121204803D01*
X49883401Y-121193067D01*
X49859576Y-121185840D01*
X49834800Y-121183400D01*
X35003006Y-121183400D01*
X25984255Y-112164649D01*
X26034945Y-63451319D01*
X33275546Y-56261000D01*
X35128200Y-56261000D01*
X35128200Y-57073800D01*
X35128200Y-57073800D01*
G37*
X35128200Y-57073800D02*
X33578800Y-57073800D01*
X33554024Y-57076240D01*
X33530199Y-57083467D01*
X33508243Y-57095203D01*
X33488997Y-57110997D01*
X26834197Y-63765797D01*
X26818403Y-63785043D01*
X26806667Y-63806999D01*
X26799440Y-63830824D01*
X26797000Y-63855600D01*
X26797000Y-111861600D01*
X26799440Y-111886376D01*
X26806667Y-111910201D01*
X26818403Y-111932157D01*
X26834197Y-111951403D01*
X35266997Y-120384203D01*
X35286243Y-120399997D01*
X35308199Y-120411733D01*
X35332024Y-120418960D01*
X35356800Y-120421400D01*
X50239394Y-120421400D01*
X53204243Y-123386249D01*
X52359148Y-123655142D01*
X49924603Y-121220597D01*
X49905357Y-121204803D01*
X49883401Y-121193067D01*
X49859576Y-121185840D01*
X49834800Y-121183400D01*
X35003006Y-121183400D01*
X25984255Y-112164649D01*
X26034945Y-63451319D01*
X33275546Y-56261000D01*
X35128200Y-56261000D01*
X35128200Y-57073800D01*
G36*
X35433000Y-69977000D02*
G01*
X35204400Y-69977000D01*
X35179624Y-69979440D01*
X35155799Y-69986667D01*
X35133843Y-69998403D01*
X35114597Y-70014197D01*
X28713797Y-76414997D01*
X28698003Y-76434243D01*
X28686267Y-76456199D01*
X28679040Y-76480024D01*
X28676600Y-76504800D01*
X28676600Y-102971600D01*
X28679040Y-102996376D01*
X28686267Y-103020201D01*
X28698003Y-103042157D01*
X28713797Y-103061403D01*
X40970200Y-115317806D01*
X40970200Y-117068600D01*
X40208200Y-117068600D01*
X40208200Y-115671600D01*
X40205760Y-115646824D01*
X40198533Y-115622999D01*
X40186797Y-115601043D01*
X40171003Y-115581797D01*
X27914600Y-103325394D01*
X27914600Y-76100476D01*
X34850335Y-69215000D01*
X35433000Y-69215000D01*
X35433000Y-69977000D01*
X35433000Y-69977000D01*
G37*
X35433000Y-69977000D02*
X35204400Y-69977000D01*
X35179624Y-69979440D01*
X35155799Y-69986667D01*
X35133843Y-69998403D01*
X35114597Y-70014197D01*
X28713797Y-76414997D01*
X28698003Y-76434243D01*
X28686267Y-76456199D01*
X28679040Y-76480024D01*
X28676600Y-76504800D01*
X28676600Y-102971600D01*
X28679040Y-102996376D01*
X28686267Y-103020201D01*
X28698003Y-103042157D01*
X28713797Y-103061403D01*
X40970200Y-115317806D01*
X40970200Y-117068600D01*
X40208200Y-117068600D01*
X40208200Y-115671600D01*
X40205760Y-115646824D01*
X40198533Y-115622999D01*
X40186797Y-115601043D01*
X40171003Y-115581797D01*
X27914600Y-103325394D01*
X27914600Y-76100476D01*
X34850335Y-69215000D01*
X35433000Y-69215000D01*
X35433000Y-69977000D01*
G36*
X31050597Y-84847797D02*
G01*
X31034803Y-84867043D01*
X31023067Y-84888999D01*
X31015840Y-84912824D01*
X31013400Y-84937600D01*
X31013400Y-101955600D01*
X31015840Y-101980376D01*
X31023067Y-102004201D01*
X31034803Y-102026157D01*
X31050597Y-102045403D01*
X46244951Y-117239757D01*
X45675386Y-117733380D01*
X30251400Y-102309394D01*
X30251400Y-84533006D01*
X35612606Y-79171800D01*
X36726594Y-79171800D01*
X31050597Y-84847797D01*
X31050597Y-84847797D01*
G37*
X31050597Y-84847797D02*
X31034803Y-84867043D01*
X31023067Y-84888999D01*
X31015840Y-84912824D01*
X31013400Y-84937600D01*
X31013400Y-101955600D01*
X31015840Y-101980376D01*
X31023067Y-102004201D01*
X31034803Y-102026157D01*
X31050597Y-102045403D01*
X46244951Y-117239757D01*
X45675386Y-117733380D01*
X30251400Y-102309394D01*
X30251400Y-84533006D01*
X35612606Y-79171800D01*
X36726594Y-79171800D01*
X31050597Y-84847797D01*
G36*
X35433000Y-86055200D02*
G01*
X35435440Y-86079976D01*
X35442667Y-86103801D01*
X35454403Y-86125757D01*
X35470197Y-86145003D01*
X35489443Y-86160797D01*
X35511399Y-86172533D01*
X35535224Y-86179760D01*
X35558356Y-86182038D01*
X34047797Y-87692597D01*
X34032003Y-87711843D01*
X34020267Y-87733799D01*
X34013040Y-87757624D01*
X34010600Y-87782400D01*
X34010600Y-100736400D01*
X34013040Y-100761176D01*
X34020267Y-100785001D01*
X34032003Y-100806957D01*
X34047797Y-100826203D01*
X40702597Y-107481003D01*
X40721843Y-107496797D01*
X40743799Y-107508533D01*
X40767624Y-107515760D01*
X40792400Y-107518200D01*
X42822594Y-107518200D01*
X52553838Y-117249444D01*
X52016051Y-117825645D01*
X42507803Y-108317397D01*
X42488557Y-108301603D01*
X42466601Y-108289867D01*
X42442776Y-108282640D01*
X42418000Y-108280200D01*
X40438606Y-108280200D01*
X33248600Y-101090194D01*
X33248600Y-87428606D01*
X35433000Y-85244206D01*
X35433000Y-86055200D01*
X35433000Y-86055200D01*
G37*
X35433000Y-86055200D02*
X35435440Y-86079976D01*
X35442667Y-86103801D01*
X35454403Y-86125757D01*
X35470197Y-86145003D01*
X35489443Y-86160797D01*
X35511399Y-86172533D01*
X35535224Y-86179760D01*
X35558356Y-86182038D01*
X34047797Y-87692597D01*
X34032003Y-87711843D01*
X34020267Y-87733799D01*
X34013040Y-87757624D01*
X34010600Y-87782400D01*
X34010600Y-100736400D01*
X34013040Y-100761176D01*
X34020267Y-100785001D01*
X34032003Y-100806957D01*
X34047797Y-100826203D01*
X40702597Y-107481003D01*
X40721843Y-107496797D01*
X40743799Y-107508533D01*
X40767624Y-107515760D01*
X40792400Y-107518200D01*
X42822594Y-107518200D01*
X52553838Y-117249444D01*
X52016051Y-117825645D01*
X42507803Y-108317397D01*
X42488557Y-108301603D01*
X42466601Y-108289867D01*
X42442776Y-108282640D01*
X42418000Y-108280200D01*
X40438606Y-108280200D01*
X33248600Y-101090194D01*
X33248600Y-87428606D01*
X35433000Y-85244206D01*
X35433000Y-86055200D01*
M02*
